<svg width="118" height="114" viewBox="0 0 118 114" fill="none" xmlns="http://www.w3.org/2000/svg">
<path d="M59.2106 112.991C88.0942 112.991 111.509 89.576 111.509 60.6924C111.509 31.8087 88.0942 8.39392 59.2106 8.39392C30.3269 8.39392 6.91211 31.8087 6.91211 60.6924C6.91211 89.576 30.3269 112.991 59.2106 112.991Z" fill="url(#paint0_linear_237_15358)"/>
<path d="M87.425 20.5636H29.4894C25.8781 20.5636 22.9507 23.4911 22.9507 27.1023H93.9637C93.9637 23.4911 91.0362 20.5636 87.425 20.5636Z" fill="url(#paint1_linear_237_15358)"/>
<path d="M22.9507 26.9236H93.9637V81.0083C93.9637 83.4129 93.0085 85.7191 91.3081 87.4194C89.6078 89.1198 87.3016 90.075 84.897 90.075H32.0174C29.6128 90.075 27.3066 89.1198 25.6063 87.4194C23.9059 85.7191 22.9507 83.4129 22.9507 81.0083V26.9236Z" fill="url(#paint2_linear_237_15358)"/>
<path d="M81.7573 33.755H35.1806C34.2106 33.755 33.4243 34.5405 33.4243 35.5094C33.4243 36.4784 34.2106 37.2638 35.1806 37.2638H81.7573C82.7273 37.2638 83.5136 36.4784 83.5136 35.5094C83.5136 34.5405 82.7273 33.755 81.7573 33.755Z" fill="url(#paint3_linear_237_15358)"/>
<path d="M81.7573 48.6627H35.1806C34.2106 48.6627 33.4243 49.4482 33.4243 50.4171C33.4243 51.3861 34.2106 52.1716 35.1806 52.1716H81.7573C82.7273 52.1716 83.5136 51.3861 83.5136 50.4171C83.5136 49.4482 82.7273 48.6627 81.7573 48.6627Z" fill="url(#paint4_linear_237_15358)"/>
<path d="M81.7573 63.5703H35.1806C34.2106 63.5703 33.4243 64.3558 33.4243 65.3247C33.4243 66.2937 34.2106 67.0791 35.1806 67.0791H81.7573C82.7273 67.0791 83.5136 66.2937 83.5136 65.3247C83.5136 64.3558 82.7273 63.5703 81.7573 63.5703Z" fill="url(#paint5_linear_237_15358)"/>
<path d="M81.7573 78.4779H35.1806C34.2106 78.4779 33.4243 79.2634 33.4243 80.2323C33.4243 81.2013 34.2106 81.9867 35.1806 81.9867H81.7573C82.7273 81.9867 83.5136 81.2013 83.5136 80.2323C83.5136 79.2634 82.7273 78.4779 81.7573 78.4779Z" fill="url(#paint6_linear_237_15358)"/>
<g filter="url(#filter0_d_237_15358)">
<path d="M34.8656 60.3728H10.0642C8.07175 60.3728 6.45654 61.988 6.45654 63.9805V99.43C6.45654 101.422 8.07175 103.038 10.0642 103.038H34.8656C36.858 103.038 38.4732 101.422 38.4732 99.43V63.9805C38.4732 61.988 36.858 60.3728 34.8656 60.3728Z" fill="url(#paint7_linear_237_15358)"/>
</g>
<g filter="url(#filter1_d_237_15358)">
<path d="M105.467 5H78.0726C76.7961 5 75.7612 6.03482 75.7612 7.31134V20.1872C75.7612 21.4637 76.7961 22.4986 78.0726 22.4986H105.467C106.743 22.4986 107.778 21.4637 107.778 20.1872V7.31134C107.778 6.03482 106.743 5 105.467 5Z" fill="url(#paint8_linear_237_15358)"/>
</g>
<path d="M32.0982 78.1071H12.8319C12.1831 78.1071 11.6572 78.633 11.6572 79.2817V79.2855C11.6572 79.9343 12.1831 80.4602 12.8319 80.4602H32.0982C32.7469 80.4602 33.2729 79.9343 33.2729 79.2855V79.2817C33.2729 78.633 32.7469 78.1071 32.0982 78.1071Z" fill="url(#paint9_linear_237_15358)"/>
<path d="M32.1085 94.665H13.0078C12.3647 94.665 11.8433 95.1746 11.8433 95.8031V95.8068C11.8433 96.4353 12.3647 96.9448 13.0078 96.9448H32.1085C32.7517 96.9448 33.2731 96.4353 33.2731 95.8068V95.8031C33.2731 95.1746 32.7517 94.665 32.1085 94.665Z" fill="url(#paint10_linear_237_15358)"/>
<path d="M32.1085 86.0018H13.0078C12.3647 86.0018 11.8433 86.5114 11.8433 87.1399V87.1436C11.8433 87.7721 12.3647 88.2816 13.0078 88.2816H32.1085C32.7517 88.2816 33.2731 87.7721 33.2731 87.1436V87.1399C33.2731 86.5114 32.7517 86.0018 32.1085 86.0018Z" fill="url(#paint11_linear_237_15358)"/>
<path d="M19.8755 65.847H14.2454C12.9983 65.847 11.9873 66.858 11.9873 68.1052V69.6676C11.9873 70.9147 12.9983 71.9257 14.2454 71.9257H19.8755C21.1227 71.9257 22.1337 70.9147 22.1337 69.6676V68.1052C22.1337 66.858 21.1227 65.847 19.8755 65.847Z" fill="url(#paint12_linear_237_15358)"/>
<path d="M82.5211 16.4048C83.9886 16.4048 85.1783 15.2151 85.1783 13.7475C85.1783 12.2799 83.9886 11.0902 82.5211 11.0902C81.0535 11.0902 79.8638 12.2799 79.8638 13.7475C79.8638 15.2151 81.0535 16.4048 82.5211 16.4048Z" fill="#81D5E7"/>
<path d="M92.0176 16.4048C93.4852 16.4048 94.6749 15.2151 94.6749 13.7475C94.6749 12.2799 93.4852 11.0902 92.0176 11.0902C90.5501 11.0902 89.3604 12.2799 89.3604 13.7475C89.3604 15.2151 90.5501 16.4048 92.0176 16.4048Z" fill="#81D5E7"/>
<path d="M101.514 16.4048C102.981 16.4048 104.171 15.2151 104.171 13.7475C104.171 12.2799 102.981 11.0902 101.514 11.0902C100.046 11.0902 98.8564 12.2799 98.8564 13.7475C98.8564 15.2151 100.046 16.4048 101.514 16.4048Z" fill="#81D5E7"/>
<path d="M94.3096 79.7841L87.5796 87.2036L106.549 104.41L113.279 96.9909L94.3096 79.7841Z" fill="url(#paint13_linear_237_15358)"/>
<path fill-rule="evenodd" clip-rule="evenodd" d="M101.422 67.5037C101.422 83.0256 88.8387 95.6086 73.3168 95.6086C57.7949 95.6086 45.2119 83.0256 45.2119 67.5037C45.2119 51.9818 57.7949 39.3988 73.3168 39.3988C88.8387 39.3988 101.422 51.9818 101.422 67.5037ZM97.1108 67.5037C97.1108 80.6447 86.4579 91.2976 73.3169 91.2976C60.1759 91.2976 49.523 80.6447 49.523 67.5037C49.523 54.3627 60.1759 43.7098 73.3169 43.7098C86.4579 43.7098 97.1108 54.3627 97.1108 67.5037Z" fill="url(#paint14_linear_237_15358)"/>
<g filter="url(#filter2_b_237_15358)">
<path d="M73.3174 91.2977C86.4584 91.2977 97.1113 80.6448 97.1113 67.5038C97.1113 54.3627 86.4584 43.7098 73.3174 43.7098C60.1763 43.7098 49.5234 54.3627 49.5234 67.5038C49.5234 80.6448 60.1763 91.2977 73.3174 91.2977Z" fill="url(#paint15_linear_237_15358)" fill-opacity="0.2"/>
</g>
<path d="M79.0347 67.5038L85.8395 60.6838C86.477 60.0091 86.8262 59.1125 86.8131 58.1843C86.7999 57.2562 86.4254 56.3697 85.769 55.7134C85.1127 55.057 84.2262 54.6825 83.2981 54.6693C82.37 54.6562 81.4733 55.0055 80.7986 55.643L73.9786 62.463L67.1738 55.643C66.8464 55.2964 66.4528 55.0191 66.0162 54.8273C65.5797 54.6355 65.1092 54.5332 64.6325 54.5265C64.1557 54.5197 63.6825 54.6086 63.2407 54.788C62.799 54.9673 62.3977 55.2334 62.0605 55.5705C61.7234 55.9077 61.4573 56.309 61.278 56.7508C61.0986 57.1925 61.0097 57.6658 61.0165 58.1425C61.0232 58.6192 61.1255 59.0898 61.3173 59.5263C61.5091 59.9628 61.7864 60.3564 62.133 60.6838L68.9492 67.5038L62.133 74.3238C61.7864 74.6513 61.5091 75.0449 61.3173 75.4814C61.1255 75.9179 61.0232 76.3884 61.0165 76.8652C61.0097 77.3419 61.0986 77.8151 61.278 78.2569C61.4573 78.6987 61.7234 79.1 62.0605 79.4371C62.3977 79.7742 62.799 80.0403 63.2407 80.2197C63.6825 80.399 64.1557 80.4879 64.6325 80.4812C65.1092 80.4744 65.5797 80.3721 66.0162 80.1804C66.4528 79.9886 66.8464 79.7112 67.1738 79.3647L73.9938 72.5447L80.8138 79.3647C81.4949 79.9646 82.3791 80.2822 83.2862 80.2528C84.1934 80.2234 85.0551 79.8492 85.696 79.2064C86.3368 78.5637 86.7084 77.7008 86.735 76.7935C86.7617 75.8863 86.4414 75.0031 85.8395 74.3238L79.0347 67.5038Z" fill="url(#paint16_linear_237_15358)"/>
<g filter="url(#filter3_f_237_15358)">
<ellipse cx="74.1043" cy="80.6457" rx="16.7268" ry="2.47101" fill="#EC5575" fill-opacity="0.56"/>
</g>
<path d="M54.7731 97.0594C55.009 96.0818 56.3995 96.0818 56.6355 97.0594L57.4298 100.35C57.5141 100.699 57.7868 100.972 58.1362 101.056L61.4264 101.85C62.4039 102.086 62.4039 103.477 61.4264 103.713L58.1362 104.507C57.7868 104.591 57.5141 104.864 57.4298 105.213L56.6355 108.504C56.3995 109.481 55.009 109.481 54.7731 108.504L53.9788 105.213C53.8945 104.864 53.6217 104.591 53.2724 104.507L49.9822 103.713C49.0046 103.477 49.0046 102.086 49.9822 101.85L53.2724 101.056C53.6217 100.972 53.8945 100.699 53.9788 100.35L54.7731 97.0594Z" fill="url(#paint17_linear_237_15358)"/>
<path d="M16.9288 9.51592C17.1648 8.53834 18.5553 8.53833 18.7913 9.51591L19.5855 12.8061C19.6698 13.1554 19.9426 13.4282 20.292 13.5125L23.5821 14.3068C24.5597 14.5427 24.5597 15.9332 23.5821 16.1692L20.292 16.9634C19.9426 17.0478 19.6698 17.3205 19.5855 17.6699L18.7913 20.9601C18.5553 21.9376 17.1648 21.9376 16.9288 20.9601L16.1346 17.6699C16.0503 17.3205 15.7775 17.0478 15.4282 16.9634L12.138 16.1692C11.1604 15.9332 11.1604 14.5427 12.138 14.3068L15.4282 13.5125C15.7775 13.4282 16.0503 13.1554 16.1346 12.8061L16.9288 9.51592Z" fill="url(#paint18_linear_237_15358)"/>
<path fill-rule="evenodd" clip-rule="evenodd" d="M57.1256 10.0489C58.0074 10.0489 58.7223 9.3341 58.7223 8.45231C58.7223 7.57051 58.0074 6.85568 57.1256 6.85568C56.2439 6.85568 55.529 7.57051 55.529 8.45231C55.529 9.3341 56.2439 10.0489 57.1256 10.0489ZM57.1256 11.2464C58.6688 11.2464 59.9197 9.99545 59.9197 8.45231C59.9197 6.90917 58.6688 5.6582 57.1256 5.6582C55.5825 5.6582 54.3315 6.90917 54.3315 8.45231C54.3315 9.99545 55.5825 11.2464 57.1256 11.2464Z" fill="url(#paint19_linear_237_15358)"/>
<path d="M106.773 54.0137C106.621 53.4182 107.171 52.8816 107.762 53.0479L111.756 54.1701C112.348 54.3364 112.537 55.0808 112.098 55.51L109.129 58.4073C108.689 58.8366 107.95 58.6287 107.798 58.0333L106.773 54.0137Z" fill="url(#paint20_linear_237_15358)"/>
<path d="M13.1642 47.1584C13.7599 47.0074 14.2957 47.5578 14.1287 48.1492L13.0013 52.1412C12.8343 52.7326 12.0897 52.9215 11.661 52.4811L8.7675 49.5088C8.33883 49.0684 8.54761 48.3291 9.14329 48.1781L13.1642 47.1584Z" fill="url(#paint21_linear_237_15358)"/>
<path d="M89.3097 102.329C89.9054 102.178 90.4412 102.728 90.2742 103.32L89.1468 107.312C88.9798 107.903 88.2352 108.092 87.8065 107.652L84.913 104.679C84.4843 104.239 84.6931 103.5 85.2888 103.349L89.3097 102.329Z" fill="url(#paint22_linear_237_15358)"/>
<path fill-rule="evenodd" clip-rule="evenodd" d="M110.472 33.3026C111.354 33.3026 112.069 32.5878 112.069 31.706C112.069 30.8242 111.354 30.1093 110.472 30.1093C109.591 30.1093 108.876 30.8242 108.876 31.706C108.876 32.5878 109.591 33.3026 110.472 33.3026ZM110.472 34.5001C112.015 34.5001 113.266 33.2491 113.266 31.706C113.266 30.1628 112.015 28.9119 110.472 28.9119C108.929 28.9119 107.678 30.1628 107.678 31.706C107.678 33.2491 108.929 34.5001 110.472 34.5001Z" fill="url(#paint23_linear_237_15358)"/>
<path d="M106.548 104.411L113.278 96.9917L114.292 97.9112C115.276 98.8033 115.864 100.05 115.929 101.376C115.994 102.702 115.529 104 114.637 104.983C113.745 105.967 112.498 106.556 111.172 106.62C109.846 106.685 108.548 106.22 107.565 105.328L106.551 104.408L106.548 104.411Z" fill="#65C8DE"/>
<defs>
<filter id="filter0_d_237_15358" x="0.985087" y="56.7252" width="45.6952" height="56.3434" filterUnits="userSpaceOnUse" color-interpolation-filters="sRGB">
<feFlood flood-opacity="0" result="BackgroundImageFix"/>
<feColorMatrix in="SourceAlpha" type="matrix" values="0 0 0 0 0 0 0 0 0 0 0 0 0 0 0 0 0 0 127 0" result="hardAlpha"/>
<feOffset dx="1.36786" dy="3.19168"/>
<feGaussianBlur stdDeviation="3.41966"/>
<feComposite in2="hardAlpha" operator="out"/>
<feColorMatrix type="matrix" values="0 0 0 0 0.104618 0 0 0 0 0.465612 0 0 0 0 0.545833 0 0 0 0.15 0"/>
<feBlend mode="normal" in2="BackgroundImageFix" result="effect1_dropShadow_237_15358"/>
<feBlend mode="normal" in="SourceGraphic" in2="effect1_dropShadow_237_15358" result="shape"/>
</filter>
<filter id="filter1_d_237_15358" x="72.5695" y="0.896408" width="43.8714" height="29.3534" filterUnits="userSpaceOnUse" color-interpolation-filters="sRGB">
<feFlood flood-opacity="0" result="BackgroundImageFix"/>
<feColorMatrix in="SourceAlpha" type="matrix" values="0 0 0 0 0 0 0 0 0 0 0 0 0 0 0 0 0 0 127 0" result="hardAlpha"/>
<feOffset dx="2.73573" dy="1.82382"/>
<feGaussianBlur stdDeviation="2.96371"/>
<feComposite in2="hardAlpha" operator="out"/>
<feColorMatrix type="matrix" values="0 0 0 0 0.104618 0 0 0 0 0.465612 0 0 0 0 0.545833 0 0 0 0.09 0"/>
<feBlend mode="normal" in2="BackgroundImageFix" result="effect1_dropShadow_237_15358"/>
<feBlend mode="normal" in="SourceGraphic" in2="effect1_dropShadow_237_15358" result="shape"/>
</filter>
<filter id="filter2_b_237_15358" x="41.9203" y="36.1067" width="62.7941" height="62.7941" filterUnits="userSpaceOnUse" color-interpolation-filters="sRGB">
<feFlood flood-opacity="0" result="BackgroundImageFix"/>
<feGaussianBlur in="BackgroundImageFix" stdDeviation="3.80155"/>
<feComposite in2="SourceAlpha" operator="in" result="effect1_backgroundBlur_237_15358"/>
<feBlend mode="normal" in="SourceGraphic" in2="effect1_backgroundBlur_237_15358" result="shape"/>
</filter>
<filter id="filter3_f_237_15358" x="47.8736" y="68.6708" width="52.4614" height="23.9498" filterUnits="userSpaceOnUse" color-interpolation-filters="sRGB">
<feFlood flood-opacity="0" result="BackgroundImageFix"/>
<feBlend mode="normal" in="SourceGraphic" in2="BackgroundImageFix" result="shape"/>
<feGaussianBlur stdDeviation="4.75194" result="effect1_foregroundBlur_237_15358"/>
</filter>
<linearGradient id="paint0_linear_237_15358" x1="58.8074" y1="-8.63574" x2="59.8788" y2="175.029" gradientUnits="userSpaceOnUse">
<stop stop-color="white" stop-opacity="0"/>
<stop offset="1" stop-color="#8EE2F4"/>
</linearGradient>
<linearGradient id="paint1_linear_237_15358" x1="22.8703" y1="22.0726" x2="93.9992" y2="27.0881" gradientUnits="userSpaceOnUse">
<stop stop-color="#90E3F5"/>
<stop offset="1" stop-color="#65C8DE"/>
</linearGradient>
<linearGradient id="paint2_linear_237_15358" x1="20.8185" y1="74.2794" x2="123.408" y2="76.1032" gradientUnits="userSpaceOnUse">
<stop stop-color="white"/>
<stop offset="1" stop-color="#BCF3FF"/>
</linearGradient>
<linearGradient id="paint3_linear_237_15358" x1="31.3058" y1="37.1191" x2="86.4763" y2="37.1191" gradientUnits="userSpaceOnUse">
<stop stop-color="#65C8DE"/>
<stop offset="1" stop-color="#D2F7FF"/>
</linearGradient>
<linearGradient id="paint4_linear_237_15358" x1="31.3058" y1="52.0269" x2="86.4763" y2="52.0269" gradientUnits="userSpaceOnUse">
<stop stop-color="#65C8DE"/>
<stop offset="1" stop-color="#D2F7FF"/>
</linearGradient>
<linearGradient id="paint5_linear_237_15358" x1="31.3058" y1="66.9344" x2="86.4763" y2="66.9344" gradientUnits="userSpaceOnUse">
<stop stop-color="#65C8DE"/>
<stop offset="1" stop-color="#D2F7FF"/>
</linearGradient>
<linearGradient id="paint6_linear_237_15358" x1="31.3058" y1="81.842" x2="86.4763" y2="81.842" gradientUnits="userSpaceOnUse">
<stop stop-color="#65C8DE"/>
<stop offset="1" stop-color="#D2F7FF"/>
</linearGradient>
<linearGradient id="paint7_linear_237_15358" x1="5.49522" y1="92.3662" x2="66.8606" y2="97.4062" gradientUnits="userSpaceOnUse">
<stop stop-color="white"/>
<stop offset="1" stop-color="#BCF3FF"/>
</linearGradient>
<linearGradient id="paint8_linear_237_15358" x1="74.7999" y1="18.1218" x2="121.029" y2="19.459" gradientUnits="userSpaceOnUse">
<stop stop-color="white"/>
<stop offset="1" stop-color="#BCF3FF"/>
</linearGradient>
<linearGradient id="paint9_linear_237_15358" x1="35.7814" y1="80.5304" x2="9.792" y2="80.5304" gradientUnits="userSpaceOnUse">
<stop stop-color="#D2F7FF"/>
<stop offset="1" stop-color="#65C8DE"/>
</linearGradient>
<linearGradient id="paint10_linear_237_15358" x1="35.7601" y1="97.0128" x2="9.99407" y2="97.0128" gradientUnits="userSpaceOnUse">
<stop stop-color="#D2F7FF"/>
<stop offset="1" stop-color="#65C8DE"/>
</linearGradient>
<linearGradient id="paint11_linear_237_15358" x1="35.7601" y1="88.3496" x2="9.99407" y2="88.3496" gradientUnits="userSpaceOnUse">
<stop stop-color="#D2F7FF"/>
<stop offset="1" stop-color="#65C8DE"/>
</linearGradient>
<linearGradient id="paint12_linear_237_15358" x1="29.1694" y1="71.8672" x2="10.7032" y2="71.8672" gradientUnits="userSpaceOnUse">
<stop offset="0.243799" stop-color="#D2F7FF"/>
<stop offset="1" stop-color="#6BCBE0"/>
</linearGradient>
<linearGradient id="paint13_linear_237_15358" x1="91.9499" y1="91.1831" x2="98.7433" y2="83.7318" gradientUnits="userSpaceOnUse">
<stop stop-color="#90E3F5"/>
<stop offset="1" stop-color="#65C8DE"/>
</linearGradient>
<linearGradient id="paint14_linear_237_15358" x1="45.1483" y1="52.3712" x2="101.727" y2="52.7386" gradientUnits="userSpaceOnUse">
<stop stop-color="#90E3F5"/>
<stop offset="1" stop-color="#65C8DE"/>
</linearGradient>
<linearGradient id="paint15_linear_237_15358" x1="73.3174" y1="43.7098" x2="97.2938" y2="105.926" gradientUnits="userSpaceOnUse">
<stop stop-color="white"/>
<stop offset="1" stop-color="#D2F7FF"/>
</linearGradient>
<linearGradient id="paint16_linear_237_15358" x1="61.1395" y1="56.2724" x2="86.9764" y2="80.4113" gradientUnits="userSpaceOnUse">
<stop stop-color="#FF698D"/>
<stop offset="1" stop-color="#FF3868"/>
</linearGradient>
<linearGradient id="paint17_linear_237_15358" x1="46.1028" y1="97.6234" x2="65.3883" y2="97.7486" gradientUnits="userSpaceOnUse">
<stop stop-color="#90E3F5"/>
<stop offset="1" stop-color="#65C8DE"/>
</linearGradient>
<linearGradient id="paint18_linear_237_15358" x1="8.25857" y1="10.08" x2="27.544" y2="10.2052" gradientUnits="userSpaceOnUse">
<stop stop-color="#90E3F5"/>
<stop offset="1" stop-color="#65C8DE"/>
</linearGradient>
<linearGradient id="paint19_linear_237_15358" x1="54.3252" y1="6.94788" x2="59.9501" y2="6.9844" gradientUnits="userSpaceOnUse">
<stop stop-color="#90E3F5"/>
<stop offset="1" stop-color="#65C8DE"/>
</linearGradient>
<linearGradient id="paint20_linear_237_15358" x1="104.855" y1="56.7866" x2="110.642" y2="51.2114" gradientUnits="userSpaceOnUse">
<stop stop-color="#90E3F5"/>
<stop offset="1" stop-color="#65C8DE"/>
</linearGradient>
<linearGradient id="paint21_linear_237_15358" x1="10.3937" y1="45.237" x2="15.9615" y2="51.0313" gradientUnits="userSpaceOnUse">
<stop stop-color="#90E3F5"/>
<stop offset="1" stop-color="#65C8DE"/>
</linearGradient>
<linearGradient id="paint22_linear_237_15358" x1="86.5392" y1="100.408" x2="92.107" y2="106.202" gradientUnits="userSpaceOnUse">
<stop stop-color="#90E3F5"/>
<stop offset="1" stop-color="#65C8DE"/>
</linearGradient>
<linearGradient id="paint23_linear_237_15358" x1="107.672" y1="30.2015" x2="113.297" y2="30.2381" gradientUnits="userSpaceOnUse">
<stop stop-color="#90E3F5"/>
<stop offset="1" stop-color="#65C8DE"/>
</linearGradient>
</defs>
</svg>
