<svg width="163" height="163" viewBox="0 0 163 163" fill="none" xmlns="http://www.w3.org/2000/svg">
<path d="M161.676 138.909C165.592 131.16 154.401 92.4141 76.8046 92.4141C20.7958 92.4141 -4.91066 124.128 0.772527 140.2" fill="url(#paint0_radial_2203_32127)"/>
<mask id="mask0_2203_32127" style="mask-type:luminance" maskUnits="userSpaceOnUse" x="0" y="92" width="163" height="49">
<path d="M161.676 138.909C165.592 131.16 154.401 92.4141 76.8046 92.4141C20.7958 92.4141 -4.91066 124.128 0.772527 140.2" fill="white"/>
</mask>
<g mask="url(#mask0_2203_32127)">
<ellipse opacity="0.671968" cx="64.8377" cy="126.632" rx="4.26742" ry="2.37034" fill="url(#paint1_linear_2203_32127)"/>
<ellipse opacity="0.256348" cx="108.393" cy="110.522" rx="6.73304" ry="3.69773" fill="url(#paint2_linear_2203_32127)"/>
<ellipse opacity="0.729957" cx="31.7682" cy="100.666" rx="6.73304" ry="3.69773" fill="url(#paint3_linear_2203_32127)"/>
</g>
<path opacity="0.5" d="M63.2539 101.009C63.2539 101.009 79.7657 108.773 86.3162 111.753C91.5047 114.113 118.221 121.663 121.404 119.517C124.587 117.371 131.614 111.481 129.294 107.445C126.975 103.41 114.773 96.1637 108.938 95.105C103.103 94.0463 86.418 98.859 86.418 98.859L72.1862 101.303L63.2539 101.009Z" fill="url(#paint4_linear_2203_32127)"/>
<path d="M75.4928 66.291L57.0929 79.8203L61.999 68.31L80.4258 56.6116L75.4928 66.291Z" fill="#E2E7EC"/>
<path d="M61.6914 68.5513L80.4243 56.8242V88.8072L63.2525 100.846L61.6914 68.5513Z" fill="#D8DFE6"/>
<path d="M80.4258 56.8242L109.15 63.5442V95.5388L80.4258 88.8189V56.8242Z" fill="#E9EFF1"/>
<path d="M61.6914 68.5469L91.0396 75.4055V107.4L63.2525 101.019L61.6914 68.5469Z" fill="#E8EAEB"/>
<path d="M90.4141 75.4146L109.147 63.6875V95.6705L90.4141 107.398V75.4146Z" fill="#D8DFE6"/>
<mask id="mask1_2203_32127" style="mask-type:luminance" maskUnits="userSpaceOnUse" x="90" y="63" width="20" height="45">
<path d="M90.4141 75.4146L109.147 63.6875V95.6705L90.4141 107.398V75.4146Z" fill="white"/>
</mask>
<g mask="url(#mask1_2203_32127)">
<rect x="97.3711" y="61.0234" width="5.88747" height="49.0405" fill="#C7D0D9"/>
</g>
<path d="M98.8377 84.922L117.265 73.2236L108.841 63.6914L90.4141 75.3898L98.8377 84.922Z" fill="#E2E7EC"/>
<path opacity="0.5" d="M47.3234 101.807L76.3047 116.615L79.0106 108.768L50.5753 99.3093L47.3234 101.807Z" fill="url(#paint5_linear_2203_32127)"/>
<path d="M46.5333 77.4664L56.5267 78.2541L54.3075 99.9917C54.3075 99.9917 54.1132 100.209 53.6417 100.125C53.1702 100.04 52.6756 99.778 52.6756 99.778L51.1893 82.4972C51.1893 82.4972 50.3297 88.6077 50.3897 90.3268C50.435 91.622 50.8778 93.2021 51.1148 94.5536C51.3188 95.7167 51.748 98.4966 51.748 98.4966C51.748 98.4966 51.2409 98.7282 50.9712 98.7805C50.7015 98.8328 50.3557 98.5452 50.3557 98.5452C50.3557 98.5452 46.8519 91.7436 46.8068 90.4519C46.7617 89.1602 46.5333 77.4664 46.5333 77.4664Z" fill="url(#paint6_linear_2203_32127)"/>
<path d="M50.1997 98.5143C50.1997 98.5143 49.7546 99.3158 49.2017 99.8044C48.6487 100.293 47.5576 100.876 47.3089 101.142C47.0601 101.407 47.3318 101.797 47.3318 101.797L50.006 101.704L52.1428 99.8962L51.8442 98.1735L50.1997 98.5143Z" fill="#677285"/>
<path d="M54.5597 99.441L55.184 101.173C55.184 101.173 54.1588 101.967 52.7423 102.188C51.3257 102.408 50.3497 102.069 50.3497 102.069C50.3497 102.069 50.0939 101.554 50.576 101.333C50.7974 101.232 51.2936 100.812 51.7292 100.273C51.9259 100.03 52.6667 99.5071 52.6667 99.5071L54.5597 99.441Z" fill="#677285"/>
<path d="M59.0332 66.1326C59.0332 66.1326 59.8522 67.3786 60.3545 67.0452C60.8567 66.7118 63.9922 63.4981 63.9922 63.4981C63.9922 63.4981 64.9248 62.7801 65.0973 62.9508C65.2699 63.1214 64.7863 63.4981 64.7863 63.4981C64.7863 63.4981 65.8041 63.5981 66.1221 63.5981C66.4401 63.5981 67.109 64.1058 66.6716 64.2767C66.2342 64.4475 64.5375 64.4897 64.5375 64.4897C64.5375 64.4897 61.9617 69.361 60.6194 69.7064C59.2771 70.0518 57.4277 68.0983 57.4277 68.0983L59.0332 66.1326Z" fill="#FDE7E6"/>
<path d="M45.9464 66.225C45.9464 66.225 45.4093 67.3247 44.9226 67.0608C44.4359 66.797 41.7053 63.9173 41.7053 63.9173C41.7053 63.9173 40.7959 63.3604 40.5736 63.4606C40.3512 63.5608 40.8994 63.9173 40.8994 63.9173C40.8994 63.9173 39.5615 64.0259 39.3098 64.127C39.0582 64.2282 38.765 64.5384 39.1456 64.6794C39.5261 64.8205 40.9827 64.9208 40.9827 64.9208C40.9827 64.9208 43.0077 68.9223 44.5419 69.3902C46.0761 69.8581 47.3832 68.0145 47.3832 68.0145L45.9464 66.225Z" fill="#FDE7E6"/>
<path d="M50.9131 62.8576V60.8916C50.9131 60.8916 49.8938 60.9432 49.4794 60.2606C49.065 59.5781 48.9531 57.6411 48.9531 57.6411L49.2653 56.743L52.3356 56.6133L53.9486 57.9878L53.1976 59.3142L53.0544 59.5692L53.7702 62.5837L50.9131 62.8576Z" fill="#FDE7E6"/>
<mask id="mask2_2203_32127" style="mask-type:luminance" maskUnits="userSpaceOnUse" x="48" y="56" width="6" height="7">
<path d="M50.9131 62.8576V60.8916C50.9131 60.8916 49.8938 60.9432 49.4794 60.2606C49.065 59.5781 48.9531 57.6411 48.9531 57.6411L49.2653 56.743L52.3356 56.6133L53.9486 57.9878L53.1976 59.3142L53.0544 59.5692L53.7702 62.5837L50.9131 62.8576Z" fill="white"/>
</mask>
<g mask="url(#mask2_2203_32127)">
<path d="M52.9092 59.025C52.0018 60.1535 50.4324 60.9421 50.2281 60.9421C50.0238 60.9421 51.3692 62.3574 51.3692 62.3574L52.4639 62.8593L54.0175 62.5299L54.5722 60.9421L53.593 59.1407C53.593 59.1407 53.8165 57.8965 52.9092 59.025Z" fill="url(#paint7_linear_2203_32127)"/>
</g>
<path d="M45.293 67.013L46.8017 69.0453L47.764 68.0292C47.764 68.0292 47.0321 72.0418 46.8017 73.9663C46.5713 75.8907 46.5285 77.8075 46.5285 77.8075C46.5285 77.8075 48.9444 78.7045 50.7453 78.8554C52.5463 79.0063 56.7389 78.6177 56.7389 78.6177L56.1977 67.3225L57.7679 68.7804L59.6117 66.6514C59.6117 66.6514 56.4378 61.7739 55.8376 61.4897C55.2374 61.2056 53.5689 61.4897 53.5689 61.4897C53.5689 61.4897 52.3849 62.8909 51.9048 62.9104C51.4247 62.93 50.3597 61.4897 50.3597 61.4897C50.3597 61.4897 48.6583 61.218 48.1635 61.7739C47.6688 62.3298 45.293 67.013 45.293 67.013Z" fill="url(#paint8_linear_2203_32127)"/>
<path d="M48.9537 57.6617C48.9537 57.6617 49.3155 56.7486 49.7878 56.9077C50.2348 57.0583 50.6219 57.4165 51.178 57.5846C51.7341 57.7528 51.7955 56.9974 52.1734 57.1249C52.5513 57.2525 52.3019 58.3638 52.5682 58.5707C52.8346 58.7777 52.8346 57.1249 53.4024 57.5699C53.9702 58.0148 52.81 59.2672 52.81 59.2672C52.81 59.2672 52.9587 60.037 53.0064 60.0893C53.0541 60.1417 53.0487 59.5293 53.0487 59.5293C53.0487 59.5293 53.5909 59.3211 53.822 58.3823C54.0531 57.4434 54.153 57.0696 53.822 56.3875C53.491 55.7053 53.3967 55.1711 52.5682 54.8493C51.7398 54.5275 51.1113 54.6533 50.5323 54.8493C49.9533 55.0452 49.5337 55.4345 49.2659 55.8219C48.6415 56.7415 48.9537 57.6617 48.9537 57.6617Z" fill="#4D364F"/>
<path fill-rule="evenodd" clip-rule="evenodd" d="M104.779 33.5826C104.121 33.7837 90.4991 41.9339 90.4991 41.9339L94.4743 42.2303L97.2991 45.3523C97.2991 45.3523 105.437 33.3815 104.779 33.5826Z" fill="#E8EAEB"/>
<mask id="mask3_2203_32127" style="mask-type:luminance" maskUnits="userSpaceOnUse" x="90" y="33" width="15" height="13">
<path fill-rule="evenodd" clip-rule="evenodd" d="M104.779 33.5826C104.121 33.7837 90.4991 41.9339 90.4991 41.9339L94.4743 42.2303L97.2991 45.3523C97.2991 45.3523 105.437 33.3815 104.779 33.5826Z" fill="white"/>
</mask>
<g mask="url(#mask3_2203_32127)">
<path fill-rule="evenodd" clip-rule="evenodd" d="M94.4726 42.2305L104.777 33.5828L97.2974 45.3524L94.4726 42.2305Z" fill="#D8DFE6"/>
</g>
<path fill-rule="evenodd" clip-rule="evenodd" d="M102.735 43.0296L97.9583 42.5303L104.786 33.6695L102.735 43.0296Z" fill="#E8EAEB"/>
<path fill-rule="evenodd" clip-rule="evenodd" d="M93.9412 48.93C94.2396 48.2984 94.5401 47.6447 94.8427 46.9688L95.3366 47.1898C95.0326 47.8691 94.7305 48.5262 94.4305 49.1612L93.9412 48.93ZM91.9968 52.7839C92.3266 52.1754 92.6591 51.538 92.9944 50.8718L93.4778 51.1151C93.1401 51.7861 92.8051 52.4283 92.4726 53.0418L91.9968 52.7839ZM90.9362 54.6554C90.5516 55.3036 90.1709 55.9111 89.7942 56.4779L90.2448 56.7775C90.6269 56.2028 91.0125 55.5875 91.4016 54.9315L90.9362 54.6554ZM87.1538 59.8541C87.6102 59.3806 88.0735 58.8403 88.5435 58.2332L88.9714 58.5644C88.4899 59.1865 88.014 59.7416 87.5434 60.2297L87.1538 59.8541ZM85.5648 61.2514C84.9322 61.7047 84.3162 62.0183 83.7171 62.1935L83.869 62.7129C84.53 62.5196 85.2002 62.1785 85.88 61.6913L85.5648 61.2514ZM79.9002 61.3088C80.4953 61.7887 81.1004 62.103 81.7161 62.2546L81.5867 62.7801C80.8904 62.6086 80.2148 62.2577 79.5605 61.7301L79.9002 61.3088ZM78.4438 59.7672C78.4103 59.7233 78.3768 59.6789 78.3434 59.6338C77.9078 59.0475 77.5913 58.491 77.3895 57.9653L76.8843 58.1593C77.1047 58.7335 77.4454 59.3325 77.909 59.9566C77.9438 60.0035 77.9788 60.0499 78.0138 60.0957L78.4438 59.7672ZM78.313 54.3264C77.7284 54.8093 77.3524 55.3635 77.1991 55.9817L76.6738 55.8515C76.8568 55.1137 77.2988 54.4622 77.9683 53.9092L78.313 54.3264ZM80.1209 53.3106C80.7298 53.0728 81.4145 52.8789 82.157 52.7325L82.0523 52.2016C81.2796 52.3539 80.5642 52.5565 79.924 52.8065L80.1209 53.3106ZM86.3936 52.4211C85.6736 52.3954 84.9561 52.4073 84.2573 52.4565L84.2193 51.9167C84.9373 51.8661 85.6738 51.8539 86.4128 51.8802L86.3936 52.4211ZM88.5481 52.613C89.2735 52.7163 89.9753 52.8577 90.6381 53.0351L90.778 52.5123C90.0938 52.3292 89.3708 52.1835 88.6244 52.0772L88.5481 52.613ZM94.4454 54.8161C93.9505 54.4134 93.3467 54.0518 92.6497 53.7377L92.8721 53.2443C93.6099 53.5768 94.2536 53.9623 94.787 54.3963L94.4454 54.8161ZM95.7349 56.443C95.8655 56.7463 95.949 57.0623 95.9842 57.391C96.0215 57.7387 96.0344 58.0882 96.0229 58.4396L96.5638 58.4572C96.5761 58.0807 96.5622 57.7061 96.5223 57.3334C96.4813 56.9505 96.3838 56.5818 96.232 56.229L95.7349 56.443ZM94.8668 62.4698C95.215 61.8128 95.4846 61.1628 95.6758 60.5196L96.1945 60.6738C95.9929 61.3522 95.7096 62.0354 95.3449 62.7233L94.8668 62.4698ZM93.7207 64.2792C93.3203 64.8244 92.8676 65.3741 92.3627 65.928L92.7627 66.2925C93.2801 65.7248 93.7449 65.1605 94.1569 64.5995L93.7207 64.2792ZM89.2561 68.859C89.8305 68.3834 90.3684 67.9107 90.8697 67.4409L91.2398 67.8358C90.7301 68.3133 90.1839 68.7933 89.6012 69.2758L89.2561 68.859ZM87.5509 70.196C86.9947 70.6122 86.4111 71.0305 85.8002 71.4509L86.107 71.8967C86.7237 71.4723 87.3131 71.0499 87.8752 70.6293L87.5509 70.196ZM82.8585 73.3626C83.243 73.126 83.6191 72.89 83.9867 72.6546L84.2785 73.1103C83.9081 73.3475 83.5294 73.5852 83.1422 73.8235L82.8585 73.3626Z" fill="#C7D0D9"/>
<defs>
<radialGradient id="paint0_radial_2203_32127" cx="0" cy="0" r="1" gradientUnits="userSpaceOnUse" gradientTransform="translate(70.4124 108.986) rotate(-90) scale(27.7839 290.175)">
<stop stop-color="#EBEDF0" stop-opacity="0.24"/>
<stop offset="0.536775" stop-color="#EBEDF0" stop-opacity="0.845525"/>
<stop offset="1" stop-color="#E0E4E7" stop-opacity="0.01"/>
</radialGradient>
<linearGradient id="paint1_linear_2203_32127" x1="61.4028" y1="126.004" x2="62.7029" y2="128.784" gradientUnits="userSpaceOnUse">
<stop stop-color="#E1E7EA"/>
<stop offset="1" stop-color="#D0D6DC"/>
</linearGradient>
<linearGradient id="paint2_linear_2203_32127" x1="102.74" y1="110.176" x2="105.119" y2="115.138" gradientUnits="userSpaceOnUse">
<stop stop-color="#E1E7EA"/>
<stop offset="1" stop-color="#D0D6DC"/>
</linearGradient>
<linearGradient id="paint3_linear_2203_32127" x1="27.4751" y1="100.726" x2="28.8212" y2="106.089" gradientUnits="userSpaceOnUse">
<stop stop-color="#FBFBFB"/>
<stop offset="1" stop-color="#D9DFE3"/>
</linearGradient>
<linearGradient id="paint4_linear_2203_32127" x1="60.8276" y1="103.701" x2="65.6308" y2="125.241" gradientUnits="userSpaceOnUse">
<stop stop-color="#C4CDD1"/>
<stop offset="1" stop-color="#C6CFD3" stop-opacity="0.01"/>
</linearGradient>
<linearGradient id="paint5_linear_2203_32127" x1="46.3177" y1="105.861" x2="51.8895" y2="120.402" gradientUnits="userSpaceOnUse">
<stop stop-color="#C4CDD1"/>
<stop offset="1" stop-color="#C6CFD3" stop-opacity="0.01"/>
</linearGradient>
<linearGradient id="paint6_linear_2203_32127" x1="57.2492" y1="100.031" x2="56.4551" y2="77.2918" gradientUnits="userSpaceOnUse">
<stop stop-color="#A1A7B8"/>
<stop offset="1" stop-color="#7B8195"/>
</linearGradient>
<linearGradient id="paint7_linear_2203_32127" x1="53.3391" y1="61.5392" x2="53.3391" y2="59.6343" gradientUnits="userSpaceOnUse">
<stop stop-color="#FBD8D6"/>
<stop offset="1" stop-color="#EAC0BE" stop-opacity="0.7"/>
</linearGradient>
<linearGradient id="paint8_linear_2203_32127" x1="38.0494" y1="69.3608" x2="53.1036" y2="85.2416" gradientUnits="userSpaceOnUse">
<stop stop-color="#E5E9F0"/>
<stop offset="1" stop-color="#D2DAE8"/>
</linearGradient>
</defs>
</svg>
