<svg width="159" height="152" viewBox="0 0 159 152" fill="none" xmlns="http://www.w3.org/2000/svg">
<g filter="url(#filter0_f_123_7421)">
<ellipse cx="76.4555" cy="125.109" rx="63.6703" ry="12.2829" fill="#1F88F8" fill-opacity="0.35"/>
</g>
<path d="M78.8123 140.114C115.278 140.114 144.839 110.552 144.839 74.0867C144.839 37.6209 115.278 8.05957 78.8123 8.05957C42.3465 8.05957 12.7852 37.6209 12.7852 74.0867C12.7852 110.552 42.3465 140.114 78.8123 140.114Z" fill="url(#paint0_linear_123_7421)"/>
<path d="M129.891 34.749H46.0254V76.136H129.891V34.749Z" fill="url(#paint1_linear_123_7421)"/>
<path d="M129.893 34.749H138.31C143.798 34.749 149.061 36.929 152.941 40.8093C156.821 44.6896 159.001 49.9525 159.001 55.4401C159.001 60.9277 156.821 66.1905 152.941 70.0708C149.061 73.9511 143.798 76.1311 138.31 76.1311H129.893V34.749Z" fill="url(#paint2_linear_123_7421)"/>
<path d="M135.336 40.8369H140.152C143.855 40.8369 147.407 42.3082 150.026 44.9271C152.645 47.5459 154.116 51.0979 154.116 54.8015V56.0834C154.116 59.7871 152.645 63.339 150.026 65.9579C147.407 68.5768 143.855 70.0481 140.152 70.0481H135.336V40.8369Z" fill="url(#paint3_linear_123_7421)"/>
<path d="M129.891 41.6953H53.0684V76.1365H129.891V41.6953Z" fill="url(#paint4_linear_123_7421)"/>
<rect x="25.9883" y="83.0264" width="31.1466" height="39.8896" fill="url(#paint5_linear_123_7421)"/>
<rect x="64.2383" y="83.0264" width="31.1466" height="39.8896" fill="url(#paint6_linear_123_7421)"/>
<rect x="102.488" y="83.0264" width="20.218" height="39.8896" fill="url(#paint7_linear_123_7421)"/>
<path d="M129.891 34.749H122.73V76.136H129.891V34.749Z" fill="url(#paint8_linear_123_7421)"/>
<path d="M64.2384 75.9229L57.1348 75.9229L57.1348 130.02L64.2384 130.02L64.2384 75.9229Z" fill="url(#paint9_linear_123_7421)"/>
<path fill-rule="evenodd" clip-rule="evenodd" d="M98.6615 83.0265V75.9229H26.2904V75.9229L21.615 75.9229C20.1061 75.9229 18.8828 77.1461 18.8828 78.655L18.8828 127.287C18.8828 128.796 20.106 130.02 21.615 130.02H26.2904V130.02H98.6615V122.916H26.2909L26.2909 83.0265H98.6615Z" fill="url(#paint10_linear_123_7421)"/>
<path fill-rule="evenodd" clip-rule="evenodd" d="M102.491 75.9229H122.709L129.812 75.9229L129.812 127.287C129.812 128.796 128.589 130.02 127.08 130.02H122.709L122.709 130.02H102.491V122.916H122.709V83.0265H102.491V75.9229ZM102.49 75.9229L98.1189 75.9229C96.61 75.9229 95.3867 77.1461 95.3867 78.655L95.3867 130.02H102.49L102.49 75.9229Z" fill="url(#paint11_linear_123_7421)"/>
<path d="M51.6445 76.2246V76.3026V78.7641V96.6963H71.214C71.5158 96.6963 71.7604 96.4517 71.7604 96.1499V78.7641V76.771C71.7604 76.4693 71.5158 76.2246 71.214 76.2246H51.6445Z" fill="url(#paint12_linear_123_7421)"/>
<path d="M50.4624 76.2246C50.1607 76.2246 49.916 76.4693 49.916 76.771V96.1499C49.916 96.4517 50.1607 96.6963 50.4624 96.6963H70.0319V76.2246H50.4624Z" fill="url(#paint13_linear_123_7421)"/>
<path d="M66.6765 78.1836H53.2745C52.6709 78.1836 52.1816 78.6729 52.1816 79.2765V93.4778C52.1816 94.0814 52.6709 94.5707 53.2745 94.5707H66.6765C67.2801 94.5707 67.7694 94.0814 67.7694 93.4778V79.2765C67.7694 78.6729 67.2801 78.1836 66.6765 78.1836Z" fill="url(#paint14_linear_123_7421)"/>
<g filter="url(#filter1_d_123_7421)">
<path d="M14.5137 62.3703L22.0784 80.9752C22.1818 81.2302 22.3344 81.4624 22.5276 81.6583C22.7209 81.8542 22.9509 82.0101 23.2044 82.117C23.458 82.2238 23.7302 82.2796 24.0054 82.281C24.2805 82.2825 24.5533 82.2296 24.808 82.1255L41.7605 75.2382C42.276 75.0284 42.6872 74.6226 42.9038 74.11C43.1203 73.5973 43.1246 73.0196 42.9157 72.5038L34.1714 50.9988C33.9616 50.4845 33.5564 50.0745 33.0446 49.8588C32.5328 49.6432 31.9563 49.6394 31.4418 49.8484L17.3553 55.5756L14.5137 62.3703Z" fill="url(#paint15_linear_123_7421)"/>
</g>
<g filter="url(#filter2_d_123_7421)">
<path d="M134.324 51.4406L126.759 70.0455C126.656 70.3005 126.503 70.5327 126.31 70.7286C126.117 70.9245 125.887 71.0804 125.633 71.1873C125.38 71.2941 125.108 71.3499 124.833 71.3514C124.557 71.3528 124.285 71.3 124.03 71.1958L107.077 64.3085C106.562 64.0987 106.151 63.6929 105.934 63.1803C105.718 62.6676 105.713 62.0899 105.922 61.5741L114.667 40.0691C114.876 39.5548 115.282 39.1448 115.793 38.9292C116.305 38.7135 116.882 38.7097 117.396 38.9188L131.483 44.646L134.324 51.4406Z" fill="url(#paint16_linear_123_7421)"/>
</g>
<path d="M14.5137 62.3698L19.3245 60.4153L17.3602 55.5752L14.5137 62.3698Z" fill="url(#paint17_linear_123_7421)"/>
<path d="M134.324 51.4411L129.513 49.4866L131.478 44.6465L134.324 51.4411Z" fill="url(#paint18_linear_123_7421)"/>
<path d="M62.0272 87.0638C62.6474 86.6278 63.1126 86.0054 63.3553 85.2871C63.598 84.5688 63.6056 83.7918 63.3769 83.0689C63.1482 82.346 62.6952 81.7148 62.0835 81.2667C61.4718 80.8187 60.7333 80.5771 59.9751 80.5771C59.2169 80.5771 58.4784 80.8187 57.8667 81.2667C57.2551 81.7148 56.802 82.346 56.5734 83.0689C56.3447 83.7918 56.3522 84.5688 56.5949 85.2871C56.8376 86.0054 57.3028 86.6278 57.9231 87.0638L56.3926 92.3329H63.5528L62.0272 87.0638Z" fill="url(#paint19_linear_123_7421)"/>
<path d="M106.129 31.7708C106.129 32.5375 106.014 33.2999 105.788 34.0325C105.422 35.2071 104.774 36.2746 103.902 37.1422C103.646 37.4015 103.37 37.641 103.078 37.8587C102.886 38.0085 102.684 38.1452 102.474 38.2682C102.264 38.3967 102.048 38.5138 101.825 38.6191C101.494 38.7827 101.15 38.9196 100.797 39.0285C100.064 39.2546 99.302 39.3696 98.5353 39.3697H97.1217V75.9994H57.6406V30.9763C57.647 29.175 58.3655 27.4492 59.6393 26.1754C60.913 24.9017 62.6388 24.1832 64.4401 24.1768H98.5158C99.465 24.1732 100.406 24.3502 101.289 24.6984C101.534 24.7933 101.773 24.9024 102.006 25.0249C102.123 25.0834 102.235 25.1468 102.347 25.215C102.439 25.2656 102.529 25.3209 102.615 25.3807C103.076 25.672 103.502 26.0137 103.887 26.3995C104.404 26.9173 104.844 27.5066 105.193 28.1493C105.43 28.5824 105.622 29.038 105.769 29.5092L105.871 29.8748C105.934 30.119 105.984 30.3663 106.022 30.6156C106.088 30.9974 106.123 31.3836 106.129 31.7708Z" fill="url(#paint20_linear_123_7421)"/>
<path d="M106.131 31.7717C106.131 32.5384 106.015 33.3007 105.789 34.0333C105.64 34.5034 105.447 34.9586 105.214 35.3932C104.861 36.035 104.42 36.6241 103.903 37.1431C103.647 37.4023 103.372 37.6418 103.079 37.8596C102.884 38.0058 102.685 38.1374 102.475 38.269C102.265 38.3975 102.049 38.5147 101.827 38.62C101.494 38.7815 101.151 38.9183 100.798 39.0294C100.066 39.2555 99.3033 39.3705 98.5366 39.3706H97.123V30.9772C97.1262 29.635 97.525 28.3235 98.2698 27.2068C99.0145 26.0901 100.072 25.2179 101.31 24.6992C101.554 24.7967 101.797 24.9039 102.027 25.0258C102.143 25.0843 102.256 25.1476 102.368 25.2159C102.46 25.2665 102.549 25.3218 102.636 25.3816C103.096 25.6729 103.523 26.0146 103.908 26.4003C104.425 26.9182 104.865 27.5075 105.214 28.1502C105.449 28.5843 105.641 29.0396 105.789 29.5101L105.892 29.8756C105.955 30.1197 106.006 30.367 106.043 30.6165C106.102 30.9987 106.131 31.385 106.131 31.7717Z" fill="url(#paint21_linear_123_7421)"/>
<path d="M89.2398 62.6641H64.3082C63.891 62.6641 63.5527 63.0012 63.5527 63.4171C63.5527 63.833 63.891 64.1702 64.3082 64.1702H89.2398C89.6571 64.1702 89.9953 63.833 89.9953 63.4171C89.9953 63.0012 89.6571 62.6641 89.2398 62.6641Z" fill="#A5C4F1"/>
<path d="M89.2398 54.9385H64.3082C63.891 54.9385 63.5527 55.2756 63.5527 55.6915C63.5527 56.1075 63.891 56.4446 64.3082 56.4446H89.2398C89.6571 56.4446 89.9953 56.1075 89.9953 55.6915C89.9953 55.2756 89.6571 54.9385 89.2398 54.9385Z" fill="#A5C4F1"/>
<path d="M89.2408 47.208H73.1852C72.7679 47.208 72.4297 47.5452 72.4297 47.9611C72.4297 48.377 72.7679 48.7141 73.1852 48.7141H89.2408C89.6581 48.7141 89.9964 48.377 89.9964 47.9611C89.9964 47.5452 89.6581 47.208 89.2408 47.208Z" fill="#A5C4F1"/>
<path d="M78.7067 39.4775H64.1328C63.8124 39.4775 63.5527 39.7372 63.5527 40.0576V40.4036C63.5527 40.724 63.8124 40.9837 64.1328 40.9837H78.7067C79.027 40.9837 79.2867 40.724 79.2867 40.4036V40.0576C79.2867 39.7372 79.027 39.4775 78.7067 39.4775Z" fill="#A5C4F1"/>
<path d="M69.6699 47.208H64.3082C63.891 47.208 63.5527 47.5452 63.5527 47.9611C63.5527 48.377 63.891 48.7141 64.3082 48.7141H69.6699C70.0871 48.7141 70.4254 48.377 70.4254 47.9611C70.4254 47.5452 70.0871 47.208 69.6699 47.208Z" fill="#A5C4F1"/>
<path d="M26.2617 83.0264H28.7207V122.916H26.2617V83.0264Z" fill="url(#paint22_linear_123_7421)"/>
<path d="M64.2383 96.6865H66.424V122.915H64.2383V96.6865Z" fill="url(#paint23_linear_123_7421)"/>
<path d="M102.488 83.0264H104.947V122.916H102.488V83.0264Z" fill="url(#paint24_linear_123_7421)"/>
<g filter="url(#filter3_f_123_7421)">
<ellipse cx="35.57" cy="49.3658" rx="21.0563" ry="6.76811" fill="#FF4C77" fill-opacity="0.3"/>
</g>
<path d="M15.8241 39.503C16.2302 42.5348 17.3975 45.4143 19.2173 47.873C21.0371 50.3316 23.45 52.2893 26.2309 53.5633C29.0118 54.8374 32.0701 55.3863 35.1204 55.159C38.1708 54.9316 41.1139 53.9353 43.6752 52.263L50.6534 54.6353C50.8639 54.7046 51.0899 54.7123 51.3046 54.6573C51.5193 54.6023 51.7137 54.4869 51.865 54.3249C52.0162 54.1629 52.1179 53.9609 52.158 53.7429C52.198 53.5249 52.1748 53.3 52.0911 53.0948L49.2927 46.4196C50.781 43.9401 51.6538 41.1402 51.8379 38.2541C52.022 35.3681 51.5122 32.48 50.351 29.8315C49.1898 27.1829 47.411 24.8511 45.1636 23.0311C42.9163 21.2112 40.2656 19.956 37.4335 19.3708C34.6015 18.7855 31.6705 18.8871 28.8857 19.6672C26.101 20.4472 23.5437 21.883 21.4278 23.8542C19.3119 25.8255 17.6989 28.275 16.724 30.9975C15.749 33.7201 15.4405 36.6367 15.8241 39.503Z" fill="url(#paint25_linear_123_7421)"/>
<path d="M33.2964 46.3657C35.2624 46.3657 36.6629 45.0191 36.6629 43.1338C36.6629 41.2486 35.2624 39.902 33.2964 39.902C31.3573 39.902 29.9299 41.2486 29.9299 43.1338C29.9299 45.0191 31.3573 46.3657 33.2964 46.3657ZM35.9896 39.3634C35.9896 37.5858 37.013 36.9395 38.4135 36.2931C40.2718 35.4313 41.6453 33.6807 41.6453 31.5261C41.6453 28.1327 38.3058 25.7627 33.7812 25.7627C28.9334 25.7627 25.513 28.4828 25.2168 32.2802L31.4112 33.4114C31.5728 31.9301 32.3538 30.8798 33.458 30.8798C34.2929 30.8798 34.9123 31.4453 34.9123 32.2264C34.9123 33.1421 33.9966 33.7076 33.2695 34.1386C31.3304 35.4044 30.6032 36.8048 30.6032 39.3634H35.9896Z" fill="white"/>
<path d="M123.819 26.5358C123.819 28.0586 122.585 29.2931 121.062 29.2931C119.539 29.2931 118.305 28.0586 118.305 26.5358C118.305 25.0129 119.539 23.7784 121.062 23.7784C122.585 23.7784 123.819 25.0129 123.819 26.5358Z" stroke="url(#paint26_linear_123_7421)" stroke-width="1.50402"/>
<circle cx="104.945" cy="136.484" r="2.75738" stroke="url(#paint27_linear_123_7421)" stroke-width="1.50402"/>
<path d="M12.2281 100.874C12.9903 100.752 13.5987 101.501 13.3234 102.222L11.4646 107.089C11.1892 107.81 10.2365 107.963 9.74974 107.364L6.46399 103.321C5.97721 102.722 6.32143 101.82 7.08358 101.698L12.2281 100.874Z" fill="url(#paint28_linear_123_7421)"/>
<path d="M139.415 96.7124C139.225 95.9645 139.915 95.2906 140.658 95.4994L145.674 96.9089C146.417 97.1177 146.655 98.0527 146.103 98.5918L142.374 102.231C141.822 102.77 140.893 102.509 140.703 101.761L139.415 96.7124Z" fill="url(#paint29_linear_123_7421)"/>
<path d="M72.5794 4.84527C72.8758 3.61744 74.6222 3.61744 74.9186 4.84527L75.9162 8.97773C76.0221 9.41651 76.3647 9.75909 76.8034 9.86501L80.9359 10.8626C82.1637 11.159 82.1637 12.9054 80.9359 13.2018L76.8034 14.1994C76.3647 14.3053 76.0221 14.6479 75.9162 15.0866L74.9186 19.2191C74.6222 20.4469 72.8758 20.4469 72.5794 19.2191L71.5818 15.0866C71.4759 14.6479 71.1333 14.3053 70.6945 14.1994L66.5621 13.2018C65.3342 12.9054 65.3342 11.159 66.5621 10.8626L70.6945 9.86501C71.1333 9.75909 71.4759 9.41651 71.5818 8.97773L72.5794 4.84527Z" fill="url(#paint30_linear_123_7421)"/>
<path d="M42.0696 132.638C42.366 131.41 44.1124 131.41 44.4088 132.638L45.4064 136.771C45.5123 137.209 45.8549 137.552 46.2937 137.658L50.4261 138.656C51.654 138.952 51.654 140.698 50.4261 140.995L46.2937 141.992C45.8549 142.098 45.5123 142.441 45.4064 142.88L44.4088 147.012C44.1124 148.24 42.366 148.24 42.0696 147.012L41.072 142.88C40.9661 142.441 40.6235 142.098 40.1848 141.992L36.0523 140.995C34.8245 140.698 34.8245 138.952 36.0523 138.656L40.1848 137.658C40.6235 137.552 40.9661 137.209 41.072 136.771L42.0696 132.638Z" fill="url(#paint31_linear_123_7421)"/>
<defs>
<filter id="filter0_f_123_7421" x="0.251627" y="100.293" width="152.407" height="49.6325" filterUnits="userSpaceOnUse" color-interpolation-filters="sRGB">
<feFlood flood-opacity="0" result="BackgroundImageFix"/>
<feBlend mode="normal" in="SourceGraphic" in2="BackgroundImageFix" result="shape"/>
<feGaussianBlur stdDeviation="6.26676" result="effect1_foregroundBlur_123_7421"/>
</filter>
<filter id="filter1_d_123_7421" x="12.8744" y="49.6943" width="39.4853" height="44.062" filterUnits="userSpaceOnUse" color-interpolation-filters="sRGB">
<feFlood flood-opacity="0" result="BackgroundImageFix"/>
<feColorMatrix in="SourceAlpha" type="matrix" values="0 0 0 0 0 0 0 0 0 0 0 0 0 0 0 0 0 0 127 0" result="hardAlpha"/>
<feOffset dx="3.82503" dy="6.01076"/>
<feGaussianBlur stdDeviation="2.73216"/>
<feComposite in2="hardAlpha" operator="out"/>
<feColorMatrix type="matrix" values="0 0 0 0 0.184314 0 0 0 0 0.254902 0 0 0 0 0.443137 0 0 0 0.15 0"/>
<feBlend mode="normal" in2="BackgroundImageFix" result="effect1_dropShadow_123_7421"/>
<feBlend mode="normal" in="SourceGraphic" in2="effect1_dropShadow_123_7421" result="shape"/>
</filter>
<filter id="filter2_d_123_7421" x="104.128" y="38.7646" width="39.4853" height="44.062" filterUnits="userSpaceOnUse" color-interpolation-filters="sRGB">
<feFlood flood-opacity="0" result="BackgroundImageFix"/>
<feColorMatrix in="SourceAlpha" type="matrix" values="0 0 0 0 0 0 0 0 0 0 0 0 0 0 0 0 0 0 127 0" result="hardAlpha"/>
<feOffset dx="3.82503" dy="6.01076"/>
<feGaussianBlur stdDeviation="2.73216"/>
<feComposite in2="hardAlpha" operator="out"/>
<feColorMatrix type="matrix" values="0 0 0 0 0.184314 0 0 0 0 0.254902 0 0 0 0 0.443137 0 0 0 0.15 0"/>
<feBlend mode="normal" in2="BackgroundImageFix" result="effect1_dropShadow_123_7421"/>
<feBlend mode="normal" in="SourceGraphic" in2="effect1_dropShadow_123_7421" result="shape"/>
</filter>
<filter id="filter3_f_123_7421" x="1.98014" y="30.0641" width="67.1803" height="38.6032" filterUnits="userSpaceOnUse" color-interpolation-filters="sRGB">
<feFlood flood-opacity="0" result="BackgroundImageFix"/>
<feBlend mode="normal" in="SourceGraphic" in2="BackgroundImageFix" result="shape"/>
<feGaussianBlur stdDeviation="6.26676" result="effect1_foregroundBlur_123_7421"/>
</filter>
<linearGradient id="paint0_linear_123_7421" x1="78.3033" y1="-13.4405" x2="79.6559" y2="218.437" gradientUnits="userSpaceOnUse">
<stop stop-color="#CAE0FF" stop-opacity="0"/>
<stop offset="1" stop-color="#BCD8FF"/>
</linearGradient>
<linearGradient id="paint1_linear_123_7421" x1="87.9582" y1="34.749" x2="87.9582" y2="76.136" gradientUnits="userSpaceOnUse">
<stop stop-color="#ABCCFF"/>
<stop offset="1" stop-color="#70A8FF"/>
</linearGradient>
<linearGradient id="paint2_linear_123_7421" x1="144.447" y1="34.749" x2="144.447" y2="76.1311" gradientUnits="userSpaceOnUse">
<stop stop-color="#70A8FF"/>
<stop offset="1" stop-color="#5597FD"/>
</linearGradient>
<linearGradient id="paint3_linear_123_7421" x1="156.859" y1="71.0043" x2="138.28" y2="46.4148" gradientUnits="userSpaceOnUse">
<stop stop-color="#EDF4FF"/>
<stop offset="1" stop-color="#ABCCFF"/>
</linearGradient>
<linearGradient id="paint4_linear_123_7421" x1="91.4796" y1="41.6953" x2="91.4796" y2="76.1365" gradientUnits="userSpaceOnUse">
<stop stop-color="#2A64BE"/>
<stop offset="1" stop-color="#6095E7"/>
</linearGradient>
<linearGradient id="paint5_linear_123_7421" x1="65.6046" y1="137.67" x2="27.3544" y2="101.605" gradientUnits="userSpaceOnUse">
<stop stop-color="#EDF4FF"/>
<stop offset="1" stop-color="#ABCCFF"/>
</linearGradient>
<linearGradient id="paint6_linear_123_7421" x1="97.0242" y1="126.468" x2="58.774" y2="110.621" gradientUnits="userSpaceOnUse">
<stop stop-color="#EDF4FF"/>
<stop offset="1" stop-color="#ABCCFF"/>
</linearGradient>
<linearGradient id="paint7_linear_123_7421" x1="130.903" y1="127.287" x2="95.3847" y2="93.6818" gradientUnits="userSpaceOnUse">
<stop stop-color="#EDF4FF"/>
<stop offset="1" stop-color="#ABCCFF"/>
</linearGradient>
<linearGradient id="paint8_linear_123_7421" x1="126.311" y1="34.749" x2="126.311" y2="76.136" gradientUnits="userSpaceOnUse">
<stop stop-color="#ABCCFF"/>
<stop offset="1" stop-color="#70A8FF"/>
</linearGradient>
<linearGradient id="paint9_linear_123_7421" x1="48.3918" y1="92.589" x2="43.474" y2="140.402" gradientUnits="userSpaceOnUse">
<stop stop-color="#ABCCFF"/>
<stop offset="1" stop-color="#70A8FF"/>
</linearGradient>
<linearGradient id="paint10_linear_123_7421" x1="17.5167" y1="85.4854" x2="95.6563" y2="121.55" gradientUnits="userSpaceOnUse">
<stop stop-color="#ABCCFF"/>
<stop offset="1" stop-color="#70A8FF"/>
</linearGradient>
<linearGradient id="paint11_linear_123_7421" x1="156.861" y1="109.528" x2="107.955" y2="111.168" gradientUnits="userSpaceOnUse">
<stop stop-color="#70A8FF"/>
<stop offset="1" stop-color="#5597FD"/>
</linearGradient>
<linearGradient id="paint12_linear_123_7421" x1="61.7025" y1="76.2246" x2="61.7025" y2="96.6963" gradientUnits="userSpaceOnUse">
<stop stop-color="#70A8FF"/>
<stop offset="1" stop-color="#5597FD"/>
</linearGradient>
<linearGradient id="paint13_linear_123_7421" x1="59.974" y1="76.2246" x2="59.974" y2="96.6963" gradientUnits="userSpaceOnUse">
<stop stop-color="#ABCCFF"/>
<stop offset="1" stop-color="#70A8FF"/>
</linearGradient>
<linearGradient id="paint14_linear_123_7421" x1="59.9755" y1="78.1836" x2="59.9755" y2="94.5707" gradientUnits="userSpaceOnUse">
<stop stop-color="#70A8FF"/>
<stop offset="1" stop-color="#5597FD"/>
</linearGradient>
<linearGradient id="paint15_linear_123_7421" x1="39.9703" y1="64.1969" x2="20.7437" y2="62.2772" gradientUnits="userSpaceOnUse">
<stop stop-color="#C6DDFF"/>
<stop offset="1" stop-color="white"/>
</linearGradient>
<linearGradient id="paint16_linear_123_7421" x1="108.868" y1="53.2673" x2="128.094" y2="51.3476" gradientUnits="userSpaceOnUse">
<stop stop-color="#C6DDFF"/>
<stop offset="1" stop-color="white"/>
</linearGradient>
<linearGradient id="paint17_linear_123_7421" x1="16.9191" y1="55.5752" x2="16.9191" y2="62.3698" gradientUnits="userSpaceOnUse">
<stop stop-color="#EDF4FF"/>
<stop offset="1" stop-color="#ABCCFF"/>
</linearGradient>
<linearGradient id="paint18_linear_123_7421" x1="131.919" y1="44.6465" x2="131.919" y2="51.4411" gradientUnits="userSpaceOnUse">
<stop stop-color="#EDF4FF"/>
<stop offset="1" stop-color="#ABCCFF"/>
</linearGradient>
<linearGradient id="paint19_linear_123_7421" x1="58.2272" y1="89.0364" x2="65.3308" y2="89.3097" gradientUnits="userSpaceOnUse">
<stop stop-color="#2A64BE"/>
<stop offset="1" stop-color="#4B80D1"/>
</linearGradient>
<linearGradient id="paint20_linear_123_7421" x1="81.885" y1="24.1768" x2="81.885" y2="75.9994" gradientUnits="userSpaceOnUse">
<stop stop-color="#EDF4FF"/>
<stop offset="1" stop-color="#ABCCFF"/>
</linearGradient>
<linearGradient id="paint21_linear_123_7421" x1="102.763" y1="37.3995" x2="92.1075" y2="29.203" gradientUnits="userSpaceOnUse">
<stop stop-color="#EDF4FF"/>
<stop offset="1" stop-color="#ABCCFF"/>
</linearGradient>
<linearGradient id="paint22_linear_123_7421" x1="9.0491" y1="121.003" x2="60.7738" y2="115.193" gradientUnits="userSpaceOnUse">
<stop offset="0.09375" stop-color="#2A64BE"/>
<stop offset="1" stop-color="#2A64BE" stop-opacity="0"/>
</linearGradient>
<linearGradient id="paint23_linear_123_7421" x1="48.9382" y1="121.658" x2="94.4464" y2="114.747" gradientUnits="userSpaceOnUse">
<stop offset="0.09375" stop-color="#2A64BE"/>
<stop offset="1" stop-color="#2A64BE" stop-opacity="0"/>
</linearGradient>
<linearGradient id="paint24_linear_123_7421" x1="85.2757" y1="121.003" x2="127.667" y2="124.723" gradientUnits="userSpaceOnUse">
<stop offset="0.09375" stop-color="#265FB8"/>
<stop offset="1" stop-color="#84B4FF"/>
</linearGradient>
<linearGradient id="paint25_linear_123_7421" x1="15.8386" y1="21.4325" x2="51.9178" y2="55.6279" gradientUnits="userSpaceOnUse">
<stop stop-color="#FF698D"/>
<stop offset="1" stop-color="#FF3868"/>
</linearGradient>
<linearGradient id="paint26_linear_123_7421" x1="116.748" y1="24.3424" x2="127.715" y2="33.847" gradientUnits="userSpaceOnUse">
<stop stop-color="#94BFFF"/>
<stop offset="1" stop-color="#4C94FE"/>
</linearGradient>
<linearGradient id="paint27_linear_123_7421" x1="100.631" y1="134.291" x2="111.598" y2="143.795" gradientUnits="userSpaceOnUse">
<stop stop-color="#94BFFF"/>
<stop offset="1" stop-color="#4C94FE"/>
</linearGradient>
<linearGradient id="paint28_linear_123_7421" x1="13.943" y1="100.6" x2="6.1615" y2="106.923" gradientUnits="userSpaceOnUse">
<stop stop-color="#70A8FF"/>
<stop offset="1" stop-color="#5597FD"/>
</linearGradient>
<linearGradient id="paint29_linear_123_7421" x1="138.986" y1="95.0296" x2="145.99" y2="102.205" gradientUnits="userSpaceOnUse">
<stop stop-color="#70A8FF"/>
<stop offset="1" stop-color="#5597FD"/>
</linearGradient>
<linearGradient id="paint30_linear_123_7421" x1="73.749" y1="0" x2="73.749" y2="24.0644" gradientUnits="userSpaceOnUse">
<stop stop-color="#70A8FF"/>
<stop offset="1" stop-color="#5597FD"/>
</linearGradient>
<linearGradient id="paint31_linear_123_7421" x1="43.2392" y1="127.793" x2="43.2392" y2="151.857" gradientUnits="userSpaceOnUse">
<stop stop-color="#70A8FF"/>
<stop offset="1" stop-color="#5597FD"/>
</linearGradient>
</defs>
</svg>
