<svg width="182" height="67" viewBox="0 0 182 67" fill="none" xmlns="http://www.w3.org/2000/svg">
<rect width="182" height="66.2356" rx="9.99783" fill="#090909"/>
<path d="M41.7172 34.1221C41.7531 31.3237 43.2501 28.6758 45.625 27.21C44.1268 25.0619 41.6174 23.7 39.0065 23.618C36.2219 23.3246 33.5223 25.2908 32.1033 25.2908C30.6568 25.2908 28.4721 23.6471 26.1194 23.6957C23.0529 23.7952 20.194 25.5455 18.7021 28.2369C15.495 33.8112 17.8872 42.0035 20.9593 46.5094C22.4964 48.7157 24.2928 51.1803 26.6433 51.0929C28.9434 50.9971 29.8025 49.6205 32.5789 49.6205C35.3296 49.6205 36.1356 51.0929 38.5338 51.0373C41.0019 50.9971 42.557 48.8212 44.0401 46.5939C45.1445 45.0218 45.9943 43.2842 46.5581 41.4456C43.6575 40.2141 41.7206 37.2837 41.7172 34.1221Z" fill="white"/>
<path d="M37.1873 20.6548C38.533 19.0329 39.196 16.9484 39.0355 14.8438C36.9795 15.0605 35.0804 16.047 33.7164 17.6066C32.3827 19.1304 31.6886 21.1783 31.8199 23.2025C33.8766 23.2237 35.8985 22.264 37.1873 20.6548Z" fill="white"/>
<path d="M123.756 31.2332V34.6243H121.639V36.8482H123.756V44.4044C123.756 46.9846 124.919 48.0167 127.844 48.0167C128.358 48.0167 128.848 47.9552 129.276 47.8815V45.6822C128.909 45.7191 128.676 45.7437 128.272 45.7437C126.963 45.7437 126.388 45.1293 126.388 43.7287V36.8482H129.276V34.6243H126.388V31.2332H123.756Z" fill="white"/>
<path d="M136.727 48.201C140.619 48.201 143.006 45.5839 143.006 41.2468C143.006 36.9342 140.607 34.3048 136.727 34.3048C132.836 34.3048 130.437 36.9342 130.437 41.2468C130.437 45.5839 132.823 48.201 136.727 48.201ZM136.727 45.8542C134.439 45.8542 133.154 44.171 133.154 41.2468C133.154 38.3471 134.439 36.6516 136.727 36.6516C139.004 36.6516 140.301 38.3471 140.301 41.2468C140.301 44.1587 139.004 45.8542 136.727 45.8542Z" fill="white"/>
<path d="M145.048 47.943H147.679V40.0427C147.679 38.1628 149.087 36.8973 151.082 36.8973C151.547 36.8973 152.33 36.9833 152.55 37.057V34.4523C152.269 34.3786 151.767 34.3417 151.375 34.3417C149.637 34.3417 148.157 35.3001 147.777 36.6147H147.581V34.5629H145.048V47.943Z" fill="white"/>
<path d="M159.084 36.5533C161.03 36.5533 162.303 37.9171 162.364 40.0181H155.633C155.779 37.9294 157.138 36.5533 159.084 36.5533ZM162.352 44.3307C161.862 45.3751 160.773 45.9525 159.182 45.9525C157.077 45.9525 155.718 44.4658 155.633 42.1191V41.9717H165.044V41.0502C165.044 36.8482 162.804 34.3048 159.096 34.3048C155.339 34.3048 152.952 37.0202 152.952 41.2959C152.952 45.5716 155.29 48.201 159.108 48.201C162.156 48.201 164.285 46.7266 164.885 44.3307H162.352Z" fill="white"/>
<path d="M106.5 43.0019C106.703 46.2874 109.431 48.3887 113.49 48.3887C117.828 48.3887 120.543 46.1856 120.543 42.6708C120.543 39.9074 118.995 38.3792 115.24 37.5005L113.223 37.0039C110.839 36.4435 109.875 35.6922 109.875 34.3805C109.875 32.725 111.371 31.6426 113.617 31.6426C115.748 31.6426 117.219 32.6995 117.486 34.3933H120.251C120.086 31.2987 117.372 29.1211 113.655 29.1211C109.659 29.1211 106.995 31.2987 106.995 34.5715C106.995 37.2713 108.505 38.8759 111.815 39.6527L114.175 40.2257C116.598 40.7988 117.663 41.6393 117.663 43.0401C117.663 44.6701 115.989 45.8545 113.705 45.8545C111.257 45.8545 109.557 44.7465 109.316 43.0019H106.5Z" fill="white"/>
<path d="M79.2423 34.3417C77.4309 34.3417 75.8644 35.2509 75.0566 36.7744H74.8608V34.5629H72.3274V52.3907H74.9587V45.9157H75.1668C75.8644 47.3286 77.3697 48.1641 79.2668 48.1641C82.6324 48.1641 84.7742 45.4979 84.7742 41.2468C84.7742 36.9956 82.6324 34.3417 79.2423 34.3417ZM78.4957 45.7928C76.2927 45.7928 74.9097 44.0481 74.9097 41.2591C74.9097 38.4577 76.2927 36.713 78.508 36.713C80.7354 36.713 82.0694 38.4209 82.0694 41.2468C82.0694 44.085 80.7354 45.7928 78.4957 45.7928Z" fill="white"/>
<path d="M93.9817 34.3417C92.1704 34.3417 90.6038 35.2509 89.7961 36.7744H89.6002V34.5629H87.0668V52.3907H89.6981V45.9157H89.9062C90.6038 47.3286 92.1092 48.1641 94.0062 48.1641C97.3719 48.1641 99.5137 45.4979 99.5137 41.2468C99.5137 36.9956 97.3719 34.3417 93.9817 34.3417ZM93.2352 45.7928C91.0322 45.7928 89.6492 44.0481 89.6492 41.2591C89.6492 38.4577 91.0322 36.713 93.2474 36.713C95.4749 36.713 96.8089 38.4209 96.8089 41.2468C96.8089 44.085 95.4749 45.7928 93.2352 45.7928Z" fill="white"/>
<path d="M67.6063 47.943H70.6253L64.0164 29.5668H60.9592L54.3503 47.943H57.2679L58.955 43.0656H65.9318L67.6063 47.943ZM62.3419 32.9033H62.5576L65.2088 40.6714H59.678L62.3419 32.9033Z" fill="white"/>
<path d="M57.6792 23.1389C57.2284 23.1389 56.8177 23.0648 56.4472 22.9166C56.0766 22.7684 55.7586 22.5523 55.4931 22.2682C55.2275 21.9841 55.0206 21.6352 54.8724 21.2215C54.7304 20.8015 54.6594 20.3229 54.6594 19.7857C54.6594 19.2484 54.7397 18.7729 54.9002 18.3592C55.067 17.9392 55.2893 17.5872 55.5672 17.3032C55.8451 17.0191 56.1693 16.8029 56.5398 16.6547C56.9103 16.5065 57.3056 16.4324 57.7255 16.4324C57.991 16.4324 58.2288 16.4509 58.4388 16.488C58.6549 16.5251 58.8402 16.5683 58.9945 16.6177C59.1551 16.6671 59.2848 16.7165 59.3836 16.7659C59.4824 16.8153 59.5503 16.8524 59.5874 16.8771L59.328 17.6181C59.2724 17.5811 59.1922 17.5409 59.0872 17.4977C58.9822 17.4545 58.8618 17.4112 58.7259 17.368C58.5962 17.3248 58.4511 17.2908 58.2905 17.2661C58.1362 17.2352 57.9787 17.2198 57.8181 17.2198C57.4785 17.2198 57.1728 17.2785 56.9011 17.3958C56.6293 17.5131 56.3978 17.6829 56.2063 17.9053C56.0149 18.1276 55.8667 18.3993 55.7617 18.7204C55.6629 19.0354 55.6135 19.3905 55.6135 19.7857C55.6135 20.1686 55.6567 20.5175 55.7432 20.8324C55.8358 21.1474 55.9717 21.4191 56.1508 21.6476C56.3298 21.8699 56.5522 22.0428 56.8177 22.1663C57.0894 22.2898 57.4044 22.3516 57.7625 22.3516C58.1763 22.3516 58.519 22.3084 58.7908 22.2219C59.0625 22.1354 59.2663 22.0582 59.4021 21.9903L59.6337 22.7314C59.5905 22.7622 59.5133 22.8024 59.4021 22.8518C59.291 22.895 59.152 22.9382 58.9853 22.9815C58.8185 23.0247 58.624 23.0618 58.4017 23.0926C58.1794 23.1235 57.9385 23.1389 57.6792 23.1389ZM62.3674 20.3785C62.5589 20.5144 62.7657 20.6873 62.988 20.8973C63.2104 21.1011 63.4265 21.3234 63.6365 21.5642C63.8526 21.8051 64.0533 22.0521 64.2386 22.3053C64.4238 22.5523 64.5813 22.7839 64.711 23H63.692C63.5562 22.79 63.3956 22.577 63.2104 22.3608C63.0313 22.1385 62.8429 21.9255 62.6453 21.7217C62.4477 21.5179 62.247 21.3295 62.0432 21.1566C61.8394 20.9837 61.648 20.8386 61.4689 20.7213V23H60.6074V18.1832H61.4689V20.2488C61.6171 20.1068 61.7869 19.9432 61.9784 19.7579C62.1698 19.5665 62.3612 19.375 62.5527 19.1836C62.7503 18.986 62.9325 18.8007 63.0992 18.6278C63.2659 18.4487 63.4018 18.3005 63.5068 18.1832H64.5072C64.3713 18.3314 64.2108 18.5012 64.0255 18.6926C63.8464 18.8779 63.6581 19.0693 63.4605 19.2669C63.269 19.4646 63.0776 19.6622 62.8862 19.8598C62.6947 20.0512 62.5218 20.2241 62.3674 20.3785ZM67.2131 22.3794C67.4168 22.3794 67.5959 22.3763 67.7503 22.3701C67.9109 22.3578 68.0437 22.3392 68.1486 22.3145V20.8787C68.0869 20.8479 67.985 20.8232 67.843 20.8046C67.7071 20.7799 67.5404 20.7676 67.3427 20.7676C67.2131 20.7676 67.0741 20.7768 66.9259 20.7954C66.7839 20.8139 66.6511 20.854 66.5276 20.9158C66.4103 20.9714 66.3114 21.0516 66.2312 21.1566C66.1509 21.2554 66.1107 21.3882 66.1107 21.5549C66.1107 21.8637 66.2096 22.0799 66.4072 22.2034C66.6048 22.3207 66.8734 22.3794 67.2131 22.3794ZM67.139 18.0627C67.4848 18.0627 67.775 18.1091 68.0097 18.2017C68.2505 18.2881 68.442 18.4147 68.584 18.5815C68.7322 18.742 68.8372 18.9366 68.899 19.1651C68.9607 19.3874 68.9916 19.6344 68.9916 19.9061V22.9166C68.9175 22.929 68.8125 22.9475 68.6766 22.9722C68.547 22.9907 68.3987 23.0093 68.232 23.0278C68.0653 23.0463 67.8831 23.0618 67.6855 23.0741C67.494 23.0926 67.3026 23.1019 67.1112 23.1019C66.8394 23.1019 66.5893 23.0741 66.3608 23.0185C66.1324 22.9629 65.9347 22.8765 65.768 22.7592C65.6013 22.6356 65.4716 22.4751 65.379 22.2775C65.2863 22.0799 65.24 21.8421 65.24 21.5642C65.24 21.2987 65.2925 21.0702 65.3975 20.8787C65.5086 20.6873 65.6568 20.5329 65.8421 20.4156C66.0274 20.2982 66.2435 20.2118 66.4905 20.1562C66.7376 20.1006 66.9969 20.0728 67.2686 20.0728C67.3551 20.0728 67.4446 20.079 67.5373 20.0914C67.6299 20.0975 67.7164 20.1099 67.7966 20.1284C67.8831 20.1408 67.9572 20.1531 68.019 20.1655C68.0807 20.1778 68.1239 20.1871 68.1486 20.1933V19.9524C68.1486 19.8104 68.1332 19.6714 68.1023 19.5356C68.0714 19.3935 68.0159 19.27 67.9356 19.1651C67.8553 19.0539 67.7441 18.9674 67.6021 18.9057C67.4663 18.8378 67.2872 18.8038 67.0648 18.8038C66.7808 18.8038 66.5307 18.8254 66.3145 18.8686C66.1046 18.9057 65.9471 18.9458 65.8421 18.9891L65.7402 18.2758C65.8514 18.2264 66.0366 18.1801 66.296 18.1368C66.5554 18.0874 66.8364 18.0627 67.139 18.0627ZM70.9689 18.1832V19.6004C70.9689 19.9648 71.0615 20.2211 71.2468 20.3693C71.4321 20.5113 71.6853 20.5823 72.0064 20.5823C72.2411 20.5823 72.4356 20.57 72.59 20.5453C72.7505 20.5206 72.8926 20.4928 73.0161 20.4619V18.1832H73.8775V23H73.0161V21.1288C72.9667 21.1412 72.9018 21.1566 72.8215 21.1752C72.7413 21.1937 72.6486 21.2122 72.5436 21.2307C72.4448 21.2431 72.3399 21.2554 72.2287 21.2678C72.1175 21.2801 72.0095 21.2863 71.9045 21.2863C71.6389 21.2863 71.395 21.2585 71.1727 21.2029C70.9566 21.1474 70.7682 21.0547 70.6076 20.9251C70.4533 20.7954 70.3298 20.6255 70.2371 20.4156C70.1507 20.1994 70.1074 19.9308 70.1074 19.6097V18.1832H70.9689ZM76.9918 22.3794C77.1956 22.3794 77.3747 22.3763 77.5291 22.3701C77.6897 22.3578 77.8224 22.3392 77.9274 22.3145V20.8787C77.8657 20.8479 77.7638 20.8232 77.6217 20.8046C77.4859 20.7799 77.3191 20.7676 77.1215 20.7676C76.9918 20.7676 76.8529 20.7768 76.7047 20.7954C76.5627 20.8139 76.4299 20.854 76.3064 20.9158C76.189 20.9714 76.0902 21.0516 76.0099 21.1566C75.9297 21.2554 75.8895 21.3882 75.8895 21.5549C75.8895 21.8637 75.9883 22.0799 76.1859 22.2034C76.3836 22.3207 76.6522 22.3794 76.9918 22.3794ZM76.9177 18.0627C77.2636 18.0627 77.5538 18.1091 77.7885 18.2017C78.0293 18.2881 78.2208 18.4147 78.3628 18.5815C78.511 18.742 78.616 18.9366 78.6777 19.1651C78.7395 19.3874 78.7704 19.6344 78.7704 19.9061V22.9166C78.6963 22.929 78.5913 22.9475 78.4554 22.9722C78.3257 22.9907 78.1775 23.0093 78.0108 23.0278C77.8441 23.0463 77.6619 23.0618 77.4643 23.0741C77.2728 23.0926 77.0814 23.1019 76.8899 23.1019C76.6182 23.1019 76.3681 23.0741 76.1396 23.0185C75.9111 22.9629 75.7135 22.8765 75.5468 22.7592C75.3801 22.6356 75.2504 22.4751 75.1577 22.2775C75.0651 22.0799 75.0188 21.8421 75.0188 21.5642C75.0188 21.2987 75.0713 21.0702 75.1763 20.8787C75.2874 20.6873 75.4356 20.5329 75.6209 20.4156C75.8062 20.2982 76.0223 20.2118 76.2693 20.1562C76.5163 20.1006 76.7757 20.0728 77.0474 20.0728C77.1339 20.0728 77.2234 20.079 77.3161 20.0914C77.4087 20.0975 77.4951 20.1099 77.5754 20.1284C77.6619 20.1408 77.736 20.1531 77.7977 20.1655C77.8595 20.1778 77.9027 20.1871 77.9274 20.1933V19.9524C77.9274 19.8104 77.912 19.6714 77.8811 19.5356C77.8502 19.3935 77.7947 19.27 77.7144 19.1651C77.6341 19.0539 77.5229 18.9674 77.3809 18.9057C77.245 18.8378 77.0659 18.8038 76.8436 18.8038C76.5596 18.8038 76.3095 18.8254 76.0933 18.8686C75.8834 18.9057 75.7259 18.9458 75.6209 18.9891L75.519 18.2758C75.6302 18.2264 75.8154 18.1801 76.0748 18.1368C76.3342 18.0874 76.6151 18.0627 76.9177 18.0627ZM83.6007 18.1832V18.9057H82.0353V23H81.1738V18.9057H79.6083V18.1832H83.6007ZM86.3138 22.3979C86.6782 22.3979 86.9653 22.3269 87.1753 22.1848C87.3853 22.0428 87.4903 21.8143 87.4903 21.4994C87.4903 21.345 87.4594 21.2122 87.3976 21.1011C87.3359 20.9899 87.2494 20.9004 87.1383 20.8324C87.0333 20.7583 86.9098 20.7058 86.7677 20.6749C86.6257 20.6379 86.4744 20.6194 86.3138 20.6194C86.1471 20.6194 85.9742 20.6255 85.7951 20.6379C85.6222 20.6441 85.474 20.6626 85.3505 20.6935V22.3516C85.3875 22.3578 85.4431 22.3639 85.5172 22.3701C85.5913 22.3763 85.6716 22.3825 85.758 22.3886C85.8507 22.3886 85.9433 22.3917 86.0359 22.3979C86.1347 22.3979 86.2274 22.3979 86.3138 22.3979ZM84.489 22.8981V18.1832H85.3505V20.0265C85.3999 20.0142 85.4647 20.0018 85.545 19.9895C85.6315 19.9771 85.721 19.9648 85.8136 19.9524C85.9124 19.9401 86.0143 19.9308 86.1193 19.9246C86.2243 19.9185 86.3231 19.9154 86.4157 19.9154C86.6813 19.9154 86.9314 19.9462 87.166 20.008C87.4007 20.0636 87.6045 20.1562 87.7774 20.2859C87.9565 20.4094 88.0985 20.5731 88.2035 20.7768C88.3085 20.9745 88.361 21.2122 88.361 21.4901C88.361 21.7804 88.3116 22.0274 88.2128 22.2312C88.114 22.4349 87.9719 22.6017 87.7867 22.7314C87.6014 22.8611 87.3791 22.9537 87.1197 23.0093C86.8665 23.071 86.5825 23.1019 86.2675 23.1019C85.9587 23.1019 85.6562 23.0834 85.3597 23.0463C85.0633 23.0154 84.7731 22.966 84.489 22.8981ZM93.6203 23.1112C93.2312 23.1112 92.8885 23.0494 92.5921 22.9259C92.3018 22.8024 92.0548 22.6295 91.851 22.4072C91.6534 22.1848 91.5052 21.9224 91.4064 21.6198C91.3076 21.311 91.2582 20.9714 91.2582 20.6008C91.2582 20.2303 91.3107 19.8907 91.4157 19.5819C91.5268 19.2731 91.6812 19.0076 91.8788 18.7853C92.0764 18.5568 92.3173 18.3808 92.6013 18.2573C92.8916 18.1276 93.2127 18.0627 93.5647 18.0627C93.7809 18.0627 93.997 18.0813 94.2131 18.1183C94.4293 18.1554 94.6362 18.214 94.8338 18.2943L94.6392 19.0261C94.5096 18.9644 94.3583 18.9149 94.1853 18.8779C94.0186 18.8408 93.8395 18.8223 93.6481 18.8223C93.1664 18.8223 92.7959 18.9736 92.5365 19.2762C92.2833 19.5788 92.1567 20.0204 92.1567 20.6008C92.1567 20.8602 92.1845 21.098 92.2401 21.3141C92.3018 21.5302 92.3945 21.7155 92.518 21.8699C92.6477 22.0243 92.8113 22.1447 93.0089 22.2312C93.2065 22.3114 93.4474 22.3516 93.7315 22.3516C93.9599 22.3516 94.1668 22.33 94.3521 22.2867C94.5373 22.2435 94.6825 22.1972 94.7875 22.1478L94.9079 22.8703C94.8585 22.9012 94.7875 22.9321 94.6948 22.9629C94.6022 22.9876 94.4972 23.0093 94.3799 23.0278C94.2625 23.0525 94.1359 23.071 94.0001 23.0834C93.8704 23.1019 93.7438 23.1112 93.6203 23.1112ZM95.5641 20.6008C95.5641 20.1747 95.6259 19.8042 95.7494 19.4893C95.8729 19.1681 96.0365 18.9026 96.2403 18.6926C96.4441 18.4827 96.6788 18.3252 96.9443 18.2202C97.2099 18.1152 97.4816 18.0627 97.7595 18.0627C98.4079 18.0627 98.905 18.2665 99.2509 18.6741C99.5967 19.0755 99.7696 19.69 99.7696 20.5175C99.7696 20.5545 99.7696 20.6039 99.7696 20.6657C99.7696 20.7213 99.7665 20.7738 99.7603 20.8232H96.4626C96.4997 21.3234 96.6448 21.7032 96.898 21.9625C97.1512 22.2219 97.5464 22.3516 98.0837 22.3516C98.3863 22.3516 98.6395 22.3269 98.8433 22.2775C99.0532 22.2219 99.2107 22.1694 99.3157 22.12L99.4361 22.8425C99.3311 22.8981 99.1459 22.9568 98.8803 23.0185C98.621 23.0803 98.3245 23.1112 97.9911 23.1112C97.5711 23.1112 97.2068 23.0494 96.898 22.9259C96.5954 22.7962 96.3453 22.6202 96.1477 22.3979C95.9501 22.1756 95.8019 21.9131 95.7031 21.6105C95.6104 21.3018 95.5641 20.9652 95.5641 20.6008ZM98.8711 20.1284C98.8772 19.7394 98.7784 19.4213 98.5746 19.1743C98.377 18.9211 98.1022 18.7945 97.7502 18.7945C97.5526 18.7945 97.3766 18.8347 97.2222 18.9149C97.074 18.9891 96.9474 19.0879 96.8424 19.2114C96.7374 19.3349 96.6541 19.4769 96.5923 19.6375C96.5367 19.798 96.4997 19.9617 96.4812 20.1284H98.8711ZM105.055 18.1832V23H104.221V19.3318C104.036 19.5665 103.832 19.8413 103.61 20.1562C103.388 20.4712 103.165 20.7985 102.943 21.1381C102.721 21.4716 102.508 21.802 102.304 22.1293C102.1 22.4566 101.924 22.7468 101.776 23H101.007V18.1832H101.841V21.6476C102.001 21.382 102.184 21.0918 102.387 20.7768C102.591 20.4557 102.801 20.1408 103.017 19.832C103.24 19.5171 103.459 19.2175 103.675 18.9335C103.897 18.6432 104.104 18.3931 104.296 18.1832H105.055ZM103.036 17.4051C102.647 17.4051 102.329 17.3062 102.082 17.1086C101.841 16.911 101.696 16.6362 101.646 16.2842L102.304 16.1082C102.353 16.3058 102.437 16.4664 102.554 16.5899C102.671 16.7134 102.832 16.7752 103.036 16.7752C103.24 16.7752 103.4 16.7134 103.517 16.5899C103.635 16.4664 103.718 16.3058 103.768 16.1082L104.416 16.2842C104.367 16.6362 104.221 16.911 103.981 17.1086C103.74 17.3062 103.425 17.4051 103.036 17.4051ZM107.081 18.1832V19.6004C107.081 19.9648 107.173 20.2211 107.359 20.3693C107.544 20.5113 107.797 20.5823 108.118 20.5823C108.353 20.5823 108.547 20.57 108.702 20.5453C108.862 20.5206 109.004 20.4928 109.128 20.4619V18.1832H109.989V23H109.128V21.1288C109.079 21.1412 109.014 21.1566 108.933 21.1752C108.853 21.1937 108.76 21.2122 108.655 21.2307C108.557 21.2431 108.452 21.2554 108.341 21.2678C108.229 21.2801 108.121 21.2863 108.016 21.2863C107.751 21.2863 107.507 21.2585 107.285 21.2029C107.068 21.1474 106.88 21.0547 106.719 20.9251C106.565 20.7954 106.442 20.6255 106.349 20.4156C106.263 20.1994 106.219 19.9308 106.219 19.6097V18.1832H107.081ZM113.104 22.3794C113.307 22.3794 113.487 22.3763 113.641 22.3701C113.802 22.3578 113.934 22.3392 114.039 22.3145V20.8787C113.978 20.8479 113.876 20.8232 113.734 20.8046C113.598 20.7799 113.431 20.7676 113.233 20.7676C113.104 20.7676 112.965 20.7768 112.817 20.7954C112.674 20.8139 112.542 20.854 112.418 20.9158C112.301 20.9714 112.202 21.0516 112.122 21.1566C112.042 21.2554 112.001 21.3882 112.001 21.5549C112.001 21.8637 112.1 22.0799 112.298 22.2034C112.495 22.3207 112.764 22.3794 113.104 22.3794ZM113.03 18.0627C113.375 18.0627 113.666 18.1091 113.9 18.2017C114.141 18.2881 114.333 18.4147 114.475 18.5815C114.623 18.742 114.728 18.9366 114.79 19.1651C114.851 19.3874 114.882 19.6344 114.882 19.9061V22.9166C114.808 22.929 114.703 22.9475 114.567 22.9722C114.438 22.9907 114.289 23.0093 114.123 23.0278C113.956 23.0463 113.774 23.0618 113.576 23.0741C113.385 23.0926 113.193 23.1019 113.002 23.1019C112.73 23.1019 112.48 23.0741 112.251 23.0185C112.023 22.9629 111.825 22.8765 111.659 22.7592C111.492 22.6356 111.362 22.4751 111.27 22.2775C111.177 22.0799 111.131 21.8421 111.131 21.5642C111.131 21.2987 111.183 21.0702 111.288 20.8787C111.399 20.6873 111.547 20.5329 111.733 20.4156C111.918 20.2982 112.134 20.2118 112.381 20.1562C112.628 20.1006 112.888 20.0728 113.159 20.0728C113.246 20.0728 113.335 20.079 113.428 20.0914C113.521 20.0975 113.607 20.1099 113.687 20.1284C113.774 20.1408 113.848 20.1531 113.91 20.1655C113.971 20.1778 114.015 20.1871 114.039 20.1933V19.9524C114.039 19.8104 114.024 19.6714 113.993 19.5356C113.962 19.3935 113.906 19.27 113.826 19.1651C113.746 19.0539 113.635 18.9674 113.493 18.9057C113.357 18.8378 113.178 18.8038 112.955 18.8038C112.671 18.8038 112.421 18.8254 112.205 18.8686C111.995 18.9057 111.838 18.9458 111.733 18.9891L111.631 18.2758C111.742 18.2264 111.927 18.1801 112.187 18.1368C112.446 18.0874 112.727 18.0627 113.03 18.0627ZM118.406 23.1112C118.017 23.1112 117.675 23.0494 117.378 22.9259C117.088 22.8024 116.841 22.6295 116.637 22.4072C116.44 22.1848 116.291 21.9224 116.193 21.6198C116.094 21.311 116.044 20.9714 116.044 20.6008C116.044 20.2303 116.097 19.8907 116.202 19.5819C116.313 19.2731 116.467 19.0076 116.665 18.7853C116.863 18.5568 117.103 18.3808 117.388 18.2573C117.678 18.1276 117.999 18.0627 118.351 18.0627C118.567 18.0627 118.783 18.0813 118.999 18.1183C119.215 18.1554 119.422 18.214 119.62 18.2943L119.425 19.0261C119.296 18.9644 119.144 18.9149 118.972 18.8779C118.805 18.8408 118.626 18.8223 118.434 18.8223C117.953 18.8223 117.582 18.9736 117.323 19.2762C117.07 19.5788 116.943 20.0204 116.943 20.6008C116.943 20.8602 116.971 21.098 117.026 21.3141C117.088 21.5302 117.181 21.7155 117.304 21.8699C117.434 22.0243 117.598 22.1447 117.795 22.2312C117.993 22.3114 118.234 22.3516 118.518 22.3516C118.746 22.3516 118.953 22.33 119.138 22.2867C119.324 22.2435 119.469 22.1972 119.574 22.1478L119.694 22.8703C119.645 22.9012 119.574 22.9321 119.481 22.9629C119.388 22.9876 119.283 23.0093 119.166 23.0278C119.049 23.0525 118.922 23.071 118.786 23.0834C118.657 23.1019 118.53 23.1112 118.406 23.1112Z" fill="#FBFBFB"/>
</svg>
