<svg width="735" height="271" viewBox="0 0 735 271" fill="none" xmlns="http://www.w3.org/2000/svg">
<rect x="1.5" y="1.5" width="731.158" height="268" rx="41.5" fill="white" stroke="#090909" stroke-width="3"/>
<path d="M169.905 129.521C170.049 118.325 176.038 107.731 185.54 101.866C179.545 93.2723 169.506 87.8233 159.06 87.4953C147.919 86.3213 137.118 94.1879 131.441 94.1879C125.654 94.1879 116.913 87.6118 107.5 87.8062C95.2314 88.2042 83.7937 95.2068 77.8246 105.975C64.9934 128.277 74.5643 161.053 86.8555 179.081C93.0051 187.908 100.192 197.768 109.596 197.419C118.799 197.036 122.236 191.528 133.344 191.528C144.349 191.528 147.574 197.419 157.169 197.196C167.043 197.035 173.265 188.33 179.199 179.419C183.617 173.129 187.017 166.177 189.273 158.821C177.668 153.894 169.918 142.17 169.905 129.521Z" fill="#090909"/>
<path d="M151.782 75.6397C157.166 69.151 159.818 60.811 159.176 52.3906C150.95 53.258 143.352 57.2047 137.895 63.4444C132.559 69.5409 129.782 77.7342 130.307 85.8327C138.536 85.9177 146.625 82.078 151.782 75.6397Z" fill="#090909"/>
<path d="M498.133 100.95V114.518H489.661V123.415H498.133V153.647C498.133 163.97 502.784 168.099 514.487 168.099C516.544 168.099 518.502 167.853 520.216 167.558V158.759C518.747 158.906 517.817 159.005 516.201 159.005C510.962 159.005 508.66 156.547 508.66 150.943V123.415H520.216V114.518H508.66V100.95H498.133Z" fill="#090909"/>
<path d="M550.028 168.836C565.6 168.836 575.148 158.366 575.148 141.013C575.148 123.759 565.551 113.24 550.028 113.24C534.457 113.24 524.86 123.759 524.86 141.013C524.86 158.366 534.408 168.836 550.028 168.836ZM550.028 159.447C540.872 159.447 535.73 152.713 535.73 141.013C535.73 129.412 540.872 122.628 550.028 122.628C559.136 122.628 564.327 129.412 564.327 141.013C564.327 152.663 559.136 159.447 550.028 159.447Z" fill="#090909"/>
<path d="M583.317 167.804H593.845V136.196C593.845 128.675 599.476 123.612 607.458 123.612C609.318 123.612 612.452 123.956 613.333 124.251V113.829C612.207 113.534 610.2 113.387 608.633 113.387C601.68 113.387 595.755 117.221 594.237 122.481H593.453V114.272H583.317V167.804Z" fill="#090909"/>
<path d="M639.473 122.235C647.259 122.235 652.351 127.692 652.596 136.098H625.665C626.253 127.741 631.688 122.235 639.473 122.235ZM652.547 153.352C650.589 157.53 646.231 159.84 639.865 159.84C631.443 159.84 626.008 153.892 625.665 144.503V143.913H663.32V140.227C663.32 123.415 654.359 113.24 639.522 113.24C624.49 113.24 614.942 124.103 614.942 141.21C614.942 158.316 624.294 168.836 639.571 168.836C651.764 168.836 660.284 162.937 662.683 153.352H652.547Z" fill="#090909"/>
<path d="M429.094 148.035C429.906 161.18 440.817 169.587 457.058 169.587C474.415 169.587 485.276 160.773 485.276 146.711C485.276 135.654 479.084 129.54 464.062 126.025L455.992 124.038C446.451 121.796 442.594 118.79 442.594 113.542C442.594 106.919 448.582 102.588 457.565 102.588C466.092 102.588 471.979 106.817 473.045 113.593H484.109C483.449 101.212 472.588 92.5 457.718 92.5C441.731 92.5 431.073 101.212 431.073 114.306C431.073 125.108 437.112 131.528 450.359 134.635L459.798 136.928C469.492 139.221 473.755 142.584 473.755 148.188C473.755 154.71 467.056 159.448 457.921 159.448C448.126 159.448 441.325 155.015 440.361 148.035H429.094Z" fill="#090909"/>
<path d="M320.038 113.387C312.791 113.387 306.523 117.025 303.292 123.12H302.508V114.272H292.372V185.599H302.9V159.693H303.732C306.523 165.346 312.546 168.689 320.136 168.689C333.601 168.689 342.17 158.022 342.17 141.013C342.17 124.005 333.601 113.387 320.038 113.387ZM317.051 159.201C308.237 159.201 302.704 152.221 302.704 141.062C302.704 129.855 308.237 122.874 317.1 122.874C326.012 122.874 331.349 129.707 331.349 141.013C331.349 152.368 326.012 159.201 317.051 159.201Z" fill="#090909"/>
<path d="M379.008 113.387C371.762 113.387 365.494 117.025 362.262 123.12H361.479V114.272H351.343V185.599H361.87V159.693H362.703C365.494 165.346 371.517 168.689 379.106 168.689C392.572 168.689 401.141 158.022 401.141 141.013C401.141 124.005 392.572 113.387 379.008 113.387ZM376.022 159.201C367.208 159.201 361.675 152.221 361.675 141.062C361.675 129.855 367.208 122.874 376.071 122.874C384.982 122.874 390.32 129.707 390.32 141.013C390.32 152.368 384.982 159.201 376.022 159.201Z" fill="#090909"/>
<path d="M273.484 167.804H285.563L259.121 94.2832H246.89L220.448 167.804H232.121L238.871 148.29H266.785L273.484 167.804ZM252.422 107.632H253.285L263.892 138.711H241.764L252.422 107.632Z" fill="#090909"/>
</svg>
