<svg width="198" height="189" viewBox="0 0 198 189" fill="none" xmlns="http://www.w3.org/2000/svg">
<g filter="url(#filter0_f_236_12769)">
<ellipse cx="95.3494" cy="155.584" rx="79.1795" ry="15.2748" fill="#1F88F8" fill-opacity="0.35"/>
</g>
<path d="M98.2803 174.243C143.629 174.243 180.391 137.481 180.391 92.1323C180.391 46.784 143.629 10.022 98.2803 10.022C52.932 10.022 16.1699 46.784 16.1699 92.1323C16.1699 137.481 52.932 174.243 98.2803 174.243Z" fill="url(#paint0_linear_236_12769)"/>
<path d="M161.8 43.2139H57.5059V94.682H161.8V43.2139Z" fill="url(#paint1_linear_236_12769)"/>
<path d="M161.801 43.2139H172.269C179.093 43.2139 185.638 45.9248 190.464 50.7503C195.289 55.5758 198 62.1206 198 68.9449C198 75.7692 195.289 82.314 190.464 87.1395C185.638 91.965 179.093 94.676 172.269 94.676H161.801V43.2139Z" fill="url(#paint2_linear_236_12769)"/>
<path d="M168.571 50.7847H174.56C179.166 50.7847 183.583 52.6143 186.84 55.8711C190.097 59.1279 191.926 63.5451 191.926 68.1509V69.745C191.926 74.3508 190.097 78.768 186.84 82.0248C183.583 85.2816 179.166 87.1112 174.56 87.1112H168.571V50.7847Z" fill="url(#paint3_linear_236_12769)"/>
<path d="M161.8 51.8511H66.2646V94.6816H161.8V51.8511Z" fill="url(#paint4_linear_236_12769)"/>
<rect x="32.5869" y="103.25" width="38.7335" height="49.6061" fill="url(#paint5_linear_236_12769)"/>
<rect x="80.1562" y="103.25" width="38.7335" height="49.6061" fill="url(#paint6_linear_236_12769)"/>
<rect x="127.724" y="103.25" width="25.1428" height="49.6061" fill="url(#paint7_linear_236_12769)"/>
<path d="M161.8 43.2139H152.896V94.682H161.8V43.2139Z" fill="url(#paint8_linear_236_12769)"/>
<path d="M80.1553 94.4165L71.3213 94.4165L71.3213 161.69L80.1552 161.69L80.1553 94.4165Z" fill="url(#paint9_linear_236_12769)"/>
<path fill-rule="evenodd" clip-rule="evenodd" d="M122.964 103.25V94.416H32.9644V94.4161H27.1506C25.2741 94.4161 23.7529 95.9373 23.7529 97.8138L23.7529 158.292C23.7529 160.169 25.2741 161.69 27.1506 161.69H32.9655V161.69H122.964V152.856H32.9655L32.9655 103.25H122.964Z" fill="url(#paint10_linear_236_12769)"/>
<path fill-rule="evenodd" clip-rule="evenodd" d="M127.724 94.416H152.867L161.701 94.416L161.701 158.292C161.701 160.169 160.18 161.69 158.303 161.69L152.867 161.69H127.724V152.856H152.867V103.25H127.724V94.416ZM127.724 94.4161H122.287C120.411 94.4161 118.89 95.9373 118.89 97.8138L118.89 161.69H127.724L127.724 94.4161Z" fill="url(#paint11_linear_236_12769)"/>
<path d="M64.4951 94.791V94.888V97.9491V120.249H88.8314C89.2067 120.249 89.5109 119.945 89.5109 119.57V97.9491V95.4706C89.5109 95.0953 89.2067 94.791 88.8314 94.791H64.4951Z" fill="url(#paint12_linear_236_12769)"/>
<path d="M63.0223 94.791C62.647 94.791 62.3428 95.0953 62.3428 95.4706V119.57C62.3428 119.945 62.647 120.249 63.0223 120.249H87.3586V94.791H63.0223Z" fill="url(#paint13_linear_236_12769)"/>
<path d="M83.1877 97.2275H66.5212C65.7706 97.2275 65.1621 97.836 65.1621 98.5866V116.247C65.1621 116.998 65.7706 117.606 66.5212 117.606H83.1877C83.9383 117.606 84.5468 116.998 84.5468 116.247V98.5866C84.5468 97.836 83.9383 97.2275 83.1877 97.2275Z" fill="url(#paint14_linear_236_12769)"/>
<g filter="url(#filter1_d_236_12769)">
<path d="M18.3174 77.562L27.7248 100.699C27.8533 101.016 28.0431 101.305 28.2834 101.548C28.5237 101.792 28.8097 101.986 29.1251 102.119C29.4404 102.252 29.7789 102.321 30.1211 102.323C30.4633 102.325 30.8025 102.259 31.1193 102.129L52.2012 93.5643C52.8422 93.3034 53.3535 92.7988 53.6229 92.1613C53.8922 91.5237 53.8976 90.8053 53.6377 90.1638L42.7634 63.4205C42.5026 62.781 41.9986 62.2711 41.3622 62.0029C40.7257 61.7347 40.0088 61.73 39.369 61.99L21.8512 69.1123L18.3174 77.562Z" fill="url(#paint15_linear_236_12769)"/>
</g>
<g filter="url(#filter2_d_236_12769)">
<path d="M167.312 63.9712L157.904 87.1079C157.776 87.4251 157.586 87.7138 157.345 87.9574C157.105 88.2011 156.819 88.3949 156.504 88.5278C156.188 88.6607 155.85 88.73 155.508 88.7319C155.166 88.7337 154.826 88.6679 154.51 88.5384L133.428 79.9735C132.787 79.7126 132.275 79.208 132.006 78.5704C131.737 77.9329 131.731 77.2145 131.991 76.573L142.866 49.8297C143.126 49.1902 143.63 48.6803 144.267 48.4121C144.903 48.1439 145.62 48.1392 146.26 48.3992L163.778 55.5214L167.312 63.9712Z" fill="url(#paint16_linear_236_12769)"/>
</g>
<path d="M18.3174 77.562L24.3001 75.1314L21.8573 69.1123L18.3174 77.562Z" fill="url(#paint17_linear_236_12769)"/>
<path d="M167.312 63.9712L161.329 61.5406L163.772 55.5215L167.312 63.9712Z" fill="url(#paint18_linear_236_12769)"/>
<path d="M77.4065 108.272C78.1779 107.73 78.7564 106.956 79.0582 106.062C79.36 105.169 79.3694 104.203 79.085 103.304C78.8006 102.405 78.2372 101.62 77.4766 101.063C76.7159 100.505 75.7975 100.205 74.8546 100.205C73.9117 100.205 72.9933 100.505 72.2327 101.063C71.472 101.62 70.9086 102.405 70.6242 103.304C70.3398 104.203 70.3492 105.169 70.651 106.062C70.9528 106.956 71.5314 107.73 72.3027 108.272L70.3994 114.824H79.3038L77.4065 108.272Z" fill="url(#paint19_linear_236_12769)"/>
<path d="M132.252 39.5103C132.252 40.4637 132.109 41.4118 131.828 42.3228C131.372 43.7836 130.567 45.1111 129.482 46.1901C129.163 46.5125 128.821 46.8103 128.457 47.0811C128.218 47.2673 127.967 47.4374 127.706 47.5903C127.445 47.7501 127.176 47.8958 126.9 48.0267C126.488 48.2301 126.06 48.4004 125.621 48.5359C124.71 48.817 123.762 48.9601 122.808 48.9602H121.05V94.5123H71.9521V38.5223C71.9601 36.2821 72.8536 34.136 74.4376 32.5519C76.0217 30.9679 78.1678 30.0745 80.4079 30.0665H122.784C123.964 30.0619 125.135 30.282 126.233 30.7151C126.537 30.8332 126.835 30.9688 127.124 31.1212C127.269 31.1939 127.409 31.2727 127.548 31.3576C127.663 31.4205 127.774 31.4893 127.882 31.5637C128.454 31.9259 128.985 32.3508 129.464 32.8305C130.106 33.4745 130.653 34.2074 131.088 35.0066C131.382 35.5452 131.622 36.1117 131.803 36.6978L131.931 37.1524C132.009 37.4561 132.072 37.7636 132.119 38.0737C132.2 38.5484 132.245 39.0287 132.252 39.5103Z" fill="url(#paint20_linear_236_12769)"/>
<path d="M132.252 39.5101C132.252 40.4635 132.109 41.4116 131.828 42.3226C131.642 42.9071 131.403 43.4733 131.113 44.0138C130.674 44.8119 130.125 45.5444 129.482 46.1899C129.164 46.5122 128.821 46.8101 128.458 47.0809C128.215 47.2627 127.967 47.4264 127.706 47.5901C127.446 47.7499 127.176 47.8956 126.9 48.0265C126.487 48.2274 126.059 48.3975 125.621 48.5357C124.71 48.8168 123.762 48.9598 122.809 48.96H121.051V38.5221C121.055 36.8529 121.551 35.2219 122.477 33.8332C123.403 32.4446 124.718 31.3599 126.258 30.7148C126.561 30.8361 126.864 30.9694 127.149 31.121C127.294 31.1937 127.434 31.2725 127.573 31.3574C127.688 31.4203 127.799 31.4891 127.906 31.5635C128.479 31.9257 129.01 32.3506 129.488 32.8303C130.131 33.4743 130.678 34.2071 131.113 35.0064C131.404 35.5462 131.644 36.1125 131.828 36.6975L131.955 37.1522C132.034 37.4557 132.097 37.7633 132.143 38.0735C132.217 38.5488 132.253 39.0291 132.252 39.5101Z" fill="url(#paint21_linear_236_12769)"/>
<path d="M111.247 77.9282H80.2423C79.7234 77.9282 79.3027 78.3475 79.3027 78.8647C79.3027 79.3819 79.7234 79.8012 80.2423 79.8012H111.247C111.766 79.8012 112.186 79.3819 112.186 78.8647C112.186 78.3475 111.766 77.9282 111.247 77.9282Z" fill="#A5C4F1"/>
<path d="M111.247 68.3208H80.2423C79.7234 68.3208 79.3027 68.7401 79.3027 69.2573C79.3027 69.7745 79.7234 70.1938 80.2423 70.1938H111.247C111.766 70.1938 112.186 69.7745 112.186 69.2573C112.186 68.7401 111.766 68.3208 111.247 68.3208Z" fill="#A5C4F1"/>
<path d="M111.248 58.707H91.2813C90.7624 58.707 90.3418 59.1263 90.3418 59.6435C90.3418 60.1607 90.7624 60.58 91.2813 60.58H111.248C111.767 60.58 112.187 60.1607 112.187 59.6435C112.187 59.1263 111.767 58.707 111.248 58.707Z" fill="#A5C4F1"/>
<path d="M98.1479 49.0938H80.0241C79.6257 49.0938 79.3027 49.4167 79.3027 49.8151V50.2454C79.3027 50.6438 79.6257 50.9668 80.0241 50.9668H98.1479C98.5463 50.9668 98.8693 50.6438 98.8693 50.2454V49.8151C98.8693 49.4167 98.5463 49.0938 98.1479 49.0938Z" fill="#A5C4F1"/>
<path d="M86.9099 58.707H80.2423C79.7234 58.707 79.3027 59.1263 79.3027 59.6435C79.3027 60.1607 79.7234 60.58 80.2423 60.58H86.9099C87.4288 60.58 87.8494 60.1607 87.8494 59.6435C87.8494 59.1263 87.4288 58.707 86.9099 58.707Z" fill="#A5C4F1"/>
<path d="M32.9268 103.25H35.9847V152.857H32.9268V103.25Z" fill="url(#paint22_linear_236_12769)"/>
<path d="M80.1562 120.239H82.8744V152.856H80.1562V120.239Z" fill="url(#paint23_linear_236_12769)"/>
<path d="M127.724 103.25H130.782V152.857H127.724V103.25Z" fill="url(#paint24_linear_236_12769)"/>
<g filter="url(#filter3_f_236_12769)">
<ellipse cx="44.5027" cy="61.3904" rx="26.1853" ry="8.41672" fill="#FF4C77" fill-opacity="0.3"/>
</g>
<path d="M19.948 49.1261C20.453 52.8964 21.9048 56.4773 24.1678 59.5349C26.4309 62.5924 29.4315 65.0269 32.8898 66.6113C36.348 68.1957 40.1513 68.8784 43.9447 68.5956C47.7381 68.3129 51.3981 67.0739 54.5833 64.9942L63.2612 67.9444C63.523 68.0306 63.804 68.0401 64.071 67.9717C64.338 67.9033 64.5799 67.7599 64.7679 67.5584C64.956 67.3569 65.0824 67.1058 65.1323 66.8347C65.1821 66.5636 65.1533 66.2839 65.0492 66.0287L61.5691 57.7275C63.42 54.644 64.5053 51.1621 64.7343 47.573C64.9633 43.984 64.3292 40.3924 62.8851 37.0987C61.4411 33.8051 59.2291 30.9052 56.4343 28.6419C53.6394 26.3787 50.3431 24.8178 46.8212 24.0899C43.2993 23.3621 39.6543 23.4885 36.1913 24.4586C32.7283 25.4286 29.548 27.2141 26.9167 29.6655C24.2854 32.117 22.2796 35.1631 21.0671 38.5489C19.8547 41.9346 19.4709 45.5616 19.948 49.1261Z" fill="url(#paint25_linear_236_12769)"/>
<path d="M41.6766 57.6597C44.1215 57.6597 45.8631 55.985 45.8631 53.6406C45.8631 51.2961 44.1215 49.6215 41.6766 49.6215C39.2651 49.6215 37.4901 51.2961 37.4901 53.6406C37.4901 55.985 39.2651 57.6597 41.6766 57.6597ZM45.0258 48.9517C45.0258 46.7412 46.2985 45.9374 48.0401 45.1336C50.3511 44.0618 52.0592 41.8848 52.0592 39.2054C52.0592 34.9854 47.9061 32.0381 42.2794 32.0381C36.2508 32.0381 31.9973 35.4208 31.6289 40.1432L39.3321 41.5499C39.5331 39.7078 40.5044 38.4016 41.8775 38.4016C42.9158 38.4016 43.6861 39.105 43.6861 40.0762C43.6861 41.215 42.5474 41.9183 41.6431 42.4542C39.2316 44.0283 38.3274 45.7699 38.3274 48.9517H45.0258Z" fill="white"/>
<path d="M154.251 32.999C154.251 34.8928 152.716 36.428 150.822 36.428C148.928 36.428 147.393 34.8928 147.393 32.999C147.393 31.1052 148.928 29.57 150.822 29.57C152.716 29.57 154.251 31.1052 154.251 32.999Z" stroke="url(#paint26_linear_236_12769)" stroke-width="1.87038"/>
<circle cx="130.777" cy="169.729" r="3.42903" stroke="url(#paint27_linear_236_12769)" stroke-width="1.87038"/>
<path d="M15.4761 125.445C16.4239 125.293 17.1806 126.224 16.8381 127.121L14.5265 133.174C14.1841 134.071 12.9993 134.26 12.394 133.516L8.30787 128.487C7.70252 127.742 8.13059 126.621 9.07839 126.47L15.4761 125.445Z" fill="url(#paint28_linear_236_12769)"/>
<path d="M173.645 120.27C173.408 119.34 174.266 118.502 175.19 118.762L181.428 120.515C182.352 120.774 182.648 121.937 181.962 122.608L177.325 127.133C176.638 127.803 175.483 127.479 175.246 126.549L173.645 120.27Z" fill="url(#paint29_linear_236_12769)"/>
<path d="M90.5271 6.02552C90.8957 4.4986 93.0675 4.49859 93.4361 6.02551L94.6767 11.1646C94.8084 11.7102 95.2344 12.1363 95.7801 12.268L100.919 13.5085C102.446 13.8771 102.446 16.049 100.919 16.4176L95.7801 17.6581C95.2344 17.7898 94.8084 18.2159 94.6767 18.7615L93.4361 23.9006C93.0675 25.4275 90.8957 25.4275 90.5271 23.9006L89.2865 18.7615C89.1548 18.2159 88.7288 17.7898 88.1831 17.6581L83.0441 16.4176C81.5172 16.049 81.5171 13.8771 83.0441 13.5085L88.1831 12.268C88.7288 12.1363 89.1548 11.7102 89.2865 11.1646L90.5271 6.02552Z" fill="url(#paint30_linear_236_12769)"/>
<path d="M52.5866 164.947C52.9552 163.42 55.1271 163.42 55.4957 164.947L56.7362 170.086C56.868 170.632 57.294 171.058 57.8397 171.19L62.9787 172.43C64.5056 172.799 64.5056 174.971 62.9787 175.339L57.8397 176.58C57.294 176.712 56.868 177.138 56.7362 177.683L55.4957 182.822C55.1271 184.349 52.9552 184.349 52.5866 182.822L51.3461 177.683C51.2144 177.138 50.7884 176.712 50.2427 176.58L45.1036 175.339C43.5767 174.971 43.5767 172.799 45.1036 172.43L50.2427 171.19C50.7884 171.058 51.2144 170.632 51.3461 170.086L52.5866 164.947Z" fill="url(#paint31_linear_236_12769)"/>
<defs>
<filter id="filter0_f_236_12769" x="0.58341" y="124.723" width="189.532" height="61.7228" filterUnits="userSpaceOnUse" color-interpolation-filters="sRGB">
<feFlood flood-opacity="0" result="BackgroundImageFix"/>
<feBlend mode="normal" in="SourceGraphic" in2="BackgroundImageFix" result="shape"/>
<feGaussianBlur stdDeviation="7.79326" result="effect1_foregroundBlur_236_12769"/>
</filter>
<filter id="filter1_d_236_12769" x="16.2788" y="61.7983" width="49.1024" height="54.7947" filterUnits="userSpaceOnUse" color-interpolation-filters="sRGB">
<feFlood flood-opacity="0" result="BackgroundImageFix"/>
<feColorMatrix in="SourceAlpha" type="matrix" values="0 0 0 0 0 0 0 0 0 0 0 0 0 0 0 0 0 0 127 0" result="hardAlpha"/>
<feOffset dx="4.75675" dy="7.47489"/>
<feGaussianBlur stdDeviation="3.39768"/>
<feComposite in2="hardAlpha" operator="out"/>
<feColorMatrix type="matrix" values="0 0 0 0 0.184314 0 0 0 0 0.254902 0 0 0 0 0.443137 0 0 0 0.15 0"/>
<feBlend mode="normal" in2="BackgroundImageFix" result="effect1_dropShadow_236_12769"/>
<feBlend mode="normal" in="SourceGraphic" in2="effect1_dropShadow_236_12769" result="shape"/>
</filter>
<filter id="filter2_d_236_12769" x="129.761" y="48.2075" width="49.1024" height="54.7947" filterUnits="userSpaceOnUse" color-interpolation-filters="sRGB">
<feFlood flood-opacity="0" result="BackgroundImageFix"/>
<feColorMatrix in="SourceAlpha" type="matrix" values="0 0 0 0 0 0 0 0 0 0 0 0 0 0 0 0 0 0 127 0" result="hardAlpha"/>
<feOffset dx="4.75675" dy="7.47489"/>
<feGaussianBlur stdDeviation="3.39768"/>
<feComposite in2="hardAlpha" operator="out"/>
<feColorMatrix type="matrix" values="0 0 0 0 0.184314 0 0 0 0 0.254902 0 0 0 0 0.443137 0 0 0 0.15 0"/>
<feBlend mode="normal" in2="BackgroundImageFix" result="effect1_dropShadow_236_12769"/>
<feBlend mode="normal" in="SourceGraphic" in2="effect1_dropShadow_236_12769" result="shape"/>
</filter>
<filter id="filter3_f_236_12769" x="2.73087" y="37.3871" width="83.5441" height="48.0065" filterUnits="userSpaceOnUse" color-interpolation-filters="sRGB">
<feFlood flood-opacity="0" result="BackgroundImageFix"/>
<feBlend mode="normal" in="SourceGraphic" in2="BackgroundImageFix" result="shape"/>
<feGaussianBlur stdDeviation="7.79326" result="effect1_foregroundBlur_236_12769"/>
</filter>
<linearGradient id="paint0_linear_236_12769" x1="97.6473" y1="-16.7152" x2="99.3294" y2="271.644" gradientUnits="userSpaceOnUse">
<stop stop-color="#CAE0FF" stop-opacity="0"/>
<stop offset="1" stop-color="#BCD8FF"/>
</linearGradient>
<linearGradient id="paint1_linear_236_12769" x1="109.653" y1="43.2139" x2="109.653" y2="94.682" gradientUnits="userSpaceOnUse">
<stop stop-color="#ABCCFF"/>
<stop offset="1" stop-color="#70A8FF"/>
</linearGradient>
<linearGradient id="paint2_linear_236_12769" x1="179.9" y1="43.2139" x2="179.9" y2="94.676" gradientUnits="userSpaceOnUse">
<stop stop-color="#70A8FF"/>
<stop offset="1" stop-color="#5597FD"/>
</linearGradient>
<linearGradient id="paint3_linear_236_12769" x1="195.337" y1="88.3003" x2="172.233" y2="57.7212" gradientUnits="userSpaceOnUse">
<stop stop-color="#EDF4FF"/>
<stop offset="1" stop-color="#ABCCFF"/>
</linearGradient>
<linearGradient id="paint4_linear_236_12769" x1="114.032" y1="51.8511" x2="114.032" y2="94.6816" gradientUnits="userSpaceOnUse">
<stop stop-color="#2A64BE"/>
<stop offset="1" stop-color="#6095E7"/>
</linearGradient>
<linearGradient id="paint5_linear_236_12769" x1="81.8532" y1="171.204" x2="34.2858" y2="126.355" gradientUnits="userSpaceOnUse">
<stop stop-color="#EDF4FF"/>
<stop offset="1" stop-color="#ABCCFF"/>
</linearGradient>
<linearGradient id="paint6_linear_236_12769" x1="120.928" y1="157.274" x2="73.3609" y2="137.567" gradientUnits="userSpaceOnUse">
<stop stop-color="#EDF4FF"/>
<stop offset="1" stop-color="#ABCCFF"/>
</linearGradient>
<linearGradient id="paint7_linear_236_12769" x1="163.059" y1="158.293" x2="118.89" y2="116.501" gradientUnits="userSpaceOnUse">
<stop stop-color="#EDF4FF"/>
<stop offset="1" stop-color="#ABCCFF"/>
</linearGradient>
<linearGradient id="paint8_linear_236_12769" x1="157.348" y1="43.2139" x2="157.348" y2="94.682" gradientUnits="userSpaceOnUse">
<stop stop-color="#ABCCFF"/>
<stop offset="1" stop-color="#70A8FF"/>
</linearGradient>
<linearGradient id="paint9_linear_236_12769" x1="60.4487" y1="115.142" x2="54.3329" y2="174.602" gradientUnits="userSpaceOnUse">
<stop stop-color="#ABCCFF"/>
<stop offset="1" stop-color="#70A8FF"/>
</linearGradient>
<linearGradient id="paint10_linear_236_12769" x1="22.0541" y1="106.308" x2="119.227" y2="151.156" gradientUnits="userSpaceOnUse">
<stop stop-color="#ABCCFF"/>
<stop offset="1" stop-color="#70A8FF"/>
</linearGradient>
<linearGradient id="paint11_linear_236_12769" x1="195.339" y1="136.207" x2="134.519" y2="138.246" gradientUnits="userSpaceOnUse">
<stop stop-color="#70A8FF"/>
<stop offset="1" stop-color="#5597FD"/>
</linearGradient>
<linearGradient id="paint12_linear_236_12769" x1="77.003" y1="94.791" x2="77.003" y2="120.249" gradientUnits="userSpaceOnUse">
<stop stop-color="#70A8FF"/>
<stop offset="1" stop-color="#5597FD"/>
</linearGradient>
<linearGradient id="paint13_linear_236_12769" x1="74.8507" y1="94.791" x2="74.8507" y2="120.249" gradientUnits="userSpaceOnUse">
<stop stop-color="#ABCCFF"/>
<stop offset="1" stop-color="#70A8FF"/>
</linearGradient>
<linearGradient id="paint14_linear_236_12769" x1="74.8544" y1="97.2275" x2="74.8544" y2="117.606" gradientUnits="userSpaceOnUse">
<stop stop-color="#70A8FF"/>
<stop offset="1" stop-color="#5597FD"/>
</linearGradient>
<linearGradient id="paint15_linear_236_12769" x1="49.9749" y1="79.8336" x2="26.0649" y2="77.4463" gradientUnits="userSpaceOnUse">
<stop stop-color="#C6DDFF"/>
<stop offset="1" stop-color="white"/>
</linearGradient>
<linearGradient id="paint16_linear_236_12769" x1="135.654" y1="66.2427" x2="159.564" y2="63.8554" gradientUnits="userSpaceOnUse">
<stop stop-color="#C6DDFF"/>
<stop offset="1" stop-color="white"/>
</linearGradient>
<linearGradient id="paint17_linear_236_12769" x1="21.3087" y1="69.1123" x2="21.3087" y2="77.562" gradientUnits="userSpaceOnUse">
<stop stop-color="#EDF4FF"/>
<stop offset="1" stop-color="#ABCCFF"/>
</linearGradient>
<linearGradient id="paint18_linear_236_12769" x1="164.32" y1="55.5215" x2="164.32" y2="63.9712" gradientUnits="userSpaceOnUse">
<stop stop-color="#EDF4FF"/>
<stop offset="1" stop-color="#ABCCFF"/>
</linearGradient>
<linearGradient id="paint19_linear_236_12769" x1="72.6809" y1="110.725" x2="81.5149" y2="111.065" gradientUnits="userSpaceOnUse">
<stop stop-color="#2A64BE"/>
<stop offset="1" stop-color="#4B80D1"/>
</linearGradient>
<linearGradient id="paint20_linear_236_12769" x1="102.102" y1="30.0664" x2="102.102" y2="94.5123" gradientUnits="userSpaceOnUse">
<stop stop-color="#EDF4FF"/>
<stop offset="1" stop-color="#ABCCFF"/>
</linearGradient>
<linearGradient id="paint21_linear_236_12769" x1="128.064" y1="46.5087" x2="114.814" y2="36.3157" gradientUnits="userSpaceOnUse">
<stop stop-color="#EDF4FF"/>
<stop offset="1" stop-color="#ABCCFF"/>
</linearGradient>
<linearGradient id="paint22_linear_236_12769" x1="11.5214" y1="150.478" x2="75.8455" y2="143.252" gradientUnits="userSpaceOnUse">
<stop offset="0.09375" stop-color="#2A64BE"/>
<stop offset="1" stop-color="#2A64BE" stop-opacity="0"/>
</linearGradient>
<linearGradient id="paint23_linear_236_12769" x1="61.1293" y1="151.293" x2="117.723" y2="142.698" gradientUnits="userSpaceOnUse">
<stop offset="0.09375" stop-color="#2A64BE"/>
<stop offset="1" stop-color="#2A64BE" stop-opacity="0"/>
</linearGradient>
<linearGradient id="paint24_linear_236_12769" x1="106.318" y1="150.478" x2="159.035" y2="155.104" gradientUnits="userSpaceOnUse">
<stop offset="0.09375" stop-color="#265FB8"/>
<stop offset="1" stop-color="#84B4FF"/>
</linearGradient>
<linearGradient id="paint25_linear_236_12769" x1="19.9661" y1="26.654" x2="64.8336" y2="69.1789" gradientUnits="userSpaceOnUse">
<stop stop-color="#FF698D"/>
<stop offset="1" stop-color="#FF3868"/>
</linearGradient>
<linearGradient id="paint26_linear_236_12769" x1="145.458" y1="30.2713" x2="159.096" y2="42.0911" gradientUnits="userSpaceOnUse">
<stop stop-color="#94BFFF"/>
<stop offset="1" stop-color="#4C94FE"/>
</linearGradient>
<linearGradient id="paint27_linear_236_12769" x1="125.413" y1="167.001" x2="139.051" y2="178.821" gradientUnits="userSpaceOnUse">
<stop stop-color="#94BFFF"/>
<stop offset="1" stop-color="#4C94FE"/>
</linearGradient>
<linearGradient id="paint28_linear_236_12769" x1="17.6086" y1="125.104" x2="7.9317" y2="132.967" gradientUnits="userSpaceOnUse">
<stop stop-color="#70A8FF"/>
<stop offset="1" stop-color="#5597FD"/>
</linearGradient>
<linearGradient id="paint29_linear_236_12769" x1="173.111" y1="118.178" x2="181.82" y2="127.101" gradientUnits="userSpaceOnUse">
<stop stop-color="#70A8FF"/>
<stop offset="1" stop-color="#5597FD"/>
</linearGradient>
<linearGradient id="paint30_linear_236_12769" x1="91.9816" y1="0" x2="91.9816" y2="29.9261" gradientUnits="userSpaceOnUse">
<stop stop-color="#70A8FF"/>
<stop offset="1" stop-color="#5597FD"/>
</linearGradient>
<linearGradient id="paint31_linear_236_12769" x1="54.0412" y1="158.922" x2="54.0412" y2="188.848" gradientUnits="userSpaceOnUse">
<stop stop-color="#70A8FF"/>
<stop offset="1" stop-color="#5597FD"/>
</linearGradient>
</defs>
</svg>
