<svg width="300" height="300" viewBox="0 0 300 300" fill="none" xmlns="http://www.w3.org/2000/svg">
<path d="M298.752 269.532C305.987 255.213 285.308 183.617 141.923 183.617C38.4274 183.617 -9.07413 242.219 1.42751 271.918" fill="url(#paint0_radial_2074_35360)"/>
<mask id="mask0_2074_35360" style="mask-type:luminance" maskUnits="userSpaceOnUse" x="0" y="183" width="300" height="89">
<path d="M298.752 269.532C305.987 255.213 285.308 183.617 141.923 183.617C38.4274 183.617 -9.07413 242.219 1.42751 271.918" fill="white"/>
</mask>
<g mask="url(#mask0_2074_35360)">
<ellipse opacity="0.671968" cx="119.807" cy="223.767" rx="7.88551" ry="4.38001" fill="url(#paint1_linear_2074_35360)"/>
<ellipse opacity="0.729957" cx="200.293" cy="217.083" rx="12.4416" ry="6.83282" fill="url(#paint2_linear_2074_35360)"/>
<ellipse opacity="0.729957" cx="58.7033" cy="198.86" rx="12.4416" ry="6.83282" fill="url(#paint3_linear_2074_35360)"/>
</g>
<g opacity="0.320685">
<ellipse cx="232.689" cy="64.1987" rx="8.41121" ry="8.40963" fill="url(#paint4_linear_2074_35360)"/>
<path d="M227.413 57.529C223.803 57.0202 221.164 57.4191 220.668 58.7799C219.874 60.9621 224.892 64.7915 231.876 67.3332C238.861 69.8748 245.167 70.1661 245.961 67.9839C246.461 66.6109 244.17 64.6897 241.026 62.7435" stroke="url(#paint5_linear_2074_35360)" stroke-width="4.20561"/>
<path d="M241.118 64.1987C241.118 59.5542 237.352 55.7891 232.706 55.7891C228.061 55.7891 225.151 58.7586 224.551 62.1068C224.551 62.1068 229.386 65.1337 231.619 65.7843C232.331 65.9918 233.037 66.261 233.755 66.4996C234.559 66.7665 235.378 67.002 236.206 67.2062C236.773 67.346 237.551 67.562 238.276 67.6969C239.233 67.8748 240.09 67.9543 240.157 67.9543C240.276 67.9543 240.406 67.4255 240.674 66.8093C240.941 66.1931 241.118 64.1987 241.118 64.1987Z" fill="url(#paint6_linear_2074_35360)"/>
</g>
<circle opacity="0.418364" cx="47.8839" cy="113.808" r="9.80769" fill="url(#paint7_linear_2074_35360)"/>
<ellipse opacity="0.5" cx="154.038" cy="197.46" rx="29.4231" ry="8.07692" fill="url(#paint8_linear_2074_35360)"/>
<path d="M142.76 31.1406L146.013 32.3245L85.8302 197.674C85.5032 198.573 84.51 199.036 83.6118 198.709C82.7136 198.382 82.2504 197.389 82.5774 196.49L142.76 31.1406Z" fill="#D8D8D8"/>
<path d="M142.678 31.2188L168.22 48.0478C170.32 49.4313 172.666 50.3995 175.13 50.9002C188.465 53.6098 197.159 66.5187 194.657 79.8948L188.624 112.153C188.596 112.303 188.384 112.307 188.347 112.16C185.548 100.869 174.895 93.2682 163.314 94.3613C158.038 94.8593 152.801 93.0788 148.921 89.4683L128.421 70.3892L142.678 31.2188Z" fill="#E57A77"/>
<circle cx="144.108" cy="30.6648" r="2.30769" transform="rotate(20 144.108 30.6648)" fill="#D8D8D8"/>
<path d="M105.463 130.032C105.463 130.032 107.194 129.166 107.194 129.455C107.194 129.743 107.194 132.916 107.194 132.916L106.04 133.493L105.463 130.032Z" fill="#FFE9E9"/>
<path d="M138.24 187.813C138.24 187.813 137.658 185.692 136.127 185.554C134.596 185.416 130.282 189.979 129.381 191.863C128.479 193.747 130.942 196.388 133.754 193.85C136.566 191.312 138.24 187.813 138.24 187.813Z" fill="#677285"/>
<path d="M140.045 194.003L138.286 189.096C137.578 187.12 134.886 186.869 133.824 188.679C133.612 189.041 133.495 189.446 133.501 189.865C133.53 191.85 133.854 197.852 136.667 198.662C140.045 199.634 140.045 194.003 140.045 194.003Z" fill="url(#paint9_linear_2074_35360)"/>
<path d="M161.744 187.813C161.744 187.813 162.326 185.692 163.857 185.554C165.389 185.416 169.702 189.979 170.604 191.863C171.505 193.747 169.042 196.388 166.231 193.85C163.419 191.312 161.744 187.813 161.744 187.813Z" fill="#677285"/>
<path d="M159.944 194.003L161.702 189.096C162.41 187.12 165.103 186.869 166.164 188.679C166.376 189.041 166.494 189.446 166.487 189.865C166.458 191.85 166.134 197.852 163.321 198.662C159.944 199.634 159.944 194.003 159.944 194.003Z" fill="url(#paint10_linear_2074_35360)"/>
<path d="M140.54 179.27C140.54 179.27 139.575 181.165 139.575 182.497C138.61 184.658 137.021 187.566 134.268 193.632C132.464 197.606 135.717 198.66 138.174 198.915C139.709 199.074 141.179 198.437 142.372 197.459L149.735 191.425L158.497 198.66C160.086 199.972 162.386 199.963 163.965 198.638C165.589 197.276 166.013 194.903 165.077 193.001C164.026 190.864 162.464 187.515 160.323 182.497C160.323 181.178 159.481 179.914 159.481 179.914L140.54 179.27Z" fill="url(#paint11_linear_2074_35360)"/>
<path d="M161.539 164.271C163.113 166.57 162.693 172.318 162.693 172.318H158.077L159.921 184.712C160.011 185.315 159.675 185.898 159.102 186.107C157.039 186.862 152.153 188.539 149.008 188.725C145.855 188.912 140.502 187.278 138.245 186.531C137.635 186.329 137.29 185.71 137.46 185.09C137.952 183.298 139.252 179.205 142.362 172.318C143.325 173.445 137.885 172.318 137.885 172.318C137.885 172.318 138.225 167.2 139.616 164.271C141.007 161.343 144.231 159.387 144.231 159.387L152.384 158.148C152.384 158.148 155.77 158.81 157.5 159.732C159.231 160.654 159.965 161.972 161.539 164.271Z" fill="url(#paint12_linear_2074_35360)"/>
<path d="M162.255 172.293L162.072 177.761L161.452 180.497L157.192 198.072L157.871 199.538L158.31 201.442L157.871 202.654L156.717 202.223L154.41 200.346L153.994 199.1C153.891 198.791 153.924 198.453 154.084 198.17L155.215 196.159L158.31 179.751L157.999 172.5L162.255 172.293Z" fill="#FDE7E6"/>
<path d="M138.001 172.5L138.499 177.761L139.118 180.497L143.379 198.073L142.699 199.539L142.26 201.443L142.699 202.654L143.853 202.224L146.161 200.347L146.576 199.101C146.679 198.792 146.647 198.454 146.487 198.17L145.356 196.16L142.26 179.751L142.501 172.5L138.001 172.5Z" fill="#FDE7E6"/>
<path fill-rule="evenodd" clip-rule="evenodd" d="M151.89 153.672H147.346V159.762V159.762H147.346C147.379 159.81 149.163 162.391 149.163 163.247C149.163 164.106 151.851 159.824 151.89 159.762H151.89V159.762V153.672Z" fill="#FECECD"/>
<ellipse cx="149.355" cy="152.664" rx="4.02909" ry="6" fill="#FFE9E9"/>
<path fill-rule="evenodd" clip-rule="evenodd" d="M144.933 153.664C145.255 152.52 145.255 149.998 145.9 149.916C146.544 149.834 147.834 150.311 149.123 149.385C149.768 148.876 150.09 148.813 150.09 148.557C153.313 149.166 151.386 151.002 152.991 153.026C153.158 153.237 153.636 153.026 153.636 153.026C153.636 153.026 153.636 148.044 153.313 147.6C152.991 147.155 151.702 145.365 151.057 146.642C151.057 146.004 149.768 145.345 148.478 145.834C147.189 146.323 145.255 147.28 144.933 148.557C144.61 149.834 144.288 152.387 144.933 153.664Z" fill="#513450"/>
<defs>
<radialGradient id="paint0_radial_2074_35360" cx="0" cy="0" r="1" gradientUnits="userSpaceOnUse" gradientTransform="translate(130.111 214.24) rotate(-90) scale(51.3403 536.198)">
<stop stop-color="#EBEDF0" stop-opacity="0.24"/>
<stop offset="0.536775" stop-color="#EBEDF0" stop-opacity="0.845525"/>
<stop offset="1" stop-color="#E0E4E7" stop-opacity="0.01"/>
</radialGradient>
<linearGradient id="paint1_linear_2074_35360" x1="113.46" y1="222.606" x2="115.863" y2="227.743" gradientUnits="userSpaceOnUse">
<stop stop-color="#E1E7EA"/>
<stop offset="1" stop-color="#D0D6DC"/>
</linearGradient>
<linearGradient id="paint2_linear_2074_35360" x1="189.846" y1="216.444" x2="194.242" y2="225.613" gradientUnits="userSpaceOnUse">
<stop stop-color="#E1E7EA"/>
<stop offset="1" stop-color="#D0D6DC"/>
</linearGradient>
<linearGradient id="paint3_linear_2074_35360" x1="50.7703" y1="198.971" x2="53.2577" y2="208.88" gradientUnits="userSpaceOnUse">
<stop stop-color="#FBFBFB"/>
<stop offset="1" stop-color="#D9DFE3"/>
</linearGradient>
<linearGradient id="paint4_linear_2074_35360" x1="221.198" y1="58.4079" x2="225.404" y2="72.948" gradientUnits="userSpaceOnUse">
<stop stop-color="#ECECEC"/>
<stop offset="0.717538" stop-color="#E1E7EA"/>
<stop offset="1" stop-color="#BCC3CA"/>
</linearGradient>
<linearGradient id="paint5_linear_2074_35360" x1="227.077" y1="64.3802" x2="244.91" y2="70.8711" gradientUnits="userSpaceOnUse">
<stop stop-color="#BAC6D2"/>
<stop offset="1" stop-color="#7F8F9F"/>
</linearGradient>
<linearGradient id="paint6_linear_2074_35360" x1="229.596" y1="63.475" x2="232.346" y2="69.0313" gradientUnits="userSpaceOnUse">
<stop stop-color="#E1E7EA"/>
<stop offset="1" stop-color="#D0D6DC"/>
</linearGradient>
<linearGradient id="paint7_linear_2074_35360" x1="60.7777" y1="116.719" x2="50.9843" y2="100.179" gradientUnits="userSpaceOnUse">
<stop stop-color="#DAE2E6"/>
<stop offset="0.58" stop-color="#E3EBEF"/>
<stop offset="1" stop-color="#EDF6F9"/>
</linearGradient>
<linearGradient id="paint8_linear_2074_35360" x1="131.953" y1="198.417" x2="148.479" y2="224.126" gradientUnits="userSpaceOnUse">
<stop stop-color="#C4CDD1"/>
<stop offset="1" stop-color="#C6CFD3" stop-opacity="0.01"/>
</linearGradient>
<linearGradient id="paint9_linear_2074_35360" x1="140.045" y1="198.805" x2="140.045" y2="185.996" gradientUnits="userSpaceOnUse">
<stop stop-color="#7A87AF"/>
<stop offset="1" stop-color="#444F77"/>
</linearGradient>
<linearGradient id="paint10_linear_2074_35360" x1="159.944" y1="198.805" x2="159.944" y2="185.996" gradientUnits="userSpaceOnUse">
<stop stop-color="#7A87AF"/>
<stop offset="1" stop-color="#444F77"/>
</linearGradient>
<linearGradient id="paint11_linear_2074_35360" x1="165.62" y1="199.608" x2="165.62" y2="179.27" gradientUnits="userSpaceOnUse">
<stop stop-color="#7A87AF"/>
<stop offset="1" stop-color="#444F77"/>
</linearGradient>
<linearGradient id="paint12_linear_2074_35360" x1="175.613" y1="172.118" x2="149.393" y2="200.222" gradientUnits="userSpaceOnUse">
<stop stop-color="#E5E9F0"/>
<stop offset="1" stop-color="#D2DAE8"/>
</linearGradient>
</defs>
</svg>
