<svg width="32" height="33" viewBox="0 0 32 33" fill="none" xmlns="http://www.w3.org/2000/svg">
<g clip-path="url(#clip0_2916_45857)">
<path d="M15.9993 32.5C24.8358 32.5 31.9993 25.3366 31.9993 16.5C31.9993 7.66344 24.8358 0.5 15.9993 0.5C7.16271 0.5 -0.000732422 7.66344 -0.000732422 16.5C-0.000732422 25.3366 7.16271 32.5 15.9993 32.5Z" fill="#0052B4"/>
<path d="M15.9976 6.75781L16.5157 8.35212H18.1919L16.8357 9.33744L17.3538 10.9317L15.9976 9.94637L14.6413 10.9317L15.1594 9.33744L13.8032 8.35212H15.4795L15.9976 6.75781Z" fill="#FFDA44"/>
<path d="M9.11071 9.60394L10.6045 10.3649L11.7898 9.17969L11.5275 10.8353L13.0211 11.5964L11.3655 11.8586L11.1032 13.5144L10.3421 12.0207L8.68652 12.283L9.87184 11.0977L9.11071 9.60394Z" fill="#FFDA44"/>
<path d="M6.25903 16.4912L7.85335 15.9732V14.2969L8.8386 15.6531L10.433 15.1351L9.44753 16.4912L10.433 17.8474L8.8386 17.3294L7.85335 18.6856V17.0093L6.25903 16.4912Z" fill="#FFDA44"/>
<path d="M9.11071 23.3791L9.87177 21.8854L8.68652 20.7001L10.3422 20.9624L11.1031 19.4688L11.3655 21.1244L13.0211 21.3867L11.5276 22.1478L11.7898 23.8034L10.6045 22.6181L9.11071 23.3791Z" fill="#FFDA44"/>
<path d="M15.9976 26.2363L15.4795 24.642H13.8032L15.1595 23.6567L14.6413 22.0625L15.9976 23.0477L17.3538 22.0625L16.8357 23.6567L18.1919 24.642H16.5156L15.9976 26.2363Z" fill="#FFDA44"/>
<path d="M22.8847 23.3791L21.391 22.6181L20.2056 23.8034L20.4679 22.1477L18.9744 21.3867L20.63 21.1244L20.8922 19.4688L21.6532 20.9624L23.3089 20.7001L22.1236 21.8855L22.8847 23.3791Z" fill="#FFDA44"/>
<path d="M25.7375 16.4912L24.1432 17.0093V18.6856L23.1579 17.3294L21.5637 17.8474L22.549 16.4912L21.5637 15.1351L23.158 15.6531L24.1432 14.2969V15.9733L25.7375 16.4912Z" fill="#FFDA44"/>
<path d="M22.8847 9.60388L22.1236 11.0976L23.3089 12.2829L21.6532 12.0206L20.8922 13.5143L20.63 11.8586L18.9744 11.5963L20.4679 10.8353L20.2056 9.17969L21.3911 10.3649L22.8847 9.60388Z" fill="#FFDA44"/>
</g>
<defs>
<clipPath id="clip0_2916_45857">
<rect width="32" height="32" fill="white" transform="translate(0 0.5)"/>
</clipPath>
</defs>
</svg>
