<svg width="49" height="48" viewBox="0 0 49 48" fill="none" xmlns="http://www.w3.org/2000/svg">
<g clip-path="url(#clip0_2916_45931)">
<path d="M31.0342 33.9033V16.4375H42.1719C42.3784 16.4375 42.5729 16.5347 42.6969 16.7L44.75 19.4375L45.125 22.4375L47 27.8375V33.9033H31.0342Z" fill="#FD6930"/>
<path d="M31.0342 16.4375H33.9316V33.9033H31.0342V16.4375Z" fill="#FD5426"/>
<path d="M47 27.8375H43.529C43.3429 27.8375 43.1655 27.7585 43.0411 27.6201L42.3397 26.8402C41.8451 26.2902 41.1402 25.9763 40.4007 25.9763H35.6562C35.2938 25.9763 35 25.6825 35 25.32V20.0937C35 19.7313 35.2938 19.4375 35.6562 19.4375H44.75L46.8688 22.2625C46.954 22.3761 47 22.5142 47 22.6562V27.8375Z" fill="#9DC6FB"/>
<path d="M35.6712 29.6127H34.9997C34.5997 29.6127 34.2754 29.2884 34.2754 28.8884C34.2754 28.4883 34.5997 28.1641 34.9997 28.1641H35.6713C36.0714 28.1641 36.3956 28.4883 36.3956 28.8884C36.3956 29.2884 36.0714 29.6127 35.6712 29.6127Z" fill="#F1F6F7"/>
<path d="M32 30.3087H3.93163L2 29.3428V9.59375C2 9.23131 2.29381 8.9375 2.65625 8.9375H14.75L17 9.875L19.25 8.9375H31.3438C31.7062 8.9375 32 9.23131 32 9.59375V30.3087Z" fill="#EDBA94"/>
<path d="M2 9.59375V29.3428L3.93163 30.3087V8.9375H2.65625C2.29381 8.9375 2 9.23131 2 9.59375Z" fill="#E5A87F"/>
<path d="M18.5212 12.9517L17.26 12.1108C17.1026 12.0058 16.8973 12.0058 16.7399 12.1108L15.4787 12.9517C15.1672 13.1593 14.75 12.936 14.75 12.5617V8.9375H19.25V12.5616C19.2499 12.936 18.8326 13.1593 18.5212 12.9517Z" fill="#FD6930"/>
<path d="M12.8004 20.3515L10.5552 18.1063C10.2989 17.85 9.88336 17.85 9.62715 18.1063L7.38202 20.3515C6.96858 20.765 7.26136 21.4718 7.84608 21.4718H7.93505C8.29749 21.4718 8.5913 21.7656 8.5913 22.1281V26.2835C8.5913 26.6459 8.88511 26.9397 9.24755 26.9397H10.9351C11.2975 26.9397 11.5913 26.6459 11.5913 26.2835V22.1281C11.5913 21.7656 11.8851 21.4718 12.2476 21.4718H12.3365C12.9211 21.4718 13.2138 20.765 12.8004 20.3515Z" fill="#F1F6F7"/>
<path d="M26.8438 26.6406H22.1562C21.7938 26.6406 21.5 26.3468 21.5 25.9844V24.2969C21.5 23.9344 21.7938 23.6406 22.1562 23.6406H26.8438C27.2062 23.6406 27.5 23.9344 27.5 24.2969V25.9844C27.5 26.3468 27.2062 26.6406 26.8438 26.6406Z" fill="#E5A87F"/>
<path d="M27.5007 21.3627H21.5007C21.1006 21.3627 20.7764 21.0384 20.7764 20.6384C20.7764 20.2383 21.1006 19.9141 21.5007 19.9141H27.5007C27.9007 19.9141 28.225 20.2383 28.225 20.6384C28.225 21.0384 27.9007 21.3627 27.5007 21.3627Z" fill="#E5A87F"/>
<path d="M2 29.3438H32V33.9042H2V29.3438Z" fill="#9DC6FB"/>
<path d="M2 29.3438H3.93163V33.9042H2V29.3438Z" fill="#80B4FB"/>
<path d="M47.8438 35.9375H1.15625C0.793813 35.9375 0.5 35.6437 0.5 35.2812V33.5938C0.5 33.2313 0.793813 32.9375 1.15625 32.9375H47.8438C48.2062 32.9375 48.5 33.2313 48.5 33.5938V35.2812C48.5 35.6437 48.2062 35.9375 47.8438 35.9375Z" fill="#897E8B"/>
<path d="M40.1216 38.9385C42.7711 38.9385 44.919 36.7906 44.919 34.1411C44.919 31.4916 42.7711 29.3438 40.1216 29.3438C37.4721 29.3438 35.3242 31.4916 35.3242 34.1411C35.3242 36.7906 37.4721 38.9385 40.1216 38.9385Z" fill="#685E67"/>
<path d="M40.1223 35.9984C41.1487 35.9984 41.9809 35.1663 41.9809 34.1398C41.9809 33.1134 41.1487 32.2812 40.1223 32.2812C39.0958 32.2812 38.2637 33.1134 38.2637 34.1398C38.2637 35.1663 39.0958 35.9984 40.1223 35.9984Z" fill="#F1F6F7"/>
<path d="M8.59913 39.0557C11.2486 39.0557 13.3965 36.9078 13.3965 34.2583C13.3965 31.6088 11.2486 29.4609 8.59913 29.4609C5.94962 29.4609 3.80176 31.6088 3.80176 34.2583C3.80176 36.9078 5.94962 39.0557 8.59913 39.0557Z" fill="#685E67"/>
<path d="M8.59883 36.1156C9.6253 36.1156 10.4574 35.2835 10.4574 34.257C10.4574 33.2306 9.6253 32.3984 8.59883 32.3984C7.57236 32.3984 6.74023 33.2306 6.74023 34.257C6.74023 35.2835 7.57236 36.1156 8.59883 36.1156Z" fill="#F1F6F7"/>
</g>
<defs>
<clipPath id="clip0_2916_45931">
<rect width="48" height="48" fill="white" transform="translate(0.5)"/>
</clipPath>
</defs>
</svg>
