<svg width="49" height="48" viewBox="0 0 49 48" fill="none" xmlns="http://www.w3.org/2000/svg">
<g clip-path="url(#clip0_2916_45895)">
<path d="M3.52148 19.3125H16.2671V29.4316H3.52148V19.3125Z" fill="#F1F6F7"/>
<path d="M3.52148 19.3125H5.45217V29.4316H3.52148V19.3125Z" fill="#D2E4E7"/>
<path d="M39.5039 17.4472H27.5098V5.17187C27.5098 4.80944 27.8036 4.51562 28.166 4.51562H32.0075L33.5068 5.45312L35.006 4.51562H38.8475C39.21 4.51562 39.5038 4.80944 39.5038 5.17187V17.4472H39.5039Z" fill="#EDBA94"/>
<path d="M27.5098 15.2578H39.5039V18.4165H27.5098V15.2578Z" fill="#E5A87F"/>
<path d="M27.5098 5.17187V17.4472H29.4405V4.51562H28.166C27.8036 4.51562 27.5098 4.80944 27.5098 5.17187Z" fill="#E5A87F"/>
<path d="M45.5009 28.4941H33.5068V17.1562C33.5068 16.7938 33.8006 16.5 34.1631 16.5H38.0046L39.5038 17.4375L41.0031 16.5H44.8446C45.207 16.5 45.5008 16.7938 45.5008 17.1562L45.5009 28.4941Z" fill="#EDBA94"/>
<path d="M33.5068 17.1562V28.4941H35.4375V16.5H34.1631C33.8006 16.5 33.5068 16.7938 33.5068 17.1562Z" fill="#E5A87F"/>
<path d="M33.5068 29.4316H21.5127V17.1562C21.5127 16.7938 21.8065 16.5 22.1689 16.5H26.0104L27.5097 17.4375L29.0089 16.5H32.8504C33.2129 16.5 33.5067 16.7938 33.5067 17.1562V29.4316H33.5068Z" fill="#EDBA94"/>
<path d="M21.5127 17.1562V29.4316H23.4434V16.5H22.1689C21.8065 16.5 21.5127 16.7938 21.5127 17.1562Z" fill="#E5A87F"/>
<path d="M34.5943 8.28903L33.6646 7.79984C33.584 7.75747 33.4879 7.75672 33.4066 7.79778L32.4163 8.29916C32.2292 8.39384 32.0081 8.25791 32.0081 8.04819V4.50781H35.0066V8.04012C35.0066 8.25172 34.7817 8.38756 34.5943 8.28903Z" fill="#FD6930"/>
<path d="M28.5973 20.2812L27.6675 19.792C27.5869 19.7497 27.4908 19.7489 27.4095 19.79L26.4193 20.2913C26.2321 20.386 26.011 20.2501 26.011 20.0404V16.5H29.0095V20.0323C29.0094 20.2439 28.7845 20.3797 28.5973 20.2812Z" fill="#FD6930"/>
<path d="M40.5914 20.2812L39.6617 19.792C39.5811 19.7497 39.485 19.7489 39.4037 19.79L38.4134 20.2913C38.2263 20.386 38.0051 20.2501 38.0051 20.0404V16.5H41.0036V20.0323C41.0035 20.2439 40.7786 20.3797 40.5914 20.2812Z" fill="#FD6930"/>
<path d="M36.5068 14.2293H33.5082C33.1084 14.2293 32.7842 13.9052 32.7842 13.5053C32.7842 13.1053 33.1084 12.7812 33.5082 12.7812H36.5068C36.9066 12.7812 37.2308 13.1053 37.2308 13.5053C37.2308 13.9052 36.9066 14.2293 36.5068 14.2293Z" fill="#E5A87F"/>
<path d="M33.3255 22.8627L30.6897 28.1342C30.5786 28.3565 30.3513 28.497 30.1028 28.497H1.36362C0.936681 28.497 0.623368 28.8983 0.726962 29.3124L1.27277 31.4955L2.62709 33.1627L2.0224 34.4941L3.39743 39.994C3.47046 40.2862 3.73296 40.4911 4.03409 40.4911H42.0296C42.312 40.4911 42.5628 40.3103 42.6521 40.0424L44.5016 34.4941L44.0092 33.1587L45.501 31.4956L48.2116 23.3638C48.3533 22.9388 48.037 22.5 47.589 22.5H33.9125C33.664 22.5 33.4367 22.6404 33.3255 22.8627Z" fill="#897E8B"/>
<path d="M33.3263 22.8628L30.6905 28.1343C30.5793 28.3566 30.352 28.4971 30.1035 28.4971H32.0342C32.2827 28.4971 32.51 28.3567 32.6212 28.1343L35.4383 22.5H33.9132C33.6647 22.5001 33.4375 22.6405 33.3263 22.8628Z" fill="#7D717F"/>
<path d="M3.39746 39.9922L3.52177 40.4893H4.03412C3.73299 40.4893 3.47049 40.2843 3.39746 39.9922Z" fill="#80B4FB"/>
<path d="M1.36362 28.5C0.936681 28.5 0.623368 28.9012 0.726962 29.3154L1.27277 31.4985L2.62709 33.1657L2.0224 34.4971L3.39743 39.997C3.47046 40.2892 3.73296 40.4941 4.03409 40.4941H5.45234L2.45384 28.5H1.36362Z" fill="#7D717F"/>
<path d="M36.5051 28.4985C37.3331 28.4985 38.0044 27.8273 38.0044 26.9993C38.0044 26.1712 37.3331 25.5 36.5051 25.5C35.6771 25.5 35.0059 26.1712 35.0059 26.9993C35.0059 27.8273 35.6771 28.4985 36.5051 28.4985Z" fill="#F1F6F7"/>
<path d="M42.5022 28.4985C43.3302 28.4985 44.0014 27.8273 44.0014 26.9993C44.0014 26.1712 43.3302 25.5 42.5022 25.5C41.6742 25.5 41.0029 26.1712 41.0029 26.9993C41.0029 27.8273 41.6742 28.4985 42.5022 28.4985Z" fill="#F1F6F7"/>
<path d="M48.4996 43.4863C47.9851 43.4653 47.4778 43.2578 47.0872 42.8671L47.0004 42.7803C46.1724 41.9523 44.8299 41.9523 44.0019 42.7803C43.1739 43.6083 41.8314 43.6083 41.0034 42.7803C40.1754 41.9523 38.8329 41.9523 38.0049 42.7803C37.1769 43.6083 35.8344 43.6083 35.0064 42.7803C34.1784 41.9523 32.8359 41.9523 32.0079 42.7803C31.1799 43.6083 29.8374 43.6083 29.0094 42.7803C28.1814 41.9523 26.8389 41.9523 26.0109 42.7803C25.1829 43.6083 23.8404 43.6083 23.0124 42.7803C22.1844 41.9523 20.8419 41.9523 20.0139 42.7803C19.1859 43.6083 17.8434 43.6083 17.0154 42.7803C16.1874 41.9523 14.8449 41.9523 14.0169 42.7803C13.1889 43.6083 11.8464 43.6083 11.0184 42.7803C10.1904 41.9523 8.84787 41.9523 8.01988 42.7803C7.19187 43.6083 5.84937 43.6083 5.02137 42.7803C4.19337 41.9523 2.85087 41.9523 2.02287 42.7803L1.93606 42.8671C1.53941 43.2638 1.02256 43.4716 0.5 43.4872V38.8123C1.02256 38.7967 1.53941 38.5888 1.93606 38.1922L2.02287 38.1054C2.85087 37.2774 4.19337 37.2774 5.02137 38.1054C5.84937 38.9334 7.19187 38.9334 8.01988 38.1054C8.84787 37.2774 10.1904 37.2774 11.0184 38.1054C11.8464 38.9334 13.1889 38.9334 14.0169 38.1054C14.8449 37.2774 16.1874 37.2774 17.0154 38.1054C17.8434 38.9334 19.1859 38.9334 20.0139 38.1054C20.8419 37.2774 22.1844 37.2774 23.0124 38.1054C23.8404 38.9334 25.1829 38.9334 26.0109 38.1054C26.8389 37.2774 28.1814 37.2774 29.0094 38.1054C29.8374 38.9334 31.1799 38.9334 32.0079 38.1054C32.8359 37.2774 34.1784 37.2774 35.0064 38.1054C35.8344 38.9334 37.1769 38.9334 38.0049 38.1054C38.8329 37.2774 40.1754 37.2774 41.0034 38.1054C41.8314 38.9334 43.1739 38.9334 44.0019 38.1054C44.8299 37.2774 46.1724 37.2774 47.0004 38.1054L47.0872 38.1922C47.4778 38.5828 47.9851 38.7904 48.4996 38.8114V43.4863Z" fill="#9DC6FB"/>
<path d="M30.5077 26.2215H27.5092C27.1093 26.2215 26.7852 25.8974 26.7852 25.4975C26.7852 25.0975 27.1093 24.7734 27.5092 24.7734H30.5078C30.9076 24.7734 31.2318 25.0975 31.2318 25.4975C31.2317 25.8974 30.9075 26.2215 30.5077 26.2215Z" fill="#E5A87F"/>
<path d="M2.02209 34.4907H44.5011L45.5007 31.4922H1.27246L2.02209 34.4907Z" fill="#FD6930"/>
<path d="M1.27246 31.4922L2.02209 34.4907H3.95277L3.20315 31.4922H1.27246Z" fill="#FD5426"/>
<path d="M13.2748 15.1995H6.52051V11.9141C6.52051 11.5516 6.81432 11.2578 7.17676 11.2578H12.6185C12.9809 11.2578 13.2747 11.5516 13.2747 11.9141V15.1995H13.2748Z" fill="#9DC6FB"/>
<path d="M3.52148 18.1881H16.2671V14.9141C16.2671 14.5516 15.9733 14.2578 15.6108 14.2578H4.17773C3.8153 14.2578 3.52148 14.5516 3.52148 14.9141V18.1881Z" fill="#897E8B"/>
<path d="M16.2676 20.2486H3.52202L1.64374 18.3703C1.2303 17.9569 1.52308 17.25 2.1078 17.25H17.6817C18.2664 17.25 18.5591 17.9569 18.1458 18.3703L16.2676 20.2486Z" fill="#9DC6FB"/>
<path d="M1.64374 18.3702L3.52202 20.2485H5.45261L2.45411 17.25H2.1078C1.52308 17.2499 1.2303 17.9568 1.64374 18.3702Z" fill="#80B4FB"/>
</g>
<defs>
<clipPath id="clip0_2916_45895">
<rect width="48" height="48" fill="white" transform="translate(0.5)"/>
</clipPath>
</defs>
</svg>
