<svg width="49" height="48" viewBox="0 0 49 48" fill="none" xmlns="http://www.w3.org/2000/svg">
<g clip-path="url(#clip0_2916_45956)">
<path d="M4.77148 8.51562H44.2254V28.4473H4.77148V8.51562Z" fill="#9DC6FB"/>
<path d="M4.77148 8.51562H6.2202V28.4473H4.77148V8.51562Z" fill="#80B4FB"/>
<path d="M7.99873 25.2064C7.5987 25.2064 7.27441 24.8822 7.27441 24.4821V12.4821C7.27441 12.082 7.5987 11.7578 7.99873 11.7578C8.39876 11.7578 8.72304 12.0821 8.72304 12.4821V24.4821C8.72313 24.8822 8.39876 25.2064 7.99873 25.2064Z" fill="#497090"/>
<path d="M10.9987 25.2064C10.5987 25.2064 10.2744 24.8822 10.2744 24.4821V12.4821C10.2744 12.082 10.5987 11.7578 10.9987 11.7578C11.3988 11.7578 11.723 12.0821 11.723 12.4821V24.4821C11.723 24.8822 11.3988 25.2064 10.9987 25.2064Z" fill="#497090"/>
<path d="M13.9987 25.2064C13.5987 25.2064 13.2744 24.8822 13.2744 24.4821V12.4821C13.2744 12.082 13.5987 11.7578 13.9987 11.7578C14.3988 11.7578 14.723 12.0821 14.723 12.4821V24.4821C14.7231 24.8822 14.3988 25.2064 13.9987 25.2064Z" fill="#497090"/>
<path d="M16.9987 25.2064C16.5987 25.2064 16.2744 24.8822 16.2744 24.4821V12.4821C16.2744 12.082 16.5987 11.7578 16.9987 11.7578C17.3988 11.7578 17.723 12.0821 17.723 12.4821V24.4821C17.723 24.8822 17.3988 25.2064 16.9987 25.2064Z" fill="#497090"/>
<path d="M19.999 25.2064C19.5989 25.2064 19.2747 24.8822 19.2747 24.4821V12.4821C19.2747 12.082 19.5989 11.7578 19.999 11.7578C20.399 11.7578 20.7233 12.0821 20.7233 12.4821V24.4821C20.7234 24.8822 20.399 25.2064 19.999 25.2064Z" fill="#497090"/>
<path d="M22.9987 25.2064C22.5987 25.2064 22.2744 24.8822 22.2744 24.4821V12.4821C22.2744 12.082 22.5987 11.7578 22.9987 11.7578C23.3988 11.7578 23.723 12.0821 23.723 12.4821V24.4821C23.723 24.8822 23.3988 25.2064 22.9987 25.2064Z" fill="#497090"/>
<path d="M25.9987 25.2064C25.5987 25.2064 25.2744 24.8822 25.2744 24.4821V12.4821C25.2744 12.082 25.5987 11.7578 25.9987 11.7578C26.3988 11.7578 26.723 12.0821 26.723 12.4821V24.4821C26.7231 24.8822 26.3988 25.2064 25.9987 25.2064Z" fill="#497090"/>
<path d="M28.9987 25.2064C28.5987 25.2064 28.2744 24.8822 28.2744 24.4821V12.4821C28.2744 12.082 28.5987 11.7578 28.9987 11.7578C29.3988 11.7578 29.723 12.0821 29.723 12.4821V24.4821C29.723 24.8822 29.3988 25.2064 28.9987 25.2064Z" fill="#497090"/>
<path d="M31.9987 25.2064C31.5987 25.2064 31.2744 24.8822 31.2744 24.4821V12.4821C31.2744 12.082 31.5987 11.7578 31.9987 11.7578C32.3988 11.7578 32.723 12.0821 32.723 12.4821V24.4821C32.7231 24.8822 32.3988 25.2064 31.9987 25.2064Z" fill="#497090"/>
<path d="M34.999 25.2064C34.5989 25.2064 34.2747 24.8822 34.2747 24.4821V12.4821C34.2747 12.082 34.5989 11.7578 34.999 11.7578C35.399 11.7578 35.7233 12.0821 35.7233 12.4821V24.4821C35.7233 24.8822 35.399 25.2064 34.999 25.2064Z" fill="#497090"/>
<path d="M37.9987 25.2064C37.5987 25.2064 37.2744 24.8822 37.2744 24.4821V12.4821C37.2744 12.082 37.5987 11.7578 37.9987 11.7578C38.3988 11.7578 38.723 12.0821 38.723 12.4821V24.4821C38.7231 24.8822 38.3988 25.2064 37.9987 25.2064Z" fill="#497090"/>
<path d="M40.9987 25.2064C40.5987 25.2064 40.2744 24.8822 40.2744 24.4821V12.4821C40.2744 12.082 40.5987 11.7578 40.9987 11.7578C41.3988 11.7578 41.723 12.0821 41.723 12.4821V24.4821C41.723 24.8822 41.3988 25.2064 40.9987 25.2064Z" fill="#497090"/>
<path d="M44.8367 9.48438H4.16211C3.79967 9.48438 3.50586 9.19056 3.50586 8.82812V7.14062C3.50586 6.77819 3.79967 6.48438 4.16211 6.48438H44.8368C45.1992 6.48438 45.493 6.77819 45.493 7.14062V8.82812C45.4929 9.19056 45.1991 9.48438 44.8367 9.48438Z" fill="#497090"/>
<path d="M45.4929 31.4502H3.50586V28.1406C3.50586 27.7782 3.79967 27.4844 4.16211 27.4844H44.8368C45.1992 27.4844 45.493 27.7782 45.493 28.1406V31.4502H45.4929Z" fill="#497090"/>
<path d="M47.8428 30.4844H1.15527C0.792836 30.4844 0.499023 30.7782 0.499023 31.1406V32.8281C0.499023 33.1906 0.792836 33.4844 1.15527 33.4844H47.8428C48.2052 33.4844 48.499 33.1906 48.499 32.8281V31.1406C48.499 30.7782 48.2052 30.4844 47.8428 30.4844Z" fill="#AEA7AF"/>
<path d="M32.0007 41.5171C34.4842 41.5171 36.4975 39.5038 36.4975 37.0202C36.4975 34.5367 34.4842 32.5234 32.0007 32.5234C29.5172 32.5234 27.5039 34.5367 27.5039 37.0202C27.5039 39.5038 29.5172 41.5171 32.0007 41.5171Z" fill="#685E67"/>
<path d="M8.00267 41.5171C10.4862 41.5171 12.4995 39.5038 12.4995 37.0202C12.4995 34.5367 10.4862 32.5234 8.00267 32.5234C5.51915 32.5234 3.50586 34.5367 3.50586 37.0202C3.50586 39.5038 5.51915 41.5171 8.00267 41.5171Z" fill="#685E67"/>
<path d="M16.9997 41.5171C19.4833 41.5171 21.4966 39.5038 21.4966 37.0202C21.4966 34.5367 19.4833 32.5234 16.9997 32.5234C14.5162 32.5234 12.5029 34.5367 12.5029 37.0202C12.5029 39.5038 14.5162 41.5171 16.9997 41.5171Z" fill="#685E67"/>
<path d="M40.9978 41.5171C43.4813 41.5171 45.4946 39.5038 45.4946 37.0202C45.4946 34.5367 43.4813 32.5234 40.9978 32.5234C38.5143 32.5234 36.501 34.5367 36.501 37.0202C36.501 39.5038 38.5143 41.5171 40.9978 41.5171Z" fill="#685E67"/>
<path d="M31.998 38.5156C32.8265 38.5156 33.498 37.8441 33.498 37.0156C33.498 36.1872 32.8265 35.5156 31.998 35.5156C31.1696 35.5156 30.498 36.1872 30.498 37.0156C30.498 37.8441 31.1696 38.5156 31.998 38.5156Z" fill="#F1F6F7"/>
<path d="M40.9941 38.5156C41.8226 38.5156 42.4941 37.8441 42.4941 37.0156C42.4941 36.1872 41.8226 35.5156 40.9941 35.5156C40.1657 35.5156 39.4941 36.1872 39.4941 37.0156C39.4941 37.8441 40.1657 38.5156 40.9941 38.5156Z" fill="#F1F6F7"/>
<path d="M7.99902 38.6172C8.82745 38.6172 9.49902 37.9456 9.49902 37.1172C9.49902 36.2888 8.82745 35.6172 7.99902 35.6172C7.1706 35.6172 6.49902 36.2888 6.49902 37.1172C6.49902 37.9456 7.1706 38.6172 7.99902 38.6172Z" fill="#F1F6F7"/>
<path d="M16.9961 38.6172C17.8245 38.6172 18.4961 37.9456 18.4961 37.1172C18.4961 36.2888 17.8245 35.6172 16.9961 35.6172C16.1677 35.6172 15.4961 36.2888 15.4961 37.1172C15.4961 37.9456 16.1677 38.6172 16.9961 38.6172Z" fill="#F1F6F7"/>
<path d="M15.4965 37.7455H9.4997C9.09967 37.7455 8.77539 37.4212 8.77539 37.0212C8.77539 36.6212 9.09967 36.2969 9.4997 36.2969H15.4964C15.8965 36.2969 16.2207 36.6212 16.2207 37.0212C16.2207 37.4212 15.8965 37.7455 15.4965 37.7455Z" fill="#AEA7AF"/>
<path d="M39.4955 37.7455H33.4987C33.0987 37.7455 32.7744 37.4212 32.7744 37.0212C32.7744 36.6212 33.0987 36.2969 33.4987 36.2969H39.4955C39.8956 36.2969 40.2199 36.6212 40.2199 37.0212C40.2199 37.4212 39.8957 37.7455 39.4955 37.7455Z" fill="#AEA7AF"/>
</g>
<defs>
<clipPath id="clip0_2916_45956">
<rect width="48" height="48" fill="white" transform="translate(0.5)"/>
</clipPath>
</defs>
</svg>
