<svg width="49" height="48" viewBox="0 0 49 48" fill="none" xmlns="http://www.w3.org/2000/svg">
<g clip-path="url(#clip0_2916_46008)">
<path d="M15.4509 25.2582C15.1829 25.2582 14.9248 25.1102 14.7967 24.8541L12.88 20.9718C12.6996 20.6109 12.8459 20.1719 13.2067 19.9914C13.568 19.8109 14.0066 19.9572 14.1872 20.3182L16.1039 24.2005C16.2844 24.5614 16.138 25.0003 15.7772 25.1809C15.6723 25.2334 15.5607 25.2582 15.4509 25.2582Z" fill="#897E8B"/>
<path d="M33.1112 25.2583C33.0014 25.2583 32.8898 25.2335 32.7849 25.181C32.424 25.0005 32.2776 24.5616 32.4582 24.2005L34.3957 20.3183C34.5761 19.9572 35.015 19.8108 35.3762 19.9915C35.7371 20.1719 35.8835 20.6109 35.7029 20.9719L33.7654 24.8542C33.6374 25.1103 33.3793 25.2583 33.1112 25.2583Z" fill="#897E8B"/>
<path d="M35.7373 45.1863H12.8369C12.4745 45.1863 12.1807 44.8925 12.1807 44.53V24.6562C12.1807 24.2938 12.4745 24 12.8369 24H35.7373C36.0998 24 36.3936 24.2938 36.3936 24.6562V44.53C36.3936 44.8925 36.0998 45.1863 35.7373 45.1863Z" fill="#FFE17D"/>
<path d="M15.2407 16.9766H12.1807V20.3178C12.1807 20.6802 12.4745 20.9741 12.8369 20.9741H14.5844C14.9469 20.9741 15.2407 20.6802 15.2407 20.3178V16.9766Z" fill="#9DC6FB"/>
<path d="M36.4096 16.9766H33.3496V20.3178C33.3496 20.6802 33.6434 20.9741 34.0059 20.9741H35.7534C36.1158 20.9741 36.4096 20.6802 36.4096 20.3178V16.9766Z" fill="#9DC6FB"/>
<path d="M45.4732 17.9455H28.811L27.3091 17.008H21.8959L20.0209 17.9455H9.15384L3.10059 11.8923V5.83903L4.03809 3.75H5.18971L7.63256 5.82319L9.15384 8.86575H36.3934L42.4466 11.8924H45.4732C47.1448 11.8924 47.5624 13.2474 47.5624 14.919C47.5624 16.5905 47.1448 17.9455 45.4732 17.9455Z" fill="#F1F6F7"/>
<path d="M4.97559 5.83903L5.71359 4.19456L5.18971 3.75H4.03809L3.10059 5.83903V11.8924L9.15384 17.9455H11.0288L4.97559 11.8924V5.83903Z" fill="#D2E4E7"/>
<path d="M48.4993 14.9172C48.4993 13.2457 47.1442 11.8906 45.4727 11.8906V17.9439C47.1442 17.9439 48.4993 16.5888 48.4993 14.9172Z" fill="#9DC6FB"/>
<path d="M3.10059 5.83913L7.63255 5.82328L6.30862 3.17531C6.19743 2.95303 5.97018 2.8125 5.72165 2.8125H3.75684C3.3944 2.8125 3.10059 3.10631 3.10059 3.46875V5.83913Z" fill="#9DC6FB"/>
<path d="M4.97559 3.46875C4.97559 3.10631 5.2694 2.8125 5.63184 2.8125H3.75684C3.3944 2.8125 3.10059 3.10631 3.10059 3.46875V5.83903L4.97559 5.83247V3.46875Z" fill="#80B4FB"/>
<path d="M42.4468 11.8937L41.7683 10.5369C41.2566 9.51359 40.2108 8.86719 39.0666 8.86719H36.3936V11.2092C36.3936 11.5704 36.6853 11.8919 37.0463 11.8938L42.4468 11.8937Z" fill="#9DC6FB"/>
<path d="M38.9213 11.8938C38.5602 11.8919 38.2686 11.5704 38.2686 11.2092V8.86719H36.3936V11.2092C36.3936 11.5704 36.6853 11.8919 37.0463 11.8938H38.9213Z" fill="#80B4FB"/>
<path d="M4.6299 11.862H2.00696C1.74962 11.862 1.51421 11.7172 1.39824 11.4876L0.574182 9.85681C0.344963 9.40316 0.674682 8.86719 1.1829 8.86719H4.6299C5.45687 8.86719 6.12737 9.53759 6.12737 10.3647C6.12737 11.1916 5.45696 11.862 4.6299 11.862Z" fill="#9DC6FB"/>
<path d="M3.27329 11.4876L2.44923 9.85681C2.22001 9.40316 2.54973 8.86719 3.05795 8.86719H1.18295C0.674637 8.86719 0.344918 9.40316 0.574231 9.85681L1.39829 11.4876C1.51436 11.7173 1.74976 11.862 2.00701 11.862H3.88201C3.62476 11.862 3.38936 11.7172 3.27329 11.4876Z" fill="#80B4FB"/>
<path d="M28.8112 14.9062H18.2933C17.7103 14.9062 17.4168 15.6097 17.8268 16.0241L19.5546 17.77C19.6778 17.8946 19.8457 17.9647 20.0211 17.9647H28.8112C29.6557 17.9647 30.3404 17.28 30.3404 16.4355C30.3404 15.5908 29.6558 14.9062 28.8112 14.9062Z" fill="#9DC6FB"/>
<path d="M19.7018 16.0241C19.2918 15.6097 19.5853 14.9062 20.1683 14.9062H18.2933C17.7103 14.9062 17.4168 15.6097 17.8268 16.0241L19.5546 17.77C19.6778 17.8946 19.8457 17.9647 20.0211 17.9647H21.8961C21.7208 17.9647 21.5528 17.8945 21.4296 17.77L19.7018 16.0241Z" fill="#80B4FB"/>
<path d="M32.7104 42.1568H15.8633C15.5008 42.1568 15.207 41.863 15.207 41.5005V27.6641C15.207 27.3016 15.5008 27.0078 15.8633 27.0078H21.2647L24.2868 27.9453L27.3089 27.0078H32.7104C33.0729 27.0078 33.3667 27.3016 33.3667 27.6641V41.5005C33.3667 41.863 33.0729 42.1568 32.7104 42.1568Z" fill="#EDBA94"/>
<path d="M15.207 27.6641V41.5005C15.207 41.863 15.5008 42.1568 15.8633 42.1568H17.1558V27.0078H15.8633C15.5008 27.0078 15.207 27.3016 15.207 27.6641Z" fill="#E5A87F"/>
<path d="M26.3895 31.0279L24.5539 30.2247C24.3864 30.1513 24.1959 30.1512 24.0284 30.2244L22.1833 31.0294C21.7498 31.2185 21.2646 30.9009 21.2646 30.4279V27.0078H27.309V30.4267C27.3088 30.8999 26.8231 31.2177 26.3895 31.0279Z" fill="#FD6930"/>
<path d="M30.3399 39.8678H27.3089C26.9052 39.8678 26.5781 39.5406 26.5781 39.137C26.5781 38.7334 26.9052 38.4062 27.3089 38.4062H30.3399C30.7435 38.4062 31.0707 38.7334 31.0707 39.137C31.0707 39.5406 30.7435 39.8678 30.3399 39.8678Z" fill="#E5A87F"/>
<path d="M30.3399 36.8366H27.3089C26.9052 36.8366 26.5781 36.5094 26.5781 36.1058C26.5781 35.7022 26.9052 35.375 27.3089 35.375H30.3399C30.7435 35.375 31.0707 35.7022 31.0707 36.1058C31.0707 36.5094 30.7435 36.8366 30.3399 36.8366Z" fill="#E5A87F"/>
<path d="M21.7835 35.589L20.2657 34.0598C20.2656 34.0597 20.2654 34.0595 20.2653 34.0594C20.2615 34.0556 20.2577 34.0519 20.2538 34.0481C20.2534 34.0477 20.2529 34.0472 20.2524 34.0467C20.1293 33.9288 19.9652 33.8535 19.7834 33.8446C19.7825 33.8445 19.7816 33.8445 19.7807 33.8445C19.7756 33.8443 19.7705 33.844 19.7653 33.8439C19.7592 33.8438 19.753 33.8438 19.7469 33.8438H19.7464C19.7432 33.8438 19.74 33.8438 19.7367 33.8438C19.5572 33.8463 19.3933 33.9134 19.2674 34.023C19.2672 34.0232 19.2669 34.0234 19.2668 34.0236C19.2625 34.0273 19.2583 34.0311 19.2541 34.0348C19.2533 34.0356 19.2525 34.0363 19.2518 34.037C19.2482 34.0403 19.2446 34.0435 19.2412 34.0469C19.24 34.048 19.2388 34.0492 19.2377 34.0503C19.2346 34.0533 19.2315 34.0564 19.2284 34.0595C19.2281 34.0597 19.2278 34.06 19.2275 34.0603L17.7143 35.5896C17.4304 35.8764 17.4328 36.3391 17.7197 36.6231C18.0065 36.9069 18.4692 36.9045 18.7532 36.6176L19.0162 36.3518V39.1302C19.0162 39.5338 19.3433 39.861 19.7469 39.861C20.1506 39.861 20.4777 39.5338 20.4777 39.1302V36.3481L20.746 36.6185C20.8889 36.7625 21.0768 36.8345 21.2648 36.8345C21.4508 36.8345 21.637 36.7638 21.7795 36.6224C22.066 36.3382 22.0677 35.8754 21.7835 35.589Z" fill="#F1F6F7"/>
<path d="M33.3658 12.5944H30.3392C29.9355 12.5944 29.6084 12.2672 29.6084 11.8636C29.6084 11.46 29.9355 11.1328 30.3392 11.1328H33.3658C33.7694 11.1328 34.0966 11.46 34.0966 11.8636C34.0966 12.2672 33.7695 12.5944 33.3658 12.5944Z" fill="#9DC6FB"/>
<path d="M27.3131 12.5944H24.2864C23.8829 12.5944 23.5557 12.2672 23.5557 11.8636C23.5557 11.46 23.8828 11.1328 24.2864 11.1328H27.3131C27.7168 11.1328 28.0439 11.46 28.0439 11.8636C28.0439 12.2672 27.7167 12.5944 27.3131 12.5944Z" fill="#9DC6FB"/>
<path d="M21.2657 12.6256H18.2347C17.831 12.6256 17.5039 12.2984 17.5039 11.8948C17.5039 11.4912 17.831 11.1641 18.2347 11.1641H21.2657C21.6694 11.1641 21.9965 11.4912 21.9965 11.8948C21.9965 12.2984 21.6694 12.6256 21.2657 12.6256Z" fill="#9DC6FB"/>
<path d="M15.2056 12.5944H12.179C11.7753 12.5944 11.4482 12.2672 11.4482 11.8636C11.4482 11.46 11.7753 11.1328 12.179 11.1328H15.2056C15.6092 11.1328 15.9364 11.46 15.9364 11.8636C15.9364 12.2672 15.6093 12.5944 15.2056 12.5944Z" fill="#9DC6FB"/>
</g>
<defs>
<clipPath id="clip0_2916_46008">
<rect width="48" height="48" fill="white" transform="translate(0.5)"/>
</clipPath>
</defs>
</svg>
