<svg width="182" height="69" viewBox="0 0 182 69" fill="none" xmlns="http://www.w3.org/2000/svg">
<rect y="0.207031" width="182" height="67.834" rx="10.2391" fill="#090909"/>
<g filter="url(#filter0_ii_3093_67542)">
<path d="M18.1649 17.3881C17.7717 17.806 17.5392 18.4545 17.5392 19.2942V49.2986C17.5392 50.1397 17.7717 50.7869 18.1649 51.2047L18.265 51.3024L35.0075 34.4945V34.2964V34.0983L18.265 17.2891L18.1649 17.3881Z" fill="url(#paint0_linear_3093_67542)"/>
<path d="M40.5872 40.0959L35.0072 34.4914V34.2934V34.0953L40.5885 28.4922L40.7142 28.5641L47.3266 32.3357C49.2145 33.4129 49.2145 35.1752 47.3266 36.2538L40.7142 40.0253L40.5872 40.0959Z" fill="url(#paint1_linear_3093_67542)"/>
<g filter="url(#filter1_i_3093_67542)">
<path d="M40.7145 40.0236L35.0061 34.293L18.1649 51.2013C18.7866 51.8633 19.815 51.9447 20.9731 51.2854L40.7145 40.0236Z" fill="url(#paint2_linear_3093_67542)"/>
</g>
<path d="M40.7145 28.5641L20.9731 17.3036C19.815 16.6429 18.7866 16.7257 18.1649 17.3877L35.0075 34.296L40.7145 28.5641Z" fill="url(#paint3_linear_3093_67542)"/>
</g>
<path d="M91.2064 35.9345C88.2044 35.9345 85.7576 38.2168 85.7576 41.3602C85.7576 44.4844 88.2044 46.7858 91.2064 46.7858C94.2097 46.7858 96.6565 44.4844 96.6565 41.3602C96.6552 38.2168 94.2084 35.9345 91.2064 35.9345ZM91.2064 44.6502C89.5612 44.6502 88.1432 43.2941 88.1432 41.3614C88.1432 39.4083 89.5625 38.0726 91.2064 38.0726C92.8516 38.0726 94.2697 39.4083 94.2697 41.3614C94.2697 43.2929 92.8516 44.6502 91.2064 44.6502ZM79.3184 35.9345C76.3164 35.9345 73.8696 38.2168 73.8696 41.3602C73.8696 44.4844 76.3164 46.7858 79.3184 46.7858C82.3217 46.7858 84.7685 44.4844 84.7685 41.3602C84.7685 38.2168 82.3217 35.9345 79.3184 35.9345ZM79.3184 44.6502C77.6732 44.6502 76.2551 43.2941 76.2551 41.3614C76.2551 39.4083 77.6745 38.0726 79.3184 38.0726C80.9636 38.0726 82.3817 39.4083 82.3817 41.3614C82.3829 43.2929 80.9636 44.6502 79.3184 44.6502ZM65.1789 37.6006V39.902H70.6902C70.5256 41.1969 70.0942 42.1422 69.4356 42.7992C68.634 43.6003 67.3794 44.4844 65.1789 44.4844C61.7863 44.4844 59.1341 41.7505 59.1341 38.3597C59.1341 34.9688 61.7863 32.235 65.1789 32.235C67.0092 32.235 68.3456 32.9545 69.3322 33.8794L70.957 32.2554C69.5785 30.9401 67.7495 29.9336 65.1789 29.9336C60.5317 29.9336 56.6248 33.7148 56.6248 38.3597C56.6248 43.0045 60.5317 46.7858 65.1789 46.7858C67.687 46.7858 69.5798 45.9629 71.0591 44.4219C72.5805 42.9012 73.054 40.7631 73.054 39.0371C73.054 38.5038 73.0132 38.0101 72.9302 37.5994L65.1789 37.6006ZM123.008 39.3879C122.556 38.176 121.178 35.9345 118.361 35.9345C115.564 35.9345 113.24 38.1339 113.24 41.3602C113.24 44.4015 115.544 46.7858 118.628 46.7858C121.115 46.7858 122.555 45.2651 123.152 44.381L121.302 43.1474C120.685 44.0519 119.842 44.6477 118.628 44.6477C117.415 44.6477 116.551 44.0927 115.996 43.0033L123.255 40.0028L123.008 39.3879ZM115.605 41.1969C115.544 39.0996 117.23 38.0318 118.444 38.0318C119.39 38.0318 120.191 38.5051 120.459 39.1825L115.605 41.1969ZM109.705 46.4579H112.089V30.5102H109.705V46.4579ZM105.796 37.1477H105.715C105.18 36.5099 104.151 35.9345 102.857 35.9345C100.142 35.9345 97.6546 38.3189 97.6546 41.3818C97.6546 44.4231 100.142 46.787 102.857 46.787C104.153 46.787 105.18 46.2117 105.715 45.5547H105.796V46.3354C105.796 48.411 104.686 49.5209 102.898 49.5209C101.438 49.5209 100.533 48.4735 100.163 47.5895L98.086 48.4531C98.682 49.8908 100.265 51.659 102.898 51.659C105.694 51.659 108.059 50.0146 108.059 46.0063V36.265H105.798L105.796 37.1477ZM103.063 44.6502C101.417 44.6502 100.04 43.2724 100.04 41.3818C100.04 39.4695 101.417 38.0726 103.063 38.0726C104.686 38.0726 105.961 39.4695 105.961 41.3818C105.961 43.2724 104.686 44.6502 103.063 44.6502ZM134.181 30.5102H128.475V46.4579H130.855V40.4161H134.18C136.82 40.4161 139.416 38.5064 139.416 35.4638C139.416 32.4212 136.821 30.5102 134.181 30.5102ZM134.243 38.1964H130.855V32.73H134.243C136.023 32.73 137.034 34.2034 137.034 35.4638C137.034 36.6987 136.023 38.1964 134.243 38.1964ZM148.962 35.9065C147.237 35.9065 145.452 36.6655 144.713 38.3482L146.826 39.2297C147.278 38.3482 148.121 38.0599 149.002 38.0599C150.234 38.0599 151.486 38.7985 151.507 40.1112V40.2758C151.075 40.0296 150.151 39.6609 149.023 39.6609C146.745 39.6609 144.424 40.9124 144.424 43.2508C144.424 45.385 146.293 46.759 148.386 46.759C149.987 46.759 150.87 46.0407 151.424 45.1988H151.505V46.4298H153.805V40.3153C153.807 37.4858 151.69 35.9065 148.962 35.9065ZM148.673 44.6464C147.895 44.6464 146.806 44.256 146.806 43.2916C146.806 42.0605 148.161 41.5885 149.332 41.5885C150.377 41.5885 150.871 41.8143 151.507 42.1218C151.322 43.6003 150.049 44.6464 148.673 44.6464ZM162.181 36.2547L159.451 43.1691H159.369L156.536 36.2547H153.97L158.219 45.9183L155.797 51.2941H158.28L164.829 36.2547H162.181ZM140.73 46.4579H143.111V30.5102H140.73V46.4579Z" fill="white"/>
<path d="M60.6792 23.1389C60.2284 23.1389 59.8177 23.0648 59.4472 22.9166C59.0766 22.7684 58.7586 22.5523 58.4931 22.2682C58.2275 21.9841 58.0206 21.6352 57.8724 21.2215C57.7304 20.8015 57.6594 20.3229 57.6594 19.7857C57.6594 19.2484 57.7397 18.7729 57.9002 18.3592C58.067 17.9392 58.2893 17.5872 58.5672 17.3032C58.8451 17.0191 59.1693 16.8029 59.5398 16.6547C59.9103 16.5065 60.3056 16.4324 60.7255 16.4324C60.991 16.4324 61.2288 16.4509 61.4388 16.488C61.6549 16.5251 61.8402 16.5683 61.9945 16.6177C62.1551 16.6671 62.2848 16.7165 62.3836 16.7659C62.4824 16.8153 62.5503 16.8524 62.5874 16.8771L62.328 17.6181C62.2724 17.5811 62.1922 17.5409 62.0872 17.4977C61.9822 17.4545 61.8618 17.4112 61.7259 17.368C61.5962 17.3248 61.4511 17.2908 61.2905 17.2661C61.1362 17.2352 60.9787 17.2198 60.8181 17.2198C60.4785 17.2198 60.1728 17.2785 59.9011 17.3958C59.6293 17.5131 59.3978 17.6829 59.2063 17.9053C59.0149 18.1276 58.8667 18.3993 58.7617 18.7204C58.6629 19.0354 58.6135 19.3905 58.6135 19.7857C58.6135 20.1686 58.6567 20.5175 58.7432 20.8324C58.8358 21.1474 58.9717 21.4191 59.1508 21.6476C59.3298 21.8699 59.5522 22.0428 59.8177 22.1663C60.0894 22.2898 60.4044 22.3516 60.7625 22.3516C61.1763 22.3516 61.519 22.3084 61.7908 22.2219C62.0625 22.1354 62.2663 22.0582 62.4021 21.9903L62.6337 22.7314C62.5905 22.7622 62.5133 22.8024 62.4021 22.8518C62.291 22.895 62.152 22.9382 61.9853 22.9815C61.8185 23.0247 61.624 23.0618 61.4017 23.0926C61.1794 23.1235 60.9385 23.1389 60.6792 23.1389ZM65.3674 20.3785C65.5589 20.5144 65.7657 20.6873 65.988 20.8973C66.2104 21.1011 66.4265 21.3234 66.6365 21.5642C66.8526 21.8051 67.0533 22.0521 67.2386 22.3053C67.4238 22.5523 67.5813 22.7839 67.711 23H66.692C66.5562 22.79 66.3956 22.577 66.2104 22.3608C66.0313 22.1385 65.8429 21.9255 65.6453 21.7217C65.4477 21.5179 65.247 21.3295 65.0432 21.1566C64.8394 20.9837 64.648 20.8386 64.4689 20.7213V23H63.6074V18.1832H64.4689V20.2488C64.6171 20.1068 64.7869 19.9432 64.9784 19.7579C65.1698 19.5665 65.3612 19.375 65.5527 19.1836C65.7503 18.986 65.9325 18.8007 66.0992 18.6278C66.2659 18.4487 66.4018 18.3005 66.5068 18.1832H67.5072C67.3713 18.3314 67.2108 18.5012 67.0255 18.6926C66.8464 18.8779 66.6581 19.0693 66.4605 19.2669C66.269 19.4646 66.0776 19.6622 65.8862 19.8598C65.6947 20.0512 65.5218 20.2241 65.3674 20.3785ZM70.2131 22.3794C70.4168 22.3794 70.5959 22.3763 70.7503 22.3701C70.9109 22.3578 71.0437 22.3392 71.1486 22.3145V20.8787C71.0869 20.8479 70.985 20.8232 70.843 20.8046C70.7071 20.7799 70.5404 20.7676 70.3427 20.7676C70.2131 20.7676 70.0741 20.7768 69.9259 20.7954C69.7839 20.8139 69.6511 20.854 69.5276 20.9158C69.4103 20.9714 69.3114 21.0516 69.2312 21.1566C69.1509 21.2554 69.1107 21.3882 69.1107 21.5549C69.1107 21.8637 69.2096 22.0799 69.4072 22.2034C69.6048 22.3207 69.8734 22.3794 70.2131 22.3794ZM70.139 18.0627C70.4848 18.0627 70.775 18.1091 71.0097 18.2017C71.2505 18.2881 71.442 18.4147 71.584 18.5815C71.7322 18.742 71.8372 18.9366 71.899 19.1651C71.9607 19.3874 71.9916 19.6344 71.9916 19.9061V22.9166C71.9175 22.929 71.8125 22.9475 71.6766 22.9722C71.547 22.9907 71.3987 23.0093 71.232 23.0278C71.0653 23.0463 70.8831 23.0618 70.6855 23.0741C70.494 23.0926 70.3026 23.1019 70.1112 23.1019C69.8394 23.1019 69.5893 23.0741 69.3608 23.0185C69.1324 22.9629 68.9347 22.8765 68.768 22.7592C68.6013 22.6356 68.4716 22.4751 68.379 22.2775C68.2863 22.0799 68.24 21.8421 68.24 21.5642C68.24 21.2987 68.2925 21.0702 68.3975 20.8787C68.5086 20.6873 68.6568 20.5329 68.8421 20.4156C69.0274 20.2982 69.2435 20.2118 69.4905 20.1562C69.7376 20.1006 69.9969 20.0728 70.2686 20.0728C70.3551 20.0728 70.4446 20.079 70.5373 20.0914C70.6299 20.0975 70.7164 20.1099 70.7966 20.1284C70.8831 20.1408 70.9572 20.1531 71.019 20.1655C71.0807 20.1778 71.1239 20.1871 71.1486 20.1933V19.9524C71.1486 19.8104 71.1332 19.6714 71.1023 19.5356C71.0714 19.3935 71.0159 19.27 70.9356 19.1651C70.8553 19.0539 70.7441 18.9674 70.6021 18.9057C70.4663 18.8378 70.2872 18.8038 70.0648 18.8038C69.7808 18.8038 69.5307 18.8254 69.3145 18.8686C69.1046 18.9057 68.9471 18.9458 68.8421 18.9891L68.7402 18.2758C68.8514 18.2264 69.0366 18.1801 69.296 18.1368C69.5554 18.0874 69.8364 18.0627 70.139 18.0627ZM73.9689 18.1832V19.6004C73.9689 19.9648 74.0615 20.2211 74.2468 20.3693C74.4321 20.5113 74.6853 20.5823 75.0064 20.5823C75.2411 20.5823 75.4356 20.57 75.59 20.5453C75.7505 20.5206 75.8926 20.4928 76.0161 20.4619V18.1832H76.8775V23H76.0161V21.1288C75.9667 21.1412 75.9018 21.1566 75.8215 21.1752C75.7413 21.1937 75.6486 21.2122 75.5436 21.2307C75.4448 21.2431 75.3399 21.2554 75.2287 21.2678C75.1175 21.2801 75.0095 21.2863 74.9045 21.2863C74.6389 21.2863 74.395 21.2585 74.1727 21.2029C73.9566 21.1474 73.7682 21.0547 73.6076 20.9251C73.4533 20.7954 73.3298 20.6255 73.2371 20.4156C73.1507 20.1994 73.1074 19.9308 73.1074 19.6097V18.1832H73.9689ZM79.9918 22.3794C80.1956 22.3794 80.3747 22.3763 80.5291 22.3701C80.6897 22.3578 80.8224 22.3392 80.9274 22.3145V20.8787C80.8657 20.8479 80.7638 20.8232 80.6217 20.8046C80.4859 20.7799 80.3191 20.7676 80.1215 20.7676C79.9918 20.7676 79.8529 20.7768 79.7047 20.7954C79.5627 20.8139 79.4299 20.854 79.3064 20.9158C79.189 20.9714 79.0902 21.0516 79.0099 21.1566C78.9297 21.2554 78.8895 21.3882 78.8895 21.5549C78.8895 21.8637 78.9883 22.0799 79.1859 22.2034C79.3836 22.3207 79.6522 22.3794 79.9918 22.3794ZM79.9177 18.0627C80.2636 18.0627 80.5538 18.1091 80.7885 18.2017C81.0293 18.2881 81.2208 18.4147 81.3628 18.5815C81.511 18.742 81.616 18.9366 81.6777 19.1651C81.7395 19.3874 81.7704 19.6344 81.7704 19.9061V22.9166C81.6963 22.929 81.5913 22.9475 81.4554 22.9722C81.3257 22.9907 81.1775 23.0093 81.0108 23.0278C80.8441 23.0463 80.6619 23.0618 80.4643 23.0741C80.2728 23.0926 80.0814 23.1019 79.8899 23.1019C79.6182 23.1019 79.3681 23.0741 79.1396 23.0185C78.9111 22.9629 78.7135 22.8765 78.5468 22.7592C78.3801 22.6356 78.2504 22.4751 78.1577 22.2775C78.0651 22.0799 78.0188 21.8421 78.0188 21.5642C78.0188 21.2987 78.0713 21.0702 78.1763 20.8787C78.2874 20.6873 78.4356 20.5329 78.6209 20.4156C78.8062 20.2982 79.0223 20.2118 79.2693 20.1562C79.5163 20.1006 79.7757 20.0728 80.0474 20.0728C80.1339 20.0728 80.2234 20.079 80.3161 20.0914C80.4087 20.0975 80.4951 20.1099 80.5754 20.1284C80.6619 20.1408 80.736 20.1531 80.7977 20.1655C80.8595 20.1778 80.9027 20.1871 80.9274 20.1933V19.9524C80.9274 19.8104 80.912 19.6714 80.8811 19.5356C80.8502 19.3935 80.7947 19.27 80.7144 19.1651C80.6341 19.0539 80.5229 18.9674 80.3809 18.9057C80.245 18.8378 80.0659 18.8038 79.8436 18.8038C79.5596 18.8038 79.3095 18.8254 79.0933 18.8686C78.8834 18.9057 78.7259 18.9458 78.6209 18.9891L78.519 18.2758C78.6302 18.2264 78.8154 18.1801 79.0748 18.1368C79.3342 18.0874 79.6151 18.0627 79.9177 18.0627ZM86.6007 18.1832V18.9057H85.0353V23H84.1738V18.9057H82.6083V18.1832H86.6007ZM89.3138 22.3979C89.6782 22.3979 89.9653 22.3269 90.1753 22.1848C90.3853 22.0428 90.4903 21.8143 90.4903 21.4994C90.4903 21.345 90.4594 21.2122 90.3976 21.1011C90.3359 20.9899 90.2494 20.9004 90.1383 20.8324C90.0333 20.7583 89.9098 20.7058 89.7677 20.6749C89.6257 20.6379 89.4744 20.6194 89.3138 20.6194C89.1471 20.6194 88.9742 20.6255 88.7951 20.6379C88.6222 20.6441 88.474 20.6626 88.3505 20.6935V22.3516C88.3875 22.3578 88.4431 22.3639 88.5172 22.3701C88.5913 22.3763 88.6716 22.3825 88.758 22.3886C88.8507 22.3886 88.9433 22.3917 89.0359 22.3979C89.1347 22.3979 89.2274 22.3979 89.3138 22.3979ZM87.489 22.8981V18.1832H88.3505V20.0265C88.3999 20.0142 88.4647 20.0018 88.545 19.9895C88.6315 19.9771 88.721 19.9648 88.8136 19.9524C88.9124 19.9401 89.0143 19.9308 89.1193 19.9246C89.2243 19.9185 89.3231 19.9154 89.4157 19.9154C89.6813 19.9154 89.9314 19.9462 90.166 20.008C90.4007 20.0636 90.6045 20.1562 90.7774 20.2859C90.9565 20.4094 91.0985 20.5731 91.2035 20.7768C91.3085 20.9745 91.361 21.2122 91.361 21.4901C91.361 21.7804 91.3116 22.0274 91.2128 22.2312C91.114 22.4349 90.9719 22.6017 90.7867 22.7314C90.6014 22.8611 90.3791 22.9537 90.1197 23.0093C89.8665 23.071 89.5825 23.1019 89.2675 23.1019C88.9587 23.1019 88.6562 23.0834 88.3597 23.0463C88.0633 23.0154 87.7731 22.966 87.489 22.8981ZM96.6203 23.1112C96.2312 23.1112 95.8885 23.0494 95.5921 22.9259C95.3018 22.8024 95.0548 22.6295 94.851 22.4072C94.6534 22.1848 94.5052 21.9224 94.4064 21.6198C94.3076 21.311 94.2582 20.9714 94.2582 20.6008C94.2582 20.2303 94.3107 19.8907 94.4157 19.5819C94.5268 19.2731 94.6812 19.0076 94.8788 18.7853C95.0764 18.5568 95.3173 18.3808 95.6013 18.2573C95.8916 18.1276 96.2127 18.0627 96.5647 18.0627C96.7809 18.0627 96.997 18.0813 97.2131 18.1183C97.4293 18.1554 97.6362 18.214 97.8338 18.2943L97.6392 19.0261C97.5096 18.9644 97.3583 18.9149 97.1853 18.8779C97.0186 18.8408 96.8395 18.8223 96.6481 18.8223C96.1664 18.8223 95.7959 18.9736 95.5365 19.2762C95.2833 19.5788 95.1567 20.0204 95.1567 20.6008C95.1567 20.8602 95.1845 21.098 95.2401 21.3141C95.3018 21.5302 95.3945 21.7155 95.518 21.8699C95.6477 22.0243 95.8113 22.1447 96.0089 22.2312C96.2065 22.3114 96.4474 22.3516 96.7315 22.3516C96.9599 22.3516 97.1668 22.33 97.3521 22.2867C97.5373 22.2435 97.6825 22.1972 97.7875 22.1478L97.9079 22.8703C97.8585 22.9012 97.7875 22.9321 97.6948 22.9629C97.6022 22.9876 97.4972 23.0093 97.3799 23.0278C97.2625 23.0525 97.1359 23.071 97.0001 23.0834C96.8704 23.1019 96.7438 23.1112 96.6203 23.1112ZM98.5641 20.6008C98.5641 20.1747 98.6259 19.8042 98.7494 19.4893C98.8729 19.1681 99.0365 18.9026 99.2403 18.6926C99.4441 18.4827 99.6788 18.3252 99.9443 18.2202C100.21 18.1152 100.482 18.0627 100.759 18.0627C101.408 18.0627 101.905 18.2665 102.251 18.6741C102.597 19.0755 102.77 19.69 102.77 20.5175C102.77 20.5545 102.77 20.6039 102.77 20.6657C102.77 20.7213 102.767 20.7738 102.76 20.8232H99.4626C99.4997 21.3234 99.6448 21.7032 99.898 21.9625C100.151 22.2219 100.546 22.3516 101.084 22.3516C101.386 22.3516 101.639 22.3269 101.843 22.2775C102.053 22.2219 102.211 22.1694 102.316 22.12L102.436 22.8425C102.331 22.8981 102.146 22.9568 101.88 23.0185C101.621 23.0803 101.325 23.1112 100.991 23.1112C100.571 23.1112 100.207 23.0494 99.898 22.9259C99.5954 22.7962 99.3453 22.6202 99.1477 22.3979C98.9501 22.1756 98.8019 21.9131 98.7031 21.6105C98.6104 21.3018 98.5641 20.9652 98.5641 20.6008ZM101.871 20.1284C101.877 19.7394 101.778 19.4213 101.575 19.1743C101.377 18.9211 101.102 18.7945 100.75 18.7945C100.553 18.7945 100.377 18.8347 100.222 18.9149C100.074 18.9891 99.9474 19.0879 99.8424 19.2114C99.7374 19.3349 99.6541 19.4769 99.5923 19.6375C99.5367 19.798 99.4997 19.9617 99.4812 20.1284H101.871ZM108.055 18.1832V23H107.221V19.3318C107.036 19.5665 106.832 19.8413 106.61 20.1562C106.388 20.4712 106.165 20.7985 105.943 21.1381C105.721 21.4716 105.508 21.802 105.304 22.1293C105.1 22.4566 104.924 22.7468 104.776 23H104.007V18.1832H104.841V21.6476C105.001 21.382 105.184 21.0918 105.387 20.7768C105.591 20.4557 105.801 20.1408 106.017 19.832C106.24 19.5171 106.459 19.2175 106.675 18.9335C106.897 18.6432 107.104 18.3931 107.296 18.1832H108.055ZM106.036 17.4051C105.647 17.4051 105.329 17.3062 105.082 17.1086C104.841 16.911 104.696 16.6362 104.646 16.2842L105.304 16.1082C105.353 16.3058 105.437 16.4664 105.554 16.5899C105.671 16.7134 105.832 16.7752 106.036 16.7752C106.24 16.7752 106.4 16.7134 106.517 16.5899C106.635 16.4664 106.718 16.3058 106.768 16.1082L107.416 16.2842C107.367 16.6362 107.221 16.911 106.981 17.1086C106.74 17.3062 106.425 17.4051 106.036 17.4051ZM110.081 18.1832V19.6004C110.081 19.9648 110.173 20.2211 110.359 20.3693C110.544 20.5113 110.797 20.5823 111.118 20.5823C111.353 20.5823 111.547 20.57 111.702 20.5453C111.862 20.5206 112.004 20.4928 112.128 20.4619V18.1832H112.989V23H112.128V21.1288C112.079 21.1412 112.014 21.1566 111.933 21.1752C111.853 21.1937 111.76 21.2122 111.655 21.2307C111.557 21.2431 111.452 21.2554 111.341 21.2678C111.229 21.2801 111.121 21.2863 111.016 21.2863C110.751 21.2863 110.507 21.2585 110.285 21.2029C110.068 21.1474 109.88 21.0547 109.719 20.9251C109.565 20.7954 109.442 20.6255 109.349 20.4156C109.263 20.1994 109.219 19.9308 109.219 19.6097V18.1832H110.081ZM116.104 22.3794C116.307 22.3794 116.487 22.3763 116.641 22.3701C116.802 22.3578 116.934 22.3392 117.039 22.3145V20.8787C116.978 20.8479 116.876 20.8232 116.734 20.8046C116.598 20.7799 116.431 20.7676 116.233 20.7676C116.104 20.7676 115.965 20.7768 115.817 20.7954C115.674 20.8139 115.542 20.854 115.418 20.9158C115.301 20.9714 115.202 21.0516 115.122 21.1566C115.042 21.2554 115.001 21.3882 115.001 21.5549C115.001 21.8637 115.1 22.0799 115.298 22.2034C115.495 22.3207 115.764 22.3794 116.104 22.3794ZM116.03 18.0627C116.375 18.0627 116.666 18.1091 116.9 18.2017C117.141 18.2881 117.333 18.4147 117.475 18.5815C117.623 18.742 117.728 18.9366 117.79 19.1651C117.851 19.3874 117.882 19.6344 117.882 19.9061V22.9166C117.808 22.929 117.703 22.9475 117.567 22.9722C117.438 22.9907 117.289 23.0093 117.123 23.0278C116.956 23.0463 116.774 23.0618 116.576 23.0741C116.385 23.0926 116.193 23.1019 116.002 23.1019C115.73 23.1019 115.48 23.0741 115.251 23.0185C115.023 22.9629 114.825 22.8765 114.659 22.7592C114.492 22.6356 114.362 22.4751 114.27 22.2775C114.177 22.0799 114.131 21.8421 114.131 21.5642C114.131 21.2987 114.183 21.0702 114.288 20.8787C114.399 20.6873 114.547 20.5329 114.733 20.4156C114.918 20.2982 115.134 20.2118 115.381 20.1562C115.628 20.1006 115.888 20.0728 116.159 20.0728C116.246 20.0728 116.335 20.079 116.428 20.0914C116.521 20.0975 116.607 20.1099 116.687 20.1284C116.774 20.1408 116.848 20.1531 116.91 20.1655C116.971 20.1778 117.015 20.1871 117.039 20.1933V19.9524C117.039 19.8104 117.024 19.6714 116.993 19.5356C116.962 19.3935 116.906 19.27 116.826 19.1651C116.746 19.0539 116.635 18.9674 116.493 18.9057C116.357 18.8378 116.178 18.8038 115.955 18.8038C115.671 18.8038 115.421 18.8254 115.205 18.8686C114.995 18.9057 114.838 18.9458 114.733 18.9891L114.631 18.2758C114.742 18.2264 114.927 18.1801 115.187 18.1368C115.446 18.0874 115.727 18.0627 116.03 18.0627ZM121.406 23.1112C121.017 23.1112 120.675 23.0494 120.378 22.9259C120.088 22.8024 119.841 22.6295 119.637 22.4072C119.44 22.1848 119.291 21.9224 119.193 21.6198C119.094 21.311 119.044 20.9714 119.044 20.6008C119.044 20.2303 119.097 19.8907 119.202 19.5819C119.313 19.2731 119.467 19.0076 119.665 18.7853C119.863 18.5568 120.103 18.3808 120.388 18.2573C120.678 18.1276 120.999 18.0627 121.351 18.0627C121.567 18.0627 121.783 18.0813 121.999 18.1183C122.215 18.1554 122.422 18.214 122.62 18.2943L122.425 19.0261C122.296 18.9644 122.144 18.9149 121.972 18.8779C121.805 18.8408 121.626 18.8223 121.434 18.8223C120.953 18.8223 120.582 18.9736 120.323 19.2762C120.07 19.5788 119.943 20.0204 119.943 20.6008C119.943 20.8602 119.971 21.098 120.026 21.3141C120.088 21.5302 120.181 21.7155 120.304 21.8699C120.434 22.0243 120.598 22.1447 120.795 22.2312C120.993 22.3114 121.234 22.3516 121.518 22.3516C121.746 22.3516 121.953 22.33 122.138 22.2867C122.324 22.2435 122.469 22.1972 122.574 22.1478L122.694 22.8703C122.645 22.9012 122.574 22.9321 122.481 22.9629C122.388 22.9876 122.283 23.0093 122.166 23.0278C122.049 23.0525 121.922 23.071 121.786 23.0834C121.657 23.1019 121.53 23.1112 121.406 23.1112Z" fill="#FBFBFB"/>
<defs>
<filter id="filter0_ii_3093_67542" x="17.5392" y="16.8477" width="31.2033" height="34.8945" filterUnits="userSpaceOnUse" color-interpolation-filters="sRGB">
<feFlood flood-opacity="0" result="BackgroundImageFix"/>
<feBlend mode="normal" in="SourceGraphic" in2="BackgroundImageFix" result="shape"/>
<feColorMatrix in="SourceAlpha" type="matrix" values="0 0 0 0 0 0 0 0 0 0 0 0 0 0 0 0 0 0 127 0" result="hardAlpha"/>
<feOffset dy="-0.203502"/>
<feComposite in2="hardAlpha" operator="arithmetic" k2="-1" k3="1"/>
<feColorMatrix type="matrix" values="0 0 0 0 0 0 0 0 0 0 0 0 0 0 0 0 0 0 0.12 0"/>
<feBlend mode="normal" in2="shape" result="effect1_innerShadow_3093_67542"/>
<feColorMatrix in="SourceAlpha" type="matrix" values="0 0 0 0 0 0 0 0 0 0 0 0 0 0 0 0 0 0 127 0" result="hardAlpha"/>
<feOffset dy="0.203502"/>
<feComposite in2="hardAlpha" operator="arithmetic" k2="-1" k3="1"/>
<feColorMatrix type="matrix" values="0 0 0 0 1 0 0 0 0 1 0 0 0 0 1 0 0 0 0.25 0"/>
<feBlend mode="normal" in2="effect1_innerShadow_3093_67542" result="effect2_innerShadow_3093_67542"/>
</filter>
<filter id="filter1_i_3093_67542" x="18.1649" y="34.293" width="22.5496" height="17.4492" filterUnits="userSpaceOnUse" color-interpolation-filters="sRGB">
<feFlood flood-opacity="0" result="BackgroundImageFix"/>
<feBlend mode="normal" in="SourceGraphic" in2="BackgroundImageFix" result="shape"/>
<feColorMatrix in="SourceAlpha" type="matrix" values="0 0 0 0 0 0 0 0 0 0 0 0 0 0 0 0 0 0 127 0" result="hardAlpha"/>
<feOffset dy="-0.203502"/>
<feComposite in2="hardAlpha" operator="arithmetic" k2="-1" k3="1"/>
<feColorMatrix type="matrix" values="0 0 0 0 0 0 0 0 0 0 0 0 0 0 0 0 0 0 0.08 0"/>
<feBlend mode="normal" in2="shape" result="effect1_innerShadow_3093_67542"/>
</filter>
<linearGradient id="paint0_linear_3093_67542" x1="33.5234" y1="18.9768" x2="10.7558" y2="41.6559" gradientUnits="userSpaceOnUse">
<stop stop-color="#00A0FF"/>
<stop offset="0.0066" stop-color="#00A1FF"/>
<stop offset="0.2601" stop-color="#00BEFF"/>
<stop offset="0.5122" stop-color="#00D2FF"/>
<stop offset="0.7604" stop-color="#00DFFF"/>
<stop offset="1" stop-color="#00E3FF"/>
</linearGradient>
<linearGradient id="paint1_linear_3093_67542" x1="49.7842" y1="34.2934" x2="17.0857" y2="34.2934" gradientUnits="userSpaceOnUse">
<stop stop-color="#FFE000"/>
<stop offset="0.4087" stop-color="#FFBD00"/>
<stop offset="0.7754" stop-color="#FFA500"/>
<stop offset="1" stop-color="#FF9C00"/>
</linearGradient>
<linearGradient id="paint2_linear_3093_67542" x1="37.6145" y1="37.4051" x2="6.73871" y2="68.1608" gradientUnits="userSpaceOnUse">
<stop stop-color="#FF3A44"/>
<stop offset="1" stop-color="#C31162"/>
</linearGradient>
<linearGradient id="paint3_linear_3093_67542" x1="13.9234" y1="7.39956" x2="27.7103" y2="21.1329" gradientUnits="userSpaceOnUse">
<stop stop-color="#32A071"/>
<stop offset="0.0685" stop-color="#2DA771"/>
<stop offset="0.4762" stop-color="#15CF74"/>
<stop offset="0.8009" stop-color="#06E775"/>
<stop offset="1" stop-color="#00F076"/>
</linearGradient>
</defs>
</svg>
