<svg width="454" height="123" viewBox="0 0 454 123" fill="none" xmlns="http://www.w3.org/2000/svg">
<path d="M65.5 23.7354H26.2839V70.8426" stroke="#FEDE2B" stroke-width="11.0511"/>
<path d="M48.4629 83.5276V46.4092H84.2129V96.4384L48.4629 107.735L6.21289 96.4384V46.4092" stroke="#FEDE2B" stroke-width="11.0511"/>
<path d="M191.222 41.2168L181.868 50.4753C175.949 44.208 169.049 41.0743 161.167 41.0743C154.298 41.0743 148.538 43.3534 143.885 47.9114C139.263 52.4695 136.952 58.0088 136.952 64.5294C136.952 71.2715 139.358 76.9849 144.169 81.6696C148.981 86.3543 154.916 88.6966 161.974 88.6966C166.564 88.6966 170.426 87.7312 173.559 85.8004C176.725 83.8695 179.273 80.8466 181.204 76.7317H160.977V64.2445H196.112L196.207 67.1883C196.207 73.2973 194.625 79.0899 191.459 84.5659C188.294 90.0419 184.195 94.2201 179.162 97.1006C174.129 99.981 168.226 101.421 161.452 101.421C154.204 101.421 147.73 99.8544 142.033 96.7207C136.367 93.5554 131.872 89.0607 128.549 83.2365C125.257 77.4123 123.611 71.1291 123.611 64.3869C123.611 55.1442 126.665 47.1043 132.774 40.2672C140.023 32.1323 149.456 28.0648 161.072 28.0648C167.15 28.0648 172.831 29.1885 178.118 31.4359C182.581 33.3351 186.949 36.5954 191.222 41.2168ZM212.066 26.7354C214.345 26.7354 216.291 27.5584 217.906 29.2044C219.552 30.8503 220.375 32.8445 220.375 35.1868C220.375 37.4975 219.567 39.4758 217.953 41.1218C216.339 42.7361 214.408 43.5433 212.161 43.5433C209.85 43.5433 207.872 42.7203 206.226 41.0743C204.611 39.3967 203.804 37.3709 203.804 34.9969C203.804 32.7179 204.611 30.7712 206.226 29.1569C207.84 27.5426 209.787 26.7354 212.066 26.7354ZM205.561 48.0064H218.57V99.6645H205.561V48.0064ZM224.79 48.0064H237.99L251.047 78.4885L264.056 48.0064H277.208L255.225 99.6645H246.821L224.79 48.0064ZM286.277 99.6645V29.8216H297.244C303.607 29.8216 308.26 30.2331 311.204 31.0561C315.382 32.1639 318.705 34.2214 321.174 37.2285C323.643 40.2355 324.878 43.7807 324.878 47.8639C324.878 50.5228 324.308 52.9443 323.168 55.1284C322.061 57.2808 320.241 59.3066 317.708 61.2058C321.95 63.1999 325.052 65.7006 327.014 68.7076C328.977 71.683 329.958 75.2124 329.958 79.2956C329.958 83.2206 328.945 86.7974 326.919 90.0261C324.894 93.2547 322.282 95.6762 319.085 97.2905C315.888 98.8732 311.473 99.6645 305.838 99.6645H286.277ZM299.571 42.4987V57.2175H302.467C305.696 57.2175 308.086 56.5369 309.637 55.1759C311.219 53.8148 312.011 51.963 312.011 49.6207C312.011 47.4366 311.267 45.7115 309.779 44.4454C308.291 43.1476 306.028 42.4987 302.989 42.4987H299.571ZM299.571 69.0875V86.9874H302.895C308.402 86.9874 312.106 86.291 314.005 84.8982C315.936 83.5055 316.901 81.4797 316.901 78.8208C316.901 75.8138 315.777 73.4398 313.53 71.6988C311.283 69.9579 307.548 69.0875 302.325 69.0875H299.571ZM365.52 46.677C370.395 46.677 374.969 47.8956 379.242 50.3329C383.547 52.7702 386.902 56.078 389.308 60.2562C391.714 64.4344 392.916 68.945 392.916 73.788C392.916 78.6626 391.698 83.2206 389.26 87.4622C386.855 91.7037 383.563 95.0273 379.385 97.4329C375.206 99.8069 370.601 100.994 365.568 100.994C358.161 100.994 351.83 98.3667 346.576 93.1123C341.353 87.8262 338.742 81.4164 338.742 73.8829C338.742 65.8113 341.701 59.085 347.621 53.704C352.812 49.0193 358.778 46.677 365.52 46.677ZM365.71 58.8793C361.69 58.8793 358.335 60.2878 355.645 63.105C352.986 65.8905 351.656 69.4673 351.656 73.8354C351.656 78.3302 352.97 81.9703 355.597 84.7558C358.256 87.5413 361.611 88.934 365.663 88.934C369.715 88.934 373.086 87.5255 375.776 84.7083C378.467 81.8912 379.812 78.2669 379.812 73.8354C379.812 69.404 378.482 65.8113 375.824 63.0575C373.196 60.272 369.825 58.8793 365.71 58.8793ZM398.899 48.0064H413.95L424.063 62.1079L434.319 48.0064H449.227L431.565 72.4585L451.411 99.6645H436.36L424.063 82.7142L411.908 99.6645H397.047L416.609 72.4585L398.899 48.0064Z" fill="#FEDE2B"/>
</svg>
