<svg width="175" height="56" viewBox="0 0 175 56" fill="none" xmlns="http://www.w3.org/2000/svg">
<path d="M31.3585 6.21826H12.6006V28.9064" stroke="#FEDE2B" stroke-width="4.32469"/>
<path d="M23.2091 35.0159V17.1387H40.3091V41.2341L23.2091 46.675L3 41.2341V17.1387" stroke="#FEDE2B" stroke-width="4.32469"/>
<path d="M69.4694 41.3751C65.4937 41.3751 62.4931 40.2999 60.4678 38.1495C58.4674 35.9991 57.4673 33.0861 57.4673 29.4105C57.4673 26.76 57.9048 24.4721 58.78 22.5468C59.6552 20.5965 60.9804 19.0962 62.7557 18.046C64.556 16.9958 66.8314 16.4707 69.5819 16.4707C71.0071 16.4707 72.2948 16.5708 73.445 16.7708C74.6202 16.9458 75.7204 17.2084 76.7456 17.5584V21.084C74.6953 20.3339 72.4199 19.9589 69.9194 19.9589C66.8439 19.9589 64.681 20.7715 63.4308 22.3968C62.2056 24.0221 61.593 26.36 61.593 29.4105C61.593 32.186 62.2431 34.2988 63.5433 35.7491C64.8435 37.1993 66.8564 37.9245 69.5819 37.9245C71.7322 37.9245 73.47 37.6744 74.7953 37.1743V30.4232H68.7567V27.7602H78.2834V39.3872C77.5082 39.8873 76.3956 40.3499 74.9453 40.775C73.5201 41.175 71.6947 41.3751 69.4694 41.3751ZM83.1958 19.5088V16.1332H87.6591V19.5088H83.1958ZM83.5334 41V26.335H80.8329L81.208 23.2219H87.6216V41H83.5334ZM97.9218 41L90.9081 23.2219H95.1464L100.135 37.0243L105.123 23.2219H109.324L102.348 41H97.9218ZM112.792 41V16.8458H124.494C126.895 16.8458 128.67 17.4084 129.82 18.5336C130.97 19.6588 131.546 21.2466 131.546 23.2969C131.546 24.5972 131.283 25.6973 130.758 26.5975C130.233 27.4727 129.533 28.1353 128.658 28.5853C129.833 28.9104 130.758 29.498 131.433 30.3482C132.133 31.1733 132.483 32.3985 132.483 34.0238C132.483 36.3742 131.846 38.1245 130.57 39.2747C129.32 40.4249 127.47 41 125.019 41H112.792ZM116.88 27.1601H123.932C125.307 27.1601 126.282 26.8475 126.857 26.2224C127.457 25.5723 127.757 24.7097 127.757 23.6345C127.757 22.3843 127.457 21.4591 126.857 20.859C126.257 20.2339 125.132 19.9213 123.482 19.9213H116.88V27.1601ZM116.88 37.9995H124.157C125.607 37.9995 126.67 37.6994 127.345 37.0993C128.02 36.4742 128.357 35.399 128.357 33.8738C128.357 32.6235 128.02 31.6984 127.345 31.0983C126.695 30.4732 125.494 30.1606 123.744 30.1606H116.88V37.9995ZM144.968 41.3751C141.767 41.3751 139.417 40.5749 137.916 38.9746C136.441 37.3744 135.703 35.0865 135.703 32.111C135.703 29.1354 136.454 26.8475 137.954 25.2473C139.454 23.647 141.792 22.8469 144.968 22.8469C148.168 22.8469 150.519 23.647 152.019 25.2473C153.519 26.8475 154.269 29.1354 154.269 32.111C154.269 35.0865 153.519 37.3744 152.019 38.9746C150.544 40.5749 148.193 41.3751 144.968 41.3751ZM144.968 37.9245C146.843 37.9245 148.168 37.4744 148.943 36.5742C149.743 35.6491 150.143 34.1613 150.143 32.111C150.143 30.0606 149.743 28.5853 148.943 27.6852C148.168 26.785 146.843 26.335 144.968 26.335C143.117 26.335 141.792 26.785 140.992 27.6852C140.217 28.5853 139.829 30.0606 139.829 32.111C139.829 34.1613 140.217 35.6491 140.992 36.5742C141.792 37.4744 143.117 37.9245 144.968 37.9245ZM155.324 41L162.113 31.9609L155.587 23.2219H159.975L164.326 29.1479L168.677 23.2219H173.065L166.576 31.9609L173.327 41H168.902L164.326 34.8114L159.75 41H155.324Z" fill="#FEDE2B"/>
</svg>
