<svg width="73" height="65" viewBox="0 0 73 65" fill="none" xmlns="http://www.w3.org/2000/svg">
<path d="M68.4282 16.5426L41.0462 2.85156L13.6643 16.5426V59.9014H68.4282V16.5426Z" fill="#F1F6F7"/>
<path d="M42.5154 3.58616L41.0462 2.85156L13.6643 16.5426V59.9014H16.6027V16.5426L42.5154 3.58616Z" fill="#D2E4E7"/>
<path d="M71.994 64.4622H9.10083V59.8984H71.994C72.5452 59.8984 72.9921 60.3453 72.9921 60.8965V63.4641C72.9921 64.0153 72.5452 64.4622 71.994 64.4622Z" fill="#497090"/>
<path d="M9.10156 19.7799V17.1489C9.10156 16.7735 9.31216 16.4299 9.64667 16.2595L40.0187 0.789698C40.666 0.46603 41.4282 0.465886 42.0755 0.789555L72.4491 16.2602C72.7829 16.4301 72.9934 16.7728 72.9942 17.1473L73.0001 19.7762C73.0016 20.5191 72.2201 21.0034 71.5557 20.6711L41.4938 5.6403C41.2127 5.49985 40.8819 5.49985 40.6009 5.6403L10.5462 20.6726C9.8825 21.0046 9.10156 20.522 9.10156 19.7799Z" fill="#9DC6FB"/>
<path d="M36.5123 59.8961H22.8174V24.3809C22.8174 23.8297 23.2642 23.3828 23.8155 23.3828H35.5142C36.0654 23.3828 36.5123 23.8297 36.5123 24.3809V59.8961Z" fill="#9DC6FB"/>
<path d="M22.8174 24.3809V59.8961H25.7558V23.3828H23.8155C23.2642 23.3828 22.8174 23.8297 22.8174 24.3809Z" fill="#80B4FB"/>
<path d="M59.3014 38.4997H45.6104V24.3809C45.6104 23.8297 46.0572 23.3828 46.6084 23.3828H58.3033C58.8545 23.3828 59.3014 23.8297 59.3014 24.3809V38.4997Z" fill="#9DC6FB"/>
<path d="M45.6104 24.3809V38.4997H48.5487V23.3828H46.6084C46.0572 23.3828 45.6104 23.8297 45.6104 24.3809Z" fill="#80B4FB"/>
<path d="M60.5853 37.0703H44.3267C43.7755 37.0703 43.3286 37.5172 43.3286 38.0684V40.6359C43.3286 41.1872 43.7755 41.634 44.3267 41.634H60.5851C61.1364 41.634 61.5832 41.1872 61.5832 40.6359V38.0684C61.5834 37.5172 61.1365 37.0703 60.5853 37.0703Z" fill="#ADE194"/>
<path d="M43.3286 38.0684V40.6359C43.3286 41.1872 43.7755 41.634 44.3267 41.634H46.267V37.0703H44.3267C43.7755 37.0703 43.3286 37.5172 43.3286 38.0684Z" fill="#7DCE6F"/>
<path d="M0.997363 64.4668H21.8195C22.3707 64.4668 22.8176 64.0199 22.8176 63.4687V42.6465C22.8176 42.0953 22.3707 41.6484 21.8195 41.6484H13.6646L11.4041 43.0743L9.11787 41.6484H0.997363C0.446129 41.6484 -0.000732422 42.0953 -0.000732422 42.6465V63.4687C-0.000732422 64.0199 0.446129 64.4668 0.997363 64.4668Z" fill="#EDBA94"/>
<path d="M9.09218 41.6484H13.6646V47.8543C13.6646 48.1602 13.3529 48.3672 13.071 48.2486L11.5523 47.6098C11.4467 47.5653 11.3275 47.5651 11.2217 47.6093L9.68462 48.251C9.40288 48.3686 9.09204 48.1616 9.09204 47.8563L9.09218 41.6484Z" fill="#FD6930"/>
<path d="M18.2539 61.0163H13.6991C13.0905 61.0163 12.5972 60.523 12.5972 59.9144C12.5972 59.3057 13.0905 58.8125 13.6991 58.8125H18.2539C18.8625 58.8125 19.3558 59.3058 19.3558 59.9144C19.3558 60.5231 18.8625 61.0163 18.2539 61.0163Z" fill="#E5A87F"/>
<path d="M18.2539 56.4382H13.6991C13.0905 56.4382 12.5972 55.9448 12.5972 55.3363C12.5972 54.7277 13.0905 54.2344 13.6991 54.2344H18.2539C18.8625 54.2344 19.3558 54.7277 19.3558 55.3363C19.3558 55.945 18.8625 56.4382 18.2539 56.4382Z" fill="#E5A87F"/>
<path d="M31.9412 42.735H30.5545C29.946 42.735 29.4526 42.2418 29.4526 41.6331C29.4526 41.0245 29.946 40.5312 30.5545 40.5312H31.9412C32.5497 40.5312 33.0431 41.0245 33.0431 41.6331C33.0431 42.2418 32.5497 42.735 31.9412 42.735Z" fill="#F1F6F7"/>
<path d="M-0.000732422 42.6465V63.4687C-0.000732422 64.0199 0.446129 64.4668 0.997363 64.4668H2.93766V41.6484H0.997363C0.446129 41.6484 -0.000732422 42.0953 -0.000732422 42.6465Z" fill="#E5A87F"/>
</svg>
