<svg width="104" height="125" viewBox="0 0 104 125" fill="none" xmlns="http://www.w3.org/2000/svg">
<g id="fontisto:locked" clip-path="url(#clip0_625_14029)">
<path id="Vector" d="M18.2 33.8V52H10.4C7.64175 52 4.99647 53.0957 3.04609 55.0461C1.09571 56.9965 0 59.6417 0 62.4L0 114.4C0 117.158 1.09571 119.804 3.04609 121.754C4.99647 123.704 7.64175 124.8 10.4 124.8H93.6C96.3582 124.8 99.0035 123.704 100.954 121.754C102.904 119.804 104 117.158 104 114.4V62.4C104 59.6417 102.904 56.9965 100.954 55.0461C99.0035 53.0957 96.3582 52 93.6 52H85.8V33.8C85.8 24.8357 82.2389 16.2385 75.9002 9.89979C69.5615 3.56106 60.9643 0 52 0C43.0357 0 34.4385 3.56106 28.0998 9.89979C21.7611 16.2385 18.2 24.8357 18.2 33.8ZM31.2 52V33.8C31.2 28.2835 33.3914 22.9929 37.2922 19.0922C41.1929 15.1914 46.4835 13 52 13C57.5165 13 62.8071 15.1914 66.7078 19.0922C70.6086 22.9929 72.8 28.2835 72.8 33.8V52H31.2ZM41.6 80.6C41.6004 78.7983 42.0688 77.0276 42.9594 75.4614C43.85 73.8952 45.1322 72.5873 46.6804 71.6657C48.2285 70.7441 49.9895 70.2406 51.7909 70.2043C53.5922 70.1681 55.372 70.6005 56.956 71.459C58.54 72.3176 59.8737 73.573 60.8266 75.1021C61.7794 76.6312 62.3187 78.3816 62.3915 80.1818C62.4643 81.9821 62.0682 83.7703 61.242 85.3714C60.4158 86.9725 59.1878 88.3315 57.6784 89.3152L57.6368 89.3412C57.6368 89.3412 58.6508 95.4772 59.7948 102.705V102.71C59.7948 103.743 59.3845 104.734 58.654 105.464C57.9236 106.195 56.933 106.605 55.9 106.605H48.0896C47.0566 106.605 46.066 106.195 45.3356 105.464C44.6051 104.734 44.1948 103.743 44.1948 102.71V102.705L46.3528 89.3412C44.8927 88.3984 43.6919 87.105 42.8599 85.5791C42.0279 84.0532 41.5912 82.3432 41.5896 80.6052L41.6 80.6Z" fill="#D9D8D8" fill-opacity="0.6"/>
</g>
<defs>
<clipPath id="clip0_625_14029">
<rect width="104" height="124.8" fill="white"/>
</clipPath>
</defs>
</svg>
