<svg width="264" height="231" viewBox="0 0 264 231" fill="none" xmlns="http://www.w3.org/2000/svg">
<path fill-rule="evenodd" clip-rule="evenodd" d="M167.802 155.943L167.035 158.972L91.3223 139.806L92.0883 136.777C98.1463 138.31 102.845 132.475 103.605 129.477L107.974 112.214C111.434 99.6506 122.874 90.9576 135.906 90.9896C137.022 86.8226 141.306 84.3506 145.472 85.4676C149.639 86.5846 152.112 90.8676 150.994 95.0346C162.423 101.414 168.281 114.563 165.378 127.325L161.147 144.043C160.249 147.586 164.774 155.176 167.802 155.943Z" fill="#F1F2F7"/>
<path fill-rule="evenodd" clip-rule="evenodd" d="M115.57 149.168C116.297 156.898 123.152 162.576 130.882 161.85C135.092 161.455 138.901 159.185 141.253 155.669L115.57 149.168Z" fill="#FFDA3E"/>
<path fill-rule="evenodd" clip-rule="evenodd" d="M238.532 126.61C238.532 183.931 192.063 230.4 134.742 230.4C77.4211 230.4 30.9531 183.931 30.9531 126.61C30.9531 69.2893 77.4211 22.8203 134.742 22.8203C192.063 22.8203 238.532 69.2893 238.532 126.61Z" stroke="#E9EAEC" stroke-dasharray="5.02 5.02"/>
<path fill-rule="evenodd" clip-rule="evenodd" d="M211.817 126.61C211.817 169.177 177.309 203.685 134.742 203.685C92.174 203.685 57.668 169.177 57.668 126.61C57.668 84.0432 92.174 49.5352 134.742 49.5352C177.309 49.5352 211.817 84.0432 211.817 126.61Z" stroke="#E9EAEC" stroke-dasharray="5.05 5.05"/>
<path fill-rule="evenodd" clip-rule="evenodd" d="M207.759 55.5742C209.255 55.5742 210.465 56.7832 210.465 58.2802C210.465 59.7772 209.255 60.9862 207.759 60.9862C206.262 60.9862 205.052 59.7772 205.052 58.2802C205.052 56.7832 206.262 55.5742 207.759 55.5742ZM215.877 55.5742C217.374 55.5742 218.583 56.7832 218.583 58.2802C218.583 59.7772 217.374 60.9862 215.877 60.9862C214.38 60.9862 213.171 59.7772 213.171 58.2802C213.171 56.7832 214.38 55.5742 215.877 55.5742ZM223.995 55.5742C225.492 55.5742 226.701 56.7832 226.701 58.2802C226.701 59.7772 225.492 60.9862 223.995 60.9862C222.498 60.9862 221.289 59.7772 221.289 58.2802C221.289 56.7832 222.498 55.5742 223.995 55.5742ZM204.731 73.1625H217.645C218.863 73.1625 218.863 73.1715 219.446 73.6025C220.03 74.0335 226.694 78.5745 226.694 78.5745V73.1625H227.006C230.574 73.1625 233.458 70.4735 233.458 67.1245V49.4585C233.458 46.1095 230.567 43.3945 227.006 43.3945H204.731C201.171 43.3945 198.279 46.1095 198.279 49.4585V67.1245C198.279 70.4735 201.171 73.1625 204.731 73.1625Z" fill="url(#paint0_linear_2074_35838)"/>
<path fill-rule="evenodd" clip-rule="evenodd" d="M48.4265 86.7544C48.4265 87.7334 47.6365 88.5234 46.6565 88.5234C45.6785 88.5234 44.8885 87.7334 44.8885 86.7544C44.8885 85.7754 45.6785 84.9844 46.6565 84.9844C47.6365 84.9844 48.4265 85.7754 48.4265 86.7544ZM43.1185 86.7544C43.1185 87.7334 42.3275 88.5234 41.3495 88.5234C40.3705 88.5234 39.5795 87.7334 39.5795 86.7544C39.5795 85.7754 40.3705 84.9844 41.3495 84.9844C42.3275 84.9844 43.1185 85.7754 43.1185 86.7544ZM37.8105 86.7544C37.8105 87.7334 37.0195 88.5234 36.0405 88.5234C35.0625 88.5234 34.2715 87.7334 34.2715 86.7544C34.2715 85.7754 35.0625 84.9844 36.0405 84.9844C37.0195 84.9844 37.8105 85.7754 37.8105 86.7544ZM52.8565 92.5394V80.9884C52.8565 78.7984 50.9645 77.0234 48.6375 77.0234H34.0725C31.7445 77.0234 29.8535 78.7984 29.8535 80.9884V92.5394C29.8535 94.7284 31.7395 96.4864 34.0725 96.4864H34.2775V100.026C34.2775 100.026 38.6345 97.0564 39.0155 96.7744C39.3975 96.4924 39.3975 96.4864 40.1935 96.4864H48.6375C50.9645 96.4864 52.8565 94.7284 52.8565 92.5394Z" fill="url(#paint1_linear_2074_35838)"/>
<path fill-rule="evenodd" clip-rule="evenodd" d="M115.576 149.184C116.303 156.914 123.158 162.592 130.888 161.866C135.098 161.471 138.907 159.201 141.259 155.685L115.576 149.184Z" fill="url(#paint2_linear_2074_35838)"/>
<path fill-rule="evenodd" clip-rule="evenodd" d="M176.622 102.74C178.385 104.861 179.709 107.359 180.609 110.007C181.526 112.656 181.974 115.47 182.02 118.286C182.02 119.695 181.919 121.102 181.737 122.497C181.497 123.885 181.22 125.263 180.784 126.598C179.941 129.269 178.667 131.802 176.931 133.958C176.856 134.051 176.722 134.065 176.629 133.991C176.557 133.932 176.533 133.836 176.561 133.752C177.465 131.179 178.214 128.641 178.717 126.066C178.81 125.416 178.938 124.776 179.046 124.133C179.12 123.484 179.218 122.84 179.274 122.192C179.316 121.543 179.4 120.898 179.427 120.249C179.437 119.599 179.468 118.95 179.465 118.301C179.48 115.702 179.19 113.107 178.685 110.531C178.166 107.953 177.385 105.414 176.447 102.841C176.428 102.788 176.455 102.729 176.508 102.71C176.55 102.694 176.595 102.708 176.622 102.74Z" fill="url(#paint3_linear_2074_35838)"/>
<path fill-rule="evenodd" clip-rule="evenodd" d="M186.552 103.641C188.254 105.602 189.536 107.928 190.429 110.397C191.324 112.869 191.841 115.495 191.933 118.137C192.033 120.778 191.711 123.433 191.005 125.962C190.3 128.49 189.201 130.906 187.651 132.988C187.641 133.001 187.622 133.004 187.61 132.995C187.6 132.987 187.596 132.974 187.599 132.963C188.241 130.457 188.779 128.019 189.105 125.568C189.431 123.118 189.538 120.669 189.447 118.229C189.347 115.79 189.052 113.359 188.533 110.946C188.016 108.53 187.285 106.146 186.452 103.699C186.442 103.668 186.458 103.635 186.489 103.624C186.512 103.616 186.537 103.623 186.552 103.641Z" fill="url(#paint4_linear_2074_35838)"/>
<path fill-rule="evenodd" clip-rule="evenodd" d="M95.7907 116.156C95.2507 113.467 95.2447 110.658 95.6727 107.912C96.0867 105.159 96.9767 102.475 98.2127 99.9682C99.4787 97.4762 101.097 95.1572 103.051 93.1732C104.991 91.1822 107.241 89.4952 109.723 88.3172C109.768 88.2962 109.82 88.3152 109.841 88.3592C109.858 88.3952 109.849 88.4372 109.82 88.4632C107.801 90.2962 105.942 92.2072 104.299 94.2762C102.668 96.3492 101.225 98.5522 100.059 100.897C98.8607 103.227 97.9467 105.696 97.2517 108.243C96.5677 110.796 96.1457 113.431 95.8767 116.152C95.8737 116.175 95.8527 116.193 95.8287 116.191C95.8097 116.189 95.7947 116.174 95.7907 116.156Z" fill="url(#paint5_linear_2074_35838)"/>
<path fill-rule="evenodd" clip-rule="evenodd" d="M87.3142 110.84C86.8032 108.315 86.7942 105.684 87.1652 103.108C87.5482 100.532 88.3132 98.0006 89.4422 95.6436C90.5592 93.2826 92.0012 91.0736 93.7362 89.1386C95.4632 87.2006 97.4592 85.5066 99.6832 84.2266C97.8672 86.0346 96.1992 87.9206 94.7442 89.9486C93.2942 91.9786 92.0332 94.1196 91.0112 96.3716C89.9992 98.6266 89.1872 100.969 88.6082 103.386C88.0132 105.802 87.6562 108.281 87.3992 110.836C87.3962 110.859 87.3762 110.876 87.3512 110.874C87.3332 110.872 87.3172 110.858 87.3142 110.84Z" fill="url(#paint6_linear_2074_35838)"/>
<path fill-rule="evenodd" clip-rule="evenodd" d="M167.808 155.963C167.808 155.963 163.33 154.223 160.976 151.74C157.698 148.283 157.914 144.511 160.13 137.231C162.737 128.562 162.666 119.43 161.662 115.244C158.165 100.658 151 95.0547 151 95.0547C162.429 101.434 168.287 114.583 165.384 127.345L161.153 144.063C160.411 146.533 164.78 155.196 167.808 155.963L167.041 158.992L167.808 155.963Z" fill="#D8DBEA"/>
<path d="M11.345 140.582L9.41797 140.523" stroke="#D2D8DF" stroke-linecap="round"/>
<path d="M9.96208 136.93L8.58008 138.221" stroke="#D2D8DF" stroke-linecap="round"/>
<path d="M6.36103 135.262L6.33203 137.146" stroke="#D2D8DF" stroke-linecap="round"/>
<path d="M2.64844 136.555L3.99044 137.929" stroke="#D2D8DF" stroke-linecap="round"/>
<path d="M1 140.051L2.926 140.11" stroke="#D2D8DF" stroke-linecap="round"/>
<path d="M2.38281 143.705L3.76581 142.414" stroke="#D2D8DF" stroke-linecap="round"/>
<path d="M5.98438 145.376L6.01337 143.492" stroke="#D2D8DF" stroke-linecap="round"/>
<path d="M9.69747 144.081L8.35547 142.707" stroke="#D2D8DF" stroke-linecap="round"/>
<path d="M262.648 113.723L261.801 114.64" stroke="#D2D8DF" stroke-linecap="round"/>
<path d="M258.672 114.52L259.311 115.109" stroke="#D2D8DF" stroke-linecap="round"/>
<path d="M258.027 118.585L258.874 117.668" stroke="#D2D8DF" stroke-linecap="round"/>
<path d="M262.001 117.788L261.363 117.199" stroke="#D2D8DF" stroke-linecap="round"/>
<path d="M185.07 5.94562L183.021 5.89062" stroke="#D2D8DF" stroke-linecap="round"/>
<path d="M179.769 1L179.738 2.751" stroke="#D2D8DF" stroke-linecap="round"/>
<path d="M174.066 5.45312L176.115 5.50713" stroke="#D2D8DF" stroke-linecap="round"/>
<path d="M179.367 10.3994L179.398 8.64844" stroke="#D2D8DF" stroke-linecap="round"/>
<path fill-rule="evenodd" clip-rule="evenodd" d="M33.3381 195.008C31.8641 195.449 29.4091 197.615 28.5691 200.183C28.4281 197.797 26.9131 194.798 25.2461 194.366C27.2801 193.647 29.4831 191.004 30.0691 188.777C29.9631 191.111 32.0821 194.5 33.3381 195.008Z" fill="#EBECEF"/>
<path fill-rule="evenodd" clip-rule="evenodd" d="M67.8587 15.3273C66.7217 15.5283 64.7067 16.9283 63.8587 18.7683C63.9597 16.9793 63.0907 14.6143 61.8867 14.1483C63.4637 13.7883 65.3337 12.0103 65.9627 10.4023C65.6817 12.1323 66.9667 14.8403 67.8587 15.3273Z" fill="#EBECEF"/>
<path fill-rule="evenodd" clip-rule="evenodd" d="M218.561 28.318C217.042 28.285 215.838 27.028 215.872 25.51C215.905 23.992 217.162 22.788 218.679 22.821C220.198 22.854 221.402 24.111 221.369 25.629C221.335 27.147 220.079 28.351 218.561 28.318Z" fill="#D1D9E0"/>
<path fill-rule="evenodd" clip-rule="evenodd" d="M218.566 208.47C217.245 208.442 216.197 207.347 216.225 206.026C216.253 204.704 217.348 203.656 218.67 203.684C219.992 203.713 221.04 204.807 221.011 206.129C220.982 207.45 219.888 208.499 218.566 208.47Z" fill="#EBECEF"/>
<path fill-rule="evenodd" clip-rule="evenodd" d="M19.8224 64.8032C19.0044 64.7852 18.3554 64.1082 18.3734 63.2892C18.3904 62.4712 19.0684 61.8232 19.8864 61.8402C20.7044 61.8582 21.3534 62.5352 21.3364 63.3532C21.3184 64.1722 20.6404 64.8212 19.8224 64.8032Z" stroke="#D2D8DF" stroke-linecap="round"/>
<defs>
<linearGradient id="paint0_linear_2074_35838" x1="198.279" y1="43.3945" x2="198.279" y2="78.5745" gradientUnits="userSpaceOnUse">
<stop stop-color="#F3BB45"/>
<stop offset="1" stop-color="#FAC553"/>
</linearGradient>
<linearGradient id="paint1_linear_2074_35838" x1="41.355" y1="65.5219" x2="18.352" y2="88.5249" gradientUnits="userSpaceOnUse">
<stop stop-color="#F8C24F"/>
<stop offset="1" stop-color="#F7BD42"/>
</linearGradient>
<linearGradient id="paint2_linear_2074_35838" x1="115.576" y1="148.122" x2="115.842" y2="161.944" gradientUnits="userSpaceOnUse">
<stop stop-color="#FDB21E"/>
<stop offset="1" stop-color="#FFD97E"/>
</linearGradient>
<linearGradient id="paint3_linear_2074_35838" x1="176.441" y1="100.092" x2="183.496" y2="132.556" gradientUnits="userSpaceOnUse">
<stop stop-color="#FDB21E"/>
<stop offset="1" stop-color="#FFD97E"/>
</linearGradient>
<linearGradient id="paint4_linear_2074_35838" x1="186.449" y1="101.173" x2="192.765" y2="131.743" gradientUnits="userSpaceOnUse">
<stop stop-color="#FDB21E"/>
<stop offset="1" stop-color="#FFD97E"/>
</linearGradient>
<linearGradient id="paint5_linear_2074_35838" x1="95.3672" y1="85.985" x2="97.6083" y2="116.07" gradientUnits="userSpaceOnUse">
<stop stop-color="#FDB21E"/>
<stop offset="1" stop-color="#FFD97E"/>
</linearGradient>
<linearGradient id="paint6_linear_2074_35838" x1="86.9062" y1="82.006" x2="89.2241" y2="110.73" gradientUnits="userSpaceOnUse">
<stop stop-color="#FDB21E"/>
<stop offset="1" stop-color="#FFD97E"/>
</linearGradient>
</defs>
</svg>
