<svg width="603" height="597" viewBox="0 0 603 597" fill="none" xmlns="http://www.w3.org/2000/svg">
<g id="No Upcoming Trips">
<g id="Group 3">
<mask id="mask0_2218_49929" style="mask-type:luminance" maskUnits="userSpaceOnUse" x="55" y="129" width="505" height="288">
<path id="Clip 2" fill-rule="evenodd" clip-rule="evenodd" d="M180.101 180.165H115.609C107.229 180.165 100.374 187.042 100.374 195.449C100.374 203.855 107.229 210.732 115.609 210.732H148.429H158.048C166.428 210.732 173.282 217.611 173.282 226.017C173.282 230.218 171.565 234.048 168.803 236.808C166.052 239.581 162.234 241.303 158.048 241.303H137.528H126.198H70.9217C62.5417 241.303 55.6875 248.181 55.6875 256.586C55.6875 264.991 62.5417 271.869 70.9217 271.869H110.494C98.5478 300.037 91.932 331.029 91.932 363.578C91.932 375.386 92.8052 386.991 94.4803 398.332C95.1798 403.07 96.024 407.768 97.0108 412.414C125.753 408.004 156.241 404.455 188.071 401.867L190.466 404.059L192.72 401.502C230.96 398.517 271.096 396.926 312.493 396.926C400.446 396.926 482.749 404.099 553.12 416.571C555.833 404.774 557.662 392.636 558.526 380.226C558.92 374.724 559.114 369.171 559.114 363.578C559.114 234.139 454.537 129.217 325.524 129.217C270.539 129.217 220.003 148.278 180.101 180.165Z" fill="white"/>
</mask>
<g mask="url(#mask0_2218_49929)">
<path id="Fill 1" fill-rule="evenodd" clip-rule="evenodd" d="M44.5488 427.714H570.251V118.084H44.5488V427.714Z" fill="#F1F2F7"/>
</g>
</g>
<g id="Group 6">
<mask id="mask1_2218_49929" style="mask-type:luminance" maskUnits="userSpaceOnUse" x="0" y="240" width="41" height="32">
<path id="Clip 5" fill-rule="evenodd" clip-rule="evenodd" d="M15.4303 240.574C6.94328 240.574 0 247.593 0 256.167C0 264.741 6.94328 271.76 15.4303 271.76H24.6635C33.1526 271.76 40.0959 264.741 40.0959 256.167C40.0959 247.593 33.1526 240.574 24.6635 240.574H15.4303Z" fill="white"/>
</mask>
<g mask="url(#mask1_2218_49929)">
<path id="Fill 4" fill-rule="evenodd" clip-rule="evenodd" d="M-11.1387 282.909H51.2328V229.447H-11.1387V282.909Z" fill="#F1F2F7"/>
</g>
</g>
<g id="Group 9">
<mask id="mask2_2218_49929" style="mask-type:luminance" maskUnits="userSpaceOnUse" x="96" y="397" width="506" height="200">
<path id="Clip 8" fill-rule="evenodd" clip-rule="evenodd" d="M192.386 401.806L190.13 404.348L187.735 402.169C155.915 404.742 125.435 408.264 96.6973 412.65C119.086 517.973 212.866 597 325.155 597C377.732 597 426.246 579.665 465.288 550.424H506.847C515.223 550.424 522.077 543.588 522.077 535.237C522.077 531.067 520.36 527.257 517.6 524.515C514.847 521.76 511.029 520.049 506.847 520.049H488.773C480.395 520.049 473.541 513.215 473.541 504.862C473.541 500.689 475.259 496.883 478.018 494.138C480.772 491.383 484.59 489.674 488.773 489.674H586.057C594.435 489.674 601.287 482.84 601.287 474.485C601.287 470.312 599.569 466.505 596.809 463.763C594.047 461.008 590.247 459.297 586.057 459.297H538.354C544.446 445.76 549.28 431.544 552.699 416.782C482.344 404.39 400.061 397.26 312.128 397.26C270.743 397.26 230.613 398.839 192.386 401.806Z" fill="white"/>
</mask>
<g mask="url(#mask2_2218_49929)">
<path id="Fill 7" fill-rule="evenodd" clip-rule="evenodd" d="M85.5586 608.143H612.421V386.127H85.5586V608.143Z" fill="#E8EBF2"/>
</g>
</g>
<g id="Group 12">
<mask id="mask3_2218_49929" style="mask-type:luminance" maskUnits="userSpaceOnUse" x="191" y="369" width="366" height="48">
<path id="Clip 11" fill-rule="evenodd" clip-rule="evenodd" d="M511.826 399.385L488.308 377.829L463.141 396.51L452.591 381.975L410.945 396.51L315.006 381.975L259.239 397.372C276.291 396.801 293.617 396.51 311.173 396.51C399.007 396.51 481.204 403.818 551.483 416.529C554.187 404.504 556.016 392.137 556.878 379.491L548.917 369.75L511.826 399.385ZM191.561 401.173C213.533 399.422 236.132 398.143 259.24 397.373L218.044 370.491L191.561 401.173Z" fill="white"/>
</mask>
<g mask="url(#mask3_2218_49929)">
<path id="Fill 10" fill-rule="evenodd" clip-rule="evenodd" d="M180.422 427.689H568.016V358.635H180.422V427.689Z" fill="#E0E2EE"/>
</g>
</g>
<g id="Group 15">
<mask id="mask4_2218_49929" style="mask-type:luminance" maskUnits="userSpaceOnUse" x="187" y="400" width="5" height="4">
<path id="Clip 14" fill-rule="evenodd" clip-rule="evenodd" d="M187.119 401.284L189.414 403.193L191.574 400.963C190.086 401.061 188.596 401.168 187.119 401.284Z" fill="white"/>
</mask>
<g mask="url(#mask4_2218_49929)">
<path id="Fill 13" fill-rule="evenodd" clip-rule="evenodd" d="M175.98 414.333H202.711V389.83H175.98V414.333Z" fill="#F1F2F7"/>
</g>
</g>
<g id="Group 18">
<mask id="mask5_2218_49929" style="mask-type:luminance" maskUnits="userSpaceOnUse" x="93" y="360" width="95" height="53">
<path id="Clip 17" fill-rule="evenodd" clip-rule="evenodd" d="M93.5566 398.002C94.2561 402.749 95.1003 407.453 96.0827 412.107C124.816 407.69 155.295 404.137 187.114 401.544L142.806 360.873L93.5566 398.002Z" fill="white"/>
</mask>
<g mask="url(#mask5_2218_49929)">
<path id="Fill 16" fill-rule="evenodd" clip-rule="evenodd" d="M82.418 423.249H198.251V349.74H82.418V423.249Z" fill="#E0E2EE"/>
</g>
</g>
<g id="Group 21">
<mask id="mask6_2218_49929" style="mask-type:luminance" maskUnits="userSpaceOnUse" x="242" y="484" width="174" height="17">
<path id="Clip 20" fill-rule="evenodd" clip-rule="evenodd" d="M242.174 492.783C242.174 497.086 281.069 500.579 329.051 500.579C377.03 500.579 415.925 497.086 415.925 492.783C415.925 488.479 377.03 484.986 329.051 484.986C281.069 484.986 242.174 488.479 242.174 492.783Z" fill="white"/>
</mask>
<g mask="url(#mask6_2218_49929)">
<path id="Fill 19" fill-rule="evenodd" clip-rule="evenodd" d="M231.041 511.722H427.066V473.854H231.041V511.722Z" fill="#D8DBEA"/>
</g>
</g>
<g id="Group 24">
<mask id="mask7_2218_49929" style="mask-type:luminance" maskUnits="userSpaceOnUse" x="536" y="519" width="33" height="32">
<path id="Clip 23" fill-rule="evenodd" clip-rule="evenodd" d="M536.83 534.605C536.83 543.181 543.847 550.197 552.423 550.197C560.999 550.197 568.016 543.181 568.016 534.605C568.016 526.031 560.999 519.012 552.423 519.012C543.847 519.012 536.83 526.031 536.83 534.605Z" fill="white"/>
</mask>
<g mask="url(#mask7_2218_49929)">
<path id="Fill 22" fill-rule="evenodd" clip-rule="evenodd" d="M525.691 561.34H579.153V507.879H525.691V561.34Z" fill="#E1E3EF"/>
</g>
</g>
<g id="Group 47">
<path id="Fill 25" fill-rule="evenodd" clip-rule="evenodd" d="M326.745 303.464C319.492 303.464 313.612 297.584 313.612 290.331C313.612 283.08 319.492 277.201 326.745 277.201C333.998 277.201 339.879 283.08 339.879 290.331C339.879 297.584 333.998 303.464 326.745 303.464ZM326.745 271.764C316.489 271.764 308.174 280.077 308.174 290.333C308.174 300.593 316.489 308.906 326.745 308.906C337.001 308.906 345.318 300.593 345.318 290.333C345.318 280.077 337.001 271.764 326.745 271.764Z" fill="#D8DBEA"/>
<path id="Fill 27" fill-rule="evenodd" clip-rule="evenodd" d="M377.091 464.439H276.43C266.406 464.439 258.275 456.313 258.275 446.287V353.719C258.275 317.577 287.848 288.006 323.988 288.006H329.53C365.675 288.006 395.243 317.577 395.243 353.719V446.287C395.243 456.313 387.117 464.439 377.091 464.439Z" fill="#D8DBEA"/>
<path id="Fill 29" fill-rule="evenodd" clip-rule="evenodd" d="M403.493 442.381H402.508C398.512 442.381 395.244 439.111 395.244 435.117V383.483C395.244 379.487 398.512 376.219 402.508 376.219H412.356C416.35 376.219 419.618 379.487 419.618 383.483V426.254C419.618 435.124 412.361 442.381 403.493 442.381Z" fill="url(#paint0_linear_2218_49929)"/>
<path id="Fill 31" fill-rule="evenodd" clip-rule="evenodd" d="M251.009 442.381H250.024C241.152 442.381 233.895 435.124 233.895 426.254V383.483C233.895 379.487 237.162 376.219 241.159 376.219H251.009C255.003 376.219 258.271 379.487 258.271 383.483V435.117C258.271 439.111 255.003 442.381 251.009 442.381Z" fill="url(#paint1_linear_2218_49929)"/>
<path id="Fill 33" fill-rule="evenodd" clip-rule="evenodd" d="M369.696 439.459L325.588 453.417L281.479 439.459V409.307H369.696V439.459Z" fill="#BEC0D6"/>
<path id="Fill 35" fill-rule="evenodd" clip-rule="evenodd" d="M299.329 447.481L297.26 449.544C295.54 451.257 292.756 451.257 291.034 449.544L288.967 447.481V428.197H299.329V447.481Z" fill="url(#paint2_linear_2218_49929)"/>
<path id="Fill 37" fill-rule="evenodd" clip-rule="evenodd" d="M296.245 444.078C296.245 445.237 295.307 446.172 294.151 446.172C292.992 446.172 292.055 445.237 292.055 444.078C292.055 442.92 292.992 441.984 294.151 441.984C295.307 441.984 296.245 442.92 296.245 444.078Z" fill="#F7FFF6"/>
<path id="Fill 39" fill-rule="evenodd" clip-rule="evenodd" d="M358.532 447.481L356.463 449.544C354.743 451.257 351.959 451.257 350.237 449.544L348.17 447.481V428.197H358.532V447.481Z" fill="url(#paint3_linear_2218_49929)"/>
<path id="Fill 41" fill-rule="evenodd" clip-rule="evenodd" d="M355.442 444.078C355.442 445.237 354.504 446.172 353.348 446.172C352.19 446.172 351.252 445.237 351.252 444.078C351.252 442.92 352.19 441.984 353.348 441.984C354.504 441.984 355.442 442.92 355.442 444.078Z" fill="#F7FFF6"/>
<path id="Fill 43" fill-rule="evenodd" clip-rule="evenodd" d="M388.664 357.119V366.938V387.323L272.391 331.634C280.12 311.876 299.435 297.809 321.838 297.809H331.681C360.885 297.809 388.664 327.892 388.664 357.119Z" fill="white"/>
<path id="Fill 45" fill-rule="evenodd" clip-rule="evenodd" d="M272.385 362.242V352.423V332.039L388.659 387.73C380.931 407.486 361.616 421.553 339.211 421.553H329.37C300.165 421.553 272.385 391.47 272.385 362.242Z" fill="url(#paint4_linear_2218_49929)"/>
</g>
<g id="Bee">
<path id="Stroke 3" d="M364.165 93.5625C287.002 100.095 258.642 165.408 281.875 203.48C298.269 230.341 326.048 266.644 377.832 257.937C429.613 249.226 433.976 201.304 406.705 194.785C379.434 188.269 282.28 218.671 293.261 288.904C301.186 339.579 369.886 354.186 369.886 354.186" stroke="#D7DAE9" stroke-width="1.08176" stroke-dasharray="3.79"/>
<path id="Fill 5" fill-rule="evenodd" clip-rule="evenodd" d="M408.764 53.4612C408.764 53.4612 419.821 24.5779 420.986 13.3419C421.599 7.47081 411.87 -8.87569 400.483 6.24482C389.096 21.3653 394.291 39.905 408.764 53.4612Z" fill="#D8DBEA"/>
<path id="Fill 7_2" fill-rule="evenodd" clip-rule="evenodd" d="M369.532 22.0022C356.579 17.6218 350.716 21.0371 348.217 27.8541C345.717 34.6734 349.207 47.6534 368.743 50.6123C388.282 53.5712 407.652 53.4576 407.652 53.4576C407.652 53.4576 382.485 26.3826 369.532 22.0022Z" fill="#D8DBEA"/>
<path id="Fill 9" fill-rule="evenodd" clip-rule="evenodd" d="M406.567 59.1888C406.861 57.9815 407.25 56.8243 407.683 55.6934C405.292 56.0711 402.858 56.6016 400.409 57.3199C397.753 58.0972 395.273 59.1168 392.942 60.2849C391.929 62.1974 391.109 64.241 390.577 66.4352C387.295 79.9434 395.043 93.5585 408.063 98.0168C409.473 97.7374 410.89 97.4142 412.309 96.9994C416.273 95.8379 419.931 94.3008 423.237 92.5193C410.523 86.9409 403.205 73.0201 406.567 59.1888Z" fill="#D8DBEA"/>
<path id="Fill 11" fill-rule="evenodd" clip-rule="evenodd" d="M387.98 66.2246C388.291 64.8901 388.713 63.614 389.181 62.3672C377.917 69.5832 371.609 80.7824 372.649 87.3133C365.452 90.4068 360.867 93.0128 360.867 93.0128C360.867 93.0128 366.298 92.5995 374.211 91.0785C378.45 97.2724 390.199 101.42 403.191 99.9323C391.422 93.8463 384.779 79.9961 387.98 66.2246Z" fill="#D8DBEA"/>
<path id="Fill 13_2" fill-rule="evenodd" clip-rule="evenodd" d="M425.292 71.1177C422.309 70.4017 420.459 67.4044 421.177 64.4025C421.893 61.4213 424.909 59.5738 427.89 60.2899C430.888 61.0105 432.72 64.0193 432.006 67.0028C431.285 70.0023 428.292 71.8361 425.292 71.1177ZM438.361 67.1086C435.96 58.7912 424.919 54.4959 411.894 55.9668C411.35 57.2556 410.887 58.6152 410.556 60.0233C407.656 72.369 414.355 84.7875 425.717 89.0949C435.197 83.0637 440.521 74.5237 438.361 67.1086Z" fill="#D8DBEA"/>
</g>
</g>
<defs>
<linearGradient id="paint0_linear_2218_49929" x1="395.244" y1="370.705" x2="402.701" y2="441.706" gradientUnits="userSpaceOnUse">
<stop stop-color="#FDB21E"/>
<stop offset="1" stop-color="#FFD97E"/>
</linearGradient>
<linearGradient id="paint1_linear_2218_49929" x1="233.895" y1="370.705" x2="241.351" y2="441.706" gradientUnits="userSpaceOnUse">
<stop stop-color="#FDB21E"/>
<stop offset="1" stop-color="#FFD97E"/>
</linearGradient>
<linearGradient id="paint2_linear_2218_49929" x1="288.967" y1="426.311" x2="291.027" y2="450.691" gradientUnits="userSpaceOnUse">
<stop stop-color="#FDB21E"/>
<stop offset="1" stop-color="#FFD97E"/>
</linearGradient>
<linearGradient id="paint3_linear_2218_49929" x1="348.17" y1="426.311" x2="350.23" y2="450.691" gradientUnits="userSpaceOnUse">
<stop stop-color="#FDB21E"/>
<stop offset="1" stop-color="#FFD97E"/>
</linearGradient>
<linearGradient id="paint4_linear_2218_49929" x1="272.385" y1="324.58" x2="275.275" y2="421.612" gradientUnits="userSpaceOnUse">
<stop stop-color="#FDB21E"/>
<stop offset="1" stop-color="#FFD97E"/>
</linearGradient>
</defs>
</svg>
