<svg width="22" height="20" viewBox="0 0 22 20" fill="none" xmlns="http://www.w3.org/2000/svg">
<path fill-rule="evenodd" clip-rule="evenodd" d="M0.10791 1.01426C0.10791 0.762224 0.20803 0.520513 0.386244 0.342299C0.564459 0.164085 0.806169 0.0639648 1.0582 0.0639648H11.5114C11.7635 0.0639648 12.0052 0.164085 12.1834 0.342299C12.3616 0.520513 12.4617 0.762224 12.4617 1.01426V5.76572H16.2629C16.8869 5.76572 17.5047 5.88862 18.0812 6.1274C18.6577 6.36619 19.1815 6.71618 19.6227 7.15739C20.0639 7.5986 20.4139 8.1224 20.6527 8.69888C20.8914 9.27535 21.0143 9.89321 21.0143 10.5172V14.3184C21.0144 14.9301 20.8178 15.5257 20.4535 16.0171C20.0892 16.5086 19.5765 16.8698 18.9912 17.0476C18.8169 17.6225 18.4654 18.1277 17.987 18.491C17.5085 18.8543 16.9275 19.0572 16.3269 19.0707C15.7263 19.0842 15.1368 18.9076 14.6425 18.5661C14.1482 18.2246 13.7744 17.7358 13.5745 17.1692H7.5487C7.34878 17.7358 6.975 18.2246 6.48072 18.5661C5.98644 18.9076 5.39691 19.0842 4.7963 19.0707C4.19569 19.0572 3.61469 18.8543 3.13623 18.491C2.65777 18.1277 2.30632 17.6225 2.13203 17.0476C1.5465 16.87 1.03361 16.5088 0.669121 16.0173C0.304632 15.5259 0.107874 14.9302 0.10791 14.3184V10.5172H5.80966C6.0617 10.5172 6.30341 10.4171 6.48162 10.2388C6.65984 10.0606 6.75996 9.81892 6.75996 9.56689C6.75996 9.31486 6.65984 9.07315 6.48162 8.89493C6.30341 8.71672 6.0617 8.6166 5.80966 8.6166H0.10791V6.71601H3.90908C4.16111 6.71601 4.40282 6.61589 4.58104 6.43768C4.75925 6.25946 4.85937 6.01775 4.85937 5.76572C4.85937 5.51369 4.75925 5.27198 4.58104 5.09376C4.40282 4.91555 4.16111 4.81543 3.90908 4.81543H0.10791V1.01426ZM12.4617 15.2686H13.5745C13.7624 14.7369 14.1037 14.2728 14.5554 13.9351C15.007 13.5974 15.5487 13.4013 16.1119 13.3715C16.675 13.3416 17.2344 13.4795 17.7192 13.7677C18.2039 14.0558 18.5924 14.4813 18.8353 14.9902C18.9237 14.9021 18.9938 14.7974 19.0416 14.6821C19.0894 14.5668 19.1139 14.4432 19.1138 14.3184V10.5172C19.1138 9.76108 18.8134 9.03595 18.2788 8.50131C17.7441 7.96666 17.019 7.6663 16.2629 7.6663H12.4617V15.2686ZM5.80966 16.2189C5.80966 15.9669 5.70954 15.7252 5.53133 15.547C5.35312 15.3688 5.11141 15.2686 4.85937 15.2686C4.60734 15.2686 4.36563 15.3688 4.18741 15.547C4.0092 15.7252 3.90908 15.9669 3.90908 16.2189C3.90908 16.471 4.0092 16.7127 4.18741 16.8909C4.36563 17.0691 4.60734 17.1692 4.85937 17.1692C5.11141 17.1692 5.35312 17.0691 5.53133 16.8909C5.70954 16.7127 5.80966 16.471 5.80966 16.2189ZM15.591 15.5471C15.5025 15.6351 15.4323 15.7398 15.3846 15.8551C15.3368 15.9705 15.3123 16.0941 15.3126 16.2189C15.3125 16.4388 15.3887 16.6519 15.5282 16.8218C15.6676 16.9918 15.8617 17.1082 16.0773 17.1511C16.2929 17.1941 16.5168 17.1609 16.7107 17.0573C16.9046 16.9537 17.0566 16.7861 17.1408 16.583C17.2249 16.3799 17.2361 16.1538 17.1723 15.9434C17.1085 15.733 16.9738 15.5513 16.791 15.4291C16.6082 15.3069 16.3887 15.2519 16.1699 15.2734C15.9511 15.2949 15.7465 15.3916 15.591 15.5471Z" fill="#020105"/>
</svg>
