<svg width="122" height="47" viewBox="0 0 122 47" fill="none" xmlns="http://www.w3.org/2000/svg">
<rect x="0.747269" y="0.747269" width="120.505" height="45.1546" rx="6.99222" fill="white" stroke="#090909" stroke-width="0.505462"/>
<g filter="url(#filter0_ii_3095_17240)">
<path d="M12.9753 12.3074C12.7165 12.5824 12.5635 13.0093 12.5635 13.562V33.3112C12.5635 33.8649 12.7165 34.2908 12.9753 34.5659L13.0411 34.6301L24.0613 23.567V23.4366V23.3062L13.0411 12.2422L12.9753 12.3074Z" fill="url(#paint0_linear_3095_17240)"/>
<path d="M27.7338 27.2549L24.061 23.566V23.4356V23.3052L27.7347 19.6172L27.8174 19.6645L32.1698 22.147C33.4125 22.856 33.4125 24.016 32.1698 24.7259L27.8174 27.2084L27.7338 27.2549Z" fill="url(#paint1_linear_3095_17240)"/>
<g filter="url(#filter1_i_3095_17240)">
<path d="M27.8177 27.2095L24.0604 23.4375L12.9753 34.5667C13.3845 35.0025 14.0614 35.0561 14.8237 34.6221L27.8177 27.2095Z" fill="url(#paint2_linear_3095_17240)"/>
</g>
<path d="M27.8177 19.665L14.8237 12.2532C14.0614 11.8184 13.3845 11.8728 12.9753 12.3086L24.0613 23.4378L27.8177 19.665Z" fill="url(#paint3_linear_3095_17240)"/>
</g>
<path d="M61.0521 20.2819C59.0761 20.2819 57.4656 21.7841 57.4656 23.8531C57.4656 25.9095 59.0761 27.4243 61.0521 27.4243C63.0289 27.4243 64.6394 25.9095 64.6394 23.8531C64.6385 21.7841 63.028 20.2819 61.0521 20.2819ZM61.0521 26.0187C59.9692 26.0187 59.0358 25.1261 59.0358 23.854C59.0358 22.5684 59.97 21.6892 61.0521 21.6892C62.135 21.6892 63.0683 22.5684 63.0683 23.854C63.0683 25.1252 62.135 26.0187 61.0521 26.0187ZM53.2273 20.2819C51.2513 20.2819 49.6408 21.7841 49.6408 23.8531C49.6408 25.9095 51.2513 27.4243 53.2273 27.4243C55.204 27.4243 56.8145 25.9095 56.8145 23.8531C56.8145 21.7841 55.204 20.2819 53.2273 20.2819ZM53.2273 26.0187C52.1443 26.0187 51.211 25.1261 51.211 23.854C51.211 22.5684 52.1452 21.6892 53.2273 21.6892C54.3102 21.6892 55.2435 22.5684 55.2435 23.854C55.2444 25.1252 54.3102 26.0187 53.2273 26.0187ZM43.9205 21.3786V22.8934H47.5481C47.4397 23.7456 47.1558 24.3678 46.7223 24.8003C46.1947 25.3276 45.3688 25.9095 43.9205 25.9095C41.6875 25.9095 39.9417 24.1101 39.9417 21.8782C39.9417 19.6463 41.6875 17.8468 43.9205 17.8468C45.1252 17.8468 46.0048 18.3204 46.6542 18.9292L47.7237 17.8603C46.8163 16.9945 45.6125 16.332 43.9205 16.332C40.8616 16.332 38.29 18.8209 38.29 21.8782C38.29 24.9355 40.8616 27.4243 43.9205 27.4243C45.5713 27.4243 46.8172 26.8827 47.7909 25.8684C48.7923 24.8675 49.104 23.4601 49.104 22.324C49.104 21.9731 49.0771 21.6481 49.0225 21.3777L43.9205 21.3786ZM81.9843 22.555C81.6869 21.7573 80.7796 20.2819 78.9255 20.2819C77.0848 20.2819 75.5549 21.7295 75.5549 23.8531C75.5549 25.8549 77.0714 27.4243 79.1011 27.4243C80.7384 27.4243 81.6861 26.4234 82.0793 25.8415L80.8611 25.0295C80.4553 25.6249 79.9 26.017 79.1011 26.017C78.303 26.017 77.7342 25.6517 77.3687 24.9346L82.1465 22.9597L81.9843 22.555ZM77.1117 23.7456C77.0713 22.3652 78.1811 21.6624 78.9801 21.6624C79.6026 21.6624 80.1302 21.9739 80.3066 22.4198L77.1117 23.7456ZM73.2278 27.2085H74.7972V16.7116H73.2278V27.2085ZM70.6554 21.0805H70.6016C70.2496 20.6606 69.5725 20.2819 68.7206 20.2819C66.9337 20.2819 65.2963 21.8513 65.2963 23.8674C65.2963 25.8692 66.9337 27.4252 68.7206 27.4252C69.5733 27.4252 70.2496 27.0465 70.6016 26.614H70.6554V27.1279C70.6554 28.4941 69.9245 29.2246 68.7475 29.2246C67.7864 29.2246 67.1908 28.5352 66.9471 27.9533L65.5803 28.5218C65.9726 29.4681 67.0144 30.6319 68.7475 30.6319C70.5882 30.6319 72.1449 29.5496 72.1449 26.9113V20.4994H70.6562L70.6554 21.0805ZM68.8559 26.0187C67.773 26.0187 66.8665 25.1118 66.8665 23.8674C66.8665 22.6087 67.773 21.6892 68.8559 21.6892C69.9245 21.6892 70.7638 22.6087 70.7638 23.8674C70.7638 25.1118 69.9245 26.0187 68.8559 26.0187ZM89.3387 16.7116H85.5825V27.2085H87.1493V23.2317H89.3378C91.0752 23.2317 92.784 21.9747 92.784 19.9721C92.784 17.9694 91.076 16.7116 89.3387 16.7116ZM89.379 21.7707H87.1493V18.1726H89.379C90.551 18.1726 91.2163 19.1425 91.2163 19.9721C91.2163 20.7849 90.551 21.7707 89.379 21.7707ZM99.0672 20.2635C97.9322 20.2635 96.7569 20.7631 96.2705 21.8706L97.6617 22.4508C97.9591 21.8706 98.5136 21.6808 99.0941 21.6808C99.9048 21.6808 100.729 22.167 100.742 23.0311V23.1394C100.458 22.9773 99.8502 22.7347 99.1075 22.7347C97.6079 22.7347 96.0806 23.5584 96.0806 25.0975C96.0806 26.5023 97.3105 27.4067 98.6883 27.4067C99.7418 27.4067 100.323 26.9339 100.688 26.3797H100.742V27.19H102.255V23.1654C102.256 21.303 100.863 20.2635 99.0672 20.2635ZM98.8773 26.0162C98.3649 26.0162 97.6482 25.7592 97.6482 25.1244C97.6482 24.3141 98.5404 24.0034 99.3108 24.0034C99.9989 24.0034 100.324 24.152 100.742 24.3544C100.621 25.3276 99.783 26.0162 98.8773 26.0162ZM107.768 20.4927L105.971 25.0438H105.917L104.052 20.4927H102.364L105.161 26.8533L103.566 30.3918H105.201L109.511 20.4927H107.768ZM93.6493 27.2085H95.2161V16.7116H93.6493V27.2085Z" fill="#090909"/>
<defs>
<filter id="filter0_ii_3095_17240" x="12.5635" y="11.9531" width="20.5383" height="22.9688" filterUnits="userSpaceOnUse" color-interpolation-filters="sRGB">
<feFlood flood-opacity="0" result="BackgroundImageFix"/>
<feBlend mode="normal" in="SourceGraphic" in2="BackgroundImageFix" result="shape"/>
<feColorMatrix in="SourceAlpha" type="matrix" values="0 0 0 0 0 0 0 0 0 0 0 0 0 0 0 0 0 0 127 0" result="hardAlpha"/>
<feOffset dy="-0.133947"/>
<feComposite in2="hardAlpha" operator="arithmetic" k2="-1" k3="1"/>
<feColorMatrix type="matrix" values="0 0 0 0 0 0 0 0 0 0 0 0 0 0 0 0 0 0 0.12 0"/>
<feBlend mode="normal" in2="shape" result="effect1_innerShadow_3095_17240"/>
<feColorMatrix in="SourceAlpha" type="matrix" values="0 0 0 0 0 0 0 0 0 0 0 0 0 0 0 0 0 0 127 0" result="hardAlpha"/>
<feOffset dy="0.133947"/>
<feComposite in2="hardAlpha" operator="arithmetic" k2="-1" k3="1"/>
<feColorMatrix type="matrix" values="0 0 0 0 1 0 0 0 0 1 0 0 0 0 1 0 0 0 0.25 0"/>
<feBlend mode="normal" in2="effect1_innerShadow_3095_17240" result="effect2_innerShadow_3095_17240"/>
</filter>
<filter id="filter1_i_3095_17240" x="12.9753" y="23.4375" width="14.8423" height="11.4844" filterUnits="userSpaceOnUse" color-interpolation-filters="sRGB">
<feFlood flood-opacity="0" result="BackgroundImageFix"/>
<feBlend mode="normal" in="SourceGraphic" in2="BackgroundImageFix" result="shape"/>
<feColorMatrix in="SourceAlpha" type="matrix" values="0 0 0 0 0 0 0 0 0 0 0 0 0 0 0 0 0 0 127 0" result="hardAlpha"/>
<feOffset dy="-0.133947"/>
<feComposite in2="hardAlpha" operator="arithmetic" k2="-1" k3="1"/>
<feColorMatrix type="matrix" values="0 0 0 0 0 0 0 0 0 0 0 0 0 0 0 0 0 0 0.08 0"/>
<feBlend mode="normal" in2="shape" result="effect1_innerShadow_3095_17240"/>
</filter>
<linearGradient id="paint0_linear_3095_17240" x1="23.0844" y1="13.3531" x2="8.09851" y2="28.2807" gradientUnits="userSpaceOnUse">
<stop stop-color="#00A0FF"/>
<stop offset="0.0066" stop-color="#00A1FF"/>
<stop offset="0.2601" stop-color="#00BEFF"/>
<stop offset="0.5122" stop-color="#00D2FF"/>
<stop offset="0.7604" stop-color="#00DFFF"/>
<stop offset="1" stop-color="#00E3FF"/>
</linearGradient>
<linearGradient id="paint1_linear_3095_17240" x1="33.7874" y1="23.4356" x2="12.2649" y2="23.4356" gradientUnits="userSpaceOnUse">
<stop stop-color="#FFE000"/>
<stop offset="0.4087" stop-color="#FFBD00"/>
<stop offset="0.7754" stop-color="#FFA500"/>
<stop offset="1" stop-color="#FF9C00"/>
</linearGradient>
<linearGradient id="paint2_linear_3095_17240" x1="25.7773" y1="25.4859" x2="5.45448" y2="45.7297" gradientUnits="userSpaceOnUse">
<stop stop-color="#FF3A44"/>
<stop offset="1" stop-color="#C31162"/>
</linearGradient>
<linearGradient id="paint3_linear_3095_17240" x1="10.1835" y1="5.73429" x2="19.2582" y2="14.7737" gradientUnits="userSpaceOnUse">
<stop stop-color="#32A071"/>
<stop offset="0.0685" stop-color="#2DA771"/>
<stop offset="0.4762" stop-color="#15CF74"/>
<stop offset="0.8009" stop-color="#06E775"/>
<stop offset="1" stop-color="#00F076"/>
</linearGradient>
</defs>
</svg>
