<svg width="408" height="408" viewBox="0 0 408 408" fill="none" xmlns="http://www.w3.org/2000/svg">
<path d="M149.465 25.6644H257.936C270.54 25.6644 282.507 30.6296 291.419 39.5415L368.062 116.184C376.973 125.096 381.939 137.063 381.939 149.667V258.138C381.939 270.742 376.973 282.709 368.062 291.621L291.419 368.264C282.507 377.175 270.54 382.141 257.936 382.141H149.465C136.861 382.141 124.894 377.175 115.982 368.264L39.3395 291.621C30.4276 282.709 25.4624 270.742 25.4624 258.138V149.667C25.4624 137.063 30.4276 125.096 39.3395 116.184L115.982 39.5415C124.894 30.6296 136.861 25.6644 149.465 25.6644Z" fill="#D80027"/>
<path d="M160.032 51.1271H247.369C259.973 51.1271 271.94 56.0923 280.852 65.0042L342.599 126.751C351.511 135.663 356.476 147.63 356.476 160.234V247.571C356.476 260.175 351.511 272.142 342.599 281.054L280.852 342.801C271.94 351.713 259.973 356.678 247.369 356.678H160.032C147.428 356.678 135.461 351.713 126.549 342.801L64.8019 281.054C55.89 272.142 50.9248 260.175 50.9248 247.571V160.234C50.9248 147.63 55.89 135.663 64.8019 126.751L126.549 65.0042C135.461 56.0923 147.428 51.1271 160.032 51.1271Z" fill="#020105"/>
<path d="M102.355 152.587H107.161V173.937H102.355V164.879H94.2838V173.937H89.4778V152.587H94.2838V160.751H102.355V152.587ZM111.024 165.957C111.024 164.52 111.24 163.267 111.671 162.199C112.123 161.11 112.708 160.207 113.427 159.488C114.146 158.769 114.967 158.225 115.892 157.855C116.836 157.485 117.802 157.3 118.788 157.3C121.088 157.3 122.905 158.009 124.24 159.426C125.575 160.823 126.243 162.887 126.243 165.618C126.243 165.885 126.233 166.183 126.212 166.512C126.192 166.82 126.171 167.097 126.151 167.344H115.738C115.84 168.288 116.282 169.038 117.062 169.593C117.843 170.147 118.89 170.424 120.205 170.424C121.047 170.424 121.868 170.353 122.669 170.209C123.491 170.044 124.158 169.849 124.672 169.623L125.288 173.351C125.041 173.474 124.713 173.598 124.302 173.721C123.891 173.844 123.429 173.947 122.916 174.029C122.423 174.132 121.889 174.214 121.314 174.275C120.739 174.337 120.164 174.368 119.589 174.368C118.13 174.368 116.857 174.152 115.768 173.721C114.7 173.29 113.807 172.704 113.088 171.965C112.39 171.205 111.866 170.311 111.517 169.285C111.188 168.258 111.024 167.149 111.024 165.957ZM121.807 164.201C121.786 163.811 121.714 163.431 121.591 163.061C121.488 162.692 121.314 162.363 121.067 162.076C120.841 161.788 120.544 161.552 120.174 161.367C119.825 161.182 119.383 161.09 118.849 161.09C118.336 161.09 117.894 161.182 117.524 161.367C117.155 161.531 116.847 161.757 116.6 162.045C116.354 162.332 116.159 162.671 116.015 163.061C115.892 163.431 115.799 163.811 115.738 164.201H121.807ZM135.646 170.178H137.649C138.224 169.48 138.665 168.617 138.973 167.59C139.302 166.543 139.528 165.444 139.651 164.294C139.795 163.123 139.877 161.963 139.898 160.812C139.918 159.662 139.928 158.635 139.928 157.732H152.56V170.178H155.301V178.558H151.389V173.937H139.559V178.558H135.646V170.178ZM147.969 170.178V161.49H144.211C144.17 162.209 144.118 162.959 144.057 163.739C144.016 164.499 143.923 165.259 143.779 166.019C143.656 166.758 143.482 167.487 143.256 168.206C143.03 168.925 142.732 169.582 142.362 170.178H147.969ZM173.223 165.803C173.223 167.077 173.038 168.247 172.669 169.315C172.299 170.363 171.765 171.267 171.067 172.026C170.368 172.766 169.526 173.341 168.541 173.752C167.575 174.162 166.487 174.368 165.275 174.368C164.084 174.368 162.995 174.162 162.009 173.752C161.044 173.341 160.212 172.766 159.514 172.026C158.816 171.267 158.271 170.363 157.881 169.315C157.491 168.247 157.296 167.077 157.296 165.803C157.296 164.53 157.491 163.369 157.881 162.322C158.292 161.275 158.846 160.381 159.545 159.642C160.264 158.902 161.106 158.327 162.071 157.917C163.057 157.506 164.125 157.3 165.275 157.3C166.446 157.3 167.514 157.506 168.479 157.917C169.465 158.327 170.307 158.902 171.005 159.642C171.703 160.381 172.248 161.275 172.638 162.322C173.028 163.369 173.223 164.53 173.223 165.803ZM168.541 165.803C168.541 164.386 168.253 163.277 167.678 162.476C167.123 161.655 166.322 161.244 165.275 161.244C164.227 161.244 163.416 161.655 162.841 162.476C162.266 163.277 161.979 164.386 161.979 165.803C161.979 167.22 162.266 168.35 162.841 169.192C163.416 170.014 164.227 170.424 165.275 170.424C166.322 170.424 167.123 170.014 167.678 169.192C168.253 168.35 168.541 167.22 168.541 165.803ZM176.009 165.834C176.009 164.663 176.194 163.565 176.564 162.538C176.954 161.49 177.508 160.587 178.227 159.827C178.946 159.046 179.819 158.43 180.846 157.978C181.873 157.526 183.043 157.3 184.358 157.3C185.221 157.3 186.011 157.383 186.73 157.547C187.449 157.691 188.147 157.906 188.825 158.194L187.87 161.86C187.439 161.696 186.966 161.552 186.453 161.429C185.939 161.305 185.364 161.244 184.728 161.244C183.372 161.244 182.355 161.665 181.678 162.507C181.02 163.349 180.692 164.458 180.692 165.834C180.692 167.292 181 168.422 181.616 169.223C182.253 170.024 183.352 170.424 184.912 170.424C185.467 170.424 186.063 170.373 186.699 170.27C187.336 170.168 187.921 170.003 188.455 169.777L189.102 173.536C188.568 173.762 187.901 173.957 187.1 174.121C186.299 174.286 185.416 174.368 184.45 174.368C182.972 174.368 181.698 174.152 180.63 173.721C179.562 173.269 178.679 172.663 177.981 171.903C177.303 171.143 176.8 170.25 176.471 169.223C176.163 168.175 176.009 167.046 176.009 165.834ZM205.584 161.49H200.409V173.937H195.818V161.49H190.643V157.732H205.584V161.49ZM214.562 170.733C215.013 170.733 215.445 170.722 215.855 170.702C216.266 170.681 216.595 170.65 216.841 170.609V167.128C216.656 167.087 216.379 167.046 216.009 167.005C215.64 166.964 215.301 166.943 214.993 166.943C214.562 166.943 214.151 166.974 213.761 167.036C213.391 167.077 213.062 167.169 212.775 167.313C212.487 167.457 212.261 167.652 212.097 167.898C211.933 168.145 211.85 168.453 211.85 168.822C211.85 169.541 212.087 170.044 212.559 170.332C213.052 170.599 213.719 170.733 214.562 170.733ZM214.192 157.3C215.547 157.3 216.677 157.454 217.581 157.762C218.484 158.071 219.203 158.512 219.737 159.087C220.292 159.662 220.682 160.361 220.908 161.182C221.134 162.004 221.247 162.918 221.247 163.924V173.474C220.59 173.618 219.676 173.782 218.505 173.967C217.334 174.173 215.917 174.275 214.253 174.275C213.206 174.275 212.251 174.183 211.388 173.998C210.546 173.813 209.817 173.515 209.201 173.105C208.585 172.673 208.112 172.119 207.784 171.441C207.455 170.763 207.291 169.932 207.291 168.946C207.291 168.001 207.476 167.2 207.845 166.543C208.236 165.885 208.749 165.362 209.386 164.971C210.023 164.581 210.752 164.304 211.573 164.14C212.395 163.955 213.247 163.862 214.13 163.862C214.726 163.862 215.25 163.893 215.701 163.955C216.174 163.996 216.554 164.058 216.841 164.14V163.708C216.841 162.928 216.605 162.301 216.133 161.829C215.66 161.357 214.839 161.121 213.668 161.121C212.888 161.121 212.117 161.182 211.358 161.305C210.598 161.408 209.94 161.562 209.386 161.767L208.8 158.071C209.067 157.988 209.396 157.906 209.786 157.824C210.197 157.721 210.639 157.639 211.111 157.578C211.583 157.495 212.076 157.434 212.59 157.393C213.124 157.331 213.658 157.3 214.192 157.3ZM229.988 170.548C230.276 170.589 230.656 170.63 231.128 170.671C231.621 170.691 232.073 170.702 232.483 170.702C233.51 170.702 234.311 170.578 234.886 170.332C235.462 170.065 235.749 169.593 235.749 168.915C235.749 168.258 235.482 167.806 234.948 167.559C234.435 167.292 233.675 167.159 232.668 167.159H229.988V170.548ZM232.576 164.078C233.336 164.078 233.952 163.986 234.424 163.801C234.897 163.595 235.133 163.164 235.133 162.507C235.133 161.891 234.866 161.47 234.332 161.244C233.798 161.018 233.1 160.905 232.237 160.905C231.949 160.905 231.569 160.925 231.097 160.966C230.645 160.987 230.276 161.018 229.988 161.059V164.078H232.576ZM232.422 174.245C231.847 174.245 231.231 174.224 230.573 174.183C229.916 174.142 229.269 174.08 228.632 173.998C227.996 173.937 227.39 173.865 226.815 173.782C226.26 173.68 225.788 173.587 225.398 173.505V157.978C225.788 157.896 226.26 157.824 226.815 157.762C227.39 157.68 227.996 157.608 228.632 157.547C229.269 157.485 229.916 157.444 230.573 157.424C231.231 157.383 231.847 157.362 232.422 157.362C233.757 157.362 234.876 157.495 235.78 157.762C236.704 158.029 237.443 158.379 237.998 158.81C238.573 159.241 238.984 159.724 239.23 160.258C239.477 160.792 239.6 161.326 239.6 161.86C239.6 162.579 239.425 163.236 239.076 163.832C238.727 164.427 238.286 164.859 237.752 165.126C238.039 165.249 238.327 165.423 238.614 165.649C238.922 165.875 239.2 166.152 239.446 166.481C239.692 166.789 239.888 167.169 240.031 167.621C240.196 168.052 240.278 168.555 240.278 169.131C240.278 169.788 240.144 170.424 239.877 171.041C239.631 171.657 239.2 172.201 238.583 172.673C237.967 173.146 237.156 173.526 236.15 173.813C235.143 174.101 233.901 174.245 232.422 174.245ZM251.081 161.49C251.06 162.086 251.029 162.723 250.988 163.4C250.968 164.058 250.916 164.725 250.834 165.403C250.752 166.06 250.639 166.707 250.495 167.344C250.372 167.98 250.208 168.576 250.002 169.131C249.756 169.788 249.438 170.404 249.047 170.979C248.678 171.534 248.195 172.037 247.599 172.489C247.024 172.94 246.316 173.32 245.474 173.628C244.652 173.916 243.687 174.111 242.578 174.214L241.962 170.394C243.009 170.188 243.82 169.901 244.395 169.531C244.971 169.141 245.402 168.648 245.689 168.052C245.915 167.539 246.09 166.943 246.213 166.265C246.357 165.588 246.46 164.879 246.521 164.14C246.583 163.38 246.614 162.61 246.614 161.829C246.634 161.049 246.644 160.299 246.644 159.58V157.732H258.813V173.937H254.223V161.49H251.081ZM269.841 168.175C269.184 169.141 268.599 170.116 268.085 171.102C267.572 172.068 267.079 173.012 266.606 173.937H261.893C262.488 172.602 263.094 171.379 263.71 170.27C264.327 169.161 264.922 168.206 265.497 167.405C264.635 166.953 263.947 166.378 263.433 165.68C262.92 164.961 262.663 164.068 262.663 163C262.663 161.192 263.31 159.806 264.604 158.841C265.918 157.875 267.726 157.393 270.026 157.393C270.539 157.393 271.104 157.413 271.72 157.454C272.357 157.495 272.984 157.557 273.6 157.639C274.216 157.721 274.801 157.814 275.356 157.917C275.931 157.999 276.413 158.091 276.804 158.194V173.937H272.213V168.175H269.841ZM272.213 161.028C272.008 161.008 271.69 160.987 271.258 160.966C270.827 160.925 270.457 160.905 270.149 160.905C269.02 160.905 268.249 161.1 267.839 161.49C267.428 161.86 267.223 162.343 267.223 162.938C267.223 163.308 267.305 163.626 267.469 163.893C267.633 164.14 267.849 164.345 268.116 164.509C268.383 164.653 268.681 164.756 269.009 164.817C269.338 164.879 269.667 164.91 269.995 164.91H272.213V161.028ZM280.346 165.957C280.346 164.52 280.562 163.267 280.993 162.199C281.445 161.11 282.03 160.207 282.749 159.488C283.468 158.769 284.29 158.225 285.214 157.855C286.159 157.485 287.124 157.3 288.11 157.3C290.41 157.3 292.228 158.009 293.563 159.426C294.898 160.823 295.565 162.887 295.565 165.618C295.565 165.885 295.555 166.183 295.534 166.512C295.514 166.82 295.493 167.097 295.473 167.344H285.06C285.162 168.288 285.604 169.038 286.384 169.593C287.165 170.147 288.212 170.424 289.527 170.424C290.369 170.424 291.19 170.353 291.991 170.209C292.813 170.044 293.48 169.849 293.994 169.623L294.61 173.351C294.364 173.474 294.035 173.598 293.624 173.721C293.213 173.844 292.751 173.947 292.238 174.029C291.745 174.132 291.211 174.214 290.636 174.275C290.061 174.337 289.486 174.368 288.911 174.368C287.452 174.368 286.179 174.152 285.091 173.721C284.023 173.29 283.129 172.704 282.41 171.965C281.712 171.205 281.188 170.311 280.839 169.285C280.51 168.258 280.346 167.149 280.346 165.957ZM291.129 164.201C291.108 163.811 291.036 163.431 290.913 163.061C290.81 162.692 290.636 162.363 290.389 162.076C290.164 161.788 289.866 161.552 289.496 161.367C289.147 161.182 288.705 161.09 288.171 161.09C287.658 161.09 287.216 161.182 286.847 161.367C286.477 161.531 286.169 161.757 285.922 162.045C285.676 162.332 285.481 162.671 285.337 163.061C285.214 163.431 285.121 163.811 285.06 164.201H291.129ZM303.667 164.602C303.626 165.321 303.585 166.101 303.544 166.943C303.503 167.785 303.462 168.638 303.421 169.5C303.4 170.342 303.369 171.154 303.328 171.934C303.308 172.694 303.287 173.361 303.267 173.937H298.799C298.841 172.807 298.902 171.534 298.984 170.116C299.087 168.699 299.19 167.262 299.292 165.803C299.416 164.325 299.539 162.887 299.662 161.49C299.806 160.094 299.939 158.841 300.063 157.732H303.883C304.766 159.169 305.577 160.658 306.317 162.199C307.056 163.739 307.836 165.434 308.658 167.282C309.521 165.31 310.363 163.493 311.184 161.829C312.006 160.145 312.745 158.779 313.402 157.732H317.284C317.428 158.841 317.561 160.094 317.685 161.49C317.828 162.887 317.952 164.325 318.054 165.803C318.178 167.262 318.28 168.699 318.362 170.116C318.445 171.534 318.506 172.807 318.547 173.937H313.988C313.947 172.335 313.885 170.743 313.803 169.161C313.741 167.58 313.68 166.05 313.618 164.571L310.229 172.026H307.056L303.667 164.602ZM102.134 200.834C102.134 199.663 102.319 198.565 102.688 197.538C103.078 196.49 103.633 195.587 104.352 194.827C105.071 194.046 105.944 193.43 106.97 192.978C107.997 192.526 109.168 192.3 110.483 192.3C111.345 192.3 112.136 192.383 112.855 192.547C113.574 192.691 114.272 192.906 114.95 193.194L113.995 196.86C113.563 196.696 113.091 196.552 112.577 196.429C112.064 196.305 111.489 196.244 110.852 196.244C109.497 196.244 108.48 196.665 107.802 197.507C107.145 198.349 106.816 199.458 106.816 200.834C106.816 202.292 107.125 203.422 107.741 204.223C108.377 205.024 109.476 205.424 111.037 205.424C111.592 205.424 112.187 205.373 112.824 205.27C113.461 205.168 114.046 205.003 114.58 204.777L115.227 208.536C114.693 208.762 114.025 208.957 113.224 209.121C112.423 209.286 111.54 209.368 110.575 209.368C109.096 209.368 107.823 209.152 106.755 208.721C105.687 208.269 104.804 207.663 104.105 206.903C103.428 206.143 102.924 205.25 102.596 204.223C102.288 203.175 102.134 202.046 102.134 200.834ZM124.5 205.733C124.952 205.733 125.383 205.722 125.794 205.702C126.205 205.681 126.533 205.65 126.78 205.609V202.128C126.595 202.087 126.318 202.046 125.948 202.005C125.578 201.964 125.239 201.943 124.931 201.943C124.5 201.943 124.089 201.974 123.699 202.036C123.329 202.077 123.001 202.169 122.713 202.313C122.426 202.457 122.2 202.652 122.035 202.898C121.871 203.145 121.789 203.453 121.789 203.822C121.789 204.541 122.025 205.044 122.498 205.332C122.99 205.599 123.658 205.733 124.5 205.733ZM124.13 192.3C125.486 192.3 126.616 192.454 127.519 192.762C128.423 193.071 129.142 193.512 129.676 194.087C130.23 194.662 130.621 195.361 130.846 196.182C131.072 197.004 131.185 197.918 131.185 198.924V208.474C130.528 208.618 129.614 208.782 128.443 208.967C127.273 209.173 125.856 209.275 124.192 209.275C123.145 209.275 122.189 209.183 121.327 208.998C120.485 208.813 119.756 208.515 119.14 208.105C118.523 207.673 118.051 207.119 117.722 206.441C117.394 205.763 117.229 204.932 117.229 203.946C117.229 203.001 117.414 202.2 117.784 201.543C118.174 200.885 118.688 200.362 119.324 199.971C119.961 199.581 120.69 199.304 121.512 199.14C122.333 198.955 123.186 198.862 124.069 198.862C124.664 198.862 125.188 198.893 125.64 198.955C126.112 198.996 126.492 199.058 126.78 199.14V198.708C126.78 197.928 126.544 197.301 126.071 196.829C125.599 196.357 124.777 196.121 123.607 196.121C122.826 196.121 122.056 196.182 121.296 196.305C120.536 196.408 119.879 196.562 119.324 196.767L118.739 193.071C119.006 192.988 119.335 192.906 119.725 192.824C120.136 192.721 120.577 192.639 121.05 192.578C121.522 192.495 122.015 192.434 122.528 192.393C123.062 192.331 123.596 192.3 124.13 192.3ZM149.292 208.937H144.702V202.529H139.927V208.937H135.336V192.732H139.927V198.77H144.702V192.732H149.292V208.937ZM158.189 198.4C158.64 197.969 159.113 197.497 159.606 196.983C160.119 196.47 160.612 195.966 161.084 195.474C161.557 194.96 162.009 194.467 162.44 193.995C162.871 193.522 163.251 193.101 163.58 192.732H169.156C168.745 193.163 168.232 193.697 167.616 194.334C167.02 194.97 166.383 195.638 165.706 196.336C165.028 197.014 164.34 197.692 163.642 198.369C162.964 199.047 162.317 199.653 161.701 200.187C162.317 200.66 162.974 201.245 163.672 201.943C164.371 202.641 165.048 203.391 165.706 204.192C166.383 204.993 167.02 205.804 167.616 206.626C168.232 207.447 168.756 208.218 169.187 208.937H163.95C163.58 208.382 163.159 207.807 162.686 207.211C162.214 206.595 161.721 206 161.208 205.424C160.694 204.829 160.171 204.274 159.637 203.761C159.123 203.247 158.64 202.806 158.189 202.436V208.937H153.598V192.732H158.189V198.4ZM185.606 205.178H188.347V213.558H184.435V208.937H171.65V192.732H176.24V205.178H181.015V192.732H185.606V205.178ZM205.872 192.732V208.937H201.251C201.251 207.91 201.261 206.893 201.282 205.887C201.302 204.86 201.323 203.915 201.343 203.052C201.364 202.19 201.384 201.44 201.405 200.803C201.446 200.146 201.466 199.663 201.466 199.355C200.871 200.197 200.275 201.05 199.68 201.912C199.084 202.775 198.509 203.627 197.954 204.469C197.42 205.291 196.907 206.082 196.414 206.842C195.942 207.602 195.521 208.3 195.151 208.937H191.115V192.732H195.705C195.705 193.759 195.695 194.744 195.675 195.689C195.675 196.613 195.664 197.456 195.644 198.215C195.623 198.975 195.603 199.643 195.582 200.218C195.562 200.772 195.551 201.204 195.551 201.512C196.784 199.704 197.913 198.082 198.94 196.644C199.988 195.207 201.004 193.902 201.99 192.732H205.872ZM225.347 200.803C225.347 202.077 225.162 203.247 224.792 204.315C224.423 205.363 223.889 206.267 223.19 207.026C222.492 207.766 221.65 208.341 220.664 208.752C219.699 209.162 218.61 209.368 217.398 209.368C216.207 209.368 215.119 209.162 214.133 208.752C213.167 208.341 212.336 207.766 211.637 207.026C210.939 206.267 210.395 205.363 210.005 204.315C209.614 203.247 209.419 202.077 209.419 200.803C209.419 199.53 209.614 198.369 210.005 197.322C210.415 196.275 210.97 195.381 211.668 194.642C212.387 193.902 213.229 193.327 214.194 192.917C215.18 192.506 216.248 192.3 217.398 192.3C218.569 192.3 219.637 192.506 220.602 192.917C221.588 193.327 222.43 193.902 223.129 194.642C223.827 195.381 224.371 196.275 224.761 197.322C225.152 198.369 225.347 199.53 225.347 200.803ZM220.664 200.803C220.664 199.386 220.376 198.277 219.801 197.476C219.247 196.655 218.446 196.244 217.398 196.244C216.351 196.244 215.54 196.655 214.965 197.476C214.389 198.277 214.102 199.386 214.102 200.803C214.102 202.22 214.389 203.35 214.965 204.192C215.54 205.014 216.351 205.424 217.398 205.424C218.446 205.424 219.247 205.014 219.801 204.192C220.376 203.35 220.664 202.22 220.664 200.803ZM242.859 208.937H238.268V202.529H233.493V208.937H228.903V192.732H233.493V198.77H238.268V192.732H242.859V208.937ZM261.121 208.937H256.53V202.529H251.755V208.937H247.165V192.732H251.755V198.77H256.53V192.732H261.121V208.937ZM286.499 208.937H281.909V192.732H286.499V208.937ZM272.297 205.733C273.139 205.733 273.796 205.578 274.268 205.27C274.761 204.942 275.008 204.418 275.008 203.699C275.008 203.33 274.926 203.021 274.761 202.775C274.597 202.508 274.371 202.303 274.084 202.159C273.796 201.995 273.457 201.882 273.067 201.82C272.697 201.758 272.297 201.728 271.865 201.728C271.557 201.728 271.219 201.748 270.849 201.789C270.479 201.83 270.202 201.871 270.017 201.912V205.609C270.263 205.65 270.592 205.681 271.003 205.702C271.414 205.722 271.845 205.733 272.297 205.733ZM270.017 198.493C270.305 198.411 270.674 198.349 271.126 198.308C271.598 198.246 272.132 198.215 272.728 198.215C273.673 198.215 274.556 198.328 275.378 198.554C276.22 198.78 276.949 199.129 277.565 199.602C278.181 200.054 278.664 200.639 279.013 201.358C279.383 202.056 279.567 202.878 279.567 203.822C279.567 204.767 279.403 205.589 279.074 206.287C278.746 206.965 278.273 207.53 277.657 207.981C277.041 208.413 276.302 208.731 275.439 208.937C274.597 209.162 273.652 209.275 272.605 209.275C271.249 209.275 270.007 209.204 268.877 209.06C267.748 208.937 266.597 208.731 265.427 208.444V192.732H270.017V198.493ZM290.049 200.957C290.049 199.52 290.264 198.267 290.696 197.199C291.148 196.11 291.733 195.207 292.452 194.488C293.171 193.769 293.992 193.225 294.916 192.855C295.861 192.485 296.826 192.3 297.812 192.3C300.113 192.3 301.93 193.009 303.265 194.426C304.6 195.823 305.268 197.887 305.268 200.618C305.268 200.885 305.258 201.183 305.237 201.512C305.216 201.82 305.196 202.097 305.175 202.344H294.762C294.865 203.288 295.307 204.038 296.087 204.593C296.868 205.147 297.915 205.424 299.229 205.424C300.072 205.424 300.893 205.353 301.694 205.209C302.516 205.044 303.183 204.849 303.697 204.623L304.313 208.351C304.066 208.474 303.738 208.598 303.327 208.721C302.916 208.844 302.454 208.947 301.941 209.029C301.448 209.132 300.914 209.214 300.339 209.275C299.763 209.337 299.188 209.368 298.613 209.368C297.155 209.368 295.882 209.152 294.793 208.721C293.725 208.29 292.832 207.704 292.113 206.965C291.415 206.205 290.891 205.311 290.542 204.285C290.213 203.258 290.049 202.149 290.049 200.957ZM300.831 199.201C300.811 198.811 300.739 198.431 300.616 198.061C300.513 197.692 300.339 197.363 300.092 197.076C299.866 196.788 299.568 196.552 299.199 196.367C298.85 196.182 298.408 196.09 297.874 196.09C297.36 196.09 296.919 196.182 296.549 196.367C296.18 196.531 295.871 196.757 295.625 197.045C295.378 197.332 295.183 197.671 295.04 198.061C294.916 198.431 294.824 198.811 294.762 199.201H300.831ZM149.189 231.49H144.013V243.937H139.423V231.49H134.247V227.732H149.189V231.49ZM167.131 235.803C167.131 237.077 166.946 238.247 166.576 239.315C166.207 240.363 165.673 241.267 164.974 242.026C164.276 242.766 163.434 243.341 162.448 243.752C161.483 244.162 160.394 244.368 159.183 244.368C157.991 244.368 156.903 244.162 155.917 243.752C154.952 243.341 154.12 242.766 153.422 242.026C152.723 241.267 152.179 240.363 151.789 239.315C151.399 238.247 151.203 237.077 151.203 235.803C151.203 234.53 151.399 233.369 151.789 232.322C152.2 231.275 152.754 230.381 153.452 229.642C154.171 228.902 155.013 228.327 155.979 227.917C156.964 227.506 158.032 227.3 159.183 227.3C160.353 227.3 161.421 227.506 162.387 227.917C163.372 228.327 164.215 228.902 164.913 229.642C165.611 230.381 166.155 231.275 166.546 232.322C166.936 233.369 167.131 234.53 167.131 235.803ZM162.448 235.803C162.448 234.386 162.161 233.277 161.586 232.476C161.031 231.655 160.23 231.244 159.183 231.244C158.135 231.244 157.324 231.655 156.749 232.476C156.174 233.277 155.886 234.386 155.886 235.803C155.886 237.22 156.174 238.35 156.749 239.192C157.324 240.014 158.135 240.424 159.183 240.424C160.23 240.424 161.031 240.014 161.586 239.192C162.161 238.35 162.448 237.22 162.448 235.803ZM175.277 240.548C175.565 240.589 175.945 240.63 176.417 240.671C176.91 240.691 177.362 240.702 177.773 240.702C178.8 240.702 179.601 240.578 180.176 240.332C180.751 240.065 181.038 239.593 181.038 238.915C181.038 238.258 180.771 237.806 180.237 237.559C179.724 237.292 178.964 237.159 177.957 237.159H175.277V240.548ZM177.865 234.078C178.625 234.078 179.241 233.986 179.714 233.801C180.186 233.595 180.422 233.164 180.422 232.507C180.422 231.891 180.155 231.47 179.621 231.244C179.087 231.018 178.389 230.905 177.526 230.905C177.239 230.905 176.859 230.925 176.386 230.966C175.934 230.987 175.565 231.018 175.277 231.059V234.078H177.865ZM177.711 244.245C177.136 244.245 176.52 244.224 175.863 244.183C175.205 244.142 174.558 244.08 173.922 243.998C173.285 243.937 172.679 243.865 172.104 243.782C171.549 243.68 171.077 243.587 170.687 243.505V227.978C171.077 227.896 171.549 227.824 172.104 227.762C172.679 227.68 173.285 227.608 173.922 227.547C174.558 227.485 175.205 227.444 175.863 227.424C176.52 227.383 177.136 227.362 177.711 227.362C179.046 227.362 180.165 227.495 181.069 227.762C181.993 228.029 182.733 228.379 183.287 228.81C183.862 229.241 184.273 229.724 184.52 230.258C184.766 230.792 184.889 231.326 184.889 231.86C184.889 232.579 184.715 233.236 184.365 233.832C184.016 234.427 183.575 234.859 183.041 235.126C183.328 235.249 183.616 235.423 183.903 235.649C184.211 235.875 184.489 236.152 184.735 236.481C184.982 236.789 185.177 237.169 185.321 237.621C185.485 238.052 185.567 238.555 185.567 239.131C185.567 239.788 185.434 240.424 185.167 241.041C184.92 241.657 184.489 242.201 183.873 242.673C183.256 243.146 182.445 243.526 181.439 243.813C180.432 244.101 179.19 244.245 177.711 244.245ZM195.292 240.733C195.744 240.733 196.175 240.722 196.586 240.702C196.996 240.681 197.325 240.65 197.571 240.609V237.128C197.387 237.087 197.109 237.046 196.74 237.005C196.37 236.964 196.031 236.943 195.723 236.943C195.292 236.943 194.881 236.974 194.491 237.036C194.121 237.077 193.792 237.169 193.505 237.313C193.217 237.457 192.991 237.652 192.827 237.898C192.663 238.145 192.581 238.453 192.581 238.822C192.581 239.541 192.817 240.044 193.289 240.332C193.782 240.599 194.45 240.733 195.292 240.733ZM194.922 227.3C196.278 227.3 197.407 227.454 198.311 227.762C199.215 228.071 199.933 228.512 200.467 229.087C201.022 229.662 201.412 230.361 201.638 231.182C201.864 232.004 201.977 232.918 201.977 233.924V243.474C201.32 243.618 200.406 243.782 199.235 243.967C198.064 244.173 196.647 244.275 194.984 244.275C193.936 244.275 192.981 244.183 192.118 243.998C191.276 243.813 190.547 243.515 189.931 243.105C189.315 242.673 188.843 242.119 188.514 241.441C188.185 240.763 188.021 239.932 188.021 238.946C188.021 238.001 188.206 237.2 188.576 236.543C188.966 235.885 189.479 235.362 190.116 234.971C190.753 234.581 191.482 234.304 192.303 234.14C193.125 233.955 193.977 233.862 194.86 233.862C195.456 233.862 195.98 233.893 196.432 233.955C196.904 233.996 197.284 234.058 197.571 234.14V233.708C197.571 232.928 197.335 232.301 196.863 231.829C196.39 231.357 195.569 231.121 194.398 231.121C193.618 231.121 192.848 231.182 192.088 231.305C191.328 231.408 190.67 231.562 190.116 231.767L189.531 228.071C189.798 227.988 190.126 227.906 190.516 227.824C190.927 227.721 191.369 227.639 191.841 227.578C192.314 227.495 192.807 227.434 193.32 227.393C193.854 227.331 194.388 227.3 194.922 227.3ZM216.51 235.957C216.51 234.54 216.192 233.411 215.555 232.568C214.918 231.706 213.973 231.275 212.721 231.275C212.31 231.275 211.93 231.295 211.581 231.336C211.232 231.357 210.944 231.388 210.718 231.429V239.716C211.006 239.901 211.375 240.055 211.827 240.178C212.3 240.301 212.772 240.363 213.244 240.363C215.421 240.363 216.51 238.894 216.51 235.957ZM221.193 235.834C221.193 237.087 221.039 238.227 220.731 239.254C220.423 240.281 219.971 241.164 219.375 241.903C218.78 242.643 218.04 243.218 217.157 243.628C216.274 244.039 215.257 244.245 214.107 244.245C213.47 244.245 212.875 244.183 212.32 244.06C211.766 243.937 211.232 243.762 210.718 243.536V249.636H206.128V228.286C206.539 228.163 207.011 228.05 207.545 227.947C208.079 227.824 208.633 227.721 209.209 227.639C209.804 227.557 210.4 227.495 210.995 227.454C211.612 227.393 212.197 227.362 212.751 227.362C214.086 227.362 215.278 227.567 216.325 227.978C217.373 228.368 218.256 228.933 218.975 229.673C219.693 230.391 220.238 231.275 220.607 232.322C220.998 233.369 221.193 234.54 221.193 235.834ZM245.793 243.937H241.203V227.732H245.793V243.937ZM231.591 240.733C232.433 240.733 233.09 240.578 233.563 240.27C234.055 239.942 234.302 239.418 234.302 238.699C234.302 238.33 234.22 238.021 234.055 237.775C233.891 237.508 233.665 237.303 233.378 237.159C233.09 236.995 232.751 236.882 232.361 236.82C231.991 236.758 231.591 236.728 231.16 236.728C230.851 236.728 230.513 236.748 230.143 236.789C229.773 236.83 229.496 236.871 229.311 236.912V240.609C229.558 240.65 229.886 240.681 230.297 240.702C230.708 240.722 231.139 240.733 231.591 240.733ZM229.311 233.493C229.599 233.411 229.968 233.349 230.42 233.308C230.893 233.246 231.427 233.215 232.022 233.215C232.967 233.215 233.85 233.328 234.672 233.554C235.514 233.78 236.243 234.129 236.859 234.602C237.475 235.054 237.958 235.639 238.307 236.358C238.677 237.056 238.861 237.878 238.861 238.822C238.861 239.767 238.697 240.589 238.369 241.287C238.04 241.965 237.568 242.53 236.951 242.981C236.335 243.413 235.596 243.731 234.733 243.937C233.891 244.162 232.946 244.275 231.899 244.275C230.543 244.275 229.301 244.204 228.171 244.06C227.042 243.937 225.891 243.731 224.721 243.444V227.732H229.311V233.493ZM262.104 240.548C262.392 240.589 262.772 240.63 263.244 240.671C263.737 240.691 264.189 240.702 264.6 240.702C265.627 240.702 266.428 240.578 267.003 240.332C267.578 240.065 267.866 239.593 267.866 238.915C267.866 238.258 267.599 237.806 267.065 237.559C266.551 237.292 265.791 237.159 264.785 237.159H262.104V240.548ZM264.692 234.078C265.452 234.078 266.068 233.986 266.541 233.801C267.013 233.595 267.249 233.164 267.249 232.507C267.249 231.891 266.982 231.47 266.448 231.244C265.914 231.018 265.216 230.905 264.353 230.905C264.066 230.905 263.686 230.925 263.214 230.966C262.762 230.987 262.392 231.018 262.104 231.059V234.078H264.692ZM264.538 244.245C263.963 244.245 263.347 244.224 262.69 244.183C262.033 244.142 261.386 244.08 260.749 243.998C260.112 243.937 259.506 243.865 258.931 243.782C258.377 243.68 257.904 243.587 257.514 243.505V227.978C257.904 227.896 258.377 227.824 258.931 227.762C259.506 227.68 260.112 227.608 260.749 227.547C261.386 227.485 262.033 227.444 262.69 227.424C263.347 227.383 263.963 227.362 264.538 227.362C265.873 227.362 266.993 227.495 267.896 227.762C268.821 228.029 269.56 228.379 270.114 228.81C270.69 229.241 271.1 229.724 271.347 230.258C271.593 230.792 271.716 231.326 271.716 231.86C271.716 232.579 271.542 233.236 271.193 233.832C270.844 234.427 270.402 234.859 269.868 235.126C270.156 235.249 270.443 235.423 270.731 235.649C271.039 235.875 271.316 236.152 271.562 236.481C271.809 236.789 272.004 237.169 272.148 237.621C272.312 238.052 272.394 238.555 272.394 239.131C272.394 239.788 272.261 240.424 271.994 241.041C271.747 241.657 271.316 242.201 270.7 242.673C270.084 243.146 269.272 243.526 268.266 243.813C267.26 244.101 266.017 244.245 264.538 244.245ZM155.155 257.34C158.338 257.34 160.782 257.905 162.487 259.035C164.192 260.144 165.044 261.972 165.044 264.519C165.044 267.086 164.181 268.945 162.456 270.095C160.731 271.224 158.266 271.789 155.062 271.789H153.553V278.937H148.747V257.895C149.794 257.689 150.903 257.546 152.074 257.464C153.245 257.381 154.271 257.34 155.155 257.34ZM155.463 261.438C155.114 261.438 154.764 261.448 154.415 261.469C154.087 261.489 153.799 261.51 153.553 261.53V267.692H155.062C156.726 267.692 157.979 267.466 158.821 267.014C159.663 266.562 160.084 265.72 160.084 264.488C160.084 263.892 159.971 263.399 159.745 263.009C159.54 262.619 159.231 262.311 158.821 262.085C158.43 261.838 157.948 261.674 157.373 261.592C156.798 261.489 156.161 261.438 155.463 261.438ZM182.971 270.803C182.971 272.077 182.786 273.247 182.417 274.315C182.047 275.363 181.513 276.267 180.815 277.026C180.116 277.766 179.274 278.341 178.288 278.752C177.323 279.162 176.234 279.368 175.023 279.368C173.831 279.368 172.743 279.162 171.757 278.752C170.792 278.341 169.96 277.766 169.262 277.026C168.563 276.267 168.019 275.363 167.629 274.315C167.239 273.247 167.043 272.077 167.043 270.803C167.043 269.53 167.239 268.369 167.629 267.322C168.04 266.275 168.594 265.381 169.292 264.642C170.011 263.902 170.853 263.327 171.819 262.917C172.805 262.506 173.873 262.3 175.023 262.3C176.193 262.3 177.261 262.506 178.227 262.917C179.213 263.327 180.055 263.902 180.753 264.642C181.451 265.381 181.996 266.275 182.386 267.322C182.776 268.369 182.971 269.53 182.971 270.803ZM178.288 270.803C178.288 269.386 178.001 268.277 177.426 267.476C176.871 266.655 176.07 266.244 175.023 266.244C173.975 266.244 173.164 266.655 172.589 267.476C172.014 268.277 171.726 269.386 171.726 270.803C171.726 272.22 172.014 273.35 172.589 274.192C173.164 275.014 173.975 275.424 175.023 275.424C176.07 275.424 176.871 275.014 177.426 274.192C178.001 273.35 178.288 272.22 178.288 270.803ZM185.757 270.834C185.757 269.663 185.942 268.565 186.311 267.538C186.702 266.49 187.256 265.587 187.975 264.827C188.694 264.046 189.567 263.43 190.594 262.978C191.621 262.526 192.791 262.3 194.106 262.3C194.968 262.3 195.759 262.383 196.478 262.547C197.197 262.691 197.895 262.906 198.573 263.194L197.618 266.86C197.186 266.696 196.714 266.552 196.201 266.429C195.687 266.305 195.112 266.244 194.475 266.244C193.12 266.244 192.103 266.665 191.425 267.507C190.768 268.349 190.44 269.458 190.44 270.834C190.44 272.292 190.748 273.422 191.364 274.223C192 275.024 193.099 275.424 194.66 275.424C195.215 275.424 195.81 275.373 196.447 275.27C197.084 275.168 197.669 275.003 198.203 274.777L198.85 278.536C198.316 278.762 197.649 278.957 196.848 279.121C196.047 279.286 195.163 279.368 194.198 279.368C192.719 279.368 191.446 279.152 190.378 278.721C189.31 278.269 188.427 277.663 187.728 276.903C187.051 276.143 186.548 275.25 186.219 274.223C185.911 273.175 185.757 272.046 185.757 270.834ZM201.161 270.834C201.161 269.663 201.345 268.565 201.715 267.538C202.105 266.49 202.66 265.587 203.379 264.827C204.098 264.046 204.971 263.43 205.997 262.978C207.024 262.526 208.195 262.3 209.51 262.3C210.372 262.3 211.163 262.383 211.882 262.547C212.601 262.691 213.299 262.906 213.977 263.194L213.022 266.86C212.59 266.696 212.118 266.552 211.604 266.429C211.091 266.305 210.516 266.244 209.879 266.244C208.524 266.244 207.507 266.665 206.829 267.507C206.172 268.349 205.843 269.458 205.843 270.834C205.843 272.292 206.151 273.422 206.768 274.223C207.404 275.024 208.503 275.424 210.064 275.424C210.619 275.424 211.214 275.373 211.851 275.27C212.488 275.168 213.073 275.003 213.607 274.777L214.254 278.536C213.72 278.762 213.052 278.957 212.251 279.121C211.45 279.286 210.567 279.368 209.602 279.368C208.123 279.368 206.85 279.152 205.782 278.721C204.714 278.269 203.831 277.663 203.132 276.903C202.455 276.143 201.951 275.25 201.623 274.223C201.315 273.175 201.161 272.046 201.161 270.834ZM232.092 262.732V278.937H227.47C227.47 277.91 227.481 276.893 227.501 275.887C227.522 274.86 227.542 273.915 227.563 273.052C227.583 272.19 227.604 271.44 227.624 270.803C227.666 270.146 227.686 269.663 227.686 269.355C227.09 270.197 226.495 271.05 225.899 271.912C225.304 272.775 224.729 273.627 224.174 274.469C223.64 275.291 223.127 276.082 222.634 276.842C222.161 277.602 221.74 278.3 221.371 278.937H217.335V262.732H221.925C221.925 263.759 221.915 264.744 221.894 265.689C221.894 266.613 221.884 267.456 221.863 268.215C221.843 268.975 221.822 269.643 221.802 270.218C221.781 270.772 221.771 271.204 221.771 271.512C223.003 269.704 224.133 268.082 225.16 266.644C226.207 265.207 227.224 263.902 228.21 262.732H232.092ZM251.967 279.368C250.981 279.368 250.057 279.214 249.194 278.906C248.332 278.577 247.561 278.125 246.884 277.55C246.226 276.955 245.672 276.236 245.22 275.394C244.789 274.531 244.491 273.576 244.327 272.529H240.999V278.937H236.409V262.732H240.999V268.77H244.388C244.573 267.784 244.891 266.891 245.343 266.09C245.795 265.289 246.35 264.611 247.007 264.056C247.685 263.481 248.434 263.05 249.256 262.762C250.098 262.454 251.002 262.3 251.967 262.3C253.076 262.3 254.103 262.506 255.048 262.917C255.992 263.307 256.814 263.872 257.512 264.611C258.211 265.35 258.755 266.244 259.145 267.291C259.535 268.339 259.73 269.509 259.73 270.803C259.73 272.097 259.535 273.278 259.145 274.346C258.755 275.394 258.211 276.297 257.512 277.057C256.814 277.797 255.992 278.372 255.048 278.782C254.103 279.173 253.076 279.368 251.967 279.368ZM251.967 266.244C251.022 266.244 250.272 266.665 249.718 267.507C249.163 268.328 248.886 269.427 248.886 270.803C248.886 272.179 249.163 273.299 249.718 274.161C250.272 275.003 251.022 275.424 251.967 275.424C252.912 275.424 253.661 275.003 254.216 274.161C254.77 273.299 255.048 272.179 255.048 270.803C255.048 269.427 254.77 268.328 254.216 267.507C253.661 266.665 252.912 266.244 251.967 266.244Z" fill="white"/>
<path d="M207.2 110.019H201.988V94.3836H207.2M201.988 115.23H207.2V120.442H201.988M214.314 83.9603H194.874L181.142 97.693V117.132L194.874 130.865H214.314L228.046 117.132V97.693L214.314 83.9603Z" fill="white"/>
</svg>
