<svg width="424" height="424" viewBox="0 0 424 424" fill="none" xmlns="http://www.w3.org/2000/svg">
<rect x="3.79048" y="212" width="294.453" height="294.453" rx="24.3029" transform="rotate(-45 3.79048 212)" fill="#FEDE2B" stroke="black" stroke-width="5.36055"/>
<path d="M223.356 121.756V99.1701C223.356 98.4592 223.074 97.7775 222.571 97.2749C222.068 96.7722 221.387 96.4898 220.676 96.4898C219.965 96.4898 219.283 96.7722 218.781 97.2749C218.278 97.7775 217.996 98.4592 217.996 99.1701V117.932H214.422V93.8095C214.422 93.4576 214.353 93.109 214.218 92.7838C214.083 92.4587 213.886 92.1632 213.637 91.9143C213.388 91.6654 213.093 91.468 212.767 91.3333C212.442 91.1986 212.094 91.1293 211.742 91.1293C211.39 91.1293 211.041 91.1986 210.716 91.3333C210.391 91.468 210.095 91.6654 209.846 91.9143C209.598 92.1632 209.4 92.4587 209.265 92.7838C209.131 93.109 209.061 93.4576 209.061 93.8095V117.932H205.488V99.1701C205.488 98.4592 205.205 97.7775 204.703 97.2749C204.2 96.7722 203.518 96.4898 202.807 96.4898C202.097 96.4898 201.415 96.7722 200.912 97.2749C200.409 97.7775 200.127 98.4592 200.127 99.1701V121.506H196.553V106.317C196.553 105.607 196.271 104.925 195.768 104.422C195.266 103.92 194.584 103.637 193.873 103.637C193.162 103.637 192.481 103.92 191.978 104.422C191.475 104.925 191.193 105.607 191.193 106.317V129.972C191.193 140.098 199.403 148.308 209.531 148.308C216.311 148.308 222.538 144.567 225.72 138.581L236.275 118.734C236.478 118.361 236.606 117.951 236.65 117.528C236.695 117.105 236.656 116.678 236.535 116.27C236.415 115.862 236.215 115.482 235.948 115.151C235.68 114.821 235.35 114.546 234.977 114.343C234.603 114.14 234.193 114.012 233.771 113.968C233.348 113.923 232.92 113.962 232.512 114.083C232.105 114.203 231.725 114.403 231.394 114.67C231.064 114.938 230.789 115.268 230.586 115.641L226.705 122.626C225.811 124.238 223.356 123.602 223.356 121.758" fill="black"/>
<path fill-rule="evenodd" clip-rule="evenodd" d="M212.635 83.9818C232.372 83.9818 248.372 99.9813 248.372 119.719C248.372 139.456 232.372 155.456 212.635 155.456C192.897 155.456 176.898 139.456 176.898 119.719C176.898 99.9813 192.897 83.9818 212.635 83.9818ZM244.968 119.719C244.968 101.861 230.493 87.3858 212.635 87.3858C194.777 87.3858 180.302 101.861 180.302 119.719C180.302 137.577 194.777 152.052 212.635 152.052C230.493 152.052 244.968 137.577 244.968 119.719Z" fill="black"/>
<path d="M111.29 191.696H116.096V213.045H111.29V203.988H103.218V213.045H98.4124V191.696H103.218V199.86H111.29V191.696ZM119.959 205.066C119.959 203.629 120.174 202.376 120.606 201.308C121.057 200.219 121.643 199.315 122.362 198.597C123.08 197.878 123.902 197.333 124.826 196.964C125.771 196.594 126.736 196.409 127.722 196.409C130.022 196.409 131.84 197.118 133.175 198.535C134.51 199.932 135.178 201.996 135.178 204.727C135.178 204.994 135.167 205.292 135.147 205.621C135.126 205.929 135.106 206.206 135.085 206.453H124.672C124.775 207.397 125.216 208.147 125.997 208.702C126.777 209.256 127.825 209.533 129.139 209.533C129.981 209.533 130.803 209.461 131.604 209.318C132.425 209.153 133.093 208.958 133.606 208.732L134.223 212.46C133.976 212.583 133.647 212.707 133.237 212.83C132.826 212.953 132.364 213.056 131.85 213.138C131.357 213.241 130.823 213.323 130.248 213.384C129.673 213.446 129.098 213.477 128.523 213.477C127.065 213.477 125.791 213.261 124.703 212.83C123.635 212.398 122.742 211.813 122.023 211.074C121.324 210.314 120.801 209.42 120.451 208.393C120.123 207.367 119.959 206.257 119.959 205.066ZM130.741 203.31C130.721 202.92 130.649 202.54 130.526 202.17C130.423 201.801 130.248 201.472 130.002 201.184C129.776 200.897 129.478 200.661 129.108 200.476C128.759 200.291 128.318 200.199 127.784 200.199C127.27 200.199 126.829 200.291 126.459 200.476C126.089 200.64 125.781 200.866 125.535 201.154C125.288 201.441 125.093 201.78 124.949 202.17C124.826 202.54 124.734 202.92 124.672 203.31H130.741ZM144.581 209.287H146.583C147.158 208.589 147.6 207.726 147.908 206.699C148.237 205.652 148.462 204.553 148.586 203.403C148.729 202.232 148.812 201.071 148.832 199.921C148.853 198.771 148.863 197.744 148.863 196.841H161.494V209.287H164.236V217.667H160.323V213.045H148.493V217.667H144.581V209.287ZM156.904 209.287V200.599H153.145C153.104 201.318 153.053 202.068 152.991 202.848C152.95 203.608 152.858 204.368 152.714 205.128C152.591 205.867 152.416 206.596 152.19 207.315C151.964 208.034 151.666 208.691 151.297 209.287H156.904ZM182.158 204.912C182.158 206.186 181.973 207.356 181.603 208.424C181.234 209.472 180.7 210.375 180.001 211.135C179.303 211.875 178.461 212.45 177.475 212.861C176.51 213.271 175.421 213.477 174.21 213.477C173.018 213.477 171.93 213.271 170.944 212.861C169.979 212.45 169.147 211.875 168.448 211.135C167.75 210.375 167.206 209.472 166.816 208.424C166.425 207.356 166.23 206.186 166.23 204.912C166.23 203.639 166.425 202.478 166.816 201.431C167.226 200.383 167.781 199.49 168.479 198.751C169.198 198.011 170.04 197.436 171.006 197.025C171.991 196.615 173.059 196.409 174.21 196.409C175.38 196.409 176.448 196.615 177.414 197.025C178.399 197.436 179.241 198.011 179.94 198.751C180.638 199.49 181.182 200.383 181.573 201.431C181.963 202.478 182.158 203.639 182.158 204.912ZM177.475 204.912C177.475 203.495 177.188 202.386 176.613 201.585C176.058 200.763 175.257 200.353 174.21 200.353C173.162 200.353 172.351 200.763 171.776 201.585C171.201 202.386 170.913 203.495 170.913 204.912C170.913 206.329 171.201 207.459 171.776 208.301C172.351 209.123 173.162 209.533 174.21 209.533C175.257 209.533 176.058 209.123 176.613 208.301C177.188 207.459 177.475 206.329 177.475 204.912ZM184.944 204.943C184.944 203.772 185.128 202.673 185.498 201.647C185.888 200.599 186.443 199.695 187.162 198.935C187.881 198.155 188.753 197.539 189.78 197.087C190.807 196.635 191.978 196.409 193.292 196.409C194.155 196.409 194.946 196.491 195.665 196.656C196.384 196.799 197.082 197.015 197.76 197.303L196.805 200.969C196.373 200.804 195.901 200.661 195.387 200.537C194.874 200.414 194.299 200.353 193.662 200.353C192.307 200.353 191.29 200.774 190.612 201.616C189.955 202.458 189.626 203.567 189.626 204.943C189.626 206.401 189.934 207.531 190.551 208.332C191.187 209.133 192.286 209.533 193.847 209.533C194.402 209.533 194.997 209.482 195.634 209.379C196.271 209.277 196.856 209.112 197.39 208.886L198.037 212.645C197.503 212.871 196.835 213.066 196.034 213.23C195.233 213.395 194.35 213.477 193.385 213.477C191.906 213.477 190.633 213.261 189.565 212.83C188.497 212.378 187.614 211.772 186.915 211.012C186.238 210.252 185.734 209.359 185.406 208.332C185.098 207.284 184.944 206.155 184.944 204.943ZM214.519 200.599H209.343V213.045H204.753V200.599H199.577V196.841H214.519V200.599ZM223.496 209.841C223.948 209.841 224.379 209.831 224.79 209.811C225.201 209.79 225.529 209.759 225.776 209.718V206.237C225.591 206.196 225.314 206.155 224.944 206.114C224.574 206.073 224.235 206.052 223.927 206.052C223.496 206.052 223.085 206.083 222.695 206.144C222.325 206.186 221.997 206.278 221.709 206.422C221.422 206.566 221.196 206.761 221.031 207.007C220.867 207.254 220.785 207.562 220.785 207.931C220.785 208.65 221.021 209.153 221.494 209.441C221.987 209.708 222.654 209.841 223.496 209.841ZM223.126 196.409C224.482 196.409 225.612 196.563 226.515 196.871C227.419 197.179 228.138 197.621 228.672 198.196C229.226 198.771 229.617 199.469 229.842 200.291C230.068 201.113 230.181 202.027 230.181 203.033V212.583C229.524 212.727 228.61 212.891 227.439 213.076C226.269 213.282 224.852 213.384 223.188 213.384C222.141 213.384 221.186 213.292 220.323 213.107C219.481 212.922 218.752 212.624 218.136 212.214C217.519 211.782 217.047 211.228 216.718 210.55C216.39 209.872 216.225 209.04 216.225 208.055C216.225 207.11 216.41 206.309 216.78 205.652C217.17 204.994 217.684 204.471 218.32 204.08C218.957 203.69 219.686 203.413 220.508 203.249C221.329 203.064 222.182 202.971 223.065 202.971C223.66 202.971 224.184 203.002 224.636 203.064C225.108 203.105 225.488 203.166 225.776 203.249V202.817C225.776 202.037 225.54 201.41 225.067 200.938C224.595 200.466 223.773 200.229 222.603 200.229C221.822 200.229 221.052 200.291 220.292 200.414C219.532 200.517 218.875 200.671 218.32 200.876L217.735 197.179C218.002 197.097 218.331 197.015 218.721 196.933C219.132 196.83 219.573 196.748 220.046 196.687C220.518 196.604 221.011 196.543 221.524 196.502C222.058 196.44 222.592 196.409 223.126 196.409ZM238.923 209.657C239.21 209.698 239.59 209.739 240.062 209.78C240.555 209.8 241.007 209.811 241.418 209.811C242.445 209.811 243.246 209.687 243.821 209.441C244.396 209.174 244.684 208.702 244.684 208.024C244.684 207.367 244.417 206.915 243.883 206.668C243.369 206.401 242.609 206.268 241.603 206.268H238.923V209.657ZM241.51 203.187C242.27 203.187 242.887 203.095 243.359 202.91C243.831 202.704 244.067 202.273 244.067 201.616C244.067 201 243.8 200.579 243.266 200.353C242.732 200.127 242.034 200.014 241.172 200.014C240.884 200.014 240.504 200.034 240.032 200.075C239.58 200.096 239.21 200.127 238.923 200.168V203.187H241.51ZM241.356 213.353C240.781 213.353 240.165 213.333 239.508 213.292C238.851 213.251 238.204 213.189 237.567 213.107C236.93 213.045 236.324 212.974 235.749 212.891C235.195 212.789 234.722 212.696 234.332 212.614V197.087C234.722 197.005 235.195 196.933 235.749 196.871C236.324 196.789 236.93 196.717 237.567 196.656C238.204 196.594 238.851 196.553 239.508 196.532C240.165 196.491 240.781 196.471 241.356 196.471C242.691 196.471 243.811 196.604 244.714 196.871C245.639 197.138 246.378 197.488 246.933 197.919C247.508 198.35 247.918 198.833 248.165 199.367C248.411 199.901 248.535 200.435 248.535 200.969C248.535 201.688 248.36 202.345 248.011 202.94C247.662 203.536 247.22 203.967 246.686 204.234C246.974 204.358 247.261 204.532 247.549 204.758C247.857 204.984 248.134 205.261 248.381 205.59C248.627 205.898 248.822 206.278 248.966 206.73C249.13 207.161 249.212 207.664 249.212 208.239C249.212 208.897 249.079 209.533 248.812 210.149C248.565 210.766 248.134 211.31 247.518 211.782C246.902 212.255 246.091 212.635 245.084 212.922C244.078 213.21 242.835 213.353 241.356 213.353ZM260.015 200.599C259.995 201.195 259.964 201.831 259.923 202.509C259.902 203.166 259.851 203.834 259.769 204.512C259.687 205.169 259.574 205.816 259.43 206.453C259.307 207.089 259.142 207.685 258.937 208.239C258.691 208.897 258.372 209.513 257.982 210.088C257.612 210.642 257.13 211.146 256.534 211.597C255.959 212.049 255.25 212.429 254.408 212.737C253.587 213.025 252.621 213.22 251.512 213.323L250.896 209.503C251.944 209.297 252.755 209.01 253.33 208.64C253.905 208.25 254.336 207.757 254.624 207.161C254.85 206.648 255.024 206.052 255.148 205.374C255.291 204.697 255.394 203.988 255.456 203.249C255.517 202.489 255.548 201.718 255.548 200.938C255.569 200.158 255.579 199.408 255.579 198.689V196.841H267.748V213.045H263.158V200.599H260.015ZM278.776 207.284C278.119 208.25 277.533 209.225 277.02 210.211C276.506 211.176 276.013 212.121 275.541 213.045H270.827C271.423 211.71 272.029 210.488 272.645 209.379C273.261 208.27 273.857 207.315 274.432 206.514C273.569 206.062 272.881 205.487 272.368 204.789C271.854 204.07 271.598 203.177 271.598 202.109C271.598 200.301 272.245 198.915 273.538 197.95C274.853 196.984 276.66 196.502 278.961 196.502C279.474 196.502 280.039 196.522 280.655 196.563C281.292 196.604 281.918 196.666 282.534 196.748C283.15 196.83 283.736 196.923 284.29 197.025C284.865 197.108 285.348 197.2 285.738 197.303V213.045H281.148V207.284H278.776ZM281.148 200.137C280.943 200.116 280.624 200.096 280.193 200.075C279.762 200.034 279.392 200.014 279.084 200.014C277.954 200.014 277.184 200.209 276.773 200.599C276.362 200.969 276.157 201.451 276.157 202.047C276.157 202.417 276.239 202.735 276.404 203.002C276.568 203.249 276.784 203.454 277.051 203.618C277.318 203.762 277.615 203.865 277.944 203.926C278.273 203.988 278.601 204.019 278.93 204.019H281.148V200.137ZM289.281 205.066C289.281 203.629 289.496 202.376 289.928 201.308C290.38 200.219 290.965 199.315 291.684 198.597C292.403 197.878 293.224 197.333 294.148 196.964C295.093 196.594 296.058 196.409 297.044 196.409C299.345 196.409 301.162 197.118 302.497 198.535C303.832 199.932 304.5 201.996 304.5 204.727C304.5 204.994 304.489 205.292 304.469 205.621C304.448 205.929 304.428 206.206 304.407 206.453H293.994C294.097 207.397 294.539 208.147 295.319 208.702C296.099 209.256 297.147 209.533 298.461 209.533C299.303 209.533 300.125 209.461 300.926 209.318C301.748 209.153 302.415 208.958 302.929 208.732L303.545 212.46C303.298 212.583 302.97 212.707 302.559 212.83C302.148 212.953 301.686 213.056 301.172 213.138C300.68 213.241 300.146 213.323 299.57 213.384C298.995 213.446 298.42 213.477 297.845 213.477C296.387 213.477 295.114 213.261 294.025 212.83C292.957 212.398 292.064 211.813 291.345 211.074C290.647 210.314 290.123 209.42 289.774 208.393C289.445 207.367 289.281 206.257 289.281 205.066ZM300.063 203.31C300.043 202.92 299.971 202.54 299.848 202.17C299.745 201.801 299.57 201.472 299.324 201.184C299.098 200.897 298.8 200.661 298.431 200.476C298.081 200.291 297.64 200.199 297.106 200.199C296.592 200.199 296.151 200.291 295.781 200.476C295.411 200.64 295.103 200.866 294.857 201.154C294.61 201.441 294.415 201.78 294.272 202.17C294.148 202.54 294.056 202.92 293.994 203.31H300.063ZM312.602 203.711C312.561 204.43 312.52 205.21 312.478 206.052C312.437 206.894 312.396 207.746 312.355 208.609C312.335 209.451 312.304 210.262 312.263 211.043C312.242 211.803 312.222 212.47 312.201 213.045H307.734C307.775 211.916 307.837 210.642 307.919 209.225C308.022 207.808 308.124 206.37 308.227 204.912C308.35 203.433 308.473 201.996 308.597 200.599C308.74 199.202 308.874 197.95 308.997 196.841H312.817C313.7 198.278 314.512 199.767 315.251 201.308C315.991 202.848 316.771 204.542 317.593 206.391C318.455 204.419 319.297 202.602 320.119 200.938C320.94 199.254 321.68 197.888 322.337 196.841H326.219C326.362 197.95 326.496 199.202 326.619 200.599C326.763 201.996 326.886 203.433 326.989 204.912C327.112 206.37 327.215 207.808 327.297 209.225C327.379 210.642 327.441 211.916 327.482 213.045H322.922C322.881 211.443 322.82 209.852 322.737 208.27C322.676 206.689 322.614 205.159 322.553 203.68L319.164 211.135H315.991L312.602 203.711ZM111.068 239.943C111.068 238.772 111.253 237.673 111.623 236.647C112.013 235.599 112.568 234.695 113.286 233.935C114.005 233.155 114.878 232.539 115.905 232.087C116.932 231.635 118.103 231.409 119.417 231.409C120.28 231.409 121.07 231.491 121.789 231.656C122.508 231.799 123.206 232.015 123.884 232.303L122.929 235.969C122.498 235.804 122.026 235.661 121.512 235.537C120.999 235.414 120.424 235.353 119.787 235.353C118.431 235.353 117.415 235.774 116.737 236.616C116.08 237.458 115.751 238.567 115.751 239.943C115.751 241.401 116.059 242.531 116.675 243.332C117.312 244.133 118.411 244.533 119.972 244.533C120.526 244.533 121.122 244.482 121.759 244.379C122.395 244.277 122.981 244.112 123.515 243.886L124.162 247.645C123.628 247.871 122.96 248.066 122.159 248.23C121.358 248.395 120.475 248.477 119.51 248.477C118.031 248.477 116.757 248.261 115.689 247.83C114.621 247.378 113.738 246.772 113.04 246.012C112.362 245.252 111.859 244.359 111.53 243.332C111.222 242.284 111.068 241.155 111.068 239.943ZM133.435 244.841C133.886 244.841 134.318 244.831 134.729 244.811C135.139 244.79 135.468 244.759 135.714 244.718V241.237C135.53 241.196 135.252 241.155 134.883 241.114C134.513 241.073 134.174 241.052 133.866 241.052C133.435 241.052 133.024 241.083 132.634 241.144C132.264 241.186 131.935 241.278 131.648 241.422C131.36 241.566 131.134 241.761 130.97 242.007C130.806 242.254 130.724 242.562 130.724 242.931C130.724 243.65 130.96 244.153 131.432 244.441C131.925 244.708 132.593 244.841 133.435 244.841ZM133.065 231.409C134.42 231.409 135.55 231.563 136.454 231.871C137.357 232.179 138.076 232.621 138.61 233.196C139.165 233.771 139.555 234.469 139.781 235.291C140.007 236.113 140.12 237.027 140.12 238.033V247.583C139.463 247.727 138.549 247.891 137.378 248.076C136.207 248.282 134.79 248.384 133.127 248.384C132.079 248.384 131.124 248.292 130.261 248.107C129.419 247.922 128.69 247.624 128.074 247.214C127.458 246.782 126.986 246.228 126.657 245.55C126.328 244.872 126.164 244.04 126.164 243.055C126.164 242.11 126.349 241.309 126.719 240.652C127.109 239.994 127.622 239.471 128.259 239.08C128.896 238.69 129.625 238.413 130.446 238.249C131.268 238.064 132.12 237.971 133.003 237.971C133.599 237.971 134.123 238.002 134.575 238.064C135.047 238.105 135.427 238.166 135.714 238.249V237.817C135.714 237.037 135.478 236.41 135.006 235.938C134.533 235.466 133.712 235.229 132.541 235.229C131.761 235.229 130.991 235.291 130.231 235.414C129.471 235.517 128.813 235.671 128.259 235.876L127.674 232.179C127.941 232.097 128.269 232.015 128.659 231.933C129.07 231.83 129.512 231.748 129.984 231.687C130.457 231.604 130.949 231.543 131.463 231.502C131.997 231.44 132.531 231.409 133.065 231.409ZM158.227 248.045H153.636V241.637H148.861V248.045H144.271V231.841H148.861V237.879H153.636V231.841H158.227V248.045ZM167.123 237.509C167.575 237.078 168.047 236.605 168.54 236.092C169.054 235.579 169.547 235.075 170.019 234.582C170.491 234.069 170.943 233.576 171.375 233.104C171.806 232.631 172.186 232.21 172.514 231.841H178.091C177.68 232.272 177.166 232.806 176.55 233.443C175.955 234.079 175.318 234.747 174.64 235.445C173.962 236.123 173.274 236.801 172.576 237.478C171.898 238.156 171.251 238.762 170.635 239.296C171.251 239.768 171.909 240.354 172.607 241.052C173.305 241.75 173.983 242.5 174.64 243.301C175.318 244.102 175.955 244.913 176.55 245.735C177.166 246.556 177.69 247.327 178.121 248.045H172.884C172.514 247.491 172.093 246.916 171.621 246.32C171.149 245.704 170.656 245.108 170.142 244.533C169.629 243.938 169.105 243.383 168.571 242.87C168.058 242.356 167.575 241.915 167.123 241.545V248.045H162.533V231.841H167.123V237.509ZM194.54 244.287H197.282V252.667H193.369V248.045H180.584V231.841H185.175V244.287H189.95V231.841H194.54V244.287ZM214.807 231.841V248.045H210.185C210.185 247.018 210.196 246.002 210.216 244.995C210.237 243.969 210.257 243.024 210.278 242.161C210.298 241.299 210.319 240.549 210.339 239.912C210.38 239.255 210.401 238.772 210.401 238.464C209.805 239.306 209.21 240.159 208.614 241.021C208.019 241.884 207.443 242.736 206.889 243.578C206.355 244.4 205.841 245.191 205.349 245.95C204.876 246.71 204.455 247.409 204.085 248.045H200.05V231.841H204.64C204.64 232.867 204.63 233.853 204.609 234.798C204.609 235.722 204.599 236.564 204.578 237.324C204.558 238.084 204.537 238.752 204.517 239.327C204.496 239.881 204.486 240.313 204.486 240.621C205.718 238.813 206.848 237.191 207.875 235.753C208.922 234.315 209.939 233.011 210.925 231.841H214.807ZM234.281 239.912C234.281 241.186 234.096 242.356 233.727 243.424C233.357 244.472 232.823 245.375 232.125 246.135C231.426 246.875 230.584 247.45 229.599 247.861C228.633 248.271 227.545 248.477 226.333 248.477C225.142 248.477 224.053 248.271 223.067 247.861C222.102 247.45 221.27 246.875 220.572 246.135C219.874 245.375 219.329 244.472 218.939 243.424C218.549 242.356 218.354 241.186 218.354 239.912C218.354 238.639 218.549 237.478 218.939 236.431C219.35 235.383 219.904 234.49 220.603 233.751C221.322 233.011 222.164 232.436 223.129 232.025C224.115 231.615 225.183 231.409 226.333 231.409C227.504 231.409 228.572 231.615 229.537 232.025C230.523 232.436 231.365 233.011 232.063 233.751C232.761 234.49 233.306 235.383 233.696 236.431C234.086 237.478 234.281 238.639 234.281 239.912ZM229.599 239.912C229.599 238.495 229.311 237.386 228.736 236.585C228.181 235.763 227.38 235.353 226.333 235.353C225.285 235.353 224.474 235.763 223.899 236.585C223.324 237.386 223.036 238.495 223.036 239.912C223.036 241.329 223.324 242.459 223.899 243.301C224.474 244.123 225.285 244.533 226.333 244.533C227.38 244.533 228.181 244.123 228.736 243.301C229.311 242.459 229.599 241.329 229.599 239.912ZM251.793 248.045H247.203V241.637H242.428V248.045H237.837V231.841H242.428V237.879H247.203V231.841H251.793V248.045ZM270.055 248.045H265.465V241.637H260.69V248.045H256.099V231.841H260.69V237.879H265.465V231.841H270.055V248.045ZM295.434 248.045H290.843V231.841H295.434V248.045ZM281.231 244.841C282.073 244.841 282.731 244.687 283.203 244.379C283.696 244.051 283.942 243.527 283.942 242.808C283.942 242.438 283.86 242.13 283.696 241.884C283.532 241.617 283.306 241.411 283.018 241.268C282.731 241.103 282.392 240.99 282.002 240.929C281.632 240.867 281.231 240.836 280.8 240.836C280.492 240.836 280.153 240.857 279.783 240.898C279.414 240.939 279.136 240.98 278.952 241.021V244.718C279.198 244.759 279.527 244.79 279.937 244.811C280.348 244.831 280.779 244.841 281.231 244.841ZM278.952 237.602C279.239 237.519 279.609 237.458 280.061 237.417C280.533 237.355 281.067 237.324 281.663 237.324C282.607 237.324 283.491 237.437 284.312 237.663C285.154 237.889 285.883 238.238 286.499 238.711C287.116 239.163 287.598 239.748 287.947 240.467C288.317 241.165 288.502 241.987 288.502 242.931C288.502 243.876 288.338 244.698 288.009 245.396C287.68 246.074 287.208 246.639 286.592 247.09C285.976 247.522 285.236 247.84 284.374 248.045C283.532 248.271 282.587 248.384 281.539 248.384C280.184 248.384 278.941 248.312 277.812 248.169C276.682 248.045 275.532 247.84 274.361 247.552V231.841H278.952V237.602ZM298.983 240.066C298.983 238.629 299.199 237.376 299.63 236.308C300.082 235.219 300.667 234.315 301.386 233.597C302.105 232.878 302.927 232.333 303.851 231.964C304.796 231.594 305.761 231.409 306.747 231.409C309.047 231.409 310.865 232.118 312.2 233.535C313.535 234.932 314.202 236.996 314.202 239.727C314.202 239.994 314.192 240.292 314.172 240.621C314.151 240.929 314.13 241.206 314.11 241.453H303.697C303.8 242.397 304.241 243.147 305.022 243.702C305.802 244.256 306.85 244.533 308.164 244.533C309.006 244.533 309.828 244.461 310.629 244.318C311.45 244.153 312.118 243.958 312.631 243.732L313.247 247.46C313.001 247.583 312.672 247.707 312.261 247.83C311.851 247.953 311.389 248.056 310.875 248.138C310.382 248.241 309.848 248.323 309.273 248.384C308.698 248.446 308.123 248.477 307.548 248.477C306.09 248.477 304.816 248.261 303.728 247.83C302.66 247.398 301.766 246.813 301.047 246.074C300.349 245.314 299.825 244.42 299.476 243.393C299.148 242.367 298.983 241.257 298.983 240.066ZM309.766 238.31C309.745 237.92 309.674 237.54 309.55 237.17C309.448 236.801 309.273 236.472 309.027 236.184C308.801 235.897 308.503 235.661 308.133 235.476C307.784 235.291 307.342 235.199 306.808 235.199C306.295 235.199 305.853 235.291 305.484 235.476C305.114 235.64 304.806 235.866 304.56 236.154C304.313 236.441 304.118 236.78 303.974 237.17C303.851 237.54 303.759 237.92 303.697 238.31H309.766ZM158.123 270.599H152.948V283.045H148.357V270.599H143.182V266.841H158.123V270.599ZM176.066 274.912C176.066 276.186 175.881 277.356 175.511 278.424C175.141 279.472 174.607 280.375 173.909 281.135C173.211 281.875 172.369 282.45 171.383 282.861C170.417 283.271 169.329 283.477 168.117 283.477C166.926 283.477 165.837 283.271 164.852 282.861C163.886 282.45 163.054 281.875 162.356 281.135C161.658 280.375 161.114 279.472 160.723 278.424C160.333 277.356 160.138 276.186 160.138 274.912C160.138 273.639 160.333 272.478 160.723 271.431C161.134 270.383 161.689 269.49 162.387 268.751C163.106 268.011 163.948 267.436 164.913 267.025C165.899 266.615 166.967 266.409 168.117 266.409C169.288 266.409 170.356 266.615 171.321 267.025C172.307 267.436 173.149 268.011 173.847 268.751C174.546 269.49 175.09 270.383 175.48 271.431C175.87 272.478 176.066 273.639 176.066 274.912ZM171.383 274.912C171.383 273.495 171.095 272.386 170.52 271.585C169.966 270.763 169.165 270.353 168.117 270.353C167.07 270.353 166.258 270.763 165.683 271.585C165.108 272.386 164.821 273.495 164.821 274.912C164.821 276.329 165.108 277.459 165.683 278.301C166.258 279.123 167.07 279.533 168.117 279.533C169.165 279.533 169.966 279.123 170.52 278.301C171.095 277.459 171.383 276.329 171.383 274.912ZM184.212 279.657C184.499 279.698 184.879 279.739 185.352 279.78C185.845 279.8 186.296 279.811 186.707 279.811C187.734 279.811 188.535 279.687 189.11 279.441C189.685 279.174 189.973 278.702 189.973 278.024C189.973 277.367 189.706 276.915 189.172 276.668C188.658 276.401 187.898 276.268 186.892 276.268H184.212V279.657ZM186.8 273.187C187.56 273.187 188.176 273.095 188.648 272.91C189.12 272.704 189.357 272.273 189.357 271.616C189.357 271 189.09 270.579 188.556 270.353C188.022 270.127 187.323 270.014 186.461 270.014C186.173 270.014 185.793 270.034 185.321 270.075C184.869 270.096 184.499 270.127 184.212 270.168V273.187H186.8ZM186.646 283.353C186.071 283.353 185.454 283.333 184.797 283.292C184.14 283.251 183.493 283.189 182.856 283.107C182.22 283.045 181.614 282.974 181.039 282.891C180.484 282.789 180.012 282.696 179.621 282.614V267.087C180.012 267.005 180.484 266.933 181.039 266.871C181.614 266.789 182.22 266.717 182.856 266.656C183.493 266.594 184.14 266.553 184.797 266.532C185.454 266.491 186.071 266.471 186.646 266.471C187.981 266.471 189.1 266.604 190.004 266.871C190.928 267.138 191.667 267.488 192.222 267.919C192.797 268.35 193.208 268.833 193.454 269.367C193.701 269.901 193.824 270.435 193.824 270.969C193.824 271.688 193.649 272.345 193.3 272.94C192.951 273.536 192.509 273.967 191.975 274.234C192.263 274.358 192.55 274.532 192.838 274.758C193.146 274.984 193.423 275.261 193.67 275.59C193.916 275.898 194.111 276.278 194.255 276.73C194.419 277.161 194.502 277.664 194.502 278.239C194.502 278.897 194.368 279.533 194.101 280.149C193.855 280.766 193.423 281.31 192.807 281.782C192.191 282.255 191.38 282.635 190.373 282.922C189.367 283.21 188.124 283.353 186.646 283.353ZM204.226 279.841C204.678 279.841 205.109 279.831 205.52 279.811C205.931 279.79 206.26 279.759 206.506 279.718V276.237C206.321 276.196 206.044 276.155 205.674 276.114C205.304 276.073 204.966 276.052 204.658 276.052C204.226 276.052 203.815 276.083 203.425 276.144C203.056 276.186 202.727 276.278 202.439 276.422C202.152 276.566 201.926 276.761 201.762 277.007C201.597 277.254 201.515 277.562 201.515 277.931C201.515 278.65 201.751 279.153 202.224 279.441C202.717 279.708 203.384 279.841 204.226 279.841ZM203.857 266.409C205.212 266.409 206.342 266.563 207.245 266.871C208.149 267.179 208.868 267.621 209.402 268.196C209.956 268.771 210.347 269.469 210.573 270.291C210.799 271.113 210.912 272.027 210.912 273.033V282.583C210.254 282.727 209.34 282.891 208.17 283.076C206.999 283.282 205.582 283.384 203.918 283.384C202.871 283.384 201.916 283.292 201.053 283.107C200.211 282.922 199.482 282.624 198.866 282.214C198.25 281.782 197.777 281.228 197.449 280.55C197.12 279.872 196.956 279.04 196.956 278.055C196.956 277.11 197.14 276.309 197.51 275.652C197.9 274.994 198.414 274.471 199.051 274.08C199.687 273.69 200.416 273.413 201.238 273.249C202.059 273.064 202.912 272.971 203.795 272.971C204.391 272.971 204.914 273.002 205.366 273.064C205.839 273.105 206.218 273.166 206.506 273.249V272.817C206.506 272.037 206.27 271.41 205.797 270.938C205.325 270.466 204.503 270.229 203.333 270.229C202.552 270.229 201.782 270.291 201.022 270.414C200.262 270.517 199.605 270.671 199.051 270.876L198.465 267.179C198.732 267.097 199.061 267.015 199.451 266.933C199.862 266.83 200.303 266.748 200.776 266.687C201.248 266.604 201.741 266.543 202.255 266.502C202.789 266.44 203.323 266.409 203.857 266.409ZM225.445 275.066C225.445 273.649 225.126 272.519 224.49 271.677C223.853 270.815 222.908 270.383 221.655 270.383C221.244 270.383 220.864 270.404 220.515 270.445C220.166 270.466 219.879 270.496 219.653 270.537V278.825C219.94 279.01 220.31 279.164 220.762 279.287C221.234 279.41 221.707 279.472 222.179 279.472C224.356 279.472 225.445 278.003 225.445 275.066ZM230.127 274.943C230.127 276.196 229.973 277.336 229.665 278.363C229.357 279.39 228.905 280.273 228.31 281.012C227.714 281.751 226.975 282.327 226.092 282.737C225.208 283.148 224.192 283.353 223.042 283.353C222.405 283.353 221.809 283.292 221.255 283.169C220.7 283.045 220.166 282.871 219.653 282.645V288.745H215.062V267.395C215.473 267.272 215.946 267.159 216.48 267.056C217.014 266.933 217.568 266.83 218.143 266.748C218.739 266.666 219.334 266.604 219.93 266.563C220.546 266.502 221.131 266.471 221.686 266.471C223.021 266.471 224.212 266.676 225.26 267.087C226.307 267.477 227.19 268.042 227.909 268.781C228.628 269.5 229.172 270.383 229.542 271.431C229.932 272.478 230.127 273.649 230.127 274.943ZM254.728 283.045H250.137V266.841H254.728V283.045ZM240.525 279.841C241.368 279.841 242.025 279.687 242.497 279.379C242.99 279.051 243.237 278.527 243.237 277.808C243.237 277.438 243.154 277.13 242.99 276.884C242.826 276.617 242.6 276.411 242.312 276.268C242.025 276.103 241.686 275.99 241.296 275.929C240.926 275.867 240.525 275.836 240.094 275.836C239.786 275.836 239.447 275.857 239.077 275.898C238.708 275.939 238.431 275.98 238.246 276.021V279.718C238.492 279.759 238.821 279.79 239.232 279.811C239.642 279.831 240.074 279.841 240.525 279.841ZM238.246 272.602C238.533 272.519 238.903 272.458 239.355 272.417C239.827 272.355 240.361 272.324 240.957 272.324C241.902 272.324 242.785 272.437 243.606 272.663C244.448 272.889 245.177 273.238 245.794 273.711C246.41 274.163 246.892 274.748 247.242 275.467C247.611 276.165 247.796 276.987 247.796 277.931C247.796 278.876 247.632 279.698 247.303 280.396C246.975 281.074 246.502 281.639 245.886 282.09C245.27 282.522 244.53 282.84 243.668 283.045C242.826 283.271 241.881 283.384 240.834 283.384C239.478 283.384 238.235 283.312 237.106 283.169C235.976 283.045 234.826 282.84 233.655 282.552V266.841H238.246V272.602ZM271.039 279.657C271.327 279.698 271.707 279.739 272.179 279.78C272.672 279.8 273.124 279.811 273.534 279.811C274.561 279.811 275.362 279.687 275.937 279.441C276.513 279.174 276.8 278.702 276.8 278.024C276.8 277.367 276.533 276.915 275.999 276.668C275.486 276.401 274.726 276.268 273.719 276.268H271.039V279.657ZM273.627 273.187C274.387 273.187 275.003 273.095 275.475 272.91C275.948 272.704 276.184 272.273 276.184 271.616C276.184 271 275.917 270.579 275.383 270.353C274.849 270.127 274.151 270.014 273.288 270.014C273 270.014 272.621 270.034 272.148 270.075C271.696 270.096 271.327 270.127 271.039 270.168V273.187H273.627ZM273.473 283.353C272.898 283.353 272.282 283.333 271.624 283.292C270.967 283.251 270.32 283.189 269.683 283.107C269.047 283.045 268.441 282.974 267.866 282.891C267.311 282.789 266.839 282.696 266.449 282.614V267.087C266.839 267.005 267.311 266.933 267.866 266.871C268.441 266.789 269.047 266.717 269.683 266.656C270.32 266.594 270.967 266.553 271.624 266.532C272.282 266.491 272.898 266.471 273.473 266.471C274.808 266.471 275.927 266.604 276.831 266.871C277.755 267.138 278.495 267.488 279.049 267.919C279.624 268.35 280.035 268.833 280.281 269.367C280.528 269.901 280.651 270.435 280.651 270.969C280.651 271.688 280.476 272.345 280.127 272.94C279.778 273.536 279.337 273.967 278.803 274.234C279.09 274.358 279.378 274.532 279.665 274.758C279.973 274.984 280.251 275.261 280.497 275.59C280.743 275.898 280.939 276.278 281.082 276.73C281.247 277.161 281.329 277.664 281.329 278.239C281.329 278.897 281.195 279.533 280.928 280.149C280.682 280.766 280.251 281.31 279.634 281.782C279.018 282.255 278.207 282.635 277.201 282.922C276.194 283.21 274.952 283.353 273.473 283.353ZM164.089 296.449C167.273 296.449 169.717 297.014 171.421 298.144C173.126 299.253 173.978 301.081 173.978 303.627C173.978 306.195 173.116 308.053 171.391 309.204C169.665 310.333 167.201 310.898 163.997 310.898H162.487V318.045H157.681V297.004C158.729 296.798 159.838 296.655 161.008 296.572C162.179 296.49 163.206 296.449 164.089 296.449ZM164.397 300.547C164.048 300.547 163.699 300.557 163.35 300.577C163.021 300.598 162.734 300.619 162.487 300.639V306.801H163.997C165.66 306.801 166.913 306.575 167.755 306.123C168.597 305.671 169.018 304.829 169.018 303.597C169.018 303.001 168.905 302.508 168.68 302.118C168.474 301.728 168.166 301.42 167.755 301.194C167.365 300.947 166.882 300.783 166.307 300.701C165.732 300.598 165.096 300.547 164.397 300.547ZM191.906 309.912C191.906 311.186 191.721 312.356 191.351 313.424C190.981 314.472 190.447 315.375 189.749 316.135C189.051 316.875 188.209 317.45 187.223 317.861C186.258 318.271 185.169 318.477 183.957 318.477C182.766 318.477 181.677 318.271 180.692 317.861C179.726 317.45 178.895 316.875 178.196 316.135C177.498 315.375 176.954 314.472 176.563 313.424C176.173 312.356 175.978 311.186 175.978 309.912C175.978 308.639 176.173 307.478 176.563 306.431C176.974 305.383 177.529 304.49 178.227 303.751C178.946 303.011 179.788 302.436 180.753 302.025C181.739 301.615 182.807 301.409 183.957 301.409C185.128 301.409 186.196 301.615 187.161 302.025C188.147 302.436 188.989 303.011 189.688 303.751C190.386 304.49 190.93 305.383 191.32 306.431C191.711 307.478 191.906 308.639 191.906 309.912ZM187.223 309.912C187.223 308.495 186.935 307.386 186.36 306.585C185.806 305.763 185.005 305.353 183.957 305.353C182.91 305.353 182.099 305.763 181.523 306.585C180.948 307.386 180.661 308.495 180.661 309.912C180.661 311.329 180.948 312.459 181.523 313.301C182.099 314.123 182.91 314.533 183.957 314.533C185.005 314.533 185.806 314.123 186.36 313.301C186.935 312.459 187.223 311.329 187.223 309.912ZM194.691 309.943C194.691 308.772 194.876 307.673 195.246 306.647C195.636 305.599 196.191 304.695 196.91 303.935C197.628 303.155 198.501 302.539 199.528 302.087C200.555 301.635 201.726 301.409 203.04 301.409C203.903 301.409 204.694 301.491 205.412 301.656C206.131 301.799 206.83 302.015 207.507 302.303L206.552 305.969C206.121 305.804 205.649 305.661 205.135 305.537C204.622 305.414 204.047 305.353 203.41 305.353C202.054 305.353 201.038 305.774 200.36 306.616C199.703 307.458 199.374 308.567 199.374 309.943C199.374 311.401 199.682 312.531 200.298 313.332C200.935 314.133 202.034 314.533 203.595 314.533C204.149 314.533 204.745 314.482 205.382 314.379C206.018 314.277 206.604 314.112 207.138 313.886L207.785 317.645C207.251 317.871 206.583 318.066 205.782 318.23C204.981 318.395 204.098 318.477 203.133 318.477C201.654 318.477 200.381 318.261 199.313 317.83C198.245 317.378 197.361 316.772 196.663 316.012C195.985 315.252 195.482 314.359 195.153 313.332C194.845 312.284 194.691 311.155 194.691 309.943ZM210.095 309.943C210.095 308.772 210.28 307.673 210.65 306.647C211.04 305.599 211.595 304.695 212.313 303.935C213.032 303.155 213.905 302.539 214.932 302.087C215.959 301.635 217.13 301.409 218.444 301.409C219.307 301.409 220.097 301.491 220.816 301.656C221.535 301.799 222.233 302.015 222.911 302.303L221.956 305.969C221.525 305.804 221.052 305.661 220.539 305.537C220.026 305.414 219.45 305.353 218.814 305.353C217.458 305.353 216.442 305.774 215.764 306.616C215.107 307.458 214.778 308.567 214.778 309.943C214.778 311.401 215.086 312.531 215.702 313.332C216.339 314.133 217.438 314.533 218.999 314.533C219.553 314.533 220.149 314.482 220.785 314.379C221.422 314.277 222.008 314.112 222.542 313.886L223.189 317.645C222.655 317.871 221.987 318.066 221.186 318.23C220.385 318.395 219.502 318.477 218.537 318.477C217.058 318.477 215.784 318.261 214.716 317.83C213.648 317.378 212.765 316.772 212.067 316.012C211.389 315.252 210.886 314.359 210.557 313.332C210.249 312.284 210.095 311.155 210.095 309.943ZM241.026 301.841V318.045H236.405C236.405 317.018 236.415 316.002 236.436 314.995C236.456 313.969 236.477 313.024 236.497 312.161C236.518 311.299 236.539 310.549 236.559 309.912C236.6 309.255 236.621 308.772 236.621 308.464C236.025 309.306 235.429 310.159 234.834 311.021C234.238 311.884 233.663 312.736 233.109 313.578C232.575 314.4 232.061 315.191 231.568 315.95C231.096 316.71 230.675 317.409 230.305 318.045H226.269V301.841H230.86C230.86 302.867 230.849 303.853 230.829 304.798C230.829 305.722 230.819 306.564 230.798 307.324C230.777 308.084 230.757 308.752 230.736 309.327C230.716 309.881 230.706 310.313 230.706 310.621C231.938 308.813 233.068 307.191 234.094 305.753C235.142 304.315 236.159 303.011 237.144 301.841H241.026ZM260.901 318.477C259.916 318.477 258.991 318.323 258.129 318.015C257.266 317.686 256.496 317.234 255.818 316.659C255.161 316.063 254.606 315.345 254.155 314.503C253.723 313.64 253.425 312.685 253.261 311.637H249.934V318.045H245.344V301.841H249.934V307.879H253.323C253.508 306.893 253.826 306 254.278 305.199C254.73 304.398 255.284 303.72 255.941 303.165C256.619 302.59 257.369 302.159 258.19 301.871C259.032 301.563 259.936 301.409 260.901 301.409C262.011 301.409 263.037 301.615 263.982 302.025C264.927 302.416 265.749 302.98 266.447 303.72C267.145 304.459 267.689 305.353 268.08 306.4C268.47 307.448 268.665 308.618 268.665 309.912C268.665 311.206 268.47 312.387 268.08 313.455C267.689 314.503 267.145 315.406 266.447 316.166C265.749 316.906 264.927 317.481 263.982 317.891C263.037 318.282 262.011 318.477 260.901 318.477ZM260.901 305.353C259.957 305.353 259.207 305.774 258.653 306.616C258.098 307.437 257.821 308.536 257.821 309.912C257.821 311.288 258.098 312.408 258.653 313.27C259.207 314.112 259.957 314.533 260.901 314.533C261.846 314.533 262.596 314.112 263.15 313.27C263.705 312.408 263.982 311.288 263.982 309.912C263.982 308.536 263.705 307.437 263.15 306.616C262.596 305.774 261.846 305.353 260.901 305.353Z" fill="black"/>
</svg>
