<svg width="45" height="45" viewBox="0 0 45 45" fill="none" xmlns="http://www.w3.org/2000/svg">
<circle cx="21.5" cy="23.5" r="21.5" fill="#020105"/>
<path fill-rule="evenodd" clip-rule="evenodd" d="M13.5941 13.4931C13.7433 13.3634 13.9277 13.2809 14.1238 13.256C14.32 13.2311 14.5191 13.2649 14.6961 13.3531L32.6961 22.3531C32.8625 22.4361 33.0025 22.5637 33.1003 22.7218C33.1982 22.8799 33.25 23.0622 33.25 23.2481C33.25 23.434 33.1982 23.6163 33.1003 23.7744C33.0025 23.9325 32.8625 24.0602 32.6961 24.1431L14.6961 33.1431C14.5191 33.2316 14.3199 33.2657 14.1236 33.241C13.9273 33.2162 13.7428 33.1339 13.5933 33.0042C13.4439 32.8746 13.3362 32.7035 13.284 32.5127C13.2318 32.3218 13.2374 32.1198 13.3001 31.9321L15.8621 24.2481H21.2491C21.5143 24.2481 21.7686 24.1428 21.9562 23.9552C22.1437 23.7677 22.2491 23.5133 22.2491 23.2481C22.2491 22.9829 22.1437 22.7285 21.9562 22.541C21.7686 22.3535 21.5143 22.2481 21.2491 22.2481H15.8621L13.2991 14.5641C13.2367 14.3765 13.2314 14.1747 13.2837 13.984C13.336 13.7934 13.4447 13.6226 13.5941 13.4931Z" fill="#FEDE2B"/>
</svg>
