<svg width="32" height="33" viewBox="0 0 32 33" fill="none" xmlns="http://www.w3.org/2000/svg">
<g clip-path="url(#clip0_2916_45854)">
<path d="M16.0015 32.5C24.838 32.5 32.0015 25.3366 32.0015 16.5C32.0015 7.66344 24.838 0.5 16.0015 0.5C7.16491 0.5 0.00146484 7.66344 0.00146484 16.5C0.00146484 25.3366 7.16491 32.5 16.0015 32.5Z" fill="#F0F0F0"/>
<path d="M21.5664 16.4949C21.5664 17.8862 19.0748 21.3644 16.0012 21.3644C12.9277 21.3644 10.436 17.8862 10.436 16.4949C10.436 13.4212 12.9277 10.9297 16.0012 10.9297C19.0748 10.9297 21.5664 13.4212 21.5664 16.4949Z" fill="#D80027"/>
<path d="M21.5664 16.5C21.5664 19.5736 19.0748 22.0652 16.0012 22.0652C12.9277 22.0652 10.436 19.5736 10.436 16.5" fill="#0052B4"/>
<path d="M21.8997 21.4219L23.3751 19.9464L24.3588 20.9301L22.8833 22.4055L21.8997 21.4219Z" fill="black"/>
<path d="M19.439 23.8828L20.9144 22.4073L21.8981 23.391L20.4226 24.8665L19.439 23.8828Z" fill="black"/>
<path d="M24.8508 24.3672L26.3263 22.8917L27.31 23.8754L25.8345 25.3508L24.8508 24.3672Z" fill="black"/>
<path d="M22.3916 26.8281L23.8671 25.3527L24.8507 26.3363L23.3753 27.8118L22.3916 26.8281Z" fill="black"/>
<path d="M23.3752 22.8906L24.8507 21.4152L25.8344 22.3988L24.3589 23.8743L23.3752 22.8906Z" fill="black"/>
<path d="M20.9163 25.3516L22.3917 23.8761L23.3754 24.8598L21.8999 26.3352L20.9163 25.3516Z" fill="black"/>
<path d="M24.8569 11.5781L20.9223 7.64354L21.906 6.65988L25.8406 10.5945L24.8569 11.5781Z" fill="black"/>
<path d="M20.9221 10.6016L19.4467 9.1261L20.4303 8.14248L21.9057 9.61795L20.9221 10.6016Z" fill="black"/>
<path d="M23.3813 13.0547L21.9059 11.5792L22.8895 10.5956L24.365 12.0711L23.3813 13.0547Z" fill="black"/>
<path d="M23.873 7.64844L22.3976 6.17297L23.3812 5.18932L24.8567 6.66478L23.873 7.64844Z" fill="black"/>
<path d="M26.334 10.1094L24.8585 8.63391L25.8422 7.65025L27.3176 9.12572L26.334 10.1094Z" fill="black"/>
<path d="M5.67334 22.8906L9.60793 26.8252L8.62427 27.8089L4.68968 23.8743L5.67334 22.8906Z" fill="black"/>
<path d="M9.60815 23.875L11.0836 25.3505L10.1 26.3341L8.62454 24.8586L9.60815 23.875Z" fill="black"/>
<path d="M7.14746 21.4141L8.62293 22.8895L7.63927 23.8732L6.1638 22.3977L7.14746 21.4141Z" fill="black"/>
<path d="M8.62451 19.9453L12.5591 23.8799L11.5754 24.8636L7.64085 20.929L8.62451 19.9453Z" fill="black"/>
<path d="M9.60815 6.17188L5.67357 10.1065L4.68991 9.1228L8.6245 5.18822L9.60815 6.17188Z" fill="black"/>
<path d="M11.0837 7.64062L7.14915 11.5752L6.16549 10.5916L10.1001 6.65697L11.0837 7.64062Z" fill="black"/>
<path d="M12.5591 9.11719L8.62449 13.0518L7.64088 12.0682L11.5755 8.13357L12.5591 9.11719Z" fill="black"/>
</g>
<defs>
<clipPath id="clip0_2916_45854">
<rect width="32" height="32" fill="white" transform="translate(0 0.5)"/>
</clipPath>
</defs>
</svg>
