<svg width="62" height="70" viewBox="0 0 62 70" fill="none" xmlns="http://www.w3.org/2000/svg">
<path d="M61.6357 30.6362C61.6357 13.6423 47.7993 -0.119934 30.7775 0.000788207C13.9108 0.12028 0.219903 14.0377 0.364415 30.9043C0.48336 44.7883 9.83875 56.4671 22.5853 60.1003C23.7383 60.429 24.7236 61.1823 25.3224 62.2208L29.2128 68.9677C30.0064 70.3441 31.9927 70.3441 32.7863 68.9677L36.6766 62.2207C37.2752 61.1826 38.2598 60.4291 39.4122 60.1007C52.2414 56.4447 61.6357 44.6384 61.6357 30.6362Z" fill="#F24822"/>
<path d="M30.7767 0.000786437C29.7516 0.00803253 28.7385 0.0672318 27.7392 0.174009C43.1254 1.8026 55.114 14.8182 55.114 30.6363C55.114 44.6385 45.7197 56.4447 32.8905 60.1007C31.7381 60.4291 30.7535 61.1826 30.1549 62.2207L27.7383 66.4119L29.212 68.9677C30.0056 70.3441 31.992 70.3441 32.7855 68.9677L36.6759 62.2207C37.2744 61.1826 38.2591 60.4291 39.4115 60.1007C52.2406 56.4447 61.635 44.6385 61.635 30.6363C61.635 13.6423 47.7985 -0.1198 30.7767 0.000786437Z" fill="#D1403F"/>
<path d="M31.8844 47.7383H30.1131C28.9633 47.7383 28.0312 46.8061 28.0312 45.6563V44.2295C28.0312 43.0797 28.9634 42.1477 30.1131 42.1477H31.8844C33.0342 42.1477 33.9662 43.0799 33.9662 44.2295V45.6563C33.9662 46.8063 33.0342 47.7383 31.8844 47.7383Z" fill="white"/>
<path d="M31.8857 42.1477H30.1144C30.0467 42.1477 29.9801 42.1515 29.9141 42.1578C30.9698 42.2586 31.7957 43.1474 31.7957 44.2297V45.6565C31.7957 46.7386 30.9698 47.6274 29.9141 47.7282C29.98 47.7344 30.0467 47.7383 30.1144 47.7383H31.8857C33.0355 47.7383 33.9675 46.8061 33.9675 45.6563V44.2295C33.9675 43.0799 33.0355 42.1477 31.8857 42.1477Z" fill="white"/>
<path d="M30.9988 38.327C29.4929 38.327 28.272 37.1061 28.272 35.6001V29.6239C28.272 28.1179 29.4929 26.897 30.9988 26.897C33.4471 26.897 35.4387 24.9053 35.4387 22.4574C35.4387 20.0092 33.4469 18.0176 30.9988 18.0176C28.5508 18.0176 26.5592 20.0093 26.5592 22.4574C26.5592 23.9633 25.3383 25.1842 23.8323 25.1842C22.3264 25.1842 21.1055 23.9633 21.1055 22.4574C21.1055 17.002 25.5436 12.5637 30.999 12.5637C36.4543 12.5637 40.8926 17.002 40.8926 22.4574C40.8926 26.8977 37.9525 30.6642 33.9164 31.912C33.8032 31.947 33.726 32.0517 33.726 32.1701V35.6003C33.7258 37.1061 32.5049 38.327 30.9988 38.327Z" fill="white"/>
<path d="M30.999 18.0173C31.38 18.0173 31.75 18.0657 32.1031 18.1563C31.2911 17.2733 30.1271 16.7188 28.8357 16.7188C26.3876 16.7188 24.396 18.7105 24.396 21.1586C24.396 22.6645 23.1751 23.8854 21.6691 23.8854C21.6147 23.8854 21.5615 23.8804 21.5078 23.8772C21.987 24.6599 22.8475 25.1838 23.8324 25.1838C25.3384 25.1838 26.5593 23.9629 26.5593 22.457C26.5593 20.009 28.551 18.0173 30.999 18.0173Z" fill="white"/>
<path d="M34.9492 13.3892C37.2484 15.2025 38.7287 18.01 38.7287 21.1586C38.7287 25.2652 36.2139 28.7954 32.6432 30.2899C31.9863 30.5649 31.562 31.2111 31.562 31.9233V34.3014C31.562 35.8073 30.3411 37.0282 28.8352 37.0282C28.7807 37.0282 28.7276 37.0232 28.6738 37.0202C29.1484 37.7951 29.9966 38.3165 30.9695 38.3267C32.4853 38.3425 33.7253 37.049 33.7253 35.5332V32.1699C33.7253 32.0514 33.8026 31.9468 33.9158 31.9118C37.9518 30.6641 40.892 26.8975 40.892 22.4572C40.892 18.4061 38.4433 14.9175 34.9492 13.3892Z" fill="white"/>
</svg>
