<svg width="32" height="33" viewBox="0 0 32 33" fill="none" xmlns="http://www.w3.org/2000/svg">
<g clip-path="url(#clip0_2916_45851)">
<path d="M16.0002 32.5C24.8368 32.5 32.0002 25.3366 32.0002 16.5C32.0002 7.66344 24.8368 0.5 16.0002 0.5C7.16369 0.5 0.000244141 7.66344 0.000244141 16.5C0.000244141 25.3366 7.16369 32.5 16.0002 32.5Z" fill="#D80027"/>
<path d="M15.3458 13.5781L16.6586 15.3872L18.7846 14.6978L17.4698 16.5053L18.7824 18.3143L16.6571 17.6223L15.3423 19.4298L15.3436 17.1947L13.2183 16.5027L15.3444 15.8134L15.3458 13.5781Z" fill="#F0F0F0"/>
<path d="M11.7631 21.0245C9.2658 21.0245 7.2413 19 7.2413 16.5028C7.2413 14.0055 9.2658 11.981 11.7631 11.981C12.5417 11.981 13.2743 12.1779 13.9139 12.5245C12.9105 11.5431 11.5382 10.9375 10.0239 10.9375C6.9503 10.9375 4.45874 13.4291 4.45874 16.5027C4.45874 19.5763 6.95037 22.0679 10.0239 22.0679C11.5383 22.0679 12.9106 21.4622 13.9139 20.4809C13.2743 20.8276 12.5417 21.0245 11.7631 21.0245Z" fill="#F0F0F0"/>
</g>
<defs>
<clipPath id="clip0_2916_45851">
<rect width="32" height="32" fill="white" transform="translate(0 0.5)"/>
</clipPath>
</defs>
</svg>
