<svg width="32" height="33" viewBox="0 0 32 33" fill="none" xmlns="http://www.w3.org/2000/svg">
<g clip-path="url(#clip0_2916_45860)">
<path d="M16.0015 32.5C24.838 32.5 32.0015 25.3366 32.0015 16.5C32.0015 7.66344 24.838 0.5 16.0015 0.5C7.16491 0.5 0.00146484 7.66344 0.00146484 16.5C0.00146484 25.3366 7.16491 32.5 16.0015 32.5Z" fill="#F0F0F0"/>
<path d="M9.04346 22.0625L10.4348 31.5023C12.168 32.1454 14.0428 32.4973 16 32.4973C22.8793 32.4973 28.7441 28.1553 31.0047 22.0625H9.04346Z" fill="black"/>
<path d="M9.04346 10.9348L10.4348 1.49506C12.168 0.851875 14.0428 0.5 16 0.5C22.8793 0.5 28.7441 4.842 31.0047 10.9348H9.04346Z" fill="#6DA544"/>
<path d="M0.00146484 16.5048C0.00146484 23.3842 4.34353 29.2489 10.4363 31.5096V1.5C4.34353 3.76069 0.00146484 9.62537 0.00146484 16.5048Z" fill="#A2001D"/>
</g>
<defs>
<clipPath id="clip0_2916_45860">
<rect width="32" height="32" fill="white" transform="translate(0 0.5)"/>
</clipPath>
</defs>
</svg>
