<svg width="32" height="33" viewBox="0 0 32 33" fill="none" xmlns="http://www.w3.org/2000/svg">
<g clip-path="url(#clip0_2916_45863)">
<path d="M15.999 32.5C24.8356 32.5 31.999 25.3366 31.999 16.5C31.999 7.66344 24.8356 0.5 15.999 0.5C7.16247 0.5 -0.000976562 7.66344 -0.000976562 16.5C-0.000976562 25.3366 7.16247 32.5 15.999 32.5Z" fill="#F0F0F0"/>
<path d="M3.30905 6.76562C2.05223 8.40081 1.10455 10.2855 0.552734 12.3329H8.87636L3.30905 6.76562Z" fill="#0052B4"/>
<path d="M31.4512 12.3329C30.8994 10.2855 29.9516 8.40081 28.6949 6.76562L23.1277 12.3329H31.4512Z" fill="#0052B4"/>
<path d="M0.552734 20.6797C1.10461 22.7271 2.0523 24.6117 3.30905 26.2469L8.87617 20.6797H0.552734Z" fill="#0052B4"/>
<path d="M25.7423 3.81106C24.1071 2.55425 22.2225 1.60656 20.175 1.05469V9.37825L25.7423 3.81106Z" fill="#0052B4"/>
<path d="M6.25977 29.1921C7.89495 30.4489 9.77964 31.3966 11.827 31.9485V23.625L6.25977 29.1921Z" fill="#0052B4"/>
<path d="M11.827 1.05469C9.77958 1.60656 7.89489 2.55425 6.25977 3.811L11.827 9.37819V1.05469Z" fill="#0052B4"/>
<path d="M20.175 31.9485C22.2224 31.3966 24.1071 30.4489 25.7422 29.1922L20.175 23.625V31.9485Z" fill="#0052B4"/>
<path d="M23.1277 20.6797L28.6949 26.2469C29.9516 24.6118 30.8994 22.7271 31.4512 20.6797H23.1277Z" fill="#0052B4"/>
<path d="M31.8631 14.4131H18.0856H18.0855V0.635438C17.4023 0.5465 16.7058 0.5 15.9985 0.5C15.2911 0.5 14.5947 0.5465 13.9116 0.635438V14.4129V14.413H0.133973C0.0450352 15.0962 -0.00146484 15.7927 -0.00146484 16.5C-0.00146484 17.2074 0.0450352 17.9038 0.133973 18.5869H13.9115H13.9115V32.3646C14.5947 32.4535 15.2911 32.5 15.9985 32.5C16.7058 32.5 17.4023 32.4536 18.0855 32.3646V18.5871V18.587H31.8631C31.952 17.9038 31.9985 17.2074 31.9985 16.5C31.9985 15.7927 31.952 15.0962 31.8631 14.4131Z" fill="#D80027"/>
<path d="M20.1716 20.6798L27.3114 27.8195C27.6398 27.4913 27.953 27.1481 28.2519 26.7923L22.1393 20.6797H20.1716V20.6798Z" fill="#D80027"/>
<path d="M11.8251 20.6797H11.825L4.6853 27.8194C5.01355 28.1478 5.35674 28.461 5.71249 28.7599L11.8251 22.6471V20.6797Z" fill="#D80027"/>
<path d="M11.8241 12.3274V12.3273L4.6844 5.1875C4.35602 5.51575 4.04277 5.85894 3.7439 6.21469L9.85658 12.3274H11.8241V12.3274Z" fill="#D80027"/>
<path d="M20.1716 12.3225L27.3114 5.18263C26.9832 4.85425 26.64 4.541 26.2843 4.24219L20.1716 10.3549V12.3225Z" fill="#D80027"/>
</g>
<defs>
<clipPath id="clip0_2916_45863">
<rect width="32" height="32" fill="white" transform="translate(0 0.5)"/>
</clipPath>
</defs>
</svg>
