<svg width="32" height="33" viewBox="0 0 32 33" fill="none" xmlns="http://www.w3.org/2000/svg">
<g clip-path="url(#clip0_2916_45848)">
<path d="M16.0007 32.5C24.8373 32.5 32.0007 25.3366 32.0007 16.5C32.0007 7.66344 24.8373 0.5 16.0007 0.5C7.16418 0.5 0.000732422 7.66344 0.000732422 16.5C0.000732422 25.3366 7.16418 32.5 16.0007 32.5Z" fill="#F0F0F0"/>
<path d="M15.3052 16.5021H32.0008C32.0008 15.0579 31.8083 13.6589 31.4496 12.3281H15.3052V16.5021Z" fill="#D80027"/>
<path d="M15.3052 8.1505H29.6524C28.673 6.55225 27.4207 5.13956 25.9605 3.97656H15.3052V8.1505Z" fill="#D80027"/>
<path d="M16.0015 32.4939C19.7671 32.4939 23.2281 31.1924 25.9612 29.0156H6.04175C8.77487 31.1924 12.2359 32.4939 16.0015 32.4939Z" fill="#D80027"/>
<path d="M2.34992 24.8458H29.6532C30.4395 23.5627 31.0493 22.1603 31.4504 20.6719H0.552734C0.953797 22.1603 1.56361 23.5627 2.34992 24.8458V24.8458Z" fill="#D80027"/>
<path d="M7.41223 2.99863H8.87029L7.51404 3.98394L8.03211 5.57825L6.67592 4.59294L5.31973 5.57825L5.76723 4.20094C4.57311 5.19563 3.52648 6.361 2.66398 7.6595H3.13117L2.26786 8.28669C2.13336 8.51106 2.00436 8.739 1.88073 8.97031L2.29298 10.2391L1.52386 9.68031C1.33267 10.0854 1.15779 10.4996 1.00061 10.9224L1.45479 12.3204H3.13117L1.77492 13.3057L2.29298 14.9L0.936795 13.9147L0.12442 14.5049C0.0431074 15.1586 0.000732422 15.8243 0.000732422 16.5H16.0007C16.0007 7.6635 16.0007 6.62175 16.0007 0.5C12.84 0.5 9.89354 1.41688 7.41223 2.99863V2.99863ZM8.03211 14.9L6.67592 13.9147L5.31973 14.9L5.83779 13.3057L4.48154 12.3204H6.15792L6.67592 10.7261L7.19392 12.3204H8.87029L7.51404 13.3057L8.03211 14.9ZM7.51404 8.64481L8.03211 10.2391L6.67592 9.25381L5.31973 10.2391L5.83779 8.64481L4.48154 7.6595H6.15792L6.67592 6.06519L7.19392 7.6595H8.87029L7.51404 8.64481ZM13.7712 14.9L12.415 13.9147L11.0589 14.9L11.5769 13.3057L10.2207 12.3204H11.897L12.415 10.7261L12.933 12.3204H14.6094L13.2532 13.3057L13.7712 14.9ZM13.2532 8.64481L13.7712 10.2391L12.415 9.25381L11.0589 10.2391L11.5769 8.64481L10.2207 7.6595H11.897L12.415 6.06519L12.933 7.6595H14.6094L13.2532 8.64481ZM13.2532 3.98394L13.7712 5.57825L12.415 4.59294L11.0589 5.57825L11.5769 3.98394L10.2207 2.99863H11.897L12.415 1.40431L12.933 2.99863H14.6094L13.2532 3.98394Z" fill="#0052B4"/>
</g>
<defs>
<clipPath id="clip0_2916_45848">
<rect width="32" height="32" fill="white" transform="translate(0 0.5)"/>
</clipPath>
</defs>
</svg>
