<svg width="103" height="71" viewBox="0 0 103 71" fill="none" xmlns="http://www.w3.org/2000/svg">
<path d="M76.7518 17.3098L39.6228 0.510842C39.3018 0.296842 38.8738 0.296842 38.4458 0.510842L1.5308 17.3098C0.995805 17.5238 0.674805 18.0588 0.674805 18.5938V69.3118C0.674805 70.0608 1.3168 70.7028 2.0658 70.7028H12.4448C13.1938 70.7028 13.8358 70.0608 13.8358 69.3118V29.4008C13.8358 28.6518 14.4778 28.0098 15.2268 28.0098H63.0558C63.8048 28.0098 64.4468 28.6518 64.4468 29.4008V31.8618C64.4468 32.6108 65.0888 33.2528 65.8378 33.2528H76.1098C76.8588 33.2528 77.5008 32.6108 77.5008 31.8618V18.5938C77.5008 18.0588 77.1798 17.5238 76.7518 17.3098Z" fill="#9747FF"/>
<path d="M27.6394 60.2168H19.9354C19.1864 60.2168 18.5444 60.8588 18.5444 61.6078V69.3118C18.5444 70.0608 19.1864 70.7028 19.9354 70.7028H27.6394C28.3884 70.7028 29.0304 70.0608 29.0304 69.3118V61.6078C29.0304 60.8588 28.3884 60.2168 27.6394 60.2168Z" fill="#9747FF"/>
<path d="M42.9402 60.2168H35.2362C34.4872 60.2168 33.8452 60.8588 33.8452 61.6078V69.3118C33.8452 70.0608 34.4872 70.7028 35.2362 70.7028H42.9402C43.6892 70.7028 44.3312 70.0608 44.3312 69.3118V61.6078C44.3312 60.8588 43.6892 60.2168 42.9402 60.2168Z" fill="#9747FF"/>
<path d="M27.6394 46.521H19.9354C19.1864 46.521 18.5444 47.163 18.5444 47.912V55.616C18.5444 56.365 19.1864 57.007 19.9354 57.007H27.6394C28.3884 57.007 29.0304 56.365 29.0304 55.616V47.912C29.0304 47.163 28.3884 46.521 27.6394 46.521Z" fill="#9747FF"/>
<path d="M42.9402 46.521H35.2362C34.4872 46.521 33.8452 47.163 33.8452 47.912V55.616C33.8452 56.365 34.4872 57.007 35.2362 57.007H42.9402C43.6892 57.007 44.3312 56.365 44.3312 55.616V47.912C44.3312 47.163 43.6892 46.521 42.9402 46.521Z" fill="#9747FF"/>
<path d="M27.6394 32.9319H19.9354C19.1864 32.9319 18.5444 33.5739 18.5444 34.3229V41.9199C18.5444 42.6689 19.1864 43.3109 19.9354 43.3109H27.6394C28.3884 43.3109 29.0304 42.6689 29.0304 41.9199V34.2159C29.0304 33.5739 28.3884 32.9319 27.6394 32.9319Z" fill="#9747FF"/>
<path d="M42.9402 32.9319H35.2362C34.4872 32.9319 33.8452 33.5739 33.8452 34.3229V41.9199C33.8452 42.6689 34.4872 43.3109 35.2362 43.3109H42.9402C43.6892 43.3109 44.3312 42.6689 44.3312 41.9199V34.2159C44.3312 33.5739 43.6892 32.9319 42.9402 32.9319Z" fill="#9747FF"/>
<path d="M75.2525 59.7891H50.3215C49.6795 59.7891 49.1445 60.3241 49.1445 60.9661V64.6041C49.1445 65.2461 49.6795 65.7811 50.3215 65.7811H52.9965C53.2105 68.4561 55.4575 70.7031 58.2395 70.7031C61.0215 70.7031 63.2685 68.5631 63.4825 65.7811H75.1455C75.7875 65.7811 76.3225 65.2461 76.3225 64.6041V60.9661C76.4295 60.3241 75.8945 59.7891 75.2525 59.7891ZM58.3465 68.1351C56.8485 68.1351 55.5645 66.8511 55.5645 65.3531C55.5645 63.8551 56.8485 62.5711 58.3465 62.5711C59.8445 62.5711 61.1285 63.8551 61.1285 65.3531C61.1285 66.8511 59.8445 68.1351 58.3465 68.1351Z" fill="#9747FF"/>
<path d="M100.293 54.8669L94.194 54.0109L90.663 47.8049C89.7 46.0929 87.881 45.1299 86.062 45.1299H79.321C78.679 45.1299 78.144 45.6649 78.144 46.3069V64.4969C78.144 65.1389 78.679 65.6739 79.321 65.6739H87.881C88.095 68.3489 90.342 70.5959 93.124 70.5959C95.906 70.5959 98.153 68.4559 98.367 65.6739H99.972C101.256 65.6739 102.326 64.6039 102.326 63.3199V57.1139C102.326 56.0439 101.47 54.9739 100.293 54.8669ZM89.807 53.9039H82.21C82.103 53.9039 81.996 53.7969 81.996 53.6899V48.7679C81.996 48.6609 82.103 48.5539 82.21 48.5539H86.062C86.811 48.5539 87.453 48.9819 87.774 49.6239L90.021 53.5829C90.128 53.6899 90.021 53.9039 89.807 53.9039ZM93.017 68.1349C91.519 68.1349 90.235 66.8509 90.235 65.3529C90.235 63.8549 91.519 62.5709 93.017 62.5709C94.515 62.5709 95.799 63.8549 95.799 65.3529C95.799 66.8509 94.622 68.1349 93.017 68.1349Z" fill="#9747FF"/>
<path d="M50.3215 58.077H75.2525C75.8945 58.077 76.4295 57.542 76.4295 56.9V39.352C76.4295 38.71 75.8945 38.175 75.2525 38.175H50.3215C49.6795 38.175 49.1445 38.71 49.1445 39.352V56.9C49.1445 57.542 49.6795 58.077 50.3215 58.077Z" fill="#9747FF"/>
</svg>
