<svg width="47" height="47" viewBox="0 0 47 47" fill="none" xmlns="http://www.w3.org/2000/svg">
<g clip-path="url(#clip0_1207_21426)">
<circle cx="23.5" cy="23.5" r="23.5" fill="url(#paint0_linear_1207_21426)"/>
<path d="M17.9446 30.2987C18.5245 30.1104 19.1959 29.7495 19.869 29.1965C19.8777 29.1893 19.8863 29.1812 19.895 29.1739C20.4827 29.3298 21.0665 29.4176 21.6507 29.4551C23.1795 29.5415 24.6465 29.1569 25.8051 28.5346C26.9772 27.9197 27.8855 27.1226 28.6068 26.3412C29.3333 25.5588 29.8706 24.7734 30.2996 24.0685C30.3842 23.9281 30.4604 23.7926 30.5355 23.6579C30.5513 24.4566 30.5928 25.1838 30.6593 25.8011C30.8041 27.1459 31.0614 27.9871 31.3967 28.0059C31.732 28.0248 32.082 27.2178 32.3767 25.8977C32.5241 25.2377 32.6576 24.4494 32.7686 23.572C32.7943 23.3524 32.8206 23.1275 32.8475 22.8978C32.8594 22.7828 32.8714 22.6667 32.8835 22.5494C32.8999 22.3379 32.9164 22.1245 32.9331 21.9092C33.0028 20.9575 33.0678 19.9537 33.125 18.937C32.1578 19.2504 31.203 19.5707 30.3009 19.8808C30.0968 19.952 29.8945 20.0226 29.6941 20.0924C29.5838 20.1341 29.4745 20.1754 29.3664 20.2163C29.1512 20.3009 28.9405 20.3838 28.7347 20.4647C27.9147 20.7961 27.1867 21.1265 26.5862 21.4376C25.3852 22.0596 24.6943 22.6041 24.7982 22.9235C24.9021 23.2429 25.7811 23.2768 27.1182 23.0734C27.7868 22.9717 28.5699 22.8106 29.428 22.5963C29.5598 22.5621 29.6971 22.5264 29.8328 22.4911C29.2254 23.268 28.4403 24.2018 27.4041 25.1114C26.7019 25.7227 25.876 26.3107 24.9297 26.7173C24.4591 26.9263 23.9565 27.0788 23.434 27.1647C22.9119 27.2482 22.3696 27.2874 21.8145 27.2196C21.7435 27.2116 21.6712 27.1995 21.5995 27.1893C21.6505 27.1092 21.7017 27.0294 21.7513 26.9465C22.3011 26.0061 22.759 24.8876 22.9937 23.5976C23.1058 22.9515 23.1591 22.2607 23.099 21.5243C23.0348 20.7926 22.8664 19.9932 22.3839 19.2169C22.1586 18.8269 21.8131 18.467 21.42 18.1655C21.2099 18.0316 21.0006 17.8845 20.7659 17.7968C20.6506 17.7498 20.5344 17.6939 20.4166 17.6592L20.0594 17.567C19.9385 17.5331 19.8202 17.5171 19.7019 17.5055L19.3441 17.4687C19.0965 17.4775 18.8491 17.4615 18.5967 17.5144C18.0914 17.5786 17.5932 17.7783 17.1576 18.0458C16.2738 18.5936 15.6928 19.4321 15.3375 20.2906C14.9881 21.1589 14.8392 22.0807 14.8803 23.0024C14.9374 24.8411 15.7998 26.6294 17.1551 27.7659C17.5772 28.1241 18.0359 28.418 18.5086 28.654C18.1727 28.9821 17.8412 29.2472 17.5342 29.4453C16.6687 30.0143 16.0582 30.186 16.0868 30.3739C16.0979 30.457 16.2612 30.5102 16.5801 30.5307C16.8962 30.5428 17.3656 30.4906 17.9446 30.2987ZM17.7192 24.6136C17.476 24.093 17.33 23.5058 17.311 22.9046C17.2811 22.3042 17.3827 21.709 17.5811 21.1979C17.783 20.6906 18.0897 20.2779 18.4314 20.0601C18.6033 19.9521 18.7763 19.8665 18.9723 19.8404C19.0645 19.8078 19.1728 19.8263 19.2725 19.808L19.4345 19.8221C19.4896 19.8236 19.5434 19.8268 19.589 19.8421C19.637 19.8534 19.6854 19.8628 19.7344 19.8706C19.7821 19.8806 19.8197 19.9047 19.864 19.9179C19.9565 19.9384 20.022 19.9985 20.1041 20.0336C20.2437 20.1424 20.3909 20.2525 20.5017 20.4341C20.7448 20.7679 20.9017 21.2536 20.9729 21.7593C21.0465 22.267 21.0469 22.7987 20.9964 23.3146C20.888 24.3504 20.5972 25.3182 20.2278 26.1479C20.1345 26.3515 20.0366 26.5469 19.9352 26.7345C19.4896 26.5361 19.0746 26.2833 18.7158 25.9648C18.2955 25.598 17.9618 25.1348 17.7192 24.6136Z" fill="#FBFBFB"/>
</g>
<defs>
<linearGradient id="paint0_linear_1207_21426" x1="2.53294" y1="-6.94783" x2="1.34624" y2="46.9863" gradientUnits="userSpaceOnUse">
<stop stop-color="#FFB061"/>
<stop offset="1" stop-color="#FF6125"/>
</linearGradient>
<clipPath id="clip0_1207_21426">
<rect width="47" height="47" fill="white"/>
</clipPath>
</defs>
</svg>
