<svg width="33" height="33" viewBox="0 0 33 33" fill="none" xmlns="http://www.w3.org/2000/svg">
<path d="M16.5 30.25C18.306 30.2524 20.0947 29.8978 21.7632 29.2066C23.4318 28.5154 24.9473 27.5014 26.2226 26.2226C27.5014 24.9473 28.5154 23.4318 29.2066 21.7632C29.8978 20.0947 30.2524 18.306 30.25 16.5C30.2523 14.694 29.8977 12.9053 29.2065 11.2368C28.5154 9.56827 27.5013 8.05277 26.2226 6.77739C24.9473 5.49866 23.4318 4.48457 21.7632 3.79342C20.0947 3.10227 18.306 2.74767 16.5 2.75001C14.694 2.74771 12.9053 3.10232 11.2368 3.79347C9.56827 4.48462 8.05277 5.49869 6.77739 6.77739C5.49869 8.05277 4.48462 9.56827 3.79347 11.2368C3.10232 12.9053 2.74771 14.694 2.75001 16.5C2.74767 18.306 3.10227 20.0947 3.79342 21.7632C4.48457 23.4318 5.49866 24.9473 6.77739 26.2226C8.05277 27.5013 9.56827 28.5154 11.2368 29.2065C12.9053 29.8977 14.694 30.2523 16.5 30.25Z" stroke="black" stroke-width="2.75" stroke-linejoin="round"/>
<path fill-rule="evenodd" clip-rule="evenodd" d="M16.5 25.4375C16.9558 25.4375 17.393 25.2564 17.7153 24.9341C18.0377 24.6118 18.2188 24.1746 18.2188 23.7188C18.2188 23.2629 18.0377 22.8257 17.7153 22.5034C17.393 22.1811 16.9558 22 16.5 22C16.0442 22 15.607 22.1811 15.2847 22.5034C14.9623 22.8257 14.7812 23.2629 14.7812 23.7188C14.7812 24.1746 14.9623 24.6118 15.2847 24.9341C15.607 25.2564 16.0442 25.4375 16.5 25.4375Z" fill="black"/>
<path d="M16.5 8.25V19.25" stroke="black" stroke-width="2.75" stroke-linecap="round" stroke-linejoin="round"/>
</svg>
