<svg width="36" height="36" viewBox="0 0 36 36" fill="none" xmlns="http://www.w3.org/2000/svg">
<g filter="url(#filter0_biii_2218_49990)">
<rect width="36" height="36" rx="18" fill="url(#paint0_linear_2218_49990)"/>
<path d="M20 28.75H16C10.57 28.75 8.25 26.43 8.25 21V15C8.25 9.57 10.57 7.25 16 7.25H20C25.43 7.25 27.75 9.57 27.75 15V21C27.75 26.43 25.43 28.75 20 28.75ZM16 8.75C11.39 8.75 9.75 10.39 9.75 15V21C9.75 25.61 11.39 27.25 16 27.25H20C24.61 27.25 26.25 25.61 26.25 21V15C26.25 10.39 24.61 8.75 20 8.75H16Z" fill="#FBFBFB"/>
<path d="M21 16.8301H15C13.76 16.8301 12.75 15.8201 12.75 14.5801V13.5801C12.75 12.3401 13.76 11.3301 15 11.3301H21C22.24 11.3301 23.25 12.3401 23.25 13.5801V14.5801C23.25 15.8201 22.24 16.8301 21 16.8301ZM15 12.8301C14.59 12.8301 14.25 13.1701 14.25 13.5801V14.5801C14.25 14.9901 14.59 15.3301 15 15.3301H21C21.41 15.3301 21.75 14.9901 21.75 14.5801V13.5801C21.75 13.1701 21.41 12.8301 21 12.8301H15Z" fill="#FBFBFB"/>
<path d="M14.1502 20.9208C14.0202 20.9208 13.8902 20.8908 13.7702 20.8408C13.6502 20.7908 13.5402 20.7208 13.4502 20.6308C13.2602 20.4408 13.1602 20.1908 13.1602 19.9208C13.1602 19.7908 13.1802 19.6608 13.2302 19.5408C13.2802 19.4108 13.3502 19.3108 13.4502 19.2108C13.4902 19.1708 13.5402 19.1208 13.6002 19.0908C13.6502 19.0508 13.7102 19.0208 13.7702 19.0008C13.8302 18.9708 13.9002 18.9508 13.9602 18.9408C14.2802 18.8708 14.6302 18.9808 14.8602 19.2108C14.9502 19.3008 15.0302 19.4108 15.0802 19.5408C15.1302 19.6608 15.1602 19.7908 15.1602 19.9208C15.1602 20.1908 15.0502 20.4408 14.8602 20.6308C14.6702 20.8208 14.4202 20.9208 14.1502 20.9208Z" fill="#FBFBFB"/>
<path d="M18.1602 20.9199C17.8902 20.9199 17.6402 20.8199 17.4502 20.6299C17.2602 20.4399 17.1602 20.1899 17.1602 19.9199C17.1602 19.7899 17.1802 19.6599 17.2302 19.5399C17.2802 19.4099 17.3502 19.3099 17.4502 19.2099C17.4902 19.1699 17.5402 19.1199 17.6002 19.0899C17.6502 19.0499 17.7102 19.0199 17.7702 18.9999C17.8302 18.9699 17.9002 18.9499 17.9602 18.9399C18.1502 18.8999 18.3502 18.9199 18.5402 18.9999C18.6602 19.0499 18.7702 19.1199 18.8602 19.2099C18.9502 19.3099 19.0302 19.4099 19.0802 19.5399C19.1302 19.6599 19.1602 19.7899 19.1602 19.9199C19.1602 20.1899 19.0502 20.4399 18.8602 20.6299C18.6702 20.8199 18.4202 20.9199 18.1602 20.9199Z" fill="#FBFBFB"/>
<path d="M22.1502 20.9191C22.0202 20.9191 21.8902 20.8891 21.7702 20.8391C21.6502 20.7891 21.5402 20.7191 21.4502 20.6291C21.3502 20.5291 21.2802 20.4191 21.2302 20.2991C21.1802 20.1791 21.1602 20.0491 21.1602 19.9191C21.1602 19.7891 21.1802 19.6591 21.2302 19.5391C21.2802 19.4091 21.3502 19.3091 21.4502 19.2091C21.8202 18.8391 22.4902 18.8391 22.8602 19.2091C23.0502 19.3991 23.1602 19.6591 23.1602 19.9191C23.1602 20.1891 23.0502 20.4391 22.8602 20.6291C22.6802 20.8091 22.4302 20.9191 22.1502 20.9191Z" fill="#FBFBFB"/>
<path d="M14.1604 24.9209C13.8904 24.9209 13.6404 24.8209 13.4504 24.6309C13.2604 24.4409 13.1504 24.1909 13.1504 23.9209C13.1504 23.6609 13.2604 23.4009 13.4504 23.2109C13.4904 23.1709 13.5504 23.1209 13.6004 23.0909C13.6504 23.0509 13.7104 23.0209 13.7704 23.0009C13.8304 22.9709 13.9004 22.9509 13.9604 22.9409C14.2904 22.8809 14.6304 22.9809 14.8604 23.2109C14.9104 23.2609 14.9504 23.3109 14.9904 23.3609C15.0204 23.4209 15.0504 23.4809 15.0804 23.5409C15.1004 23.6009 15.1204 23.6609 15.1404 23.7209C15.1504 23.7909 15.1604 23.8509 15.1604 23.9209C15.1604 24.1909 15.0504 24.4409 14.8604 24.6309C14.6704 24.8209 14.4204 24.9209 14.1604 24.9209Z" fill="#FBFBFB"/>
<path d="M18.1604 24.9209C17.8904 24.9209 17.6404 24.8209 17.4504 24.6309C17.2604 24.4409 17.1504 24.1909 17.1504 23.9209C17.1504 23.6609 17.2604 23.4009 17.4504 23.2109C17.6804 22.9809 18.0304 22.8809 18.3504 22.9409C18.4104 22.9509 18.4804 22.9709 18.5404 23.0009C18.6004 23.0209 18.6604 23.0509 18.7104 23.0909C18.7604 23.1209 18.8104 23.1709 18.8604 23.2109C19.0504 23.4009 19.1504 23.6609 19.1504 23.9209C19.1504 24.1909 19.0504 24.4409 18.8604 24.6309C18.6704 24.8209 18.4204 24.9209 18.1604 24.9209Z" fill="#FBFBFB"/>
<path d="M22.1502 24.9202C21.8902 24.9202 21.6402 24.8202 21.4502 24.6302C21.2602 24.4402 21.1602 24.1902 21.1602 23.9202C21.1602 23.6602 21.2602 23.4002 21.4502 23.2102C21.5402 23.1202 21.6502 23.0502 21.7702 23.0002C22.1402 22.8502 22.5902 22.9302 22.8602 23.2102C23.0502 23.4002 23.1502 23.6602 23.1502 23.9202C23.1502 24.1902 23.0502 24.4402 22.8602 24.6302C22.7702 24.7202 22.6602 24.7902 22.5402 24.8402C22.4202 24.8902 22.2902 24.9202 22.1502 24.9202Z" fill="#FBFBFB"/>
</g>
<defs>
<filter id="filter0_biii_2218_49990" x="-69" y="-69" width="174" height="174" filterUnits="userSpaceOnUse" color-interpolation-filters="sRGB">
<feFlood flood-opacity="0" result="BackgroundImageFix"/>
<feGaussianBlur in="BackgroundImageFix" stdDeviation="34.5"/>
<feComposite in2="SourceAlpha" operator="in" result="effect1_backgroundBlur_2218_49990"/>
<feBlend mode="normal" in="SourceGraphic" in2="effect1_backgroundBlur_2218_49990" result="shape"/>
<feColorMatrix in="SourceAlpha" type="matrix" values="0 0 0 0 0 0 0 0 0 0 0 0 0 0 0 0 0 0 127 0" result="hardAlpha"/>
<feOffset dy="3"/>
<feGaussianBlur stdDeviation="1.5"/>
<feComposite in2="hardAlpha" operator="arithmetic" k2="-1" k3="1"/>
<feColorMatrix type="matrix" values="0 0 0 0 1 0 0 0 0 1 0 0 0 0 1 0 0 0 0.08 0"/>
<feBlend mode="normal" in2="shape" result="effect2_innerShadow_2218_49990"/>
<feColorMatrix in="SourceAlpha" type="matrix" values="0 0 0 0 0 0 0 0 0 0 0 0 0 0 0 0 0 0 127 0" result="hardAlpha"/>
<feOffset dy="-4"/>
<feGaussianBlur stdDeviation="2"/>
<feComposite in2="hardAlpha" operator="arithmetic" k2="-1" k3="1"/>
<feColorMatrix type="matrix" values="0 0 0 0 1 0 0 0 0 1 0 0 0 0 1 0 0 0 0.1 0"/>
<feBlend mode="normal" in2="effect2_innerShadow_2218_49990" result="effect3_innerShadow_2218_49990"/>
<feColorMatrix in="SourceAlpha" type="matrix" values="0 0 0 0 0 0 0 0 0 0 0 0 0 0 0 0 0 0 127 0" result="hardAlpha"/>
<feOffset dy="1"/>
<feGaussianBlur stdDeviation="0.5"/>
<feComposite in2="hardAlpha" operator="arithmetic" k2="-1" k3="1"/>
<feColorMatrix type="matrix" values="0 0 0 0 1 0 0 0 0 1 0 0 0 0 1 0 0 0 0.15 0"/>
<feBlend mode="normal" in2="effect3_innerShadow_2218_49990" result="effect4_innerShadow_2218_49990"/>
</filter>
<linearGradient id="paint0_linear_2218_49990" x1="18" y1="0" x2="18" y2="36" gradientUnits="userSpaceOnUse">
<stop stop-color="#969696"/>
<stop offset="1" stop-color="#DCDCDC"/>
</linearGradient>
</defs>
</svg>
