<svg width="31" height="31" viewBox="0 0 31 31" fill="none" xmlns="http://www.w3.org/2000/svg">
<g filter="url(#filter0_biii_2218_49986)">
<path fill-rule="evenodd" clip-rule="evenodd" d="M15.5 30.5C23.7843 30.5 30.5 23.7843 30.5 15.5C30.5 7.21573 23.7843 0.5 15.5 0.5C7.21573 0.5 0.5 7.21573 0.5 15.5C0.5 23.7843 7.21573 30.5 15.5 30.5Z" fill="url(#paint0_radial_2218_49986)"/>
<path d="M9.94458 22.2987C10.5245 22.1104 11.1959 21.7495 11.869 21.1965C11.8777 21.1893 11.8863 21.1812 11.895 21.1739C12.4827 21.3298 13.0665 21.4176 13.6507 21.4551C15.1795 21.5415 16.6465 21.1569 17.8051 20.5346C18.9772 19.9197 19.8855 19.1226 20.6068 18.3412C21.3333 17.5588 21.8706 16.7734 22.2996 16.0685C22.3842 15.9281 22.4604 15.7926 22.5355 15.6579C22.5513 16.4566 22.5928 17.1838 22.6593 17.8011C22.8041 19.1459 23.0614 19.9871 23.3967 20.0059C23.732 20.0248 24.082 19.2178 24.3767 17.8977C24.5241 17.2377 24.6576 16.4494 24.7686 15.572C24.7943 15.3524 24.8206 15.1275 24.8475 14.8978C24.8594 14.7828 24.8714 14.6667 24.8835 14.5494C24.8999 14.3379 24.9164 14.1245 24.9331 13.9092C25.0028 12.9575 25.0678 11.9537 25.125 10.937C24.1578 11.2504 23.203 11.5707 22.3009 11.8808C22.0968 11.952 21.8945 12.0226 21.6941 12.0924C21.5838 12.1341 21.4745 12.1754 21.3664 12.2163C21.1512 12.3009 20.9405 12.3838 20.7347 12.4647C19.9147 12.7961 19.1867 13.1265 18.5862 13.4376C17.3852 14.0596 16.6943 14.6041 16.7982 14.9235C16.9021 15.2429 17.7811 15.2768 19.1182 15.0734C19.7868 14.9717 20.5699 14.8106 21.428 14.5963C21.5598 14.5621 21.6971 14.5264 21.8328 14.4911C21.2254 15.268 20.4403 16.2018 19.4041 17.1114C18.7019 17.7227 17.876 18.3107 16.9297 18.7173C16.4591 18.9263 15.9565 19.0788 15.434 19.1647C14.9119 19.2482 14.3696 19.2874 13.8145 19.2196C13.7435 19.2116 13.6712 19.1995 13.5995 19.1893C13.6505 19.1092 13.7017 19.0294 13.7513 18.9465C14.3011 18.0061 14.759 16.8876 14.9937 15.5976C15.1058 14.9515 15.1591 14.2607 15.099 13.5243C15.0348 12.7926 14.8664 11.9932 14.3839 11.2169C14.1586 10.8269 13.8131 10.467 13.42 10.1655C13.2099 10.0316 13.0006 9.88446 12.7659 9.79684C12.6506 9.74976 12.5344 9.69391 12.4166 9.65916L12.0594 9.56696C11.9385 9.53312 11.8202 9.51712 11.7019 9.50548L11.3441 9.46875C11.0965 9.47749 10.8491 9.46146 10.5967 9.51444C10.0914 9.57856 9.59325 9.77832 9.15757 10.0458C8.27385 10.5936 7.69281 11.4321 7.3375 12.2906C6.98807 13.1589 6.83918 14.0807 6.88027 15.0024C6.9374 16.8411 7.79984 18.6294 9.15509 19.7659C9.57725 20.1241 10.0359 20.418 10.5086 20.654C10.1727 20.9821 9.84121 21.2472 9.53418 21.4453C8.66873 22.0143 8.05819 22.186 8.08678 22.3739C8.09793 22.457 8.26117 22.5102 8.58014 22.5307C8.89621 22.5428 9.36556 22.4906 9.94458 22.2987ZM9.71916 16.6136C9.47601 16.093 9.33003 15.5058 9.31097 14.9046C9.28107 14.3042 9.38273 13.709 9.58107 13.1979C9.78296 12.6906 10.0897 12.2779 10.4314 12.0601C10.6033 11.9521 10.7763 11.8665 10.9723 11.8404C11.0645 11.8078 11.1728 11.8263 11.2725 11.808L11.4345 11.8221C11.4896 11.8236 11.5434 11.8268 11.589 11.8421C11.637 11.8534 11.6854 11.8628 11.7344 11.8706C11.7821 11.8806 11.8197 11.9047 11.864 11.9179C11.9565 11.9384 12.022 11.9985 12.1041 12.0336C12.2437 12.1424 12.3909 12.2525 12.5017 12.4341C12.7448 12.7679 12.9017 13.2536 12.9729 13.7593C13.0465 14.267 13.0469 14.7987 12.9964 15.3146C12.888 16.3504 12.5972 17.3182 12.2278 18.1479C12.1345 18.3515 12.0366 18.5469 11.9352 18.7345C11.4896 18.5361 11.0746 18.2833 10.7158 17.9648C10.2955 17.598 9.96185 17.1348 9.71916 16.6136Z" fill="#FBFBFB"/>
</g>
<defs>
<filter id="filter0_biii_2218_49986" x="-69" y="-69" width="169" height="169" filterUnits="userSpaceOnUse" color-interpolation-filters="sRGB">
<feFlood flood-opacity="0" result="BackgroundImageFix"/>
<feGaussianBlur in="BackgroundImageFix" stdDeviation="34.5"/>
<feComposite in2="SourceAlpha" operator="in" result="effect1_backgroundBlur_2218_49986"/>
<feBlend mode="normal" in="SourceGraphic" in2="effect1_backgroundBlur_2218_49986" result="shape"/>
<feColorMatrix in="SourceAlpha" type="matrix" values="0 0 0 0 0 0 0 0 0 0 0 0 0 0 0 0 0 0 127 0" result="hardAlpha"/>
<feOffset dy="3"/>
<feGaussianBlur stdDeviation="1.5"/>
<feComposite in2="hardAlpha" operator="arithmetic" k2="-1" k3="1"/>
<feColorMatrix type="matrix" values="0 0 0 0 1 0 0 0 0 1 0 0 0 0 1 0 0 0 0.08 0"/>
<feBlend mode="normal" in2="shape" result="effect2_innerShadow_2218_49986"/>
<feColorMatrix in="SourceAlpha" type="matrix" values="0 0 0 0 0 0 0 0 0 0 0 0 0 0 0 0 0 0 127 0" result="hardAlpha"/>
<feOffset dy="-4"/>
<feGaussianBlur stdDeviation="2"/>
<feComposite in2="hardAlpha" operator="arithmetic" k2="-1" k3="1"/>
<feColorMatrix type="matrix" values="0 0 0 0 1 0 0 0 0 1 0 0 0 0 1 0 0 0 0.1 0"/>
<feBlend mode="normal" in2="effect2_innerShadow_2218_49986" result="effect3_innerShadow_2218_49986"/>
<feColorMatrix in="SourceAlpha" type="matrix" values="0 0 0 0 0 0 0 0 0 0 0 0 0 0 0 0 0 0 127 0" result="hardAlpha"/>
<feOffset dy="1"/>
<feGaussianBlur stdDeviation="0.5"/>
<feComposite in2="hardAlpha" operator="arithmetic" k2="-1" k3="1"/>
<feColorMatrix type="matrix" values="0 0 0 0 1 0 0 0 0 1 0 0 0 0 1 0 0 0 0.15 0"/>
<feBlend mode="normal" in2="effect3_innerShadow_2218_49986" result="effect4_innerShadow_2218_49986"/>
</filter>
<radialGradient id="paint0_radial_2218_49986" cx="0" cy="0" r="1" gradientUnits="userSpaceOnUse" gradientTransform="translate(15.5 15.5) rotate(90) scale(15)">
<stop stop-color="#40494A"/>
<stop offset="1" stop-color="#F9F9F9" stop-opacity="0"/>
</radialGradient>
</defs>
</svg>
