<svg width="26" height="26" viewBox="0 0 26 26" fill="none" xmlns="http://www.w3.org/2000/svg">
<g clip-path="url(#clip0_2170_75486)">
<path d="M-9.72983e-05 12.6108C-9.72983e-05 5.36169 5.6744 0 12.9999 0C20.3254 0 25.9999 5.36169 25.9999 12.6108C25.9999 19.8559 20.3254 25.2216 12.9999 25.2216C11.6877 25.2216 10.4227 25.0478 9.24209 24.7219C9.01141 24.6592 8.76606 24.6787 8.54821 24.7772L5.95797 25.9155C5.80168 25.9849 5.63069 26.0148 5.46012 26.0025C5.28954 25.9902 5.12462 25.9361 4.97991 25.845C4.8352 25.7538 4.71516 25.6284 4.63039 25.4799C4.54562 25.3314 4.49872 25.1643 4.49384 24.9933L4.41747 22.6744C4.41256 22.535 4.37968 22.398 4.32078 22.2716C4.26188 22.1451 4.17816 22.0318 4.07459 21.9383C2.77123 20.7628 1.73355 19.3229 1.03077 17.7146C0.327986 16.1063 -0.0237282 14.3666 -0.000909798 12.6116L-9.72983e-05 12.6108ZM9.01378 10.2367L5.20072 16.3053C4.81965 16.8764 5.54765 17.5411 6.08959 17.1178L10.1943 14.0075C10.3291 13.9024 10.4951 13.8453 10.666 13.8453C10.8369 13.8453 11.0029 13.9024 11.1377 14.0075L14.1675 16.2841C14.3834 16.4444 14.6301 16.5584 14.892 16.6192C15.154 16.6799 15.4257 16.686 15.6901 16.6372C15.9545 16.5883 16.2061 16.4855 16.429 16.3351C16.652 16.1848 16.8416 15.9901 16.986 15.7633L20.7991 9.69475C21.1802 9.12356 20.4522 8.47194 19.9102 8.88225L15.8055 11.9925C15.673 12.0974 15.5089 12.1545 15.3399 12.1545C15.1709 12.1545 15.0068 12.0974 14.8743 11.9925L11.8405 9.71588C11.6248 9.55285 11.3776 9.43648 11.1145 9.37418C10.8515 9.31188 10.5783 9.305 10.3125 9.35398C10.0466 9.40297 9.79384 9.50675 9.57026 9.65871C9.34668 9.81068 9.15717 10.0075 9.01378 10.2367Z" fill="black"/>
</g>
<defs>
<clipPath id="clip0_2170_75486">
<rect width="26" height="26" fill="white"/>
</clipPath>
</defs>
</svg>
