<svg width="24" height="24" viewBox="0 0 24 24" fill="none" xmlns="http://www.w3.org/2000/svg">
<path fill-rule="evenodd" clip-rule="evenodd" d="M20.25 9.97725V21.75C20.25 22.3714 19.7464 22.875 19.125 22.875H6.77625C6.40012 22.875 6.04913 22.6871 5.84025 22.374L3.939 19.5221C3.81562 19.3372 3.75 19.1201 3.75 18.8978V8.25C3.75 7.9515 3.8685 7.66537 4.07962 7.45463C4.29037 7.2435 4.5765 7.125 4.875 7.125H9.59475L11.2635 5.45587C10.7006 5.1825 10.3125 4.605 10.3125 3.9375C10.3125 3.7305 10.4805 3.5625 10.6875 3.5625C10.8945 3.5625 11.0625 3.7305 11.0625 3.9375C11.0625 4.455 11.4825 4.875 12 4.875C12.5175 4.875 12.9375 4.455 12.9375 3.9375C12.9375 3.5415 12.6911 3.20213 12.3401 3.07275C12.3368 3.07163 12.3334 3.07012 12.33 3.069C11.904 2.89725 11.625 2.48438 11.625 2.02538V1.5C11.625 1.293 11.793 1.125 12 1.125C12.2066 1.125 12.375 1.293 12.375 1.5V2.02538C12.375 2.17725 12.4669 2.31413 12.6041 2.37075C13.239 2.60662 13.6875 3.21975 13.6875 3.9375C13.6875 4.605 13.2994 5.1825 12.7365 5.45587L14.4053 7.125H17.9738C18.3499 7.125 18.7009 7.31288 18.9097 7.626L20.061 9.35287C20.118 9.43875 20.163 9.531 20.1945 9.62812C20.1964 9.63375 20.1982 9.63937 20.1998 9.645C20.2331 9.75225 20.25 9.864 20.25 9.97725ZM4.5 8.40525V18.8978C4.5 18.972 4.52175 19.0444 4.563 19.1059L6 21.2614V9.90525L4.5 8.40525ZM6.75 22.1243C6.75863 22.1246 6.76762 22.125 6.77625 22.125H19.125C19.332 22.125 19.5 21.957 19.5 21.75V15.75H6.75V22.1243ZM10.6552 7.125H13.3447L12 5.78025L10.6552 7.125ZM19.1741 9.375L18.2858 8.04187C18.216 7.93762 18.099 7.875 17.9738 7.875H5.03025L6.53025 9.375H19.1741ZM19.5 15V10.125H13.5V15H19.5ZM12.75 10.125H6.75V15H12.75V10.125ZM16.125 12.1553L15.7815 12.4988C15.6353 12.645 15.3975 12.645 15.2512 12.4988C15.1046 12.3525 15.1046 12.1147 15.2512 11.9685L16.2349 10.9849C16.3811 10.8383 16.6185 10.8383 16.7651 10.9849L17.7488 11.9685C17.895 12.1147 17.895 12.3525 17.7488 12.4988C17.6025 12.645 17.3647 12.645 17.2185 12.4988L16.875 12.1553V13.875C16.875 14.082 16.707 14.25 16.5 14.25C16.293 14.25 16.125 14.082 16.125 13.875V12.1553ZM12.75 17.7803L10.7651 19.7651C10.6189 19.9114 10.3811 19.9114 10.2349 19.7651C10.0886 19.6189 10.0886 19.3811 10.2349 19.2349L12.2194 17.25H11.7338C11.5268 17.25 11.3588 17.082 11.3588 16.875C11.3588 16.668 11.5268 16.5 11.7338 16.5H13.125C13.2247 16.5 13.3196 16.5394 13.3901 16.6099C13.4606 16.6804 13.5 16.7753 13.5 16.875V18.2663C13.5 18.4732 13.332 18.6413 13.125 18.6413C12.918 18.6413 12.75 18.4732 12.75 18.2663V17.7803ZM12.75 21V19.6087C12.75 19.4018 12.918 19.2337 13.125 19.2337C13.332 19.2337 13.5 19.4018 13.5 19.6087V20.0947L15.4849 18.1099C15.6311 17.9636 15.8689 17.9636 16.0151 18.1099C16.1614 18.2561 16.1614 18.4939 16.0151 18.6401L14.0303 20.625H14.5162C14.7232 20.625 14.8912 20.793 14.8912 21C14.8912 21.207 14.7232 21.375 14.5162 21.375H13.125C13.0253 21.375 12.9304 21.3356 12.8599 21.2651C12.7894 21.1946 12.75 21.0998 12.75 21ZM9.375 12.1553L9.0315 12.4988C8.88525 12.645 8.6475 12.645 8.50125 12.4988C8.35463 12.3525 8.35463 12.1147 8.50125 11.9685L9.48487 10.9849C9.63112 10.8383 9.86888 10.8383 10.0151 10.9849L10.9987 11.9685C11.145 12.1147 11.145 12.3525 10.9987 12.4988C10.8525 12.645 10.6147 12.645 10.4685 12.4988L10.125 12.1553V13.875C10.125 14.082 9.957 14.25 9.75 14.25C9.543 14.25 9.375 14.082 9.375 13.875V12.1553Z" fill="black"/>
</svg>
