<svg width="24" height="24" viewBox="0 0 24 24" fill="none" xmlns="http://www.w3.org/2000/svg">
<g clip-path="url(#clip0_2238_50702)">
<path d="M8.11133 8.82812H10.3C10.3995 8.82812 10.4949 8.78862 10.5652 8.71829C10.6355 8.64796 10.675 8.55258 10.675 8.45312C10.675 8.35367 10.6355 8.25829 10.5652 8.18796C10.4949 8.11763 10.3995 8.07812 10.3 8.07812H8.11133C8.01187 8.07812 7.91649 8.11763 7.84616 8.18796C7.77584 8.25829 7.73633 8.35367 7.73633 8.45312C7.73633 8.55258 7.77584 8.64796 7.84616 8.71829C7.91649 8.78862 8.01187 8.82812 8.11133 8.82812Z" fill="black"/>
<path d="M8.11133 10.5078H11.0119C11.1114 10.5078 11.2068 10.4683 11.2771 10.398C11.3474 10.3277 11.3869 10.2323 11.3869 10.1328C11.3869 10.0334 11.3474 9.93797 11.2771 9.86765C11.2068 9.79732 11.1114 9.75781 11.0119 9.75781H8.11133C8.01187 9.75781 7.91649 9.79732 7.84616 9.86765C7.77584 9.93797 7.73633 10.0334 7.73633 10.1328C7.73633 10.2323 7.77584 10.3277 7.84616 10.398C7.91649 10.4683 8.01187 10.5078 8.11133 10.5078Z" fill="black"/>
<path d="M2.67383 19.7031H4.86252C4.96197 19.7031 5.05735 19.6636 5.12768 19.5933C5.19801 19.523 5.23752 19.4276 5.23752 19.3281C5.23752 19.2287 5.19801 19.1333 5.12768 19.063C5.05735 18.9926 4.96197 18.9531 4.86252 18.9531H2.67383C2.57437 18.9531 2.47899 18.9926 2.40866 19.063C2.33834 19.1333 2.29883 19.2287 2.29883 19.3281C2.29883 19.4276 2.33834 19.523 2.40866 19.5933C2.47899 19.6636 2.57437 19.7031 2.67383 19.7031Z" fill="black"/>
<path d="M5.57442 20.6328H2.67383C2.57437 20.6328 2.47899 20.6723 2.40866 20.7426C2.33834 20.813 2.29883 20.9084 2.29883 21.0078C2.29883 21.1073 2.33834 21.2027 2.40866 21.273C2.47899 21.3433 2.57437 21.3828 2.67383 21.3828H5.57442C5.67387 21.3828 5.76925 21.3433 5.83958 21.273C5.90991 21.2027 5.94942 21.1073 5.94942 21.0078C5.94942 20.9084 5.90991 20.813 5.83958 20.7426C5.76925 20.6723 5.67387 20.6328 5.57442 20.6328Z" fill="black"/>
<path d="M22.875 11.625H17.8125V1.125C17.8125 1.02554 17.773 0.930161 17.7027 0.859835C17.6323 0.789509 17.537 0.75 17.4375 0.75H6.5625C6.46304 0.75 6.36766 0.789509 6.29733 0.859835C6.22701 0.930161 6.1875 1.02554 6.1875 1.125V11.625H1.125C1.02554 11.625 0.930161 11.6645 0.859835 11.7348C0.789509 11.8052 0.75 11.9005 0.75 12V22.875C0.75 22.9745 0.789509 23.0698 0.859835 23.1402C0.930161 23.2105 1.02554 23.25 1.125 23.25H22.875C22.9745 23.25 23.0698 23.2105 23.1402 23.1402C23.2105 23.0698 23.25 22.9745 23.25 22.875V12C23.25 11.9005 23.2105 11.8052 23.1402 11.7348C23.0698 11.6645 22.9745 11.625 22.875 11.625ZM16.6959 12.375H18.1791V14.9019H16.6959V12.375ZM12.7416 1.5V4.02686H11.2584V1.5H12.7416ZM6.9375 1.5H10.5084V4.40186C10.5084 4.50132 10.5479 4.5967 10.6183 4.66703C10.6886 4.73735 10.784 4.77686 10.8834 4.77686H13.1166C13.216 4.77686 13.3114 4.73735 13.3817 4.66703C13.4521 4.5967 13.4916 4.50132 13.4916 4.40186V1.5H17.0625V11.625H6.9375V1.5ZM7.30406 12.375V14.9019H5.82094V12.375H7.30406ZM1.5 12.375H5.07094V15.2769C5.07094 15.3763 5.11045 15.4717 5.18077 15.542C5.2511 15.6124 5.34648 15.6519 5.44594 15.6519H7.67906C7.77852 15.6519 7.8739 15.6124 7.94423 15.542C8.01455 15.4717 8.05406 15.3763 8.05406 15.2769V12.375H11.625V22.5H1.5V12.375ZM22.5 22.5H12.375V12.375H15.9459V15.2769C15.9459 15.3763 15.9854 15.4717 16.0558 15.542C16.1261 15.6124 16.2215 15.6519 16.3209 15.6519H18.5541C18.6535 15.6519 18.7489 15.6124 18.8192 15.542C18.8896 15.4717 18.9291 15.3763 18.9291 15.2769V12.375H22.5V22.5Z" fill="black"/>
<path d="M13.5488 19.7031H15.7375C15.837 19.7031 15.9324 19.6636 16.0027 19.5933C16.073 19.523 16.1125 19.4276 16.1125 19.3281C16.1125 19.2287 16.073 19.1333 16.0027 19.063C15.9324 18.9926 15.837 18.9531 15.7375 18.9531H13.5488C13.4494 18.9531 13.354 18.9926 13.2837 19.063C13.2133 19.1333 13.1738 19.2287 13.1738 19.3281C13.1738 19.4276 13.2133 19.523 13.2837 19.5933C13.354 19.6636 13.4494 19.7031 13.5488 19.7031Z" fill="black"/>
<path d="M16.4494 20.6328H13.5488C13.4494 20.6328 13.354 20.6723 13.2837 20.7426C13.2133 20.813 13.1738 20.9084 13.1738 21.0078C13.1738 21.1073 13.2133 21.2027 13.2837 21.273C13.354 21.3433 13.4494 21.3828 13.5488 21.3828H16.4494C16.5489 21.3828 16.6443 21.3433 16.7146 21.273C16.7849 21.2027 16.8244 21.1073 16.8244 21.0078C16.8244 20.9084 16.7849 20.813 16.7146 20.7426C16.6443 20.6723 16.5489 20.6328 16.4494 20.6328Z" fill="black"/>
</g>
<defs>
<clipPath id="clip0_2238_50702">
<rect width="24" height="24" fill="white"/>
</clipPath>
</defs>
</svg>
