<svg width="89" height="84" viewBox="0 0 89 84" fill="none" xmlns="http://www.w3.org/2000/svg">
<path d="M87.3811 55.43L68.8485 36.8975C66.6896 34.7386 63.1898 34.7386 61.0308 36.8975C58.8719 39.0583 58.8719 42.5582 61.0308 44.7171L66.6637 50.3499C28.8549 52.2065 4.27042 26.8319 4.04414 0.821113C4.03672 -0.119237 2.71615 -0.310275 2.4231 0.554031C-6.7059 27.5942 9.89768 61.5562 53.2929 67.6973C57.4957 68.2444 61.7468 68.6599 66.0312 68.9603L61.029 73.9626C58.8701 76.1215 58.8701 79.6232 61.029 81.7803C63.1879 83.9392 66.6878 83.941 68.8467 81.7803L87.3792 63.2478C89.54 61.0888 89.54 57.589 87.3811 55.43Z" fill="url(#paint0_linear_2814_83677)"/>
<defs>
<linearGradient id="paint0_linear_2814_83677" x1="39.9701" y1="83.4001" x2="41.4502" y2="0.0120841" gradientUnits="userSpaceOnUse">
<stop stop-color="#D660F2"/>
<stop offset="1" stop-color="#F897C7"/>
</linearGradient>
</defs>
</svg>
