<svg width="80" height="80" viewBox="0 0 80 80" fill="none" xmlns="http://www.w3.org/2000/svg">
<circle cx="40" cy="40" r="40" fill="#9747FF"/>
<path d="M58.8426 42.0255C59.071 41.6068 59.1091 41.15 58.9949 40.6933L57.0916 33.1184C57.0155 32.8519 56.8252 32.4713 56.6729 32.2809C56.1781 31.6719 55.4168 31.3293 54.6174 31.2532C53.818 31.2151 52.9806 31.5196 52.4096 32.0906C52.029 32.4713 51.9148 32.7377 51.8767 32.8138L49.5928 37.4197L46.3193 38.4094C45.5199 38.6378 44.987 39.3991 45.1393 40.1984C45.2915 40.9597 45.9386 41.4926 46.6619 41.4926C46.8141 41.4926 46.9664 41.4546 47.0806 41.4165L51.0774 40.2365C51.4961 40.1223 51.8387 39.8178 52.029 39.4371L52.5238 38.4855L53.2851 41.9494C53.3232 42.1017 53.3232 42.2539 53.2471 42.4062L51.4961 47.4307C51.3819 47.7353 51.3438 48.0778 51.42 48.4204L52.9806 56.6424C53.1709 57.5179 53.9322 58.165 54.8077 58.165C54.9981 58.165 55.1503 58.1269 55.3406 58.0889C56.2542 57.8224 56.7871 56.8327 56.6348 55.9192L55.531 48.6488C55.4929 48.4965 55.531 48.3443 55.6071 48.2301L58.8426 42.0255Z" fill="#FBFBFB"/>
<path d="M42.094 32.3555H36.3462C35.8894 32.3555 35.5088 32.7361 35.5088 33.231V34.9819C35.8514 35.4768 36.1178 35.9336 36.3082 36.2L38.7443 36.8471C39.3533 36.9994 39.8862 37.4181 40.2288 37.9891C40.5714 38.56 40.6475 39.1691 40.4953 39.8162H42.1321C42.6269 39.8162 43.0076 39.4355 43.0076 38.9787V33.1929C42.9695 32.7361 42.5888 32.3555 42.094 32.3555Z" fill="#FBFBFB"/>
<path d="M38.5535 37.6075L35.8128 36.8843C35.8128 36.8843 33.3767 33.1539 33.0722 32.6972C32.7677 32.2404 32.0825 31.3268 30.598 31.2507C29.1134 31.1746 27.7431 32.0501 27.4005 33.4204C27.2863 34.0294 25.7637 41.3379 25.6495 41.8327C25.5353 42.3276 25.4973 43.0127 25.5353 43.6979C25.5734 44.3831 25.6876 48.0373 25.6876 48.0373L23.0231 55.7264C22.6805 56.6399 23.1753 57.6677 24.0889 58.0103C24.2792 58.0864 24.5076 58.1245 24.6979 58.1245C25.4211 58.1245 26.1063 57.7057 26.3728 56.9825L29.4941 48.9508C29.5702 48.7224 29.6083 48.4941 29.6083 48.2657L29.5702 46.4386L31.2831 48.9889L32.3109 56.5638C32.4251 57.4774 33.1864 58.1245 34.0999 58.1245C34.1761 58.1245 34.2522 58.1245 34.3283 58.1245C35.318 58.0103 36.0032 57.1348 35.889 56.1831L35.0896 48.1515C35.0515 47.847 34.9374 47.5424 34.7851 47.314L31.5496 42.7082C31.816 41.6043 32.2728 39.625 32.6535 37.9882L33.4528 39.2062C33.6812 39.5488 34.0238 39.7772 34.4044 39.8914L37.7541 40.7669C37.9064 40.805 38.0206 40.805 38.1729 40.805C38.8961 40.805 39.5432 40.3101 39.7716 39.5869C39.9619 38.7495 39.429 37.8359 38.5535 37.6075Z" fill="#FBFBFB"/>
<path d="M31.3595 30.6428C33.1885 30.6428 34.6711 29.1601 34.6711 27.3312C34.6711 25.5022 33.1885 24.0195 31.3595 24.0195C29.5305 24.0195 28.0479 25.5022 28.0479 27.3312C28.0479 29.1601 29.5305 30.6428 31.3595 30.6428Z" fill="#FBFBFB"/>
<path d="M53.2081 30.6428C55.0371 30.6428 56.5198 29.1601 56.5198 27.3312C56.5198 25.5022 55.0371 24.0195 53.2081 24.0195C51.3792 24.0195 49.8965 25.5022 49.8965 27.3312C49.8965 29.1601 51.3792 30.6428 53.2081 30.6428Z" fill="#FBFBFB"/>
</svg>
