<svg width="161" height="106" viewBox="0 0 161 106" fill="none" xmlns="http://www.w3.org/2000/svg">
<path d="M14.5663 96.5716C31.8567 103.143 71.5569 106.186 92.0349 65.7882C99.7142 50.6389 116.613 16.82 146.658 9.9978" stroke="black" stroke-width="3"/>
<circle cx="9" cy="93" r="7.5" stroke="#FEDE2B" stroke-width="3"/>
<path d="M145 1.00057L145 19.0006C145.001 19.1828 145.051 19.3614 145.146 19.5172C145.24 19.673 145.376 19.8001 145.537 19.8848C145.698 19.9694 145.88 20.0085 146.062 19.9977C146.244 19.9869 146.419 19.9267 146.569 19.8236L159.569 10.8236C160.108 10.4506 160.108 9.55257 159.569 9.17857L146.569 0.178573C146.419 0.074398 146.244 0.0133073 146.062 0.00193832C145.879 -0.00943065 145.698 0.029357 145.536 0.114087C145.374 0.198817 145.239 0.326249 145.144 0.482537C145.05 0.638826 145 0.817993 145 1.00057Z" fill="#FEDE2B"/>
</svg>
