<svg width="80" height="80" viewBox="0 0 80 80" fill="none" xmlns="http://www.w3.org/2000/svg">
<circle cx="40" cy="40" r="40" fill="#9747FF"/>
<path d="M40.3359 40.0066C34.7885 37.4899 33.4691 31.7951 33.185 29.9759L46.9116 29.9975C46.6599 31.6405 45.6856 36.4293 42.1803 38.8957C42.092 38.9616 42.0267 39.0536 41.9936 39.1586C41.9605 39.2637 41.9613 39.3766 41.9959 39.4811C42.0305 39.5857 42.0971 39.6768 42.1864 39.7414C42.2756 39.806 42.3829 39.8409 42.4931 39.8412C42.6038 39.8465 42.713 39.8135 42.8022 39.7477C47.1668 36.6846 47.9146 30.6267 48.0117 29.5948C48.0156 29.5518 48.0156 29.5085 48.0117 29.4654V27.8619C48.0127 27.7921 47.9997 27.7228 47.9735 27.658C47.9473 27.5933 47.9085 27.5344 47.8593 27.4848C47.8101 27.4353 47.7514 27.3961 47.6869 27.3694C47.6223 27.3428 47.5531 27.3294 47.4832 27.3299L32.5667 27.3047C32.4306 27.3112 32.3024 27.3704 32.2092 27.4696C32.1159 27.5689 32.0649 27.7006 32.0669 27.8368V29.4402C32.0615 29.476 32.0615 29.5124 32.0669 29.5481C32.1388 30.4289 32.9765 37.8171 39.8937 40.9701C45.8977 43.6953 46.7929 48.2828 46.9152 49.8143L33.1455 49.7927C33.336 48.3187 34.2241 44.2417 38.017 41.9875C38.077 41.9509 38.1291 41.9029 38.1705 41.8462C38.2119 41.7894 38.2417 41.7251 38.2583 41.6568C38.2748 41.5885 38.2777 41.5177 38.2668 41.4483C38.256 41.3789 38.2316 41.3123 38.195 41.2523C38.1584 41.1924 38.1103 41.1402 38.0536 41.0988C37.9968 41.0574 37.9325 41.0276 37.8642 41.0111C37.796 40.9945 37.7251 40.9916 37.6557 41.0025C37.5863 41.0133 37.5197 41.0378 37.4598 41.0744C32.3438 44.1339 32.0274 49.9833 32.0166 50.2889V51.9858C32.0166 52.1263 32.0722 52.2611 32.1712 52.3608C32.2702 52.4605 32.4046 52.517 32.5451 52.5179L47.458 52.5575C47.5982 52.5575 47.7326 52.5018 47.8317 52.4027C47.9309 52.3036 47.9865 52.1691 47.9865 52.029V50.3428C48.0045 49.915 48.0369 43.5155 40.3359 40.0066Z" fill="#FBFBFB"/>
<path d="M54.8674 48.2864L51.1751 47.9484C51.0473 47.9371 50.9257 47.8879 50.8258 47.8073C50.7259 47.7266 50.6523 47.6181 50.6143 47.4954C50.5936 47.428 50.585 47.3574 50.5891 47.2869L50.715 43.5731C50.7314 43.4097 50.8092 43.2587 50.9328 43.1506C51.0564 43.0425 51.2164 42.9854 51.3805 42.9909C51.5446 42.9964 51.7004 43.0641 51.8165 43.1802C51.9326 43.2962 52.0002 43.4521 52.0056 43.6162L51.9158 46.2335C53.8284 43.929 54.7272 41.5597 54.5798 39.1905C54.3461 35.3256 51.4304 32.7191 51.4016 32.7191C51.338 32.6632 51.2861 32.5953 51.2488 32.5194C51.2114 32.4434 51.1895 32.3608 51.1841 32.2763C51.1788 32.1918 51.1902 32.107 51.2176 32.0269C51.2451 31.9469 51.2881 31.873 51.3441 31.8095C51.4576 31.6812 51.6172 31.6027 51.7882 31.5913C51.9591 31.5799 52.1277 31.6363 52.2573 31.7484C52.3939 31.8599 55.6009 34.736 55.8525 39.1222C56.0179 41.7575 55.0795 44.3532 53.0806 46.8411L54.9681 47.0137C55.1383 47.0294 55.2953 47.1121 55.4045 47.2436C55.5137 47.3751 55.5663 47.5445 55.5505 47.7147C55.5348 47.8849 55.4521 48.0419 55.3206 48.1512C55.1891 48.2604 55.0197 48.3129 54.8495 48.2972L54.8674 48.2864Z" fill="#FBFBFB"/>
<path d="M25.1707 32.1395L28.863 32.4774C28.9906 32.488 29.1121 32.5365 29.212 32.6165C29.3119 32.6966 29.3857 32.8046 29.4239 32.9268C29.4446 32.9943 29.4531 33.0649 29.449 33.1353L29.3232 36.8456C29.3068 37.0089 29.2289 37.1599 29.1054 37.268C28.9818 37.3761 28.8218 37.4332 28.6577 37.4277C28.4936 37.4222 28.3377 37.3546 28.2217 37.2385C28.1056 37.1224 28.038 36.9665 28.0325 36.8024L28.1116 34.1815C26.199 36.4861 25.3002 38.8553 25.4476 41.2246C25.6812 45.0894 28.597 47.6959 28.6257 47.7175C28.6893 47.7734 28.7413 47.8413 28.7786 47.9173C28.8159 47.9933 28.8379 48.0759 28.8433 48.1604C28.8486 48.2449 28.8372 48.3296 28.8098 48.4097C28.7823 48.4898 28.7393 48.5637 28.6833 48.6271C28.5692 48.755 28.4094 48.8327 28.2385 48.8435C28.0675 48.8542 27.8992 48.7972 27.7701 48.6846C27.6334 48.5732 24.4265 45.697 24.1749 41.3144C24.0095 38.6791 24.9478 36.0798 26.9468 33.5955L25.0593 33.4229C24.975 33.4152 24.8931 33.3908 24.8182 33.3514C24.7433 33.3119 24.677 33.2581 24.6229 33.193C24.5136 33.0616 24.4611 32.8921 24.4769 32.7219C24.4926 32.5517 24.5753 32.3947 24.7068 32.2855C24.8382 32.1762 25.0077 32.1237 25.1779 32.1395H25.1707Z" fill="#FBFBFB"/>
<path d="M45.7717 33.0988C44.2904 37.6611 41.0548 39.2574 40.3357 39.5594C40.2914 39.5808 40.2429 39.5918 40.1937 39.5918C40.1445 39.5918 40.096 39.5808 40.0517 39.5594C39.3111 39.1532 35.759 37.0428 34.2993 32.8076C34.2852 32.7665 34.2792 32.7231 34.2819 32.6797C34.2845 32.6363 34.2956 32.5939 34.3147 32.5548C34.3337 32.5158 34.3602 32.4808 34.3928 32.452C34.4253 32.4232 34.4632 32.4011 34.5043 32.387C35.3384 32.0957 37.686 31.445 39.1781 32.6997C40.6701 33.9545 44.01 33.0952 45.3834 32.6997C45.4376 32.6896 45.4934 32.693 45.5459 32.7097C45.5984 32.7264 45.646 32.7558 45.6845 32.7952C45.7229 32.8347 45.751 32.8831 45.7662 32.9361C45.7814 32.989 45.7833 33.0449 45.7717 33.0988Z" fill="#FBFBFB"/>
<path d="M33.6274 49.0667C34.1774 47.1936 37.2549 46.6399 38.0674 45.414C39.6925 42.9656 40.4079 43.131 41.6806 45.493C42.3565 46.7406 45.7432 46.8952 46.3975 49.0667C46.4082 49.1105 46.4085 49.1562 46.3984 49.2001C46.3884 49.244 46.3683 49.285 46.3397 49.3199C46.3111 49.3547 46.2749 49.3825 46.2337 49.4009C46.1926 49.4194 46.1478 49.428 46.1027 49.4262H33.9258C33.8806 49.4279 33.8357 49.4191 33.7945 49.4007C33.7533 49.3823 33.7169 49.3546 33.6881 49.3199C33.6592 49.2851 33.6388 49.2443 33.6282 49.2004C33.6177 49.1565 33.6174 49.1107 33.6274 49.0667Z" fill="#FBFBFB"/>
<path d="M40.1666 41.3164H40.1055C40.0559 41.3164 40.0156 41.3566 40.0156 41.4063V41.5285C40.0156 41.5782 40.0559 41.6184 40.1055 41.6184H40.1666C40.2163 41.6184 40.2565 41.5782 40.2565 41.5285V41.4063C40.2565 41.3566 40.2163 41.3164 40.1666 41.3164Z" fill="#FEDE2B"/>
<path d="M40.1666 43.1484H40.1055C40.0559 43.1484 40.0156 43.1887 40.0156 43.2383V43.3606C40.0156 43.4102 40.0559 43.4504 40.1055 43.4504H40.1666C40.2163 43.4504 40.2565 43.4102 40.2565 43.3606V43.2383C40.2565 43.1887 40.2163 43.1484 40.1666 43.1484Z" fill="#FEDE2B"/>
<path d="M39.807 41.8242H39.7459C39.6962 41.8242 39.656 41.8645 39.656 41.9141V42.0363C39.656 42.086 39.6962 42.1262 39.7459 42.1262H39.807C39.8566 42.1262 39.8969 42.086 39.8969 42.0363V41.9141C39.8969 41.8645 39.8566 41.8242 39.807 41.8242Z" fill="#FEDE2B"/>
<path d="M39.8072 42.582H39.7461C39.6965 42.582 39.6562 42.6223 39.6562 42.6719V42.7941C39.6562 42.8438 39.6965 42.884 39.7461 42.884H39.8072C39.8569 42.884 39.8971 42.8438 39.8971 42.7941V42.6719C39.8971 42.6223 39.8569 42.582 39.8072 42.582Z" fill="#FEDE2B"/>
<path d="M40.4078 42.125H40.3467C40.2971 42.125 40.2568 42.1652 40.2568 42.2149V42.3371C40.2568 42.3868 40.2971 42.427 40.3467 42.427H40.4078C40.4575 42.427 40.4977 42.3868 40.4977 42.3371V42.2149C40.4977 42.1652 40.4575 42.125 40.4078 42.125Z" fill="#FEDE2B"/>
</svg>
