<svg width="80" height="80" viewBox="0 0 80 80" fill="none" xmlns="http://www.w3.org/2000/svg">
<circle cx="40" cy="40" r="40" fill="#9747FF"/>
<path d="M48.185 41.3555C44.4101 41.3555 41.4141 44.4114 41.4141 48.1265C41.4141 51.8415 44.4101 54.9574 48.185 54.9574C51.96 54.9574 54.956 51.9014 54.956 48.1864C54.956 44.4713 51.9001 41.3555 48.185 41.3555ZM52.0799 46.3288L47.5259 50.8828C47.4061 51.0026 47.2263 51.0625 47.1065 51.0625C46.9866 51.0625 46.8069 51.0026 46.687 50.8828L44.2303 48.4261C43.9906 48.1864 43.9906 47.8269 44.2303 47.5872C44.47 47.3475 44.8295 47.3475 45.0692 47.5872L47.1065 49.6245L51.241 45.49C51.4807 45.2503 51.8402 45.2503 52.0799 45.49C52.3195 45.7296 52.3195 46.0892 52.0799 46.3288Z" fill="#FBFBFB"/>
<path d="M31.707 24.9961H25.5952C25.2956 24.9961 24.996 25.2957 24.996 25.5953V30.0294H31.707V24.9961Z" fill="#FBFBFB"/>
<path d="M48.7843 25.5953C48.7843 25.2957 48.4847 24.9961 48.1851 24.9961H42.0133V30.0294H48.7244V25.5953H48.7843Z" fill="#FBFBFB"/>
<path d="M48.1851 40.156C48.3649 40.156 48.6045 40.156 48.7843 40.156V31.168H42.0133V36.8005C42.0133 37.5195 41.5939 38.1187 40.9947 38.4183C40.755 38.5382 40.5153 38.5981 40.2157 38.5981C39.7963 38.5981 39.4367 38.4782 39.0772 38.1786L36.8602 36.381L34.6431 38.2386C34.2836 38.5382 33.9241 38.658 33.5046 38.658C33.265 38.658 32.9654 38.5981 32.7257 38.4782C32.1265 38.1786 31.707 37.5794 31.707 36.8604V31.2279H24.996V48.1853C24.996 48.4849 25.2956 48.7845 25.5952 48.7845H40.2157C40.2157 48.6048 40.2157 48.3651 40.2157 48.1853C40.1558 43.7512 43.751 40.156 48.1851 40.156Z" fill="#FBFBFB"/>
<path d="M33.2647 37.3996C33.4444 37.5194 33.744 37.4595 33.9238 37.3397L36.8599 34.823L39.796 37.3397C39.9158 37.4595 40.0357 37.4595 40.1555 37.4595C40.2753 37.4595 40.3353 37.4595 40.3952 37.3996C40.6349 37.2797 40.7547 37.1 40.7547 36.8603V24.9961H32.9052V36.8603C32.9052 37.1 33.0849 37.3397 33.2647 37.3996Z" fill="#FBFBFB"/>
</svg>
