<svg width="177" height="81" viewBox="0 0 177 81" fill="none" xmlns="http://www.w3.org/2000/svg">
<path d="M16 11.5751C31.6667 1.74177 70 -9.0249 98 26.5751C108.5 39.9251 131.7 69.7752 162.5 70.5752" stroke="black" stroke-width="3"/>
<circle cx="9" cy="15" r="7.5" stroke="#FEDE2B" stroke-width="3"/>
<path d="M162 62.0006L162 80.0006C162.001 80.1828 162.051 80.3614 162.146 80.5172C162.24 80.673 162.376 80.8001 162.537 80.8848C162.698 80.9694 162.88 81.0085 163.062 80.9977C163.244 80.9869 163.419 80.9267 163.569 80.8236L176.569 71.8236C177.108 71.4506 177.108 70.5526 176.569 70.1786L163.569 61.1786C163.419 61.0744 163.244 61.0133 163.062 61.0019C162.879 60.9906 162.698 61.0294 162.536 61.1141C162.374 61.1988 162.239 61.3262 162.144 61.4825C162.05 61.6388 162 61.818 162 62.0006Z" fill="#FEDE2B"/>
</svg>
