<svg width="28" height="28" viewBox="0 0 28 28" fill="none" xmlns="http://www.w3.org/2000/svg">
<path d="M15.3708 0.664062C16.8708 0.668063 17.6321 0.676063 18.2894 0.694729L18.5481 0.704062C18.8468 0.714729 19.1414 0.728062 19.4974 0.744062C20.9161 0.810729 21.8841 1.03473 22.7334 1.36406C23.6135 1.70273 24.3548 2.1614 25.0961 2.9014C25.7741 3.56792 26.2987 4.37418 26.6335 5.26406C26.9628 6.1134 27.1868 7.0814 27.2535 8.5014C27.2695 8.85606 27.2828 9.15073 27.2935 9.45073L27.3015 9.7094C27.3215 10.3654 27.3295 11.1267 27.3321 12.6267L27.3335 13.6214V15.3681C27.3367 16.3406 27.3265 17.3131 27.3028 18.2854L27.2948 18.5441C27.2841 18.8441 27.2708 19.1387 27.2548 19.4934C27.1881 20.9134 26.9615 21.8801 26.6335 22.7307C26.2997 23.6211 25.7749 24.4276 25.0961 25.0934C24.4294 25.7712 23.6232 26.2957 22.7334 26.6307C21.8841 26.9601 20.9161 27.1841 19.4974 27.2507C19.1811 27.2656 18.8646 27.279 18.5481 27.2907L18.2894 27.2987C17.6321 27.3174 16.8708 27.3267 15.3708 27.3294L14.3761 27.3307H12.6308C11.6578 27.3341 10.6848 27.3239 9.71212 27.3001L9.45345 27.2921C9.13693 27.2801 8.82048 27.2663 8.50412 27.2507C7.08545 27.1841 6.11745 26.9601 5.26678 26.6307C4.37701 26.2966 3.57107 25.7719 2.90545 25.0934C2.22685 24.4271 1.70175 23.6208 1.36678 22.7307C1.03745 21.8814 0.813452 20.9134 0.746785 19.4934C0.73193 19.177 0.718597 18.8606 0.706785 18.5441L0.700118 18.2854C0.675548 17.3132 0.664436 16.3406 0.666785 15.3681V12.6267C0.663064 11.6542 0.672842 10.6817 0.696118 9.7094L0.705452 9.45073C0.716118 9.15073 0.729452 8.85606 0.745452 8.5014C0.812118 7.0814 1.03612 6.11473 1.36545 5.26406C1.70027 4.37327 2.22641 3.56676 2.90678 2.9014C3.57224 2.22336 4.37764 1.69871 5.26678 1.36406C6.11745 1.03473 7.08412 0.810729 8.50412 0.744062C8.85878 0.728062 9.15478 0.714729 9.45345 0.704062L9.71212 0.696062C10.6844 0.672373 11.6569 0.66215 12.6295 0.665396L15.3708 0.664062ZM14.0001 7.33073C12.232 7.33073 10.5363 8.03311 9.28607 9.28335C8.03583 10.5336 7.33345 12.2293 7.33345 13.9974C7.33345 15.7655 8.03583 17.4612 9.28607 18.7114C10.5363 19.9617 12.232 20.6641 14.0001 20.6641C15.7682 20.6641 17.4639 19.9617 18.7142 18.7114C19.9644 17.4612 20.6668 15.7655 20.6668 13.9974C20.6668 12.2293 19.9644 10.5336 18.7142 9.28335C17.4639 8.03311 15.7682 7.33073 14.0001 7.33073ZM14.0001 9.9974C14.5254 9.99731 15.0456 10.1007 15.5309 10.3016C16.0162 10.5026 16.4572 10.7971 16.8287 11.1685C17.2002 11.5399 17.4949 11.9808 17.696 12.466C17.8971 12.9513 18.0007 13.4714 18.0008 13.9967C18.0009 14.522 17.8975 15.0422 17.6966 15.5275C17.4956 16.0129 17.2011 16.4539 16.8297 16.8254C16.4583 17.1968 16.0174 17.4916 15.5321 17.6927C15.0469 17.8938 14.5267 17.9973 14.0015 17.9974C12.9406 17.9974 11.9232 17.576 11.173 16.8258C10.4229 16.0757 10.0015 15.0583 10.0015 13.9974C10.0015 12.9365 10.4229 11.9191 11.173 11.169C11.9232 10.4188 12.9406 9.9974 14.0015 9.9974M21.0014 5.33073C20.5594 5.33073 20.1355 5.50632 19.8229 5.81888C19.5104 6.13145 19.3348 6.55537 19.3348 6.9974C19.3348 7.43942 19.5104 7.86335 19.8229 8.17591C20.1355 8.48847 20.5594 8.66406 21.0014 8.66406C21.4435 8.66406 21.8674 8.48847 22.18 8.17591C22.4925 7.86335 22.6681 7.43942 22.6681 6.9974C22.6681 6.55537 22.4925 6.13145 22.18 5.81888C21.8674 5.50632 21.4435 5.33073 21.0014 5.33073Z" fill="black"/>
</svg>
