<svg width="15" height="15" viewBox="0 0 15 15" fill="none" xmlns="http://www.w3.org/2000/svg">
<path d="M11.953 14.3024H2.89628C1.64476 14.3024 0.622314 13.28 0.622314 12.0285V2.97172C0.622314 1.7202 1.64476 0.697754 2.89628 0.697754H11.953C13.2045 0.697754 14.227 1.7202 14.227 2.97172V12.0285C14.227 13.2856 13.2101 14.3024 11.953 14.3024Z" fill="#020105"/>
<path d="M7.4275 10.9951C6.49445 10.9951 5.61727 10.632 4.95799 9.9727C4.29871 9.31341 3.93555 8.43624 3.93555 7.50319C3.93555 6.57014 4.29871 5.69296 4.95799 5.03367C5.61727 4.37439 6.49445 4.01123 7.4275 4.01123C8.36055 4.01123 9.23773 4.37439 9.89701 5.03367C10.5563 5.69296 10.9195 6.57014 10.9195 7.50319C10.9195 8.43624 10.5563 9.31341 9.89701 9.9727C9.23214 10.632 8.36055 10.9951 7.4275 10.9951ZM7.4275 4.75432C5.91339 4.75432 4.67863 5.98349 4.67863 7.50319C4.67863 9.0173 5.9078 10.2521 7.4275 10.2521C8.94161 10.2521 10.1764 9.02288 10.1764 7.50319C10.1708 5.98907 8.94161 4.75432 7.4275 4.75432Z" fill="#FEDE2B"/>
<path d="M11.6004 3.89661C11.9707 3.89661 12.2709 3.59643 12.2709 3.22614C12.2709 2.85584 11.9707 2.55566 11.6004 2.55566C11.2301 2.55566 10.9299 2.85584 10.9299 3.22614C10.9299 3.59643 11.2301 3.89661 11.6004 3.89661Z" fill="#FEDE2B"/>
</svg>
