<svg width="24" height="24" viewBox="0 0 24 24" fill="none" xmlns="http://www.w3.org/2000/svg">
<path d="M1.61971 10.49C3.58971 1.83 16.4197 1.84 18.3797 10.5C19.5297 15.58 16.3697 19.88 13.5997 22.54C11.5897 24.48 8.40971 24.48 6.38971 22.54C3.62971 19.88 0.469709 15.57 1.61971 10.49Z" fill="#9747FF"/>
<g clip-path="url(#clip0_236_11792)">
<path d="M11.9999 13.4299C13.723 13.4299 15.1199 12.0331 15.1199 10.3099C15.1199 8.58681 13.723 7.18994 11.9999 7.18994C10.2768 7.18994 8.87988 8.58681 8.87988 10.3099C8.87988 12.0331 10.2768 13.4299 11.9999 13.4299Z" stroke="#1D272F" stroke-width="1.5"/>
<path d="M3.61971 8.49C5.58971 -0.169998 18.4197 -0.159997 20.3797 8.5C21.5297 13.58 18.3697 17.88 15.5997 20.54C13.5897 22.48 10.4097 22.48 8.38971 20.54C5.62971 17.88 2.46971 13.57 3.61971 8.49Z" stroke="#1D272F" stroke-width="1.5"/>
</g>
<defs>
<clipPath id="clip0_236_11792">
<rect width="24" height="24" fill="white"/>
</clipPath>
</defs>
</svg>
