<svg width="102" height="122" viewBox="0 0 102 122" fill="none" xmlns="http://www.w3.org/2000/svg">
<path d="M65.8789 4H36V40.1393" stroke="#FEDE2B" stroke-width="6.88867"/>
<path d="M53.1905 49.8707V21.3945H80.4286V59.7755L53.1905 68.4421L21 59.7755V21.3945" stroke="#FEDE2B" stroke-width="6.88867"/>
<path d="M11.616 109.32C8.224 109.32 5.664 108.403 3.936 106.568C2.22933 104.733 1.376 102.248 1.376 99.112C1.376 96.8507 1.74933 94.8987 2.496 93.256C3.24267 91.592 4.37333 90.312 5.888 89.416C7.424 88.52 9.36533 88.072 11.712 88.072C12.928 88.072 14.0267 88.1573 15.008 88.328C16.0107 88.4773 16.9493 88.7013 17.824 89V92.008C16.0747 91.368 14.1333 91.048 12 91.048C9.376 91.048 7.53067 91.7413 6.464 93.128C5.41867 94.5147 4.896 96.5093 4.896 99.112C4.896 101.48 5.45067 103.283 6.56 104.52C7.66933 105.757 9.38667 106.376 11.712 106.376C13.5467 106.376 15.0293 106.163 16.16 105.736V99.976H11.008V97.704H19.136V107.624C18.4747 108.051 17.5253 108.445 16.288 108.808C15.072 109.149 13.5147 109.32 11.616 109.32ZM23.3273 90.664V87.784H27.1353V90.664H23.3273ZM23.6153 109V96.488H21.3113L21.6313 93.832H27.1033V109H23.6153ZM35.8913 109L29.9073 93.832H33.5233L37.7793 105.608L42.0353 93.832H45.6193L39.6673 109H35.8913ZM48.5785 109V88.392H58.5625C60.6105 88.392 62.1252 88.872 63.1065 89.832C64.0878 90.792 64.5785 92.1467 64.5785 93.896C64.5785 95.0053 64.3545 95.944 63.9065 96.712C63.4585 97.4587 62.8612 98.024 62.1145 98.408C63.1172 98.6853 63.9065 99.1867 64.4825 99.912C65.0798 100.616 65.3785 101.661 65.3785 103.048C65.3785 105.053 64.8345 106.547 63.7465 107.528C62.6798 108.509 61.1012 109 59.0105 109H48.5785ZM52.0665 97.192H58.0825C59.2558 97.192 60.0878 96.9253 60.5785 96.392C61.0905 95.8373 61.3465 95.1013 61.3465 94.184C61.3465 93.1173 61.0905 92.328 60.5785 91.816C60.0665 91.2827 59.1065 91.016 57.6985 91.016H52.0665V97.192ZM52.0665 106.44H58.2745C59.5118 106.44 60.4185 106.184 60.9945 105.672C61.5705 105.139 61.8585 104.221 61.8585 102.92C61.8585 101.853 61.5705 101.064 60.9945 100.552C60.4398 100.019 59.4158 99.752 57.9225 99.752H52.0665V106.44ZM76.03 109.32C73.2993 109.32 71.294 108.637 70.014 107.272C68.7553 105.907 68.126 103.955 68.126 101.416C68.126 98.8773 68.766 96.9253 70.046 95.56C71.326 94.1947 73.3207 93.512 76.03 93.512C78.7607 93.512 80.766 94.1947 82.046 95.56C83.326 96.9253 83.966 98.8773 83.966 101.416C83.966 103.955 83.326 105.907 82.046 107.272C80.7873 108.637 78.782 109.32 76.03 109.32ZM76.03 106.376C77.63 106.376 78.7607 105.992 79.422 105.224C80.1047 104.435 80.446 103.165 80.446 101.416C80.446 99.6667 80.1047 98.408 79.422 97.64C78.7607 96.872 77.63 96.488 76.03 96.488C74.4513 96.488 73.3207 96.872 72.638 97.64C71.9767 98.408 71.646 99.6667 71.646 101.416C71.646 103.165 71.9767 104.435 72.638 105.224C73.3207 105.992 74.4513 106.376 76.03 106.376ZM84.8663 109L90.6583 101.288L85.0903 93.832H88.8343L92.5463 98.888L96.2583 93.832H100.002L94.4663 101.288L100.226 109H96.4503L92.5463 103.72L88.6423 109H84.8663Z" fill="#FEDE2B"/>
</svg>
