<svg width="57" height="18" viewBox="0 0 57 18" fill="none" xmlns="http://www.w3.org/2000/svg">
<path d="M10.1211 2H4.08789V9.29735" stroke="#020105" stroke-width="1.39098"/>
<path d="M7.5 11.2622V5.51221H13V13.2622L7.5 15.0122L1 13.2622V5.51221" stroke="#020105" stroke-width="1.39098"/>
<path d="M23.356 13.12C22.084 13.12 21.124 12.776 20.476 12.088C19.836 11.4 19.516 10.468 19.516 9.292C19.516 8.444 19.656 7.712 19.936 7.096C20.216 6.472 20.64 5.992 21.208 5.656C21.784 5.32 22.512 5.152 23.392 5.152C23.848 5.152 24.26 5.184 24.628 5.248C25.004 5.304 25.356 5.388 25.684 5.5V6.628C25.028 6.388 24.3 6.268 23.5 6.268C22.516 6.268 21.824 6.528 21.424 7.048C21.032 7.568 20.836 8.316 20.836 9.292C20.836 10.18 21.044 10.856 21.46 11.32C21.876 11.784 22.52 12.016 23.392 12.016C24.08 12.016 24.636 11.936 25.06 11.776V9.616H23.128V8.764H26.176V12.484C25.928 12.644 25.572 12.792 25.108 12.928C24.652 13.056 24.068 13.12 23.356 13.12ZM27.7477 6.124V5.044H29.1757V6.124H27.7477ZM27.8557 13V8.308H26.9917L27.1117 7.312H29.1637V13H27.8557ZM32.4592 13L30.2152 7.312H31.5712L33.1672 11.728L34.7632 7.312H36.1072L33.8752 13H32.4592ZM37.2169 13V5.272H40.9609C41.7289 5.272 42.2969 5.452 42.6649 5.812C43.0329 6.172 43.2169 6.68 43.2169 7.336C43.2169 7.752 43.1329 8.104 42.9649 8.392C42.7969 8.672 42.5729 8.884 42.2929 9.028C42.6689 9.132 42.9649 9.32 43.1809 9.592C43.4049 9.856 43.5169 10.248 43.5169 10.768C43.5169 11.52 43.3129 12.08 42.9049 12.448C42.5049 12.816 41.9129 13 41.1289 13H37.2169ZM38.5249 8.572H40.7809C41.2209 8.572 41.5329 8.472 41.7169 8.272C41.9089 8.064 42.0049 7.788 42.0049 7.444C42.0049 7.044 41.9089 6.748 41.7169 6.556C41.5249 6.356 41.1649 6.256 40.6369 6.256H38.5249V8.572ZM38.5249 12.04H40.8529C41.3169 12.04 41.6569 11.944 41.8729 11.752C42.0889 11.552 42.1969 11.208 42.1969 10.72C42.1969 10.32 42.0889 10.024 41.8729 9.832C41.6649 9.632 41.2809 9.532 40.7209 9.532H38.5249V12.04ZM47.5113 13.12C46.4873 13.12 45.7353 12.864 45.2553 12.352C44.7833 11.84 44.5473 11.108 44.5473 10.156C44.5473 9.204 44.7873 8.472 45.2673 7.96C45.7473 7.448 46.4953 7.192 47.5113 7.192C48.5353 7.192 49.2873 7.448 49.7673 7.96C50.2473 8.472 50.4873 9.204 50.4873 10.156C50.4873 11.108 50.2473 11.84 49.7673 12.352C49.2953 12.864 48.5433 13.12 47.5113 13.12ZM47.5113 12.016C48.1113 12.016 48.5353 11.872 48.7833 11.584C49.0393 11.288 49.1673 10.812 49.1673 10.156C49.1673 9.5 49.0393 9.028 48.7833 8.74C48.5353 8.452 48.1113 8.308 47.5113 8.308C46.9193 8.308 46.4953 8.452 46.2393 8.74C45.9913 9.028 45.8673 9.5 45.8673 10.156C45.8673 10.812 45.9913 11.288 46.2393 11.584C46.4953 11.872 46.9193 12.016 47.5113 12.016ZM50.8248 13L52.9968 10.108L50.9088 7.312H52.3128L53.7048 9.208L55.0968 7.312H56.5008L54.4248 10.108L56.5848 13H55.1688L53.7048 11.02L52.2408 13H50.8248Z" fill="#020105"/>
</svg>
