<svg width="174" height="56" viewBox="0 0 174 56" fill="none" xmlns="http://www.w3.org/2000/svg">
<path d="M31.3585 6.21826H12.6006V28.9064" stroke="#FEDE2B" stroke-width="4.32469"/>
<path d="M23.2091 35.0159V17.1387H40.3091V41.2341L23.2091 46.675L3 41.2341V17.1387" stroke="#FEDE2B" stroke-width="4.32469"/>
<path d="M69.4694 41.3751C65.4937 41.3751 62.4931 40.2999 60.4678 38.1495C58.4674 35.9991 57.4673 33.0861 57.4673 29.4105C57.4673 26.76 57.9048 24.4721 58.78 22.5468C59.6552 20.5965 60.9804 19.0962 62.7557 18.046C64.556 16.9958 66.8314 16.4707 69.5819 16.4707C71.0071 16.4707 72.2948 16.5708 73.445 16.7708C74.6202 16.9458 75.7204 17.2084 76.7456 17.5584V21.084C74.6953 20.3339 72.4199 19.9589 69.9194 19.9589C66.8439 19.9589 64.681 20.7715 63.4308 22.3968C62.2056 24.0221 61.593 26.36 61.593 29.4105C61.593 32.186 62.2431 34.2988 63.5433 35.7491C64.8435 37.1993 66.8564 37.9245 69.5819 37.9245C71.7322 37.9245 73.47 37.6744 74.7953 37.1743V30.4232H68.7567V27.7602H78.2834V39.3872C77.5082 39.8873 76.3956 40.3499 74.9453 40.775C73.5201 41.175 71.6947 41.3751 69.4694 41.3751ZM83.1958 19.5088V16.1332H87.6591V19.5088H83.1958ZM83.5334 41V26.335H80.8329L81.208 23.2219H87.6216V41H83.5334ZM97.9218 41L90.9081 23.2219H95.1464L100.135 37.0243L105.123 23.2219H109.324L102.348 41H97.9218ZM123.093 41.3751C121.793 41.3751 120.668 41.2 119.718 40.85C118.768 40.4999 117.892 39.9623 117.092 39.2372L116.867 41H113.342V15.7206H117.43V24.3846C118.98 23.3594 120.843 22.8469 123.018 22.8469C125.544 22.8469 127.532 23.572 128.982 25.0222C130.457 26.4475 131.195 28.7604 131.195 31.9609C131.195 35.1865 130.47 37.5619 129.019 39.0872C127.569 40.6124 125.594 41.3751 123.093 41.3751ZM122.006 38.2995C123.856 38.2995 125.156 37.7744 125.906 36.7243C126.682 35.6741 127.069 34.0863 127.069 31.9609C127.069 29.7606 126.657 28.2103 125.831 27.3101C125.006 26.41 123.706 25.9599 121.931 25.9599C120.08 25.9599 118.58 26.4725 117.43 27.4977V36.4242C118.605 37.6744 120.13 38.2995 122.006 38.2995ZM143.686 41.3751C140.485 41.3751 138.135 40.5749 136.634 38.9746C135.159 37.3744 134.422 35.0865 134.422 32.111C134.422 29.1354 135.172 26.8475 136.672 25.2473C138.172 23.647 140.51 22.8469 143.686 22.8469C146.886 22.8469 149.237 23.647 150.737 25.2473C152.237 26.8475 152.987 29.1354 152.987 32.111C152.987 35.0865 152.237 37.3744 150.737 38.9746C149.262 40.5749 146.911 41.3751 143.686 41.3751ZM143.686 37.9245C145.561 37.9245 146.886 37.4744 147.661 36.5742C148.461 35.6491 148.862 34.1613 148.862 32.111C148.862 30.0606 148.461 28.5853 147.661 27.6852C146.886 26.785 145.561 26.335 143.686 26.335C141.835 26.335 140.51 26.785 139.71 27.6852C138.935 28.5853 138.547 30.0606 138.547 32.111C138.547 34.1613 138.935 35.6491 139.71 36.5742C140.51 37.4744 141.835 37.9245 143.686 37.9245ZM154.042 41L160.831 31.9609L154.305 23.2219H158.693L163.044 29.1479L167.395 23.2219H171.783L165.294 31.9609L172.046 41H167.62L163.044 34.8114L158.468 41H154.042Z" fill="#FEDE2B"/>
</svg>
