<svg width="26" height="24" viewBox="0 0 26 24" fill="none" xmlns="http://www.w3.org/2000/svg">
<g clip-path="url(#clip0_237_14675)">
<path d="M20.5833 19L14.0833 19C13.4875 19 13 19.45 13 20C13 20.55 13.4875 21 14.0833 21L20.5833 21C21.775 21 22.75 20.1 22.75 19L22.75 5C22.75 3.9 21.775 3 20.5833 3L14.0833 3C13.4875 3 13 3.45 13 4C13 4.55 13.4875 5 14.0833 5L20.5833 5L20.5833 19Z" fill="#020105"/>
<path d="M3.62917 12.35L6.65167 15.14C6.99833 15.46 7.58333 15.24 7.58333 14.79L7.58333 13L15.1667 13C15.7625 13 16.25 12.55 16.25 12C16.25 11.45 15.7625 11 15.1667 11L7.58333 11L7.58333 9.20996C7.58333 8.75996 6.99833 8.53996 6.6625 8.85996L3.64 11.65C3.42333 11.84 3.42333 12.16 3.62917 12.35Z" fill="#020105"/>
</g>
<defs>
<clipPath id="clip0_237_14675">
<rect width="26" height="24" fill="white" transform="translate(26 24) rotate(180)"/>
</clipPath>
</defs>
</svg>
