<svg width="92" height="77" viewBox="0 0 92 77" fill="none" xmlns="http://www.w3.org/2000/svg">
<path d="M53.5563 2H38.9495V19.6673" stroke="#FEDE2B" stroke-width="3.36764"/>
<path d="M47.2105 24.4249V10.5039H60.5263V29.2671L47.2105 33.5039L31.4736 29.2671V10.5039" stroke="#FEDE2B" stroke-width="3.36764"/>
<path d="M10.5461 65.7642C7.46653 65.7642 5.14232 64.9313 3.57347 63.2656C2.024 61.5999 1.24926 59.3435 1.24926 56.4964C1.24926 54.4433 1.58821 52.6711 2.26611 51.1797C2.944 49.669 3.97053 48.5069 5.34568 47.6934C6.74021 46.8799 8.50274 46.4732 10.6333 46.4732C11.7373 46.4732 12.7347 46.5507 13.6257 46.7056C14.536 46.8412 15.3882 47.0446 16.1823 47.3157V50.0467C14.5941 49.4656 12.8316 49.1751 10.8947 49.1751C8.51242 49.1751 6.83705 49.8046 5.86863 51.0635C4.91958 52.3225 4.44505 54.1334 4.44505 56.4964C4.44505 58.6463 4.94863 60.2829 5.95579 61.4063C6.96295 62.5296 8.52211 63.0913 10.6333 63.0913C12.2989 63.0913 13.6451 62.8976 14.6716 62.5103V57.2808H9.99411V55.2181H17.3735V64.2244C16.7731 64.6117 15.9112 64.9701 14.7878 65.2993C13.6838 65.6092 12.2699 65.7642 10.5461 65.7642ZM21.1787 48.8265V46.2117H24.636V48.8265H21.1787ZM21.4402 65.4736V54.1141H19.3484L19.6389 51.7027H24.6069V65.4736H21.4402ZM32.5855 65.4736L27.1526 51.7027H30.4356L34.2996 62.3941L38.1636 51.7027H41.4175L36.0137 65.4736H32.5855ZM44.1042 65.4736V46.7637H53.1686C55.028 46.7637 56.4031 47.1995 57.2941 48.0711C58.185 48.9427 58.6305 50.1726 58.6305 51.7608C58.6305 52.7679 58.4271 53.6202 58.0204 54.3174C57.6136 54.9953 57.0713 55.5086 56.3934 55.8572C57.3037 56.109 58.0204 56.5642 58.5433 57.2227C59.0856 57.8618 59.3568 58.8109 59.3568 60.0698C59.3568 61.8905 58.8629 63.2463 57.8751 64.1372C56.9067 65.0282 55.4734 65.4736 53.5753 65.4736H44.1042ZM47.2709 54.7532H52.7328C53.7981 54.7532 54.5534 54.5111 54.9989 54.0269C55.4637 53.5233 55.6962 52.8551 55.6962 52.0223C55.6962 51.0538 55.4637 50.3372 54.9989 49.8724C54.5341 49.3882 53.6625 49.1461 52.3842 49.1461H47.2709V54.7532ZM47.2709 63.1494H52.9071C54.0305 63.1494 54.8536 62.917 55.3766 62.4522C55.8995 61.9679 56.161 61.1351 56.161 59.9536C56.161 58.9852 55.8995 58.2686 55.3766 57.8037C54.873 57.3195 53.9433 57.0774 52.5875 57.0774H47.2709V63.1494ZM69.0272 65.7642C66.5481 65.7642 64.7275 65.1444 63.5653 63.9048C62.4226 62.6652 61.8512 60.893 61.8512 58.5882C61.8512 56.2833 62.4323 54.5111 63.5944 53.2715C64.7565 52.0319 66.5675 51.4122 69.0272 51.4122C71.5064 51.4122 73.327 52.0319 74.4891 53.2715C75.6512 54.5111 76.2323 56.2833 76.2323 58.5882C76.2323 60.893 75.6512 62.6652 74.4891 63.9048C73.3464 65.1444 71.5258 65.7642 69.0272 65.7642ZM69.0272 63.0913C70.4799 63.0913 71.5064 62.7427 72.1068 62.0454C72.7266 61.3288 73.0365 60.1764 73.0365 58.5882C73.0365 56.9999 72.7266 55.8572 72.1068 55.1599C71.5064 54.4627 70.4799 54.1141 69.0272 54.1141C67.594 54.1141 66.5675 54.4627 65.9477 55.1599C65.3472 55.8572 65.047 56.9999 65.047 58.5882C65.047 60.1764 65.3472 61.3288 65.9477 62.0454C66.5675 62.7427 67.594 63.0913 69.0272 63.0913ZM77.0496 65.4736L82.3082 58.4719L77.253 51.7027H80.6522L84.0223 56.293L87.3924 51.7027H90.7915L85.7654 58.4719L90.9949 65.4736H87.5667L84.0223 60.6799L80.4778 65.4736H77.0496Z" fill="#FEDE2B"/>
</svg>
