<svg width="85" height="106" viewBox="0 0 85 106" fill="none" xmlns="http://www.w3.org/2000/svg">
<path d="M56.1838 3.73022H29.7285V35.7285" stroke="#020105" stroke-width="6.09934"/>
<path d="M44.6914 44.3448V19.1316H68.8085V53.1147L44.6914 60.7883L16.1895 53.1147V19.1316" stroke="#020105" stroke-width="6.09934"/>
<path d="M9.79524 96.0634C6.93492 96.0634 4.77619 95.2899 3.31905 93.7428C1.87989 92.1957 1.16032 90.0999 1.16032 87.4555C1.16032 85.5486 1.47513 83.9026 2.10476 82.5174C2.73439 81.1142 3.68783 80.0348 4.96508 79.2793C6.26032 78.5237 7.89735 78.146 9.87619 78.146C10.9016 78.146 11.828 78.2179 12.6556 78.3618C13.5011 78.4878 14.2926 78.6766 15.0302 78.9285V81.465C13.555 80.9253 11.918 80.6555 10.119 80.6555C7.90635 80.6555 6.35026 81.2401 5.45079 82.4095C4.56931 83.5788 4.12857 85.2608 4.12857 87.4555C4.12857 89.4523 4.5963 90.9724 5.53175 92.0158C6.4672 93.0592 7.91534 93.5809 9.87619 93.5809C11.4233 93.5809 12.6735 93.401 13.627 93.0412V88.1841H9.28254V86.2682H16.1365V94.6333C15.5788 94.993 14.7783 95.3259 13.7349 95.6317C12.7095 95.9195 11.3963 96.0634 9.79524 96.0634ZM19.6708 80.3317V77.9031H22.8819V80.3317H19.6708ZM19.9137 95.7936V85.2428H17.9708L18.2406 83.0031H22.8549V95.7936H19.9137ZM30.2654 95.7936L25.2194 83.0031H28.2686L31.8575 92.9333L35.4464 83.0031H38.4686L33.4496 95.7936H30.2654ZM48.3752 96.0634C47.4397 96.0634 46.6302 95.9375 45.9466 95.6856C45.263 95.4338 44.6334 95.047 44.0577 94.5253L43.8958 95.7936H41.3593V77.6063H44.3006V83.8396C45.4159 83.102 46.7561 82.7333 48.3212 82.7333C50.1381 82.7333 51.5683 83.255 52.6117 84.2983C53.673 85.3237 54.2037 86.9878 54.2037 89.2904C54.2037 91.611 53.682 93.32 52.6387 94.4174C51.5953 95.5147 50.1741 96.0634 48.3752 96.0634ZM47.5926 93.8507C48.9238 93.8507 49.8593 93.4729 50.399 92.7174C50.9566 91.9618 51.2355 90.8195 51.2355 89.2904C51.2355 87.7073 50.9387 86.592 50.345 85.9444C49.7514 85.2968 48.8159 84.9729 47.5387 84.9729C46.2074 84.9729 45.1281 85.3417 44.3006 86.0793V92.5015C45.1461 93.401 46.2434 93.8507 47.5926 93.8507ZM63.1903 96.0634C60.8876 96.0634 59.1966 95.4878 58.1173 94.3364C57.0559 93.1851 56.5252 91.5391 56.5252 89.3983C56.5252 87.2576 57.0649 85.6116 58.1443 84.4602C59.2236 83.3089 60.9056 82.7333 63.1903 82.7333C65.4929 82.7333 67.1839 83.3089 68.2633 84.4602C69.3427 85.6116 69.8824 87.2576 69.8824 89.3983C69.8824 91.5391 69.3427 93.1851 68.2633 94.3364C67.2019 95.4878 65.5109 96.0634 63.1903 96.0634ZM63.1903 93.5809C64.5395 93.5809 65.4929 93.2571 66.0506 92.6095C66.6263 91.9438 66.9141 90.8735 66.9141 89.3983C66.9141 87.9232 66.6263 86.8618 66.0506 86.2142C65.4929 85.5666 64.5395 85.2428 63.1903 85.2428C61.8591 85.2428 60.9056 85.5666 60.33 86.2142C59.7723 86.8618 59.4935 87.9232 59.4935 89.3983C59.4935 90.8735 59.7723 91.9438 60.33 92.6095C60.9056 93.2571 61.8591 93.5809 63.1903 93.5809ZM70.6415 95.7936L75.5256 89.2904L70.8304 83.0031H73.9875L77.1177 87.2666L80.2478 83.0031H83.405L78.7367 89.2904L83.5939 95.7936H80.4097L77.1177 91.3412L73.8256 95.7936H70.6415Z" fill="#020105"/>
</svg>
