<svg width="24" height="25" viewBox="0 0 24 25" fill="none" xmlns="http://www.w3.org/2000/svg">
<path d="M10.3845 2.91082C11.4244 2.51085 12.5756 2.51085 13.6155 2.91082L21.0585 5.77282C21.4828 5.93621 21.8477 6.22433 22.105 6.5992C22.3623 6.97408 22.5001 7.41812 22.5 7.87282V17.8118C22.5001 18.2665 22.3623 18.7106 22.105 19.0854C21.8477 19.4603 21.4828 19.7484 21.0585 19.9118L13.6155 22.7753C12.5756 23.1753 11.4244 23.1753 10.3845 22.7753L2.943 19.9118C2.51839 19.7487 2.1532 19.4607 1.8956 19.0858C1.63799 18.7109 1.50006 18.2667 1.5 17.8118V7.87282C1.50006 7.41795 1.63799 6.97378 1.8956 6.59888C2.1532 6.22398 2.51839 5.93597 2.943 5.77282L10.3845 2.91082ZM13.077 4.31032C12.3838 4.04367 11.6162 4.04367 10.923 4.31032L8.847 5.10982L17.232 8.28382L20.154 7.03282L13.077 4.30882V4.31032ZM21 8.30032L12.75 11.8388V21.4808C12.861 21.4523 12.969 21.4178 13.077 21.3758L20.52 18.5138C20.6614 18.4592 20.783 18.3631 20.8687 18.238C20.9544 18.113 21.0002 17.9649 21 17.8133V8.30332V8.30032ZM11.25 21.4793V11.8388L3 8.30182V17.8118C2.99984 17.9634 3.04562 18.1115 3.13131 18.2365C3.217 18.3616 3.33857 18.4577 3.48 18.5123L10.923 21.3743C11.031 21.4163 11.139 21.4508 11.25 21.4793ZM3.846 7.03282L12 10.5278L15.246 9.13582L6.7455 5.91682L3.846 7.03282Z" fill="black"/>
</svg>
