<svg width="24" height="25" viewBox="0 0 24 25" fill="none" xmlns="http://www.w3.org/2000/svg">
<path d="M12 23.25C6.07 23.25 1.25 18.43 1.25 12.5C1.25 6.57 6.07 1.75 12 1.75C17.93 1.75 22.75 6.57 22.75 12.5C22.75 18.43 17.93 23.25 12 23.25ZM12 3.25C6.9 3.25 2.75 7.4 2.75 12.5C2.75 17.6 6.9 21.75 12 21.75C17.1 21.75 21.25 17.6 21.25 12.5C21.25 7.4 17.1 3.25 12 3.25Z" fill="#292D32"/>
<path d="M9.00023 22.25H8.00023C7.59023 22.25 7.25023 21.91 7.25023 21.5C7.25023 21.09 7.57023 20.76 7.98023 20.75C6.41023 15.39 6.41023 9.61 7.98023 4.25C7.57023 4.24 7.25023 3.91 7.25023 3.5C7.25023 3.09 7.59023 2.75 8.00023 2.75H9.00023C9.24023 2.75 9.47023 2.87 9.61023 3.06C9.75023 3.26 9.79023 3.51 9.71023 3.74C7.83023 9.39 7.83023 15.61 9.71023 21.27C9.79023 21.5 9.75023 21.75 9.61023 21.95C9.47023 22.13 9.24023 22.25 9.00023 22.25Z" fill="#292D32"/>
<path d="M15.0004 22.2507C14.9204 22.2507 14.8404 22.2407 14.7604 22.2107C14.3704 22.0807 14.1504 21.6507 14.2904 21.2607C16.1704 15.6107 16.1704 9.39067 14.2904 3.73067C14.1604 3.34067 14.3704 2.91067 14.7604 2.78067C15.1604 2.65067 15.5804 2.86067 15.7104 3.25067C17.7004 9.21067 17.7004 15.7707 15.7104 21.7207C15.6104 22.0507 15.3104 22.2507 15.0004 22.2507Z" fill="#292D32"/>
<path d="M12 17.7008C9.21 17.7008 6.43 17.3108 3.75 16.5208C3.74 16.9208 3.41 17.2508 3 17.2508C2.59 17.2508 2.25 16.9108 2.25 16.5008V15.5008C2.25 15.2608 2.37 15.0308 2.56 14.8908C2.76 14.7508 3.01 14.7108 3.24 14.7908C8.89 16.6708 15.12 16.6708 20.77 14.7908C21 14.7108 21.25 14.7508 21.45 14.8908C21.65 15.0308 21.76 15.2608 21.76 15.5008V16.5008C21.76 16.9108 21.42 17.2508 21.01 17.2508C20.6 17.2508 20.27 16.9308 20.26 16.5208C17.57 17.3108 14.79 17.7008 12 17.7008Z" fill="#292D32"/>
<path d="M20.9998 10.2494C20.9198 10.2494 20.8398 10.2394 20.7598 10.2094C15.1098 8.32938 8.87978 8.32938 3.22978 10.2094C2.82978 10.3394 2.40978 10.1294 2.27978 9.73937C2.15978 9.33937 2.36978 8.91938 2.75978 8.78938C8.71978 6.79938 15.2798 6.79938 21.2298 8.78938C21.6198 8.91938 21.8398 9.34937 21.6998 9.73937C21.6098 10.0494 21.3098 10.2494 20.9998 10.2494Z" fill="#292D32"/>
</svg>
