<svg width="24" height="25" viewBox="0 0 24 25" fill="none" xmlns="http://www.w3.org/2000/svg">
<path d="M23 23.25H1C0.59 23.25 0.25 22.91 0.25 22.5C0.25 22.09 0.59 21.75 1 21.75H23C23.41 21.75 23.75 22.09 23.75 22.5C23.75 22.91 23.41 23.25 23 23.25Z" fill="#292D32"/>
<path d="M19.7803 23.2608C19.3703 23.2608 19.0303 22.9208 19.0303 22.5108V18.0508C19.0303 17.6408 19.3703 17.3008 19.7803 17.3008C20.1903 17.3008 20.5303 17.6408 20.5303 18.0508V22.5108C20.5303 22.9208 20.2003 23.2608 19.7803 23.2608Z" fill="#292D32"/>
<path d="M19.7996 18.7989C18.1696 18.7989 16.8496 17.4789 16.8496 15.8489V13.5789C16.8496 11.9489 18.1696 10.6289 19.7996 10.6289C21.4296 10.6289 22.7496 11.9489 22.7496 13.5789V15.8489C22.7496 17.4789 21.4296 18.7989 19.7996 18.7989ZM19.7996 12.1389C18.9996 12.1389 18.3496 12.7889 18.3496 13.5889V15.8589C18.3496 16.6589 18.9996 17.3089 19.7996 17.3089C20.5996 17.3089 21.2496 16.6589 21.2496 15.8589V13.5889C21.2496 12.7889 20.5996 12.1389 19.7996 12.1389Z" fill="#292D32"/>
<path d="M14.2998 23.2517C13.8898 23.2517 13.5498 22.9117 13.5498 22.5017V6.53174C13.5498 4.94174 12.8798 4.26172 11.3198 4.26172H5.08984C3.51984 4.26172 2.83984 4.94174 2.83984 6.53174V22.5017C2.83984 22.9117 2.49984 23.2517 2.08984 23.2517C1.67984 23.2517 1.33984 22.9117 1.33984 22.5017V6.53174C1.33984 4.10174 2.66984 2.76172 5.08984 2.76172H11.3198C13.7298 2.76172 15.0498 4.10174 15.0498 6.53174V22.5017C15.0498 22.9117 14.7098 23.2517 14.2998 23.2517Z" fill="#292D32"/>
<path d="M10.7498 9.5H5.7998C5.3898 9.5 5.0498 9.16 5.0498 8.75C5.0498 8.34 5.3898 8 5.7998 8H10.7498C11.1598 8 11.4998 8.34 11.4998 8.75C11.4998 9.16 11.1598 9.5 10.7498 9.5Z" fill="#292D32"/>
<path d="M10.7498 13.25H5.7998C5.3898 13.25 5.0498 12.91 5.0498 12.5C5.0498 12.09 5.3898 11.75 5.7998 11.75H10.7498C11.1598 11.75 11.4998 12.09 11.4998 12.5C11.4998 12.91 11.1598 13.25 10.7498 13.25Z" fill="#292D32"/>
<path d="M8.25 23.25C7.84 23.25 7.5 22.91 7.5 22.5V18.75C7.5 18.34 7.84 18 8.25 18C8.66 18 9 18.34 9 18.75V22.5C9 22.91 8.66 23.25 8.25 23.25Z" fill="#292D32"/>
</svg>
