<svg width="24" height="25" viewBox="0 0 24 25" fill="none" xmlns="http://www.w3.org/2000/svg">
<path d="M17 21.75H7C3.35 21.75 1.25 19.65 1.25 16V9C1.25 5.35 3.35 3.25 7 3.25H17C20.65 3.25 22.75 5.35 22.75 9V16C22.75 19.65 20.65 21.75 17 21.75ZM7 4.75C4.14 4.75 2.75 6.14 2.75 9V16C2.75 18.86 4.14 20.25 7 20.25H17C19.86 20.25 21.25 18.86 21.25 16V9C21.25 6.14 19.86 4.75 17 4.75H7Z" fill="#292D32"/>
<path d="M11.9998 13.368C11.1598 13.368 10.3098 13.108 9.65978 12.578L6.52978 10.078C6.20978 9.81802 6.14978 9.34802 6.40978 9.02802C6.66978 8.70802 7.13978 8.64802 7.45978 8.90802L10.5898 11.408C11.3498 12.018 12.6398 12.018 13.3998 11.408L16.5298 8.90802C16.8498 8.64802 17.3298 8.69802 17.5798 9.02802C17.8398 9.34802 17.7898 9.82802 17.4598 10.078L14.3298 12.578C13.6898 13.108 12.8398 13.368 11.9998 13.368Z" fill="#292D32"/>
</svg>
