<svg width="24" height="25" viewBox="0 0 24 25" fill="none" xmlns="http://www.w3.org/2000/svg">
<path d="M12 11.3632C11.59 11.3632 11.25 11.0232 11.25 10.6132V7.2832C11.25 6.8732 11.59 6.5332 12 6.5332C12.41 6.5332 12.75 6.8732 12.75 7.2832V10.6132C12.75 11.0332 12.41 11.3632 12 11.3632Z" fill="#292D32"/>
<path d="M12.0208 21.194C9.44084 21.194 6.87084 20.784 4.42084 19.964C3.51084 19.664 2.82084 19.014 2.52084 18.194C2.22084 17.374 2.32084 16.434 2.81084 15.614L4.08084 13.494C4.36084 13.024 4.61084 12.144 4.61084 11.594V9.49398C4.61084 5.40398 7.93084 2.08398 12.0208 2.08398C16.1108 2.08398 19.4308 5.40398 19.4308 9.49398V11.594C19.4308 12.134 19.6808 13.024 19.9608 13.494L21.2308 15.614C21.7008 16.394 21.7808 17.324 21.4708 18.174C21.1608 19.024 20.4808 19.674 19.6208 19.964C17.1708 20.794 14.6008 21.194 12.0208 21.194ZM12.0208 3.59398C8.76084 3.59398 6.11084 6.24398 6.11084 9.50398V11.604C6.11084 12.414 5.79084 13.584 5.37084 14.274L4.10084 16.404C3.84084 16.834 3.78084 17.294 3.93084 17.694C4.08084 18.094 4.42084 18.394 4.90084 18.554C9.50084 20.084 14.5608 20.084 19.1608 18.554C19.5908 18.414 19.9208 18.094 20.0708 17.674C20.2308 17.254 20.1808 16.794 19.9508 16.404L18.6808 14.284C18.2608 13.594 17.9408 12.424 17.9408 11.614V9.51398C17.9308 6.24398 15.2808 3.59398 12.0208 3.59398Z" fill="#292D32"/>
<path d="M11.9999 23.7441C10.9299 23.7441 9.87992 23.3041 9.11992 22.5441C8.35992 21.7841 7.91992 20.7341 7.91992 19.6641H9.41992C9.41992 20.3441 9.69992 21.0041 10.1799 21.4841C10.6599 21.9641 11.3199 22.2441 11.9999 22.2441C13.4199 22.2441 14.5799 21.0841 14.5799 19.6641H16.0799C16.0799 21.9141 14.2499 23.7441 11.9999 23.7441Z" fill="#292D32"/>
</svg>
