<svg width="24" height="25" viewBox="0 0 24 25" fill="none" xmlns="http://www.w3.org/2000/svg">
<g clip-path="url(#clip0_237_14671)">
<path d="M5 18.8438H19V11.8748C19 7.99175 15.866 4.84375 12 4.84375C8.134 4.84375 5 7.99175 5 11.8748V18.8438ZM12 2.84375C16.97 2.84375 21 6.88675 21 11.8748V20.8438H3V11.8748C3 6.88675 7.03 2.84375 12 2.84375ZM9.5 21.8438H14.5C14.5 22.5068 14.2366 23.1427 13.7678 23.6115C13.2989 24.0804 12.663 24.3438 12 24.3438C11.337 24.3438 10.7011 24.0804 10.2322 23.6115C9.76339 23.1427 9.5 22.5068 9.5 21.8438Z" fill="black"/>
</g>
<defs>
<clipPath id="clip0_237_14671">
<rect width="24" height="24" fill="white" transform="translate(0 0.84375)"/>
</clipPath>
</defs>
</svg>
