<svg width="61" height="62" viewBox="0 0 61 62" fill="none" xmlns="http://www.w3.org/2000/svg">
<path d="M30.5 54.607C30.3717 54.607 30.2446 54.5817 30.1261 54.5326L5.72609 44.4194C5.54785 44.3455 5.39553 44.2204 5.28836 44.0599C5.1812 43.8994 5.12401 43.7108 5.12402 43.5178V16.7284C5.12402 16.4696 5.22685 16.2213 5.40989 16.0383C5.59292 15.8553 5.84117 15.7524 6.10002 15.7524C6.35887 15.7524 6.60712 15.8553 6.79016 16.0383C6.97319 16.2213 7.07602 16.4696 7.07602 16.7284V42.8657L29.524 52.1701V26.0858C29.524 25.827 29.6269 25.5787 29.8099 25.3957C29.9929 25.2127 30.2412 25.1098 30.5 25.1098C30.7589 25.1098 31.0071 25.2127 31.1902 25.3957C31.3732 25.5787 31.476 25.827 31.476 26.0858V53.631C31.476 53.8899 31.3732 54.1381 31.1902 54.3211C31.0071 54.5042 30.7589 54.607 30.5 54.607Z" fill="#9747FF"/>
<path d="M30.4997 54.607C30.2739 54.6072 30.0549 54.529 29.8803 54.3859C29.7056 54.2427 29.586 54.0434 29.5418 53.8219C29.4976 53.6005 29.5316 53.3705 29.638 53.1713C29.7444 52.9721 29.9165 52.8159 30.1251 52.7294L53.9237 42.8657V16.7284C53.9237 16.4696 54.0265 16.2213 54.2096 16.0383C54.3926 15.8553 54.6408 15.7524 54.8997 15.7524C55.1585 15.7524 55.4068 15.8553 55.5898 16.0383C55.7729 16.2213 55.8757 16.4696 55.8757 16.7284V43.5178C55.8757 43.7108 55.8185 43.8994 55.7113 44.0599C55.6042 44.2204 55.4519 44.3455 55.2736 44.4194L30.8736 54.535C30.7549 54.5833 30.6278 54.6078 30.4997 54.607Z" fill="#9747FF"/>
<path d="M40.0937 30.4934C39.8348 30.4934 39.5866 30.3906 39.4035 30.2076C39.2205 30.0245 39.1177 29.7763 39.1177 29.5174V22.4073C39.1177 22.1484 39.2205 21.9002 39.4035 21.7171C39.5866 21.5341 39.8348 21.4313 40.0937 21.4313C40.3525 21.4313 40.6008 21.5341 40.7838 21.7171C40.9668 21.9002 41.0697 22.1484 41.0697 22.4073V27.4288L43.1138 25.7208C43.2894 25.5738 43.5112 25.4932 43.7403 25.4933H45.8002V19.8434C45.8002 19.5846 45.9031 19.3363 46.0861 19.1533C46.2691 18.9703 46.5174 18.8674 46.7762 18.8674C47.0351 18.8674 47.2833 18.9703 47.4664 19.1533C47.6494 19.3363 47.7522 19.5846 47.7522 19.8434V26.4674C47.7522 26.7263 47.6494 26.9745 47.4664 27.1576C47.2833 27.3406 47.0351 27.4434 46.7762 27.4434H44.0922L40.7177 30.2659C40.5427 30.4124 40.3219 30.4929 40.0937 30.4934Z" fill="#9747FF"/>
<path d="M40.0933 23.383C39.9679 23.3835 39.8435 23.3595 39.7273 23.3122L15.2029 14.0171C14.9643 13.9228 14.7724 13.7385 14.6688 13.5039C14.5651 13.2692 14.5579 13.0032 14.6488 12.7634C14.7397 12.5235 14.9214 12.3291 15.1545 12.2222C15.3877 12.1152 15.6535 12.1044 15.8946 12.1919L40.4392 21.4938C40.4729 21.5066 40.5059 21.5212 40.538 21.5377C40.7333 21.6374 40.8893 21.8 40.9809 21.9991C41.0725 22.1983 41.0944 22.4225 41.043 22.6357C40.9917 22.8488 40.87 23.0384 40.6978 23.174C40.5255 23.3096 40.3126 23.3832 40.0933 23.383Z" fill="#9747FF"/>
<path d="M46.7763 20.8201C46.6582 20.8199 46.5412 20.7982 46.431 20.756L21.8852 11.4547C21.7653 11.4093 21.6556 11.3407 21.5622 11.2529C21.4688 11.165 21.3937 11.0597 21.341 10.9428C21.2884 10.8259 21.2593 10.6998 21.2553 10.5717C21.2514 10.4435 21.2728 10.3159 21.3182 10.196C21.3636 10.0761 21.4322 9.96636 21.5201 9.87298C21.6079 9.77961 21.7133 9.70446 21.8301 9.6518C21.947 9.59915 22.0731 9.57004 22.2013 9.56613C22.3294 9.56222 22.4571 9.58358 22.5769 9.629L47.1221 18.9309C47.3373 19.0107 47.5174 19.1638 47.6309 19.3633C47.7443 19.5627 47.7839 19.7958 47.7426 20.0215C47.7013 20.2472 47.5818 20.4512 47.4051 20.5976C47.2284 20.7439 47.0057 20.8234 46.7763 20.8219V20.8201Z" fill="#9747FF"/>
<path d="M37.0439 47.1707C36.785 47.1707 36.5368 47.0678 36.3537 46.8848C36.1707 46.7018 36.0679 46.4535 36.0679 46.1947V42.1906C36.0679 41.9977 36.125 41.809 36.2322 41.6486C36.3394 41.4881 36.4917 41.363 36.6699 41.2891L47.9818 36.6006C48.1301 36.5391 48.2913 36.5151 48.451 36.5308C48.6108 36.5465 48.7643 36.6013 48.8978 36.6905C49.0313 36.7797 49.1407 36.9004 49.2164 37.042C49.2921 37.1836 49.3317 37.3416 49.3317 37.5022V41.505C49.3318 41.6981 49.2747 41.8868 49.1675 42.0474C49.0604 42.208 48.908 42.3332 48.7296 42.4072L37.4178 47.0963C37.2993 47.1454 37.1722 47.1707 37.0439 47.1707ZM38.0199 42.8427V44.7337L47.3797 40.8535V38.9625L38.0199 42.8427Z" fill="#9747FF"/>
<path d="M30.5002 27.0617C30.3807 27.0617 30.2623 27.0398 30.1507 26.997L5.75069 17.6396C5.5663 17.5689 5.40769 17.444 5.29581 17.2813C5.18392 17.1186 5.12402 16.9257 5.12402 16.7283C5.12402 16.5308 5.18392 16.338 5.29581 16.1753C5.40769 16.0126 5.5663 15.8876 5.75069 15.8169L30.1507 6.45954C30.3758 6.37351 30.6247 6.37351 30.8498 6.45954L55.2497 15.8169C55.4341 15.8876 55.5927 16.0126 55.7046 16.1753C55.8165 16.338 55.8764 16.5308 55.8764 16.7283C55.8764 16.9257 55.8165 17.1186 55.7046 17.2813C55.5927 17.444 55.4341 17.5689 55.2497 17.6396L30.8498 26.997C30.7382 27.0398 30.6197 27.0617 30.5002 27.0617ZM8.8257 16.7283L30.5002 25.0407L52.1747 16.7283L30.5002 8.41886L8.8257 16.7283Z" fill="#9747FF"/>
</svg>
