<svg width="61" height="62" viewBox="0 0 61 62" fill="none" xmlns="http://www.w3.org/2000/svg">
<path d="M30.5 54.6065C30.3717 54.6065 30.2446 54.5812 30.1261 54.5321L5.72609 44.4189C5.54785 44.345 5.39553 44.2199 5.28836 44.0594C5.1812 43.8989 5.12401 43.7103 5.12402 43.5173V16.728C5.12402 16.4691 5.22685 16.2209 5.40989 16.0378C5.59292 15.8548 5.84117 15.752 6.10002 15.752C6.35887 15.752 6.60712 15.8548 6.79016 16.0378C6.97319 16.2209 7.07602 16.4691 7.07602 16.728V42.8652L29.524 52.1696V26.0854C29.524 25.8265 29.6268 25.5783 29.8099 25.3952C29.9929 25.2122 30.2412 25.1094 30.5 25.1094C30.7589 25.1094 31.0071 25.2122 31.1902 25.3952C31.3732 25.5783 31.476 25.8265 31.476 26.0854V53.6305C31.476 53.8894 31.3732 54.1376 31.1902 54.3206C31.0071 54.5037 30.7589 54.6065 30.5 54.6065Z" fill="#020105"/>
<path d="M30.4997 54.6065C30.2739 54.6067 30.0549 54.5285 29.8803 54.3854C29.7056 54.2422 29.586 54.0429 29.5418 53.8214C29.4976 53.6 29.5316 53.37 29.638 53.1708C29.7444 52.9716 29.9165 52.8154 30.1251 52.7289L53.9237 42.8652V16.728C53.9237 16.4691 54.0265 16.2209 54.2096 16.0378C54.3926 15.8548 54.6408 15.752 54.8997 15.752C55.1585 15.752 55.4068 15.8548 55.5898 16.0378C55.7729 16.2209 55.8757 16.4691 55.8757 16.728V43.5173C55.8757 43.7103 55.8185 43.8989 55.7113 44.0594C55.6042 44.2199 55.4519 44.345 55.2736 44.4189L30.8736 54.5345C30.7549 54.5828 30.6278 54.6073 30.4997 54.6065Z" fill="#020105"/>
<path d="M40.0937 30.4932C39.8348 30.4932 39.5866 30.3903 39.4035 30.2073C39.2205 30.0243 39.1177 29.776 39.1177 29.5172V22.407C39.1177 22.1482 39.2205 21.8999 39.4035 21.7169C39.5866 21.5338 39.8348 21.431 40.0937 21.431C40.3525 21.431 40.6008 21.5338 40.7838 21.7169C40.9668 21.8999 41.0697 22.1482 41.0697 22.407V27.4285L43.1138 25.7205C43.2894 25.5735 43.5112 25.493 43.7403 25.493H45.8002V19.8432C45.8002 19.5843 45.9031 19.3361 46.0861 19.1531C46.2691 18.97 46.5174 18.8672 46.7762 18.8672C47.0351 18.8672 47.2833 18.97 47.4664 19.1531C47.6494 19.3361 47.7522 19.5843 47.7522 19.8432V26.4672C47.7522 26.726 47.6494 26.9743 47.4664 27.1573C47.2833 27.3403 47.0351 27.4432 46.7762 27.4432H44.0922L40.7177 30.2656C40.5427 30.4121 40.3219 30.4926 40.0937 30.4932Z" fill="#020105"/>
<path d="M40.0933 23.3825C39.9679 23.383 39.8435 23.359 39.7273 23.3117L15.2029 14.0166C14.9643 13.9223 14.7724 13.738 14.6688 13.5034C14.5651 13.2688 14.5579 13.0028 14.6488 12.7629C14.7397 12.5231 14.9214 12.3286 15.1545 12.2217C15.3877 12.1147 15.6535 12.1039 15.8946 12.1914L40.4392 21.4933C40.4729 21.5061 40.5059 21.5208 40.538 21.5373C40.7333 21.6369 40.8893 21.7995 40.9809 21.9986C41.0725 22.1978 41.0944 22.422 41.043 22.6352C40.9917 22.8483 40.87 23.0379 40.6978 23.1735C40.5255 23.3091 40.3126 23.3827 40.0933 23.3825Z" fill="#020105"/>
<path d="M46.7763 20.8208C46.6582 20.8207 46.5412 20.799 46.431 20.7567L21.8852 11.4555C21.7653 11.41 21.6556 11.3415 21.5622 11.2536C21.4688 11.1658 21.3937 11.0604 21.341 10.9435C21.2884 10.8266 21.2593 10.7005 21.2553 10.5724C21.2514 10.4443 21.2728 10.3166 21.3182 10.1967C21.3636 10.0768 21.4322 9.96709 21.5201 9.87372C21.6079 9.78034 21.7133 9.70519 21.8301 9.65254C21.947 9.59989 22.0731 9.57077 22.2013 9.56686C22.3294 9.56295 22.4571 9.58431 22.5769 9.62973L47.1221 18.9316C47.3373 19.0115 47.5174 19.1646 47.6309 19.364C47.7443 19.5635 47.7839 19.7965 47.7426 20.0222C47.7013 20.248 47.5818 20.4519 47.4051 20.5983C47.2284 20.7447 47.0057 20.8241 46.7763 20.8226V20.8208Z" fill="#020105"/>
<path d="M37.0439 47.1699C36.785 47.1699 36.5368 47.0671 36.3537 46.8841C36.1707 46.701 36.0679 46.4528 36.0679 46.1939V42.1899C36.0679 41.9969 36.125 41.8083 36.2322 41.6478C36.3394 41.4874 36.4917 41.3623 36.6699 41.2883L47.9818 36.5999C48.1301 36.5384 48.2913 36.5144 48.451 36.5301C48.6108 36.5457 48.7643 36.6006 48.8978 36.6898C49.0313 36.7789 49.1407 36.8997 49.2164 37.0412C49.2921 37.1828 49.3317 37.3409 49.3317 37.5014V41.5043C49.3318 41.6973 49.2747 41.8861 49.1675 42.0467C49.0604 42.2073 48.908 42.3325 48.7296 42.4065L37.4178 47.0955C37.2993 47.1447 37.1722 47.17 37.0439 47.1699ZM38.0199 42.842V44.733L47.3797 40.8528V38.9618L38.0199 42.842Z" fill="#020105"/>
<path d="M30.5002 27.0612C30.3807 27.0612 30.2623 27.0393 30.1507 26.9965L5.75069 17.6391C5.5663 17.5685 5.40769 17.4435 5.29581 17.2808C5.18392 17.1181 5.12402 16.9253 5.12402 16.7278C5.12402 16.5303 5.18392 16.3375 5.29581 16.1748C5.40769 16.0121 5.5663 15.8871 5.75069 15.8165L30.1507 6.45905C30.3758 6.37303 30.6247 6.37303 30.8497 6.45905L55.2497 15.8165C55.4341 15.8871 55.5927 16.0121 55.7046 16.1748C55.8165 16.3375 55.8764 16.5303 55.8764 16.7278C55.8764 16.9253 55.8165 17.1181 55.7046 17.2808C55.5927 17.4435 55.4341 17.5685 55.2497 17.6391L30.8497 26.9965C30.7382 27.0393 30.6197 27.0612 30.5002 27.0612ZM8.8257 16.7278L30.5002 25.0403L52.1747 16.7278L30.5002 8.41837L8.8257 16.7278Z" fill="#020105"/>
</svg>
