<svg width="36" height="38" viewBox="0 0 36 38" fill="none" xmlns="http://www.w3.org/2000/svg">
<path fill-rule="evenodd" clip-rule="evenodd" d="M18.0002 8.11684C23.4564 8.11684 27.8796 12.5401 27.8796 17.9963C27.8796 23.4525 23.4564 27.8757 18.0002 27.8757C12.544 27.8757 8.12075 23.4525 8.12075 17.9963C8.12075 12.5401 12.544 8.11684 18.0002 8.11684ZM0.613281 17.9963C0.613281 17.0533 1.37773 16.2885 2.32108 16.2885C3.26442 16.2885 4.02887 17.0529 4.02887 17.9963C4.02887 18.9396 3.26442 19.7041 2.32108 19.7041C1.37773 19.7041 0.613281 18.9396 0.613281 17.9963ZM5.70581 5.70191C5.03908 6.36864 5.03908 7.45011 5.70581 8.11684C6.37255 8.78358 7.45402 8.78358 8.12075 8.11684C8.78749 7.45011 8.78749 6.36864 8.12075 5.70191C7.45402 5.03517 6.37255 5.03517 5.70581 5.70191ZM18.0002 0.609375C18.9432 0.609375 19.708 1.37382 19.708 2.31717C19.708 3.26052 18.9435 4.02497 18.0002 4.02497C17.0568 4.02497 16.2924 3.26052 16.2924 2.31717C16.2924 1.37382 17.0568 0.609375 18.0002 0.609375ZM30.2945 5.70191C29.6278 5.03517 28.5463 5.03517 27.8796 5.70191C27.2129 6.36864 27.2129 7.45011 27.8796 8.11684C28.5463 8.78358 29.6278 8.78358 30.2945 8.11684C30.9613 7.45011 30.9613 6.36864 30.2945 5.70191ZM35.3871 17.9963C35.3871 18.9393 34.6226 19.7041 33.6793 19.7041C32.7359 19.7041 31.9715 18.9396 31.9715 17.9963C31.9715 17.0529 32.7359 16.2885 33.6793 16.2885C34.6226 16.2885 35.3871 17.0529 35.3871 17.9963ZM30.2945 30.2906C30.9613 29.6239 30.9613 28.5424 30.2945 27.8757C29.6278 27.209 28.5463 27.209 27.8796 27.8757C27.2129 28.5424 27.2129 29.6239 27.8796 30.2906C28.5463 30.9574 29.6278 30.9574 30.2945 30.2906ZM18.0002 35.3832C17.0572 35.3832 16.2924 34.6187 16.2924 33.6754C16.2924 32.732 17.0568 31.9676 18.0002 31.9676C18.9435 31.9676 19.708 32.732 19.708 33.6754C19.708 34.6187 18.9435 35.3832 18.0002 35.3832ZM5.70581 30.2906C6.37255 30.9574 7.45402 30.9574 8.12075 30.2906C8.78749 29.6239 8.78749 28.5424 8.12075 27.8757C7.45402 27.209 6.37255 27.209 5.70581 27.8757C5.03908 28.5424 5.03908 29.6239 5.70581 30.2906ZM6.67524 17.5724C6.90961 17.5724 7.09916 17.7623 7.09916 17.9963C7.09916 18.2303 6.90924 18.4202 6.67524 18.4202H4.84144C4.88846 18.1392 4.88846 17.853 4.84144 17.572L6.67524 17.5724ZM10.2921 9.68872L8.9954 8.39199C8.82973 8.62378 8.62769 8.82619 8.39589 8.9915L9.69263 10.2882C9.8583 10.4539 10.1268 10.4539 10.2921 10.2882C10.4578 10.1226 10.4578 9.85403 10.2921 9.68872ZM18.4245 6.6717C18.4245 6.90607 18.2345 7.09562 18.0005 7.09562C17.7665 7.09562 17.5766 6.9057 17.5766 6.6717V4.83791C17.8576 4.88493 18.1438 4.88493 18.4248 4.83791L18.4245 6.6717ZM26.3081 10.2886L27.6048 8.99187C27.373 8.82619 27.1706 8.62415 27.0053 8.39235L25.7086 9.68909C25.5429 9.85476 25.5429 10.1233 25.7086 10.2886C25.8743 10.4539 26.1428 10.4543 26.3081 10.2886ZM29.3251 18.4209C29.0908 18.4209 28.9012 18.231 28.9012 17.997C28.9012 17.763 29.0911 17.5731 29.3251 17.5731H31.1589C31.1119 17.8541 31.1119 18.1403 31.1589 18.4213H29.3251V18.4209ZM25.7082 26.3046L27.005 27.6013C27.1706 27.3695 27.3727 27.1671 27.6045 27.0018L26.3077 25.705C26.1421 25.5394 25.8735 25.5394 25.7082 25.705C25.5425 25.8707 25.5425 26.1393 25.7082 26.3046ZM17.5759 29.3216C17.5759 29.0872 17.7658 28.8977 17.9998 28.8977C18.2338 28.8977 18.4237 29.0876 18.4237 29.3216V31.1554C18.1427 31.1084 17.8565 31.1084 17.5755 31.1554L17.5759 29.3216ZM9.69226 25.7047L8.39553 27.0014C8.62732 27.1671 8.82973 27.3691 8.99504 27.6009L10.2918 26.3042C10.4574 26.1385 10.4574 25.87 10.2918 25.7047C10.1261 25.5394 9.85757 25.539 9.69226 25.7047ZM15.2377 21.5063V19.6313C15.2377 18.9231 15.817 18.3438 16.5253 18.3438H19.4747C20.183 18.3438 20.7623 18.9231 20.7623 19.6313V21.5063H23.2114V17.8233C22.4326 18.1263 21.5554 17.9816 20.9169 17.4599C20.0687 18.1531 18.848 18.1531 18.0002 17.4599C17.152 18.1531 15.9313 18.1531 15.0834 17.4599C14.445 17.9816 13.5681 18.1263 12.789 17.8233V21.5063H15.2377ZM12.166 24.0145H23.8336V22.3545H12.166V24.0145ZM19.9137 21.5063V19.6313C19.9137 19.3896 19.7161 19.192 19.4743 19.192H16.5249C16.2832 19.192 16.0856 19.3896 16.0856 19.6313V21.5063H19.9137ZM23.8333 15.6728L22.4605 11.9784H13.5384L12.1656 15.6728C12.1656 16.4784 12.8188 17.1312 13.624 17.1312C14.4292 17.1312 15.0823 16.478 15.0823 15.6728C15.0823 16.4784 15.7355 17.1312 16.5407 17.1312C17.3459 17.1312 17.9991 16.478 17.9991 15.6728C17.9991 16.4784 18.6522 17.1312 19.4574 17.1312C20.2627 17.1312 20.9158 16.478 20.9158 15.6728C20.9158 16.4784 21.5686 17.1312 22.3742 17.1312C23.1798 17.1312 23.8325 16.478 23.8325 15.6728H23.8333Z" fill="url(#paint0_linear_1429_35183)"/>
<defs>
<linearGradient id="paint0_linear_1429_35183" x1="16.2303" y1="35.3832" x2="16.8888" y2="0.615933" gradientUnits="userSpaceOnUse">
<stop stop-color="#D660F2"/>
<stop offset="1" stop-color="#F897C7"/>
</linearGradient>
</defs>
</svg>
