<svg width="24" height="25" viewBox="0 0 24 25" fill="none" xmlns="http://www.w3.org/2000/svg">
<path d="M7.9306 4.48L2.59061 7.45003C1.38061 8.12003 0.390625 9.80001 0.390625 11.18V16.83C0.390625 18.21 1.38061 19.89 2.59061 20.56L7.9306 23.53C9.0706 24.16 10.9406 24.16 12.0806 23.53L17.4206 20.56C18.6306 19.89 19.6206 18.21 19.6206 16.83V11.18C19.6206 9.80001 18.6306 8.12003 17.4206 7.45003L12.0806 4.48C10.9306 3.84 9.0706 3.84 7.9306 4.48Z" fill="#9747FF"/>
<path d="M3.16992 7.43994L11.9999 12.5499L20.7699 7.46991" stroke="#1D272F" stroke-width="1.5" stroke-linecap="round" stroke-linejoin="round"/>
<path d="M12 21.61V12.54" stroke="#1D272F" stroke-width="1.5" stroke-linecap="round" stroke-linejoin="round"/>
<path d="M9.92963 2.48L4.58963 5.45003C3.37963 6.12003 2.38965 7.80001 2.38965 9.18001V14.83C2.38965 16.21 3.37963 17.89 4.58963 18.56L9.92963 21.53C11.0696 22.16 12.9396 22.16 14.0796 21.53L19.4196 18.56C20.6296 17.89 21.6196 16.21 21.6196 14.83V9.18001C21.6196 7.80001 20.6296 6.12003 19.4196 5.45003L14.0796 2.48C12.9296 1.84 11.0696 1.84 9.92963 2.48Z" stroke="#1D272F" stroke-width="1.5" stroke-linecap="round" stroke-linejoin="round"/>
<path d="M16.9998 13.2401V9.58014L7.50977 4.1001" stroke="#1D272F" stroke-width="1.5" stroke-linecap="round" stroke-linejoin="round"/>
</svg>
