<svg width="30" height="30" viewBox="0 0 30 30" fill="none" xmlns="http://www.w3.org/2000/svg">
<g clip-path="url(#clip0_2479_71085)">
<mask id="mask0_2479_71085" style="mask-type:luminance" maskUnits="userSpaceOnUse" x="0" y="0" width="30" height="30">
<path d="M0 0H30V30H0V0Z" fill="white"/>
<path fill-rule="evenodd" clip-rule="evenodd" d="M20.6469 19.4042L22.395 12.7511L19.8403 14.378C19.3309 14.7028 18.7145 14.8149 18.1234 14.6902C17.5323 14.5655 17.0136 14.214 16.6788 13.7111L14.9977 11.1854L13.3153 13.7123C12.9804 14.215 12.4616 14.5662 11.8705 14.6907C11.2794 14.8152 10.6631 14.7029 10.1538 14.378L7.60034 12.7511L9.34842 19.4042H20.6469ZM8.21996 11.7773C7.33496 11.213 6.21688 12.0288 6.48342 13.0442L8.23265 19.6973C8.29741 19.9439 8.44201 20.1621 8.64387 20.3178C8.84573 20.4735 9.09348 20.558 9.34842 20.558H20.6469C20.9018 20.558 21.1496 20.4735 21.3514 20.3178C21.5533 20.1621 21.6979 19.9439 21.7627 19.6973L23.5119 13.0442C23.7773 12.0288 22.6603 11.2142 21.7753 11.7773L19.2207 13.4042C18.9662 13.5667 18.658 13.6229 18.3625 13.5608C18.0669 13.4987 17.8075 13.3231 17.64 13.0719L15.9577 10.545C15.8523 10.3869 15.7095 10.2574 15.5421 10.1678C15.3746 10.0781 15.1876 10.0312 14.9977 10.0312C14.8077 10.0312 14.6207 10.0781 14.4532 10.1678C14.2858 10.2574 14.143 10.3869 14.0377 10.545L12.3553 13.0719C12.1879 13.3233 11.9286 13.4991 11.6331 13.5614C11.3375 13.6238 11.0293 13.5677 10.7746 13.4054L8.21996 11.7773Z" fill="black"/>
<path d="M16.0875 8.01306C16.0878 8.30225 15.9732 8.57971 15.769 8.78442C15.5647 8.98912 15.2875 9.10429 14.9983 9.1046C14.7091 9.1049 14.4316 8.99032 14.2269 8.78605C14.0222 8.58178 13.9071 8.30456 13.9068 8.01537C13.9065 7.72618 14.021 7.44871 14.2253 7.24401C14.4296 7.03931 14.7068 6.92413 14.996 6.92383C15.2852 6.92352 15.5626 7.03811 15.7673 7.24238C15.9721 7.44665 16.0872 7.72387 16.0875 8.01306ZM24.806 10.195C24.8061 10.3382 24.7779 10.48 24.7232 10.6123C24.6685 10.7446 24.5882 10.8649 24.487 10.9662C24.3858 11.0675 24.2657 11.1479 24.1334 11.2027C24.0011 11.2576 23.8594 11.2859 23.7162 11.2859C23.573 11.286 23.4312 11.2579 23.2989 11.2032C23.1665 11.1484 23.0463 11.0682 22.945 10.967C22.8437 10.8658 22.7633 10.7456 22.7084 10.6134C22.6536 10.4811 22.6253 10.3393 22.6252 10.1961C22.6252 9.90695 22.7401 9.62961 22.9446 9.42512C23.1491 9.22063 23.4264 9.10575 23.7156 9.10575C24.0048 9.10575 24.2821 9.22063 24.4866 9.42512C24.6911 9.62961 24.806 9.9058 24.806 10.195ZM7.37022 10.195C7.37038 10.4842 7.25564 10.7616 7.05126 10.9662C6.84689 11.1708 6.5696 11.2858 6.28041 11.2859C6.13722 11.286 5.99542 11.2579 5.8631 11.2032C5.73078 11.1484 5.61053 11.0682 5.50923 10.967C5.30463 10.7626 5.18961 10.4853 5.18945 10.1961C5.18945 9.90695 5.30433 9.62961 5.50882 9.42512C5.71331 9.22063 5.99065 9.10575 6.27984 9.10575C6.56903 9.10575 6.84637 9.22063 7.05086 9.42512C7.25534 9.62961 7.37022 9.9058 7.37022 10.195Z" fill="black"/>
<path fill-rule="evenodd" clip-rule="evenodd" d="M9.51953 21.9207C9.51953 21.7677 9.58031 21.6209 9.68851 21.5127C9.7967 21.4045 9.94344 21.3438 10.0965 21.3438H20.1776C20.3306 21.3438 20.4774 21.4045 20.5856 21.5127C20.6937 21.6209 20.7545 21.7677 20.7545 21.9207C20.7545 22.0737 20.6937 22.2204 20.5856 22.3286C20.4774 22.4368 20.3306 22.4976 20.1776 22.4976H10.0965C9.94344 22.4976 9.7967 22.4368 9.68851 22.3286C9.58031 22.2204 9.51953 22.0737 9.51953 21.9207Z" fill="black"/>
</mask>
<g mask="url(#mask0_2479_71085)">
<path d="M15 30C23.2843 30 30 23.2843 30 15C30 6.71573 23.2843 0 15 0C6.71573 0 0 6.71573 0 15C0 23.2843 6.71573 30 15 30Z" fill="#020105"/>
</g>
</g>
<defs>
<clipPath id="clip0_2479_71085">
<rect width="30" height="30" fill="white"/>
</clipPath>
</defs>
</svg>
