<svg width="32" height="32" viewBox="0 0 32 32" fill="none" xmlns="http://www.w3.org/2000/svg">
<g clip-path="url(#clip0_2832_84028)">
<path d="M16 0C7.17725 0 0 7.17725 0 16C0 24.8228 7.17725 32 16 32C24.8228 32 32 24.8228 32 16C32 7.17725 24.8228 0 16 0Z" fill="#FEDE2B"/>
<path d="M17.3335 23.9973C17.3335 24.7336 16.7366 25.3306 16.0002 25.3306C15.2639 25.3306 14.667 24.7336 14.667 23.9973C14.667 23.261 15.2639 22.6641 16.0002 22.6641C16.7366 22.6641 17.3335 23.261 17.3335 23.9973Z" fill="#ECEFF1"/>
<path d="M18.1106 16.8586C17.6387 17.0759 17.3333 17.552 17.3333 18.0708V18.6694C17.3333 19.4053 16.7373 20.0027 16 20.0027C15.2627 20.0027 14.6667 19.4053 14.6667 18.6694V18.0708C14.6667 16.5146 15.5813 15.0881 16.9934 14.436C18.3521 13.8108 19.3333 12.1506 19.3333 11.3359C19.3333 9.49878 17.8386 8.00269 16 8.00269C14.1614 8.00269 12.6667 9.49878 12.6667 11.3359C12.6667 12.072 12.0706 12.6694 11.3333 12.6694C10.5959 12.6694 10 12.072 10 11.3359C10 8.02808 12.6919 5.33594 16 5.33594C19.3081 5.33594 22 8.02808 22 11.3359C22 13.1375 20.4373 15.7854 18.1106 16.8586Z" fill="#FAFAFA"/>
</g>
<defs>
<clipPath id="clip0_2832_84028">
<rect width="32" height="32" fill="white"/>
</clipPath>
</defs>
</svg>
