<svg width="22" height="22" viewBox="0 0 22 22" fill="none" xmlns="http://www.w3.org/2000/svg">
<g clip-path="url(#clip0_2477_70975)">
<mask id="mask0_2477_70975" style="mask-type:luminance" maskUnits="userSpaceOnUse" x="0" y="0" width="22" height="22">
<path d="M11.0007 20.1673C12.2047 20.1689 13.3971 19.9325 14.5095 19.4717C15.6218 19.011 16.6322 18.3349 17.4824 17.4824C18.3349 16.6322 19.011 15.6218 19.4717 14.5095C19.9325 13.3971 20.1689 12.2047 20.1673 11.0007C20.1689 9.79665 19.9325 8.60421 19.4717 7.49185C19.0109 6.3795 18.3349 5.36917 17.4824 4.51891C16.6322 3.66642 15.6218 2.99037 14.5095 2.5296C13.3971 2.06883 12.2047 1.83243 11.0007 1.83399C9.79665 1.83246 8.60421 2.06887 7.49185 2.52963C6.3795 2.9904 5.36917 3.66644 4.51891 4.51891C3.66644 5.36917 2.9904 6.3795 2.52963 7.49185C2.06887 8.60421 1.83246 9.79665 1.83399 11.0007C1.83243 12.2047 2.06883 13.3971 2.5296 14.5095C2.99037 15.6218 3.66642 16.6322 4.51891 17.4824C5.36917 18.3349 6.3795 19.0109 7.49185 19.4717C8.60421 19.9325 9.79665 20.1689 11.0007 20.1673Z" fill="white" stroke="white" stroke-width="2" stroke-linejoin="round"/>
<path d="M7.33398 11L10.084 13.75L15.584 8.25" stroke="black" stroke-width="2" stroke-linecap="round" stroke-linejoin="round"/>
</mask>
<g mask="url(#mask0_2477_70975)">
<path d="M0 0H22V22H0V0Z" fill="#FEDE2B"/>
</g>
</g>
<defs>
<clipPath id="clip0_2477_70975">
<rect width="22" height="22" fill="white"/>
</clipPath>
</defs>
</svg>
