<svg width="8" height="16" viewBox="0 0 8 16" fill="none" xmlns="http://www.w3.org/2000/svg">
<path d="M7.9938 7.86714C7.96562 7.57474 7.8475 7.29823 7.65594 7.0757L2.53345 1.09945C2.29246 0.798705 1.93968 0.608736 1.556 0.572614C1.17228 0.536684 0.790577 0.657775 0.497761 0.908493C0.20496 1.15901 0.0263038 1.5177 0.00267839 1.90225C-0.0209436 2.28696 0.112457 2.66473 0.3725 2.94936L4.7036 8.00061L0.3725 13.0519C0.11265 13.3365 -0.0207481 13.7143 0.00287676 14.099C0.0263014 14.4835 0.20496 14.8422 0.497761 15.0927C0.790562 15.3434 1.17248 15.4645 1.55621 15.4286C1.93993 15.3925 2.29247 15.2025 2.53345 14.9018L7.65594 8.92553C7.90745 8.63312 8.02934 8.25117 7.994 7.86729L7.9938 7.86714Z" fill="#C4C4C4"/>
</svg>
