<svg width="36" height="36" viewBox="0 0 36 36" fill="none" xmlns="http://www.w3.org/2000/svg">
<g filter="url(#filter0_biii_2218_49999)">
<rect width="36" height="36" rx="18" fill="url(#paint0_radial_2218_49999)"/>
<path d="M18.9998 20.75H17.9998C17.5898 20.75 17.2498 20.41 17.2498 20C17.2498 19.59 17.5898 19.25 17.9998 19.25H18.9998C19.6898 19.25 20.2498 18.69 20.2498 18V8.75H11.9998C10.8198 8.75 9.73975 9.38998 9.15975 10.42C8.95975 10.78 8.49979 10.91 8.13979 10.71C7.77979 10.51 7.64975 10.05 7.84975 9.69C8.68975 8.19 10.2798 7.25 11.9998 7.25H20.9998C21.4098 7.25 21.7498 7.59 21.7498 8V18C21.7498 19.52 20.5198 20.75 18.9998 20.75Z" fill="#020105"/>
<path d="M25 26.75H24C23.59 26.75 23.25 26.41 23.25 26C23.25 25.31 22.69 24.75 22 24.75C21.31 24.75 20.75 25.31 20.75 26C20.75 26.41 20.41 26.75 20 26.75H16C15.59 26.75 15.25 26.41 15.25 26C15.25 25.31 14.69 24.75 14 24.75C13.31 24.75 12.75 25.31 12.75 26C12.75 26.41 12.41 26.75 12 26.75H11C8.93 26.75 7.25 25.07 7.25 23C7.25 22.59 7.59 22.25 8 22.25C8.41 22.25 8.75 22.59 8.75 23C8.75 24.24 9.76 25.25 11 25.25H11.35C11.68 24.1 12.74 23.25 14 23.25C15.26 23.25 16.32 24.1 16.65 25.25H19.36C19.69 24.1 20.75 23.25 22.01 23.25C23.27 23.25 24.33 24.1 24.66 25.25H25C26.24 25.25 27.25 24.24 27.25 23V20.75H25C24.04 20.75 23.25 19.96 23.25 19V16C23.25 15.04 24.03 14.25 25 14.25L23.93 12.38C23.71 11.99 23.29 11.75 22.84 11.75H21.75V18C21.75 19.52 20.52 20.75 19 20.75H18C17.59 20.75 17.25 20.41 17.25 20C17.25 19.59 17.59 19.25 18 19.25H19C19.69 19.25 20.25 18.69 20.25 18V11C20.25 10.59 20.59 10.25 21 10.25H22.84C23.83 10.25 24.74 10.78 25.23 11.64L26.94 14.63C27.07 14.86 27.07 15.15 26.94 15.38C26.81 15.61 26.56 15.75 26.29 15.75H25C24.86 15.75 24.75 15.86 24.75 16V19C24.75 19.14 24.86 19.25 25 19.25H28C28.41 19.25 28.75 19.59 28.75 20V23C28.75 25.07 27.07 26.75 25 26.75Z" fill="#020105"/>
<path d="M14 28.75C12.48 28.75 11.25 27.52 11.25 26C11.25 24.48 12.48 23.25 14 23.25C15.52 23.25 16.75 24.48 16.75 26C16.75 27.52 15.52 28.75 14 28.75ZM14 24.75C13.31 24.75 12.75 25.31 12.75 26C12.75 26.69 13.31 27.25 14 27.25C14.69 27.25 15.25 26.69 15.25 26C15.25 25.31 14.69 24.75 14 24.75Z" fill="#020105"/>
<path d="M22 28.75C20.48 28.75 19.25 27.52 19.25 26C19.25 24.48 20.48 23.25 22 23.25C23.52 23.25 24.75 24.48 24.75 26C24.75 27.52 23.52 28.75 22 28.75ZM22 24.75C21.31 24.75 20.75 25.31 20.75 26C20.75 26.69 21.31 27.25 22 27.25C22.69 27.25 23.25 26.69 23.25 26C23.25 25.31 22.69 24.75 22 24.75Z" fill="#020105"/>
<path d="M28 20.75H25C24.04 20.75 23.25 19.96 23.25 19V16C23.25 15.04 24.04 14.25 25 14.25H26.29C26.56 14.25 26.81 14.39 26.94 14.63L28.65 17.63C28.71 17.74 28.75 17.87 28.75 18V20C28.75 20.41 28.41 20.75 28 20.75ZM25 15.75C24.86 15.75 24.75 15.86 24.75 16V19C24.75 19.14 24.86 19.25 25 19.25H27.25V18.2L25.85 15.75H25Z" fill="#020105"/>
<path d="M14 14.75H8C7.59 14.75 7.25 14.41 7.25 14C7.25 13.59 7.59 13.25 8 13.25H14C14.41 13.25 14.75 13.59 14.75 14C14.75 14.41 14.41 14.75 14 14.75Z" fill="#020105"/>
<path d="M12 17.75H8C7.59 17.75 7.25 17.41 7.25 17C7.25 16.59 7.59 16.25 8 16.25H12C12.41 16.25 12.75 16.59 12.75 17C12.75 17.41 12.41 17.75 12 17.75Z" fill="#020105"/>
<path d="M10 20.75H8C7.59 20.75 7.25 20.41 7.25 20C7.25 19.59 7.59 19.25 8 19.25H10C10.41 19.25 10.75 19.59 10.75 20C10.75 20.41 10.41 20.75 10 20.75Z" fill="#020105"/>
</g>
<defs>
<filter id="filter0_biii_2218_49999" x="-69" y="-69" width="174" height="174" filterUnits="userSpaceOnUse" color-interpolation-filters="sRGB">
<feFlood flood-opacity="0" result="BackgroundImageFix"/>
<feGaussianBlur in="BackgroundImageFix" stdDeviation="34.5"/>
<feComposite in2="SourceAlpha" operator="in" result="effect1_backgroundBlur_2218_49999"/>
<feBlend mode="normal" in="SourceGraphic" in2="effect1_backgroundBlur_2218_49999" result="shape"/>
<feColorMatrix in="SourceAlpha" type="matrix" values="0 0 0 0 0 0 0 0 0 0 0 0 0 0 0 0 0 0 127 0" result="hardAlpha"/>
<feOffset dy="3"/>
<feGaussianBlur stdDeviation="1.5"/>
<feComposite in2="hardAlpha" operator="arithmetic" k2="-1" k3="1"/>
<feColorMatrix type="matrix" values="0 0 0 0 1 0 0 0 0 1 0 0 0 0 1 0 0 0 0.08 0"/>
<feBlend mode="normal" in2="shape" result="effect2_innerShadow_2218_49999"/>
<feColorMatrix in="SourceAlpha" type="matrix" values="0 0 0 0 0 0 0 0 0 0 0 0 0 0 0 0 0 0 127 0" result="hardAlpha"/>
<feOffset dy="-4"/>
<feGaussianBlur stdDeviation="2"/>
<feComposite in2="hardAlpha" operator="arithmetic" k2="-1" k3="1"/>
<feColorMatrix type="matrix" values="0 0 0 0 1 0 0 0 0 1 0 0 0 0 1 0 0 0 0.1 0"/>
<feBlend mode="normal" in2="effect2_innerShadow_2218_49999" result="effect3_innerShadow_2218_49999"/>
<feColorMatrix in="SourceAlpha" type="matrix" values="0 0 0 0 0 0 0 0 0 0 0 0 0 0 0 0 0 0 127 0" result="hardAlpha"/>
<feOffset dy="1"/>
<feGaussianBlur stdDeviation="0.5"/>
<feComposite in2="hardAlpha" operator="arithmetic" k2="-1" k3="1"/>
<feColorMatrix type="matrix" values="0 0 0 0 1 0 0 0 0 1 0 0 0 0 1 0 0 0 0.15 0"/>
<feBlend mode="normal" in2="effect3_innerShadow_2218_49999" result="effect4_innerShadow_2218_49999"/>
</filter>
<radialGradient id="paint0_radial_2218_49999" cx="0" cy="0" r="1" gradientUnits="userSpaceOnUse" gradientTransform="translate(7.5) rotate(73.7398) scale(37.5)">
<stop stop-color="#FCEC92"/>
<stop offset="0.994792" stop-color="#FFE44A"/>
</radialGradient>
</defs>
</svg>
