<svg width="56" height="56" viewBox="0 0 56 56" fill="none" xmlns="http://www.w3.org/2000/svg">
<g clip-path="url(#clip0_857_72921)">
<path d="M46.031 44.9494V45.2494H46.331H49.0852C49.4024 45.2494 49.6897 45.5268 49.6897 45.9086C49.6897 46.292 49.4027 46.5697 49.0869 46.5697H24.4808H12.7989H6.91718C6.60064 46.5697 6.3127 46.2912 6.3127 45.9086C6.3127 45.526 6.60064 45.2476 6.91718 45.2476H9.97173H10.4309L10.2465 44.8271C10.0699 44.4245 9.96966 43.9903 9.96966 43.5404V43.5403L9.96797 31.4028C9.96797 31.4028 9.96797 31.4028 9.96797 31.4028C9.96799 29.7158 11.2539 28.3752 12.7974 28.3717C12.7975 28.3717 12.7977 28.3717 12.7978 28.3717L24.4808 28.3717C26.0199 28.3717 27.3068 29.7132 27.3083 31.4031V43.5386C27.3083 43.9886 27.2081 44.4247 27.0315 44.8271L26.8471 45.2476H27.3063H29.2171H29.4455L29.5063 45.0274C29.6378 44.5506 29.7173 44.0557 29.7173 43.5386L29.7173 31.3992L29.7173 31.3989C29.7137 28.3593 27.3824 25.8497 24.4808 25.8497H24.4092V16.2991C24.4092 16.0886 24.5643 15.9506 24.7184 15.9506H42.9931C43.1449 15.9506 43.3006 16.088 43.3006 16.2991V44.9476V45.2476H43.6006H44.5254H44.8254V44.9476V16.2991C44.8254 15.2522 44.0216 14.3661 42.9931 14.3661H24.7184C23.6883 14.3661 22.8843 15.252 22.8843 16.2991V25.8497H21.6771V16.2991C21.6771 14.4851 23.0602 13.0422 24.7184 13.0422H42.9914C44.6494 13.0422 46.031 14.4849 46.031 16.2991V44.9494ZM16.534 29.6974L16.2341 29.6973L16.2339 29.9972L16.2305 35.7978L16.2301 36.5295L16.7441 36.0086L18.2283 34.5045C18.2284 34.5044 18.2284 34.5043 18.2285 34.5043C18.4607 34.2705 18.8173 34.2705 19.0495 34.5043C19.0495 34.5043 19.0496 34.5044 19.0497 34.5045L20.5339 36.0086L21.0475 36.5291V35.7979V29.9992V29.6994L20.7476 29.6992L16.534 29.6974ZM11.1752 31.4028V31.4029L11.1769 43.5404C11.1769 43.5404 11.1769 43.5404 11.1769 43.5404C11.1769 43.9917 11.3417 44.4181 11.6452 44.7411C11.9487 45.0642 12.3593 45.2494 12.7989 45.2494L24.4808 45.2512C24.9217 45.2512 25.3299 45.0633 25.6321 44.7437L25.6335 44.7422C25.9362 44.4178 26.1011 43.99 26.1011 43.5422V31.4046C26.1011 30.484 25.3921 29.6992 24.4808 29.6992H22.5548H22.2548V29.9992V38.0452C22.2548 38.3202 22.1011 38.5569 21.8833 38.6568C21.8058 38.6911 21.7255 38.708 21.652 38.708C21.5031 38.708 21.3566 38.6499 21.2419 38.5327L21.2411 38.5319L18.8535 36.1094L18.6399 35.8927L18.4263 36.1093L16.0369 38.5318L16.0367 38.532C15.8614 38.7101 15.6107 38.7554 15.3959 38.6574C15.1775 38.5578 15.0233 38.3208 15.0232 38.0453C15.0232 38.0452 15.0232 38.0452 15.0232 38.0452L15.0266 29.9975L15.0268 29.6974H14.7266L12.7989 29.6974L12.7981 29.6974C11.8873 29.6997 11.1752 30.4786 11.1752 31.4028ZM42.1374 32.4199C42.1374 30.8302 40.9205 29.5095 39.3819 29.5095C37.8431 29.5095 36.6281 30.8304 36.6281 32.4199C36.6281 34.0107 37.8427 35.3338 39.3819 35.3338C40.9209 35.3338 42.1374 34.011 42.1374 32.4199Z" fill="#FEDE2B" stroke="black" stroke-width="0.6"/>
<path d="M40.6431 32.4181C40.6431 33.184 40.0636 33.7777 39.3811 33.7777C38.6987 33.7777 38.1191 33.184 38.1191 32.4181C38.1191 31.6523 38.6987 31.0586 39.3811 31.0586C40.0636 31.0586 40.6431 31.6523 40.6431 32.4181Z" fill="#FEDE2B" stroke="black" stroke-width="0.5"/>
</g>
<defs>
<clipPath id="clip0_857_72921">
<rect width="56" height="56" fill="white"/>
</clipPath>
</defs>
</svg>
