<svg width="57" height="56" viewBox="0 0 57 56" fill="none" xmlns="http://www.w3.org/2000/svg">
<path d="M9.78819 30.3013V30.2939L9.78776 30.2865L8.8838 14.9468C8.88753 14.1105 9.5493 13.4302 10.377 13.3959L15.252 16.2552L15.2808 18.2878L15.2821 18.379L15.3419 18.448L22.0165 26.1435L22.0166 26.1437C22.4954 26.6949 22.4359 27.5293 21.8841 28.0086L21.884 28.0086C21.3339 28.4867 20.499 28.4272 20.021 27.8761L20.0209 27.8761L15.7879 22.998L15.3393 22.481L15.3491 23.1654L15.4515 30.3018C15.4515 30.3024 15.4515 30.303 15.4515 30.3035C15.4508 31.0241 14.9602 31.6298 14.2949 31.8069L14.0753 31.8653L14.1126 32.0895C14.1253 32.1658 14.1327 32.2426 14.1327 32.3184V47.5067V47.7044L14.3251 47.75L16.4565 48.2551L16.4849 48.2618H16.5141C17.3078 48.2618 17.9514 48.9058 17.9514 49.6991C17.9514 49.9009 17.9103 50.0078 17.8668 50.0674C17.8256 50.1238 17.7604 50.1679 17.6445 50.1979C17.5238 50.2291 17.3683 50.2398 17.1702 50.2403C17.073 50.2405 16.9703 50.2384 16.86 50.2361L16.8593 50.2361C16.7498 50.2338 16.6336 50.2314 16.5141 50.2314H12.8696H12.8561L12.8426 50.2329C12.7975 50.2378 12.7493 50.2398 12.6966 50.2398C11.9029 50.2398 11.2599 49.5964 11.2599 48.8025V32.3189C11.2599 32.2534 11.2658 32.1872 11.2758 32.1168L11.31 31.8777L11.0721 31.8354C10.3424 31.7055 9.78819 31.0692 9.78819 30.3013Z" fill="#FEDE2B" stroke="black" stroke-width="0.5"/>
<path d="M15.9355 9.12105C15.9355 10.9095 14.4857 12.3593 12.6972 12.3593C10.9088 12.3593 9.45898 10.9095 9.45898 9.12105C9.45898 7.33262 10.9088 5.88281 12.6972 5.88281C14.4857 5.88281 15.9355 7.33262 15.9355 9.12105Z" fill="#FEDE2B" stroke="black" stroke-width="0.5"/>
<path d="M34.7302 23.3689L33.8021 22.4414H34.5305C34.6413 22.4414 34.7298 22.5303 34.7302 22.6398V23.3689Z" fill="#FEDE2B" stroke="black" stroke-width="0.5"/>
<path d="M32.1056 30.9036V30.6676V30.2532V30.0032H31.8556H31.4406H31.1906V30.2532V30.6676V30.9036H26.4656C26.3558 30.9036 26.2676 30.8147 26.2676 30.7062V22.6394C26.2676 22.53 26.3561 22.4414 26.4656 22.4414C26.4656 22.4414 26.4656 22.4414 26.4656 22.4414L32.3708 22.442L34.7304 24.8004V30.7062C34.7304 30.8141 34.6423 30.9036 34.5307 30.9036H33.9788V30.667V30.2526V30.0026H33.7288H33.3144H33.0644V30.0032H32.8328H32.4178H32.1678V30.2532V30.6676V30.9036H32.1056Z" fill="#FEDE2B" stroke="black" stroke-width="0.5"/>
<path d="M45.0187 23.3688L44.091 22.4414H44.819C44.9298 22.4414 45.0183 22.5303 45.0187 22.6398V23.3688Z" fill="#FEDE2B" stroke="black" stroke-width="0.5"/>
<path d="M42.3942 30.9036V30.6676V30.2532V30.0032H42.1442H41.7293H41.4793V30.2532V30.6676V30.9036H36.7542C36.6437 30.9036 36.5557 30.8145 36.5557 30.7062V22.6394C36.5557 22.5304 36.6444 22.4414 36.7542 22.4414C36.7542 22.4414 36.7542 22.4414 36.7542 22.4414L42.6584 22.442L45.0185 24.8005V30.7062C45.0185 30.8141 44.9304 30.9036 44.8188 30.9036H44.2674V30.667V30.2526V30.0026H44.0174H43.6025H43.3525V30.0032H43.1209H42.7065H42.4565V30.2532V30.6676V30.9036H42.3942Z" fill="#FEDE2B" stroke="black" stroke-width="0.5"/>
<path d="M34.7302 33.6615L33.8022 32.7344H34.5305C34.6415 32.7344 34.7298 32.8234 34.7302 32.9322V33.6615Z" fill="#FEDE2B" stroke="black" stroke-width="0.5"/>
<path d="M31.1906 41.1977H26.4656C26.3572 41.1977 26.2676 41.108 26.2676 40.9986V32.9318C26.2676 32.8231 26.3559 32.7344 26.4656 32.7344H32.3708L34.7304 35.0934V40.9986C34.7304 41.1074 34.6409 41.1977 34.5307 41.1977H33.9788V40.9611V40.5467V40.2967H33.7288H33.3144H33.0828H33.0644H32.8328H32.4178H32.1678V40.5467V40.9617V41.1977H32.1056V40.9617V40.5467V40.2967H31.8556H31.4406H31.1906V40.5467V40.9617V41.1977Z" fill="#FEDE2B" stroke="black" stroke-width="0.5"/>
<path d="M45.0181 33.6612L44.091 32.7344H44.8195C44.9297 32.7344 45.0177 32.8226 45.0181 32.9322V33.6612Z" fill="#FEDE2B" stroke="black" stroke-width="0.5"/>
<path d="M41.4808 41.1977H36.7558C36.6451 41.1977 36.5566 41.108 36.5566 40.9986V32.9318C36.5566 32.8233 36.6442 32.7344 36.7558 32.7344H42.6593L45.0178 35.0934V40.9986C45.0178 41.1082 44.9286 41.1977 44.8192 41.1977H44.2684V40.9611V40.5467V40.2967H44.0184H43.6034H43.3707H43.3534H43.1207H42.7063H42.4563V40.5467V40.9617V41.1977H42.3952V40.9617V40.5467V40.2967H42.1452H41.7308H41.4808V40.5467V40.9617V41.1977Z" fill="#FEDE2B" stroke="black" stroke-width="0.5"/>
<path d="M24.9953 42.0595V42.1595H25.0953H47.1781V43.2016H23.9538V42.0595V26.9765V26.8765H23.8538H20.5238V25.8344H24.9953V26.9765V42.0595Z" fill="#FEDE2B" stroke="black" stroke-width="0.2"/>
<path d="M25.9651 47.3853C25.9651 45.8094 27.2435 44.5312 28.8208 44.5312C30.3976 44.5312 31.676 45.8099 31.676 47.3853C31.676 48.9636 30.3976 50.2405 28.8208 50.2405C27.2436 50.2405 25.9651 48.963 25.9651 47.3853ZM27.5948 47.3853C27.5948 48.064 28.1426 48.6131 28.8208 48.6131C29.4982 48.6131 30.0458 48.0638 30.0458 47.3853C30.0458 46.7092 29.4977 46.1604 28.8208 46.1604C28.143 46.1604 27.5948 46.709 27.5948 47.3853Z" fill="#FEDE2B" stroke="black" stroke-width="0.5"/>
<path d="M42.5797 47.3858V47.3853C42.5797 46.709 42.0315 46.1604 41.3537 46.1604C40.6785 46.1604 40.1276 46.7086 40.1276 47.3853C40.1276 48.0644 40.678 48.6131 41.3537 48.6131C42.0324 48.6131 42.5783 48.0636 42.5797 47.3858ZM38.499 47.3853C38.499 45.8092 39.7754 44.5312 41.3537 44.5312C42.9293 44.5312 44.2089 45.8099 44.2089 47.3853C44.2089 48.9636 42.9315 50.2405 41.3537 50.2405C39.776 50.2405 38.499 48.9632 38.499 47.3853Z" fill="#FEDE2B" stroke="black" stroke-width="0.5"/>
<mask id="path-14-inside-1_857_72958" fill="white">
<path d="M44.2947 14.1672C42.337 15.2961 40.9431 15.0727 40.9431 15.0727L21.9916 8.92612C21.2703 8.63716 20.2091 7.53452 20.4964 6.8138C20.7854 6.09308 22.3153 6.02756 23.0366 6.31652"/>
</mask>
<path d="M44.2947 14.1672C42.337 15.2961 40.9431 15.0727 40.9431 15.0727L21.9916 8.92612C21.2703 8.63716 20.2091 7.53452 20.4964 6.8138C20.7854 6.09308 22.3153 6.02756 23.0366 6.31652" fill="#FEDE2B"/>
<path d="M40.9431 15.0727L40.7889 15.5483L40.8257 15.5602L40.864 15.5664L40.9431 15.0727ZM21.9916 8.92612L21.8057 9.39026L21.8213 9.39653L21.8374 9.40173L21.9916 8.92612ZM20.4964 6.8138L20.0323 6.62773L20.032 6.62866L20.4964 6.8138ZM44.045 13.734C43.1244 14.2648 42.3478 14.4716 41.8136 14.5484C41.546 14.5868 41.3379 14.5928 41.2018 14.5901C41.1337 14.5887 41.0837 14.5851 41.0532 14.5822C41.038 14.5808 41.0277 14.5796 41.0224 14.5789C41.0198 14.5786 41.0185 14.5784 41.0185 14.5784C41.0184 14.5784 41.0187 14.5784 41.0194 14.5785C41.0197 14.5786 41.0201 14.5786 41.0206 14.5787C41.0208 14.5788 41.0211 14.5788 41.0214 14.5788C41.0215 14.5789 41.0217 14.5789 41.0218 14.5789C41.022 14.5789 41.0223 14.579 40.9431 15.0727C40.864 15.5664 40.8642 15.5664 40.8645 15.5665C40.8646 15.5665 40.8649 15.5665 40.865 15.5665C40.8654 15.5666 40.8658 15.5667 40.8662 15.5667C40.867 15.5669 40.8679 15.567 40.8689 15.5671C40.8709 15.5674 40.8733 15.5678 40.8759 15.5682C40.8813 15.569 40.888 15.5699 40.8961 15.5709C40.9123 15.573 40.9338 15.5754 40.9605 15.5779C41.0139 15.5829 41.0881 15.5879 41.1813 15.5898C41.3677 15.5937 41.6304 15.585 41.9559 15.5382C42.6082 15.4444 43.5073 15.1984 44.5445 14.6003L44.045 13.734ZM41.0974 14.5971L22.1459 8.45051L21.8374 9.40173L40.7889 15.5483L41.0974 14.5971ZM22.1776 8.46198C21.915 8.35679 21.5357 8.07103 21.2572 7.72068C21.121 7.54946 21.0277 7.38586 20.9813 7.24791C20.9349 7.10977 20.9467 7.03444 20.9609 6.99893L20.032 6.62866C19.9025 6.95351 19.9392 7.28629 20.0335 7.56663C20.1278 7.84715 20.291 8.11241 20.4745 8.34306C20.835 8.79645 21.347 9.20649 21.8057 9.39026L22.1776 8.46198ZM20.9605 6.99987C20.9748 6.96434 21.0181 6.90165 21.147 6.83371C21.2757 6.76584 21.4561 6.71179 21.6729 6.68182C22.1164 6.62049 22.5882 6.67551 22.8506 6.78066L23.2225 5.85238C22.7637 5.66857 22.1099 5.61187 21.5359 5.69124C21.2439 5.73162 20.9426 5.81102 20.6806 5.94911C20.4188 6.08713 20.1626 6.3029 20.0323 6.62773L20.9605 6.99987Z" fill="black" mask="url(#path-14-inside-1_857_72958)"/>
<mask id="path-16-inside-2_857_72958" fill="white">
<path d="M36.6318 11.0087L40.7136 4.77025L39.5678 3.60938L29.5657 8.37554"/>
</mask>
<path d="M36.6318 11.0087L40.7136 4.77025L39.5678 3.60938L29.5657 8.37554" fill="#FEDE2B"/>
<path d="M40.7136 4.77025L41.132 5.04401L41.353 4.70628L41.0695 4.41903L40.7136 4.77025ZM39.5678 3.60938L39.9237 3.25815L39.6738 3.005L39.3527 3.158L39.5678 3.60938ZM37.0502 11.2824L41.132 5.04401L40.2952 4.49649L36.2134 10.7349L37.0502 11.2824ZM41.0695 4.41903L39.9237 3.25815L39.212 3.9606L40.3577 5.12148L41.0695 4.41903ZM39.3527 3.158L29.3506 7.92416L29.7808 8.82691L39.7829 4.06075L39.3527 3.158Z" fill="black" mask="url(#path-16-inside-2_857_72958)"/>
<mask id="path-18-inside-3_857_72958" fill="white">
<path d="M44.3734 13.924L45.8137 11.7658L45.3708 11.4062L41.9648 13.0347"/>
</mask>
<path d="M44.3734 13.924L45.8137 11.7658L45.3708 11.4062L41.9648 13.0347" fill="#FEDE2B"/>
<path d="M45.8137 11.7658L46.2296 12.0433L46.4824 11.6645L46.1288 11.3775L45.8137 11.7658ZM45.3708 11.4062L45.6859 11.018L45.4403 10.8188L45.1551 10.9552L45.3708 11.4062ZM44.7893 14.2016L46.2296 12.0433L45.3978 11.4882L43.9575 13.6465L44.7893 14.2016ZM46.1288 11.3775L45.6859 11.018L45.0557 11.7945L45.4986 12.154L46.1288 11.3775ZM45.1551 10.9552L41.7492 12.5836L42.1805 13.4858L45.5864 11.8573L45.1551 10.9552Z" fill="black" mask="url(#path-18-inside-3_857_72958)"/>
</svg>
