<svg width="57" height="56" viewBox="0 0 57 56" fill="none" xmlns="http://www.w3.org/2000/svg">
<path d="M37.2193 14.3962L37.2578 14.4332C38.0901 15.2318 38.6047 15.9085 38.8962 16.4418C39.0415 16.7076 39.1378 16.9496 39.1857 17.1619C39.2283 17.3509 39.2528 17.6042 39.1415 17.8268L39.1415 17.8269C39.0231 18.0637 38.7902 18.1933 38.6092 18.2665C38.4057 18.3487 38.1519 18.4058 37.8563 18.4376C37.2658 18.501 36.4459 18.4698 35.3813 18.2753C35.2927 18.2644 35.204 18.2462 35.1345 18.232C35.1216 18.2293 35.1094 18.2268 35.0979 18.2245C35.0973 18.2244 35.0967 18.2243 35.0961 18.2242L35.1943 17.7339C34.996 17.6958 34.7977 17.6514 34.5943 17.6059C34.5488 17.5957 34.503 17.5855 34.4569 17.5752L37.2193 14.3962ZM37.2193 14.3962L37.1739 14.3683L35.5686 13.3789L35.2085 13.157L34.93 13.4753C34.5367 13.9249 34.2122 14.4263 33.9676 14.9694C32.4832 14.5131 30.8602 13.8514 29.2184 12.9971L29.2177 12.9967C28.0015 12.3663 26.8568 11.6863 25.8243 10.9737M37.2193 14.3962L25.8243 10.9737M25.8243 10.9737L27.4185 9.3795L27.9393 8.85866L27.263 8.56685L25.4243 7.77348L25.3991 7.76261L25.3729 7.75456C23.6969 7.24032 22.3868 7.04906 21.4499 7.04656C20.9834 7.04531 20.5927 7.09079 20.2892 7.17651C20.1376 7.21934 19.9939 7.27607 19.8698 7.35188C19.7503 7.4249 19.6173 7.53514 19.5349 7.69863C19.3993 7.96517 19.4453 8.26793 19.5121 8.49393C19.5862 8.7449 19.7237 9.02752 19.9168 9.33215C20.3048 9.94403 20.9557 10.7045 21.9265 11.5653L21.9265 11.5653L21.9298 11.5682C22.2211 11.8219 22.5549 12.1081 22.9191 12.3957L22.9191 12.3957L22.9221 12.398C23.0062 12.4634 23.0876 12.5268 23.1778 12.5989L23.1872 12.6065L23.197 12.6136C23.2677 12.6647 23.3407 12.718 23.4158 12.7727C23.6218 12.9229 23.843 13.0842 24.0722 13.244C24.0723 13.244 24.0723 13.2441 24.0723 13.2441L24.3582 12.8339C25.5063 13.6366 26.7756 14.4019 28.129 15.1019L25.8243 10.9737ZM28.4997 8.06614L28.7681 8.18227L29.0009 8.00527C34.4524 3.86027 42.2823 4.25841 47.2541 9.23012C52.6868 14.6629 52.6868 23.4932 47.2631 28.926L25.4943 50.6948C25.4023 50.7801 25.291 50.8246 25.1796 50.8246C25.0711 50.8246 24.9553 50.7757 24.8799 50.7004C24.8798 50.7004 24.8798 50.7003 24.8797 50.7003L5.8026 31.6138L5.80263 31.6137L5.79798 31.6092C5.62595 31.4415 5.62591 31.177 5.79801 31.0093L5.79804 31.0093L5.80262 31.0047L21.1005 15.6976C21.3623 15.8948 21.6364 16.0988 21.9273 16.2973C23.2242 17.2058 24.6612 18.0754 26.182 18.8595C28.9925 20.3118 31.893 21.3952 34.3585 21.8828C34.7733 21.9674 35.1725 22.0296 35.5493 22.076C36.6575 23.0331 38.0454 23.5539 39.5249 23.5539C41.1505 23.5539 42.6778 22.9228 43.8265 21.7741C44.9743 20.6263 45.6156 19.0901 45.6156 17.4632C45.6156 15.8364 44.9743 14.3002 43.8265 13.1524C41.88 11.2059 38.9407 10.885 36.6376 12.1228L35.942 12.4967L36.5774 12.9656L38.2886 14.2284C39.1241 15.1002 39.6532 15.8826 39.9088 16.5605C40.1623 17.2328 40.1402 17.7783 39.9121 18.2309C39.6545 18.7095 39.02 19.3339 37.2196 19.3339C36.9222 19.3339 36.5971 19.3165 36.2349 19.2722L36.2047 19.2686H36.1743C36.147 19.2686 36.1344 19.2681 36.1297 19.2679L36.103 19.2603L36.0712 19.2555C35.9843 19.2424 35.9094 19.2328 35.8403 19.2239C35.7292 19.2095 35.6331 19.1971 35.5258 19.1756L35.5006 19.1706L35.4751 19.1682C35.3094 19.1524 35.1367 19.1201 34.9411 19.0757L34.9411 19.0755L34.9279 19.0729C32.7363 18.6364 30.1027 17.6573 27.5101 16.3102L27.5078 16.309C26.0886 15.581 24.7653 14.7903 23.5738 13.9471L23.5733 13.9467C23.2601 13.7257 22.893 13.4595 22.4896 13.1478C21.456 12.3449 20.2613 11.2919 19.4631 10.1987C18.6455 9.07912 18.3622 8.08945 18.773 7.29572L18.7741 7.2936C19.1575 6.54403 20.071 6.1548 21.5295 6.17056C22.9592 6.186 24.7419 6.59607 26.5752 7.23341L28.4997 8.06614ZM25.5053 38.4617L25.5054 38.4619L25.5145 38.4528C26.0737 37.8935 26.0737 36.9797 25.5145 36.4204L25.5145 36.4204L20.0732 30.979C19.5115 30.4173 18.6102 30.4236 18.0452 30.9746L18.0452 30.9746L18.0407 30.979C17.4815 31.5383 17.4814 32.4522 18.0407 33.0114C18.0407 33.0114 18.0408 33.0115 18.0408 33.0115L23.482 38.4528L23.4819 38.4529L23.4912 38.4617C23.7695 38.7261 24.135 38.8699 24.4983 38.8699C24.8734 38.8699 25.2289 38.7243 25.5053 38.4617ZM18.1994 24.203L18.1994 24.203C17.6401 24.7623 17.6401 25.6669 18.1994 26.2261L30.2633 38.2901C30.5399 38.5783 30.9139 38.7206 31.2743 38.7206C31.6414 38.7206 32.0166 38.58 32.295 38.2896C32.8497 37.73 32.8482 36.8288 32.2905 36.271L20.2225 24.203C19.6632 23.6438 18.7587 23.6438 18.1994 24.203ZM31.4329 31.9352C31.78 31.9352 32.1592 31.8109 32.4442 31.5137C32.9991 30.9541 32.9977 30.0528 32.4398 29.495C32.4398 29.495 32.4398 29.495 32.4398 29.495L26.9985 24.0537C26.4392 23.4944 25.5346 23.4944 24.9754 24.0537C24.4161 24.6129 24.4161 25.5175 24.9754 26.0768C24.9754 26.0768 24.9754 26.0768 24.9754 26.0768L30.4167 31.5181C30.7051 31.8065 31.0693 31.9352 31.4329 31.9352Z" fill="#FEDE2B" stroke="black"/>
</svg>
