<svg width="55" height="54" viewBox="0 0 55 54" fill="none" xmlns="http://www.w3.org/2000/svg">
<path d="M47.8333 30.556C48.6888 29.7006 49.4347 28.744 50.0466 27.7181L52.8373 30.499C54.2135 31.8965 54.2421 34.1228 52.8389 35.549C51.4107 36.9444 49.1507 36.9006 47.7996 35.5496L47.7984 35.5484L45.0013 32.7704C45.8836 32.2429 46.9406 31.4486 47.8333 30.556ZM47.8333 30.556L47.4797 30.2024L47.8333 30.556Z" fill="#FEDE2B" stroke="black"/>
<path d="M27.4443 30.7776C26.447 31.1507 25.4316 31.3357 24.4191 31.3357C20.942 31.3357 17.6321 29.0362 15.164 25.6645C12.7023 22.3013 11.1543 17.9676 11.1543 14.0948C11.1543 6.65819 17.1199 0.617188 24.4191 0.617188C28.5992 0.617188 32.4814 2.65158 34.9523 5.92318C23.3684 7.94278 18.7906 22.7486 27.4443 30.7776Z" fill="#FEDE2B" stroke="black"/>
<path d="M1.34836 49.8545L1.34838 49.8545L1.34894 49.8507C2.72387 40.5335 10.9113 33.5 20.3985 33.5H28.44C37.9274 33.5 46.1259 40.5337 47.5005 49.8617L47.5013 49.8666C47.6542 50.838 47.7304 51.82 47.7304 52.7568C47.7304 53.0967 47.4503 53.3768 47.1104 53.3768H1.73914C1.39943 53.3768 1.11914 53.0966 1.11914 52.7568C1.11914 51.8092 1.19547 50.8381 1.34836 49.8545Z" fill="#FEDE2B" stroke="black"/>
<path d="M43.5775 26.2982L43.5773 26.2984C40.2642 29.6115 34.8429 29.6625 31.4798 26.2985C28.1364 22.9561 28.1483 17.5509 31.4892 14.2198C34.8377 10.8726 40.2423 10.8749 43.5773 14.2109L43.5775 26.2982ZM43.5775 26.2982C46.9598 22.913 46.8654 17.4991 43.5774 14.2109L43.5775 26.2982ZM29.5131 28.2636L29.513 28.2636C25.088 23.8397 25.0896 16.6763 29.5245 12.2555L29.5251 12.2549C33.9361 7.84285 41.1038 7.80309 45.5435 12.245L45.5436 12.2451C49.911 16.6125 50.0133 23.7938 45.5436 28.2636L45.5435 28.2637C41.1991 32.6112 34.0102 32.7618 29.5131 28.2636Z" fill="#FEDE2B" stroke="black"/>
</svg>
