<svg width="56" height="56" viewBox="0 0 56 56" fill="none" xmlns="http://www.w3.org/2000/svg">
<mask id="path-1-inside-1_857_72953" fill="white">
<path fill-rule="evenodd" clip-rule="evenodd" d="M28.0004 12.3822C36.4878 12.3822 43.3684 19.1252 43.3684 27.4429C43.3684 35.7605 36.4878 42.5035 28.0004 42.5035C19.513 42.5035 12.6324 35.7605 12.6324 27.4429C12.6324 19.1252 19.513 12.3822 28.0004 12.3822ZM0.954102 27.4429C0.954102 26.0053 2.14324 24.8394 3.61067 24.8394C5.0781 24.8394 6.26724 26.0048 6.26724 27.4429C6.26724 28.8809 5.0781 30.0463 3.61067 30.0463C2.14324 30.0463 0.954102 28.8809 0.954102 27.4429ZM8.87582 8.70078C7.83867 9.71718 7.83867 11.3658 8.87582 12.3822C9.91296 13.3986 11.5952 13.3986 12.6324 12.3822C13.6695 11.3658 13.6695 9.71718 12.6324 8.70078C11.5952 7.68438 9.91296 7.68438 8.87582 8.70078ZM28.0004 0.9375C29.4672 0.9375 30.657 2.10286 30.657 3.54094C30.657 4.97902 29.4678 6.14438 28.0004 6.14438C26.533 6.14438 25.3438 4.97902 25.3438 3.54094C25.3438 2.10286 26.533 0.9375 28.0004 0.9375ZM47.125 8.70078C46.0878 7.68438 44.4055 7.68438 43.3684 8.70078C42.3312 9.71718 42.3312 11.3658 43.3684 12.3822C44.4055 13.3986 46.0878 13.3986 47.125 12.3822C48.1621 11.3658 48.1621 9.71718 47.125 8.70078ZM55.0467 27.4429C55.0467 28.8804 53.8575 30.0463 52.3901 30.0463C50.9227 30.0463 49.7335 28.8809 49.7335 27.4429C49.7335 26.0048 50.9227 24.8394 52.3901 24.8394C53.8575 24.8394 55.0467 26.0048 55.0467 27.4429ZM47.125 46.1849C48.1621 45.1685 48.1621 43.5199 47.125 42.5035C46.0878 41.4871 44.4055 41.4871 43.3684 42.5035C42.3312 43.5199 42.3312 45.1685 43.3684 46.1849C44.4055 47.2013 46.0878 47.2013 47.125 46.1849ZM28.0004 53.9482C26.5335 53.9482 25.3438 52.7829 25.3438 51.3448C25.3438 49.9067 26.533 48.7413 28.0004 48.7413C29.4678 48.7413 30.657 49.9067 30.657 51.3448C30.657 52.7829 29.4678 53.9482 28.0004 53.9482ZM8.87582 46.1849C9.91296 47.2013 11.5952 47.2013 12.6324 46.1849C13.6695 45.1685 13.6695 43.5199 12.6324 42.5035C11.5952 41.4871 9.91296 41.4871 8.87582 42.5035C7.83867 43.5199 7.83867 45.1685 8.87582 46.1849ZM10.3838 26.7966C10.7484 26.7966 11.0432 27.0861 11.0432 27.4429C11.0432 27.7996 10.7478 28.0891 10.3838 28.0891H7.53124C7.60439 27.6607 7.60439 27.2245 7.53124 26.7961L10.3838 26.7966ZM16.0101 14.7785L13.993 12.8017C13.7352 13.155 13.421 13.4636 13.0604 13.7156L15.0775 15.6924C15.3352 15.9449 15.753 15.9449 16.0101 15.6924C16.2678 15.4398 16.2678 15.0305 16.0101 14.7785ZM28.6604 10.1792C28.6604 10.5365 28.365 10.8254 28.001 10.8254C27.637 10.8254 27.3415 10.5359 27.3415 10.1792V7.38366C27.7787 7.45534 28.2238 7.45534 28.661 7.38366L28.6604 10.1792ZM40.9238 15.6929L42.941 13.7161C42.5804 13.4636 42.2655 13.1556 42.0084 12.8022L39.9912 14.779C39.7335 15.0316 39.7335 15.4409 39.9912 15.6929C40.249 15.9449 40.6667 15.9455 40.9238 15.6929ZM45.617 28.0902C45.2524 28.0902 44.9575 27.8007 44.9575 27.444C44.9575 27.0873 45.253 26.7977 45.617 26.7977H48.4695C48.3964 27.2261 48.3964 27.6624 48.4695 28.0908H45.617V28.0902ZM39.9907 40.1084L42.0078 42.0852C42.2655 41.7318 42.5798 41.4233 42.9404 41.1713L40.9232 39.1945C40.6655 38.9419 40.2478 38.9419 39.9907 39.1945C39.733 39.447 39.733 39.8564 39.9907 40.1084ZM27.3404 44.7077C27.3404 44.3504 27.6358 44.0614 27.9998 44.0614C28.3638 44.0614 28.6592 44.3509 28.6592 44.7077V47.5032C28.2221 47.4315 27.777 47.4315 27.3398 47.5032L27.3404 44.7077ZM15.077 39.1939L13.0598 41.1707C13.4204 41.4233 13.7352 41.7313 13.9924 42.0846L16.0095 40.1078C16.2672 39.8553 16.2672 39.4459 16.0095 39.1939C15.7518 38.9419 15.3341 38.9413 15.077 39.1939ZM23.7032 32.7937V29.9354C23.7032 28.8557 24.6044 27.9726 25.7061 27.9726H30.2941C31.3958 27.9726 32.297 28.8557 32.297 29.9354V32.7937H36.1067V27.1791C34.8952 27.6411 33.5307 27.4205 32.5375 26.6253C31.2181 27.682 29.3192 27.682 28.0004 26.6253C26.681 27.682 24.7821 27.682 23.4632 26.6253C22.4701 27.4205 21.1061 27.6411 19.8941 27.1791V32.7937H23.7032ZM18.925 36.6173H37.0747V34.0867H18.925V36.6173ZM30.977 32.7937V29.9354C30.977 29.5669 30.6695 29.2657 30.2935 29.2657H25.7055C25.3295 29.2657 25.0221 29.5669 25.0221 29.9354V32.7937H30.977ZM37.0741 23.9009L34.9387 18.2689H21.0598L18.9244 23.9009C18.9244 25.1289 19.9404 26.1241 21.193 26.1241C22.4455 26.1241 23.4615 25.1284 23.4615 23.9009C23.4615 25.1289 24.4775 26.1241 25.7301 26.1241C26.9827 26.1241 27.9987 25.1284 27.9987 23.9009C27.9987 25.1289 29.0147 26.1241 30.2672 26.1241C31.5198 26.1241 32.5358 25.1284 32.5358 23.9009C32.5358 25.1289 33.5512 26.1241 34.8044 26.1241C36.0575 26.1241 37.073 25.1284 37.073 23.9009H37.0741Z"/>
</mask>
<path fill-rule="evenodd" clip-rule="evenodd" d="M28.0004 12.3822C36.4878 12.3822 43.3684 19.1252 43.3684 27.4429C43.3684 35.7605 36.4878 42.5035 28.0004 42.5035C19.513 42.5035 12.6324 35.7605 12.6324 27.4429C12.6324 19.1252 19.513 12.3822 28.0004 12.3822ZM0.954102 27.4429C0.954102 26.0053 2.14324 24.8394 3.61067 24.8394C5.0781 24.8394 6.26724 26.0048 6.26724 27.4429C6.26724 28.8809 5.0781 30.0463 3.61067 30.0463C2.14324 30.0463 0.954102 28.8809 0.954102 27.4429ZM8.87582 8.70078C7.83867 9.71718 7.83867 11.3658 8.87582 12.3822C9.91296 13.3986 11.5952 13.3986 12.6324 12.3822C13.6695 11.3658 13.6695 9.71718 12.6324 8.70078C11.5952 7.68438 9.91296 7.68438 8.87582 8.70078ZM28.0004 0.9375C29.4672 0.9375 30.657 2.10286 30.657 3.54094C30.657 4.97902 29.4678 6.14438 28.0004 6.14438C26.533 6.14438 25.3438 4.97902 25.3438 3.54094C25.3438 2.10286 26.533 0.9375 28.0004 0.9375ZM47.125 8.70078C46.0878 7.68438 44.4055 7.68438 43.3684 8.70078C42.3312 9.71718 42.3312 11.3658 43.3684 12.3822C44.4055 13.3986 46.0878 13.3986 47.125 12.3822C48.1621 11.3658 48.1621 9.71718 47.125 8.70078ZM55.0467 27.4429C55.0467 28.8804 53.8575 30.0463 52.3901 30.0463C50.9227 30.0463 49.7335 28.8809 49.7335 27.4429C49.7335 26.0048 50.9227 24.8394 52.3901 24.8394C53.8575 24.8394 55.0467 26.0048 55.0467 27.4429ZM47.125 46.1849C48.1621 45.1685 48.1621 43.5199 47.125 42.5035C46.0878 41.4871 44.4055 41.4871 43.3684 42.5035C42.3312 43.5199 42.3312 45.1685 43.3684 46.1849C44.4055 47.2013 46.0878 47.2013 47.125 46.1849ZM28.0004 53.9482C26.5335 53.9482 25.3438 52.7829 25.3438 51.3448C25.3438 49.9067 26.533 48.7413 28.0004 48.7413C29.4678 48.7413 30.657 49.9067 30.657 51.3448C30.657 52.7829 29.4678 53.9482 28.0004 53.9482ZM8.87582 46.1849C9.91296 47.2013 11.5952 47.2013 12.6324 46.1849C13.6695 45.1685 13.6695 43.5199 12.6324 42.5035C11.5952 41.4871 9.91296 41.4871 8.87582 42.5035C7.83867 43.5199 7.83867 45.1685 8.87582 46.1849ZM10.3838 26.7966C10.7484 26.7966 11.0432 27.0861 11.0432 27.4429C11.0432 27.7996 10.7478 28.0891 10.3838 28.0891H7.53124C7.60439 27.6607 7.60439 27.2245 7.53124 26.7961L10.3838 26.7966ZM16.0101 14.7785L13.993 12.8017C13.7352 13.155 13.421 13.4636 13.0604 13.7156L15.0775 15.6924C15.3352 15.9449 15.753 15.9449 16.0101 15.6924C16.2678 15.4398 16.2678 15.0305 16.0101 14.7785ZM28.6604 10.1792C28.6604 10.5365 28.365 10.8254 28.001 10.8254C27.637 10.8254 27.3415 10.5359 27.3415 10.1792V7.38366C27.7787 7.45534 28.2238 7.45534 28.661 7.38366L28.6604 10.1792ZM40.9238 15.6929L42.941 13.7161C42.5804 13.4636 42.2655 13.1556 42.0084 12.8022L39.9912 14.779C39.7335 15.0316 39.7335 15.4409 39.9912 15.6929C40.249 15.9449 40.6667 15.9455 40.9238 15.6929ZM45.617 28.0902C45.2524 28.0902 44.9575 27.8007 44.9575 27.444C44.9575 27.0873 45.253 26.7977 45.617 26.7977H48.4695C48.3964 27.2261 48.3964 27.6624 48.4695 28.0908H45.617V28.0902ZM39.9907 40.1084L42.0078 42.0852C42.2655 41.7318 42.5798 41.4233 42.9404 41.1713L40.9232 39.1945C40.6655 38.9419 40.2478 38.9419 39.9907 39.1945C39.733 39.447 39.733 39.8564 39.9907 40.1084ZM27.3404 44.7077C27.3404 44.3504 27.6358 44.0614 27.9998 44.0614C28.3638 44.0614 28.6592 44.3509 28.6592 44.7077V47.5032C28.2221 47.4315 27.777 47.4315 27.3398 47.5032L27.3404 44.7077ZM15.077 39.1939L13.0598 41.1707C13.4204 41.4233 13.7352 41.7313 13.9924 42.0846L16.0095 40.1078C16.2672 39.8553 16.2672 39.4459 16.0095 39.1939C15.7518 38.9419 15.3341 38.9413 15.077 39.1939ZM23.7032 32.7937V29.9354C23.7032 28.8557 24.6044 27.9726 25.7061 27.9726H30.2941C31.3958 27.9726 32.297 28.8557 32.297 29.9354V32.7937H36.1067V27.1791C34.8952 27.6411 33.5307 27.4205 32.5375 26.6253C31.2181 27.682 29.3192 27.682 28.0004 26.6253C26.681 27.682 24.7821 27.682 23.4632 26.6253C22.4701 27.4205 21.1061 27.6411 19.8941 27.1791V32.7937H23.7032ZM18.925 36.6173H37.0747V34.0867H18.925V36.6173ZM30.977 32.7937V29.9354C30.977 29.5669 30.6695 29.2657 30.2935 29.2657H25.7055C25.3295 29.2657 25.0221 29.5669 25.0221 29.9354V32.7937H30.977ZM37.0741 23.9009L34.9387 18.2689H21.0598L18.9244 23.9009C18.9244 25.1289 19.9404 26.1241 21.193 26.1241C22.4455 26.1241 23.4615 25.1284 23.4615 23.9009C23.4615 25.1289 24.4775 26.1241 25.7301 26.1241C26.9827 26.1241 27.9987 25.1284 27.9987 23.9009C27.9987 25.1289 29.0147 26.1241 30.2672 26.1241C31.5198 26.1241 32.5358 25.1284 32.5358 23.9009C32.5358 25.1289 33.5512 26.1241 34.8044 26.1241C36.0575 26.1241 37.073 25.1284 37.073 23.9009H37.0741Z" fill="#FEDE2B" stroke="black" stroke-width="2" mask="url(#path-1-inside-1_857_72953)"/>
</svg>
