<svg width="56" height="56" viewBox="0 0 56 56" fill="none" xmlns="http://www.w3.org/2000/svg">
<path d="M31.0037 6.20718L31.0037 6.2072L31.0079 6.20953L50.3791 16.8354C51.5126 17.4912 52.2559 18.7005 52.3084 20.0662V36.6283C52.3084 38.0465 51.5132 39.3522 50.2937 39.9501C50.2933 39.9503 50.2929 39.9505 50.2925 39.9507L28.0064 50.7498L28.0059 50.75C26.98 51.2485 25.753 51.1993 24.7731 50.6494L24.7699 50.6476L5.3982 39.9643C4.26098 39.3065 3.52441 38.098 3.52441 36.7426V20.2283C3.52441 18.81 4.31978 17.5041 5.53953 16.9063C5.5398 16.9062 5.54008 16.906 5.54035 16.9059L27.7709 6.10661L27.7709 6.10659C28.1868 5.9045 28.6358 5.79242 29.0879 5.76722L5.60543 17.2074L4.74237 17.6278L5.58164 18.094L14.4296 23.0083L14.6573 23.1347L14.8914 23.0207L38.4674 11.5349L39.3305 11.1145L38.4912 10.6483L29.7472 5.79185C30.1863 5.84933 30.6145 5.98876 31.0037 6.20718ZM47.2073 34.9616L47.4844 34.8236V34.514V25.9997V25.1921L46.7615 25.5522L34.9455 31.4379L34.6684 31.5759V31.8854V40.3997V41.2074L35.3913 40.8473L47.2073 34.9616ZM15.8538 22.8643L14.9838 23.2872L15.8319 23.7524L25.2604 28.9243V46.0569C25.2604 46.6663 25.7548 47.1854 26.3764 47.1854C26.998 47.1854 27.4924 46.6663 27.4924 46.0569V28.9989L50.2263 17.9926L51.0937 17.5727L50.2509 17.1053L39.9469 11.391L39.7196 11.265L39.4859 11.3786L15.8538 22.8643Z" fill="#FEDE2B" stroke="black"/>
</svg>
