<svg width="56" height="56" viewBox="0 0 56 56" fill="none" xmlns="http://www.w3.org/2000/svg">
<path d="M16.2316 32.5689C16.0645 32.569 15.8991 32.536 15.745 32.4718C15.591 32.4077 15.4513 32.3137 15.3338 32.1953C15.3336 32.1951 15.3333 32.1948 15.3331 32.1946L7.87291 24.7276L7.87112 24.7258L7.87112 24.7258C7.85148 24.7059 7.83154 24.6858 7.81137 24.6654C7.76202 24.6154 7.71122 24.5641 7.65977 24.5114V45.0061V45.0116H7.65973C7.65694 45.2124 7.72194 45.4083 7.84423 45.5675C7.96641 45.7267 8.13864 45.84 8.33314 45.8892C8.3333 45.8893 8.33345 45.8893 8.33361 45.8893L20.0683 48.8167V29.2911L17.1219 32.2004C17.1216 32.2007 17.1213 32.201 17.121 32.2013C17.0042 32.3178 16.8657 32.4102 16.7132 32.4733C16.5605 32.5365 16.3968 32.569 16.2316 32.5689ZM16.2316 32.5689C16.2314 32.5689 16.2313 32.5689 16.2312 32.5689L16.2314 32.1689L16.2318 32.5689C16.2317 32.5689 16.2316 32.5689 16.2316 32.5689Z" fill="#FEDE2B" stroke="black" stroke-width="0.8"/>
<path d="M19.4356 16.1962C19.4356 17.9088 18.0473 19.2972 16.3347 19.2972C14.6221 19.2972 13.2337 17.9088 13.2337 16.1962C13.2337 14.4836 14.6221 13.0953 16.3347 13.0953C18.0473 13.0953 19.4356 14.4836 19.4356 16.1962Z" fill="#FEDE2B" stroke="black" stroke-width="0.8"/>
<path d="M22.9031 9.73438L22.9041 9.73539C23.7741 10.5986 24.4647 11.6255 24.936 12.7568C25.4074 13.8881 25.6503 15.1015 25.6507 16.3271C25.6511 17.5527 25.409 18.7662 24.9383 19.8978C24.4678 21.0291 23.7781 22.0562 22.909 22.9198C22.9088 22.9201 22.9085 22.9203 22.9083 22.9205L16.235 29.5002L9.66592 22.9216C9.6657 22.9213 9.66548 22.9211 9.66526 22.9209C6.04004 19.2478 6.06229 13.3207 9.71161 9.71799L9.71163 9.71801L9.71516 9.71444C10.5798 8.83919 11.6093 8.14396 12.7442 7.66893C13.879 7.19394 15.0967 6.94853 16.3269 6.94688H16.3591C17.5774 6.9487 18.7831 7.19384 19.9054 7.66792C21.0035 8.1318 22.0002 8.80572 22.8395 9.65158C22.8401 9.65264 22.8407 9.6537 22.8414 9.65477C22.8471 9.66458 22.8547 9.67644 22.8643 9.68939C22.8738 9.70221 22.8866 9.71787 22.9031 9.73438ZM10.6876 16.1983V16.1987C10.6876 17.3157 11.0188 18.4077 11.6394 19.3364C12.2599 20.2652 13.142 20.989 14.174 21.4165C15.2059 21.8439 16.3415 21.9558 17.437 21.7378C18.5326 21.5199 19.5389 20.982 20.3287 20.1922C21.1185 19.4023 21.6564 18.396 21.8743 17.3005C22.0922 16.2049 21.9804 15.0694 21.5529 14.0374C21.1254 13.0054 20.4015 12.1234 19.4728 11.5029C18.544 10.8823 17.4521 10.5511 16.3351 10.5511H16.3346L16.3342 10.5511C14.837 10.553 13.4018 11.1485 12.3432 12.2072C11.2847 13.2659 10.6892 14.7012 10.6876 16.1983Z" fill="#FEDE2B" stroke="black" stroke-width="0.8"/>
<path d="M48.9069 48.6441C48.7461 48.7672 48.5592 48.8516 48.3605 48.8909C48.1619 48.9302 47.9569 48.9233 47.7614 48.8708L37.17 46.0435M48.9069 48.6441C49.0638 48.521 49.1898 48.3628 49.2747 48.1823C49.3597 48.0018 49.4013 47.8039 49.3962 47.6045V16.8164C49.3964 16.5273 49.3009 16.2462 49.1246 16.0171C48.9483 15.7879 48.7011 15.6236 48.4216 15.5497M48.9069 48.6441L48.6638 48.3265C48.6632 48.327 48.6625 48.3275 48.6619 48.328M48.9069 48.6441L48.6599 48.3295C48.6606 48.329 48.6612 48.3285 48.6619 48.328M48.4216 15.5497L37.57 12.6913V13.1049M48.4216 15.5497L48.3193 15.9364M48.4216 15.5497L48.3197 15.9365L48.3193 15.9364M37.57 13.1049L37.17 12.9996V46.0435M37.57 13.1049V45.7363M37.57 13.1049L48.3193 15.9364M37.17 46.0435H37.57V45.7363M37.17 46.0435L37.2732 45.657L37.57 45.7363M37.57 45.7363L47.8645 48.4843L47.8652 48.4845C48.0015 48.5211 48.1444 48.5259 48.2829 48.4985C48.4206 48.4713 48.5502 48.413 48.6619 48.328M48.3193 15.9364C48.5135 15.9877 48.6851 16.1018 48.8076 16.261C48.93 16.4201 48.9963 16.6153 48.9962 16.8161V16.8164V47.6045H48.996L48.9963 47.6147C48.9998 47.7518 48.9712 47.8879 48.9128 48.012C48.8548 48.1353 48.7689 48.2435 48.6619 48.328" fill="#FEDE2B" stroke="black" stroke-width="0.8"/>
<path d="M28.195 16.3322L28.195 16.3286C28.1895 15.7847 28.1469 15.242 28.0674 14.7043L35.0234 13.0602V45.7173L22.6148 48.8166V26.7798L24.6972 24.7302L24.6982 24.7293C25.8073 23.6303 26.6874 22.3223 27.2876 20.881C27.8878 19.4396 28.1962 17.8936 28.195 16.3322Z" fill="#FEDE2B" stroke="black" stroke-width="0.8"/>
</svg>
