<svg width="24" height="24" viewBox="0 0 24 24" fill="none" xmlns="http://www.w3.org/2000/svg">
<path d="M3.63043 13.9894C4.47735 9.92239 8.01781 7.03266 12.0003 7.03266C15.9816 7.03266 19.5221 9.92239 20.3703 13.9894C20.4039 14.1508 20.5002 14.2922 20.6381 14.3826C20.7759 14.4729 20.944 14.5048 21.1054 14.4712C21.2668 14.4376 21.4082 14.3413 21.4986 14.2034C21.589 14.0655 21.6208 13.8974 21.5873 13.736C20.6224 9.11024 16.5864 5.79083 12.0003 5.79083C7.41428 5.79083 3.37834 9.11024 2.41344 13.736C2.37984 13.8974 2.41173 14.0655 2.50209 14.2034C2.59245 14.3413 2.73388 14.4376 2.89527 14.4712C3.05665 14.5048 3.22477 14.4729 3.36264 14.3826C3.50051 14.2922 3.59683 14.1508 3.63043 13.9894ZM11.9879 9.51632C13.1407 9.51632 14.2462 9.97424 15.0613 10.7893C15.8764 11.6045 16.3343 12.71 16.3343 13.8627C16.3343 15.0154 15.8764 16.121 15.0613 16.9361C14.2462 17.7512 13.1407 18.2091 11.9879 18.2091C10.8352 18.2091 9.72967 17.7512 8.91456 16.9361C8.09945 16.121 7.64153 15.0154 7.64153 13.8627C7.64153 12.71 8.09945 11.6045 8.91456 10.7893C9.72967 9.97424 10.8352 9.51632 11.9879 9.51632Z" fill="#6A707C"/>
</svg>
