<svg width="30" height="30" viewBox="0 0 30 30" fill="none" xmlns="http://www.w3.org/2000/svg">
<circle cx="15" cy="15" r="15" fill="#020105"/>
<path fill-rule="evenodd" clip-rule="evenodd" d="M10.618 9.61835C9.185 9.96635 8 11.0703 8 12.9963C8 15.5603 10.169 18.0693 15 20.4443C19.831 18.0693 22 15.5603 22 12.9963C22 11.0713 20.815 9.96635 19.382 9.61835C17.911 9.26035 16.26 9.72135 15.403 10.8883C15.3566 10.9516 15.2959 11.003 15.2259 11.0385C15.1558 11.0739 15.0785 11.0924 15 11.0924C14.9215 11.0924 14.8442 11.0739 14.7741 11.0385C14.7041 11.003 14.6434 10.9516 14.597 10.8883C13.74 9.72135 12.089 9.26035 10.618 9.61835ZM15 9.82835C13.81 8.63535 11.968 8.26035 10.382 8.64535C8.565 9.08835 7 10.5463 7 12.9963C7 16.2363 9.766 19.0283 14.783 21.4503C14.8507 21.483 14.9249 21.4999 15 21.4999C15.0751 21.4999 15.1493 21.483 15.217 21.4503C20.234 19.0283 23 16.2373 23 12.9963C23 10.5463 21.435 9.08835 19.618 8.64635C18.032 8.26135 16.191 8.63735 15 9.82835Z" fill="#FBFBFB"/>
</svg>
