<svg width="30" height="30" viewBox="0 0 30 30" fill="none" xmlns="http://www.w3.org/2000/svg">
<circle cx="15" cy="15" r="15" fill="#FBFBFB"/>
<g clip-path="url(#clip0_2776_72852)">
<path d="M22.2622 13.8552H22.1922V13.6208C22.1922 9.89147 19.1582 6.85742 15.4289 6.85742C11.6995 6.85742 8.66546 9.89147 8.66546 13.6208V13.8552H8.59548C7.63722 13.8552 6.85742 14.635 6.85742 15.5932V17.5412C6.85742 18.4995 7.63722 19.2793 8.59548 19.2793H10.6744V13.8552H9.66992V13.6208C9.66992 10.4453 12.2534 7.86189 15.4289 7.86189C18.6043 7.86189 21.1878 10.4453 21.1878 13.6208V13.8552H20.1833V19.2793H21.1878V20.7407C21.1878 21.4303 20.6267 21.9914 19.9371 21.9914H17.3179C17.111 21.4068 16.5522 20.9869 15.8976 20.9869H14.9601C14.1294 20.9869 13.4534 21.6629 13.4534 22.4936C13.4534 23.3243 14.1294 24.0003 14.9601 24.0003H15.8976C16.5522 24.0003 17.111 23.5804 17.3179 22.9958H19.9371C21.1806 22.9958 22.1922 21.9842 22.1922 20.7407V19.2793H22.2622C23.2205 19.2793 24.0003 18.4995 24.0003 17.5412V15.5932C24.0003 14.635 23.2205 13.8552 22.2622 13.8552Z" fill="#020105"/>
<path d="M12.3477 13.1191V19.2799H18.5084V13.1191H17.0984V16.396L15.428 15.7281L13.7576 16.396V13.1191H12.3477Z" fill="#020105"/>
<path d="M16.0936 14.9124V13.1191H14.7617V14.9124L15.4277 14.6463L16.0936 14.9124Z" fill="#020105"/>
</g>
<defs>
<clipPath id="clip0_2776_72852">
<rect width="17.1429" height="17.1429" fill="white" transform="translate(6.85742 6.85742)"/>
</clipPath>
</defs>
</svg>
