<svg width="26" height="26" viewBox="0 0 26 26" fill="none" xmlns="http://www.w3.org/2000/svg">
<path d="M22.75 7.29296C22.7283 7.29296 22.6958 7.29296 22.6633 7.29296C16.9325 6.7188 11.2125 6.50213 5.54664 7.0763L3.33664 7.29296C2.88164 7.3363 2.4808 7.0113 2.43747 6.5563C2.39414 6.1013 2.71914 5.7113 3.1633 5.66796L5.3733 5.4513C11.1366 4.8663 16.9758 5.0938 22.8258 5.66796C23.27 5.7113 23.595 6.11213 23.5516 6.5563C23.5191 6.9788 23.1616 7.29296 22.75 7.29296Z" fill="#020105"/>
<path d="M9.20832 6.19406C9.16499 6.19406 9.12166 6.19406 9.06749 6.18323C8.63416 6.1074 8.33082 5.6849 8.40666 5.25156L8.64499 3.8324C8.81832 2.7924 9.05666 1.35156 11.5808 1.35156H14.4192C16.9542 1.35156 17.1925 2.84656 17.355 3.84323L17.5933 5.25156C17.6692 5.69573 17.3658 6.11823 16.9325 6.18323C16.4883 6.25906 16.0658 5.95573 16.0008 5.5224L15.7625 4.11406C15.6108 3.17156 15.5783 2.9874 14.43 2.9874H11.5917C10.4433 2.9874 10.4217 3.13906 10.2592 4.10323L10.01 5.51156C9.94499 5.9124 9.59832 6.19406 9.20832 6.19406Z" fill="#020105"/>
<path d="M16.4776 24.6436H9.52259C5.74176 24.6436 5.59009 22.5528 5.47093 20.8628L4.76676 9.9536C4.73426 9.50943 5.08093 9.11943 5.52509 9.08693C5.98009 9.06526 6.35926 9.4011 6.39176 9.84526L7.09593 20.7544C7.21509 22.4011 7.25843 23.0186 9.52259 23.0186H16.4776C18.7526 23.0186 18.7959 22.4011 18.9043 20.7544L19.6084 9.84526C19.6409 9.4011 20.0309 9.06526 20.4751 9.08693C20.9193 9.11943 21.2659 9.4986 21.2334 9.9536L20.5293 20.8628C20.4101 22.5528 20.2584 24.6436 16.4776 24.6436Z" fill="#020105"/>
<path d="M14.7984 18.6875H11.1909C10.7468 18.6875 10.3784 18.3192 10.3784 17.875C10.3784 17.4308 10.7468 17.0625 11.1909 17.0625H14.7984C15.2426 17.0625 15.6109 17.4308 15.6109 17.875C15.6109 18.3192 15.2426 18.6875 14.7984 18.6875Z" fill="#020105"/>
<path d="M15.7084 14.3516H10.2917C9.84758 14.3516 9.47925 13.9832 9.47925 13.5391C9.47925 13.0949 9.84758 12.7266 10.2917 12.7266H15.7084C16.1526 12.7266 16.5209 13.0949 16.5209 13.5391C16.5209 13.9832 16.1526 14.3516 15.7084 14.3516Z" fill="#020105"/>
</svg>
