<svg width="24" height="24" viewBox="0 0 24 24" fill="none" xmlns="http://www.w3.org/2000/svg">
<path d="M15 22.75H9C3.57 22.75 1.25 20.43 1.25 15V9C1.25 3.57 3.57 1.25 9 1.25H11C11.41 1.25 11.75 1.59 11.75 2C11.75 2.41 11.41 2.75 11 2.75H9C4.39 2.75 2.75 4.39 2.75 9V15C2.75 19.61 4.39 21.25 9 21.25H15C19.61 21.25 21.25 19.61 21.25 15V13C21.25 12.59 21.59 12.25 22 12.25C22.41 12.25 22.75 12.59 22.75 13V15C22.75 20.43 20.43 22.75 15 22.75Z" fill="#020105"/>
<path d="M8.50008 17.6925C7.89008 17.6925 7.33008 17.4725 6.92008 17.0725C6.43008 16.5825 6.22008 15.8725 6.33008 15.1225L6.76008 12.1125C6.84008 11.5325 7.22008 10.7825 7.63008 10.3725L15.5101 2.4925C17.5001 0.5025 19.5201 0.5025 21.5101 2.4925C22.6001 3.5825 23.0901 4.6925 22.9901 5.8025C22.9001 6.7025 22.4201 7.5825 21.5101 8.4825L13.6301 16.3625C13.2201 16.7725 12.4701 17.1525 11.8901 17.2325L8.88008 17.6625C8.75008 17.6925 8.62008 17.6925 8.50008 17.6925ZM16.5701 3.5525L8.69008 11.4325C8.50008 11.6225 8.28008 12.0625 8.24008 12.3225L7.81008 15.3325C7.77008 15.6225 7.83008 15.8625 7.98008 16.0125C8.13008 16.1625 8.37008 16.2225 8.66008 16.1825L11.6701 15.7525C11.9301 15.7125 12.3801 15.4925 12.5601 15.3025L20.4401 7.4225C21.0901 6.7725 21.4301 6.1925 21.4801 5.6525C21.5401 5.0025 21.2001 4.3125 20.4401 3.5425C18.8401 1.9425 17.7401 2.3925 16.5701 3.5525Z" fill="#020105"/>
<path d="M19.8501 9.83027C19.7801 9.83027 19.7101 9.82027 19.6501 9.80027C17.0201 9.06027 14.9301 6.97027 14.1901 4.34027C14.0801 3.94027 14.3101 3.53027 14.7101 3.41027C15.1101 3.30027 15.5201 3.53027 15.6301 3.93027C16.2301 6.06027 17.9201 7.75027 20.0501 8.35027C20.4501 8.46027 20.6801 8.88027 20.5701 9.28027C20.4801 9.62027 20.1801 9.83027 19.8501 9.83027Z" fill="#020105"/>
</svg>
