<svg width="20" height="14" viewBox="0 0 20 14" fill="none" xmlns="http://www.w3.org/2000/svg">
<path d="M3.94458 13.2981C4.5245 13.1098 5.19588 12.7489 5.86903 12.196C5.87772 12.1887 5.88631 12.1806 5.89499 12.1733C6.4827 12.3292 7.06647 12.4171 7.65065 12.4546C9.17954 12.5409 10.6465 12.1563 11.8051 11.5341C12.9772 10.9192 13.8855 10.1221 14.6068 9.34065C15.3333 8.55821 15.8706 7.77286 16.2996 7.06794C16.3842 6.92754 16.4604 6.79209 16.5355 6.65734C16.5513 7.45606 16.5928 8.18326 16.6593 8.80059C16.8041 10.1453 17.0614 10.9865 17.3967 11.0054C17.732 11.0243 18.082 10.2172 18.3767 8.89717C18.5241 8.23715 18.6576 7.44886 18.7686 6.57146C18.7943 6.35184 18.8206 6.12694 18.8475 5.89729C18.8594 5.78228 18.8714 5.6661 18.8835 5.54882C18.8999 5.33739 18.9164 5.12396 18.9331 4.90866C19.0028 3.95699 19.0678 2.95315 19.125 1.93641C18.1578 2.24983 17.203 2.57014 16.3009 2.88028C16.0968 2.95145 15.8945 3.02201 15.6941 3.0919C15.5838 3.13358 15.4745 3.17486 15.3664 3.21573C15.1512 3.30035 14.9405 3.38324 14.7347 3.46416C13.9147 3.79556 13.1867 4.126 12.5862 4.43702C11.3852 5.05907 10.6943 5.60354 10.7982 5.92295C10.9021 6.24235 11.7811 6.27626 13.1182 6.07284C13.7868 5.97113 14.5699 5.8101 15.428 5.59576C15.5598 5.56151 15.6971 5.52583 15.8328 5.4906C15.2254 6.26748 14.4403 7.20124 13.4041 8.11083C12.7019 8.72212 11.876 9.31014 10.9297 9.71672C10.4591 9.9257 9.95651 10.0782 9.43405 10.1641C8.91187 10.2476 8.36965 10.2868 7.8145 10.2191C7.74346 10.211 7.67122 10.1989 7.5995 10.1888C7.65052 10.1087 7.70171 10.0289 7.75132 9.94597C8.30109 9.00551 8.75897 7.88706 8.99369 6.59701C9.10578 5.95096 9.1591 5.26011 9.09899 4.5237C9.03485 3.79209 8.86639 2.99268 8.38392 2.21631C8.15864 1.82637 7.81309 1.46641 7.41997 1.16498C7.20993 1.03106 7.00055 0.883907 6.7659 0.796293C6.65055 0.749206 6.53439 0.693363 6.41655 0.658614L6.05938 0.56641C5.93846 0.532572 5.82025 0.516573 5.70189 0.504935L5.34408 0.4682C5.09647 0.47694 4.84906 0.460908 4.59673 0.513887C4.09142 0.578014 3.59325 0.77777 3.15757 1.04527C2.27385 1.59305 1.69281 2.43158 1.3375 3.29001C0.988071 4.15835 0.839178 5.08011 0.880274 6.00181C0.937402 7.84053 1.79984 9.62889 3.15509 10.7654C3.57725 11.1235 4.03587 11.4175 4.50858 11.6535C4.17267 11.9816 3.84121 12.2467 3.53418 12.4448C2.66873 13.0137 2.05819 13.1854 2.08678 13.3733C2.09793 13.4564 2.26117 13.5097 2.58014 13.5301C2.89621 13.5422 3.36556 13.49 3.94458 13.2981ZM3.71916 7.61306C3.47601 7.09244 3.33003 6.50528 3.31097 5.90402C3.28107 5.30362 3.38273 4.7084 3.58107 4.19738C3.78296 3.69001 4.08975 3.27736 4.43138 3.05953C4.60334 2.95155 4.77629 2.86591 4.97227 2.83985C5.06449 2.80725 5.17275 2.8257 5.27251 2.80749L5.43451 2.82157C5.48962 2.823 5.54339 2.82622 5.58898 2.84159C5.63703 2.8528 5.68535 2.86223 5.73441 2.87004C5.78215 2.88007 5.81973 2.90411 5.86397 2.91734C5.95648 2.93788 6.02202 2.99797 6.10407 3.03309C6.24369 3.14183 6.39092 3.25197 6.50173 3.43352C6.74476 3.76732 6.90174 4.25305 6.9729 4.75879C7.04655 5.26649 7.04694 5.79815 6.99642 6.3141C6.88797 7.34981 6.59715 8.31768 6.22778 9.14737C6.13452 9.35098 6.03661 9.54639 5.93521 9.73397C5.48955 9.53552 5.07464 9.28272 4.71584 8.96428C4.29552 8.5975 3.96185 8.13426 3.71916 7.61306Z" fill="#020105"/>
</svg>
