<svg width="30" height="30" viewBox="0 0 30 30" fill="none" xmlns="http://www.w3.org/2000/svg">
<circle cx="15" cy="15" r="14.5" stroke="black"/>
<path d="M8.94458 21.2977C9.5245 21.1094 10.1959 20.7485 10.869 20.1955C10.8777 20.1883 10.8863 20.1802 10.895 20.1729C11.4827 20.3288 12.0665 20.4167 12.6507 20.4541C14.1795 20.5405 15.6465 20.1559 16.8051 19.5337C17.9772 18.9187 18.8855 18.1216 19.6068 17.3402C20.3333 16.5578 20.8706 15.7724 21.2996 15.0675C21.3842 14.9271 21.4604 14.7917 21.5355 14.6569C21.5513 15.4556 21.5928 16.1828 21.6593 16.8002C21.8041 18.1449 22.0614 18.9861 22.3967 19.005C22.732 19.0238 23.082 18.2168 23.3767 16.8967C23.5241 16.2367 23.6576 15.4484 23.7686 14.571C23.7943 14.3514 23.8206 14.1265 23.8475 13.8969C23.8594 13.7819 23.8714 13.6657 23.8835 13.5484C23.8999 13.337 23.9164 13.1235 23.9331 12.9082C24.0028 11.9566 24.0678 10.9527 24.125 9.93599C23.1578 10.2494 22.203 10.5697 21.3009 10.8799C21.0968 10.951 20.8945 11.0216 20.6941 11.0915C20.5838 11.1332 20.4745 11.1744 20.3664 11.2153C20.1512 11.2999 19.9405 11.3828 19.7347 11.4637C18.9147 11.7951 18.1867 12.1256 17.5862 12.4366C16.3852 13.0586 15.6943 13.6031 15.7982 13.9225C15.9021 14.2419 16.7811 14.2758 18.1182 14.0724C18.7868 13.9707 19.5699 13.8097 20.428 13.5953C20.5598 13.5611 20.6971 13.5254 20.8328 13.4902C20.2254 14.2671 19.4403 15.2008 18.4041 16.1104C17.7019 16.7217 16.876 17.3097 15.9297 17.7163C15.4591 17.9253 14.9565 18.0778 14.434 18.1637C13.9119 18.2472 13.3696 18.2864 12.8145 18.2186C12.7435 18.2106 12.6712 18.1985 12.5995 18.1883C12.6505 18.1082 12.7017 18.0285 12.7513 17.9455C13.3011 17.0051 13.759 15.8866 13.9937 14.5966C14.1058 13.9505 14.1591 13.2597 14.099 12.5233C14.0348 11.7917 13.8664 10.9923 13.3839 10.2159C13.1586 9.82594 12.8131 9.46598 12.42 9.16455C12.2099 9.03063 12.0006 8.88348 11.7659 8.79587C11.6506 8.74878 11.5344 8.69294 11.4166 8.65819L11.0594 8.56598C10.9385 8.53214 10.8202 8.51615 10.7019 8.50451L10.3441 8.46777C10.0965 8.47651 9.84906 8.46048 9.59673 8.51346C9.09142 8.57759 8.59325 8.77734 8.15757 9.04484C7.27385 9.59263 6.69281 10.4312 6.3375 11.2896C5.98807 12.1579 5.83918 13.0797 5.88027 14.0014C5.9374 15.8401 6.79984 17.6285 8.15509 18.7649C8.57725 19.1231 9.03587 19.417 9.50858 19.6531C9.17267 19.9812 8.84121 20.2462 8.53418 20.4444C7.66873 21.0133 7.05819 21.185 7.08678 21.3729C7.09793 21.456 7.26117 21.5092 7.58014 21.5297C7.89621 21.5418 8.36556 21.4896 8.94458 21.2977ZM8.71916 15.6126C8.47601 15.092 8.33003 14.5048 8.31097 13.9036C8.28107 13.3032 8.38273 12.708 8.58107 12.197C8.78296 11.6896 9.08975 11.2769 9.43138 11.0591C9.60334 10.9511 9.77629 10.8655 9.97227 10.8394C10.0645 10.8068 10.1728 10.8253 10.2725 10.8071L10.4345 10.8211C10.4896 10.8226 10.5434 10.8258 10.589 10.8412C10.637 10.8524 10.6854 10.8618 10.7344 10.8696C10.7821 10.8796 10.8197 10.9037 10.864 10.9169C10.9565 10.9375 11.022 10.9975 11.1041 11.0327C11.2437 11.1414 11.3909 11.2515 11.5017 11.4331C11.7448 11.7669 11.9017 12.2526 11.9729 12.7584C12.0465 13.2661 12.0469 13.7977 11.9964 14.3137C11.888 15.3494 11.5972 16.3173 11.2278 17.1469C11.1345 17.3506 11.0366 17.546 10.9352 17.7335C10.4896 17.5351 10.0746 17.2823 9.71584 16.9639C9.29552 16.5971 8.96185 16.1338 8.71916 15.6126Z" fill="#020105"/>
</svg>
