<svg width="28" height="28" viewBox="0 0 28 28" fill="none" xmlns="http://www.w3.org/2000/svg">
<path fill-rule="evenodd" clip-rule="evenodd" d="M13.9993 0.664062C6.63535 0.664062 0.666016 6.6334 0.666016 13.9974C0.666016 16.5174 1.36602 18.8774 2.58335 20.8881L1.39402 24.9307C1.32573 25.1628 1.32124 25.4091 1.38101 25.6435C1.44078 25.878 1.56261 26.092 1.73369 26.2631C1.90478 26.4341 2.11879 26.556 2.35324 26.6157C2.58768 26.6755 2.83391 26.671 3.06602 26.6027L7.10868 25.4134C9.18692 26.6708 11.5703 27.334 13.9993 27.3307C21.3633 27.3307 27.3327 21.3614 27.3327 13.9974C27.3327 6.6334 21.3633 0.664062 13.9993 0.664062ZM10.9833 17.0147C13.6807 19.7107 16.2553 20.0667 17.1647 20.1001C18.5473 20.1507 19.894 19.0947 20.418 17.8694C20.4842 17.717 20.5082 17.5496 20.4875 17.3847C20.4669 17.2198 20.4024 17.0635 20.3007 16.9321C19.57 15.9987 18.582 15.3281 17.6167 14.6614C17.4151 14.522 17.1674 14.4661 16.9256 14.5054C16.6837 14.5447 16.4664 14.6761 16.3193 14.8721L15.5193 16.0921C15.4773 16.1577 15.4117 16.2047 15.3361 16.2235C15.2605 16.2424 15.1806 16.2316 15.1127 16.1934C14.57 15.8827 13.7793 15.3547 13.2113 14.7867C12.6433 14.2187 12.1473 13.4641 11.8687 12.9561C11.8341 12.8915 11.8241 12.8166 11.8406 12.7453C11.857 12.674 11.8987 12.611 11.958 12.5681L13.19 11.6534C13.3658 11.5005 13.4793 11.2883 13.5088 11.0572C13.5383 10.8261 13.4818 10.5922 13.35 10.4001C12.7527 9.5254 12.0567 8.4134 11.0473 7.67606C10.9171 7.58167 10.7645 7.52281 10.6046 7.50528C10.4447 7.48774 10.283 7.51214 10.1353 7.57606C8.90868 8.1014 7.84735 9.44806 7.89802 10.8334C7.93135 11.7427 8.28735 14.3174 10.9833 17.0147Z" fill="black"/>
</svg>
