<svg width="17" height="17" viewBox="0 0 17 17" fill="none" xmlns="http://www.w3.org/2000/svg">
<path d="M16.1222 5.12996C15.7189 4.23878 15.14 3.43867 14.4049 2.74914C13.6699 2.06612 12.8177 1.52621 11.868 1.14892C10.8858 0.758625 9.84495 0.563477 8.77164 0.563477C7.69832 0.563477 6.65752 0.758625 5.67527 1.14892C4.72555 1.52621 3.8734 2.05962 3.13834 2.74914C2.40328 3.43867 1.82434 4.23878 1.42103 5.12996C1.00472 6.05366 0.790039 7.04242 0.790039 8.05719C0.790039 9.83304 1.45354 11.5373 2.66997 12.8904L2.01947 16.4356L5.48012 14.8939C6.51441 15.3362 7.61375 15.5574 8.76512 15.5574C9.83844 15.5574 10.8792 15.3623 11.8615 14.972C12.8112 14.5947 13.6634 14.0613 14.3984 13.3717C15.1335 12.6822 15.7124 11.8821 16.1157 10.9909C16.532 10.0672 16.7467 9.07847 16.7467 8.06369C16.7532 7.04242 16.5386 6.06017 16.1222 5.12996Z" fill="#020105"/>
<path d="M12.0115 9.55341C11.6733 9.38428 11.4261 9.2802 11.2505 9.21515C11.1399 9.17612 10.8797 9.05903 10.7886 9.13058C10.5024 9.36476 10.1967 10.0283 9.87141 10.1519C9.0648 9.99574 8.31674 9.44282 7.73129 8.87689C7.47109 8.6297 6.98972 7.92717 6.88565 7.73852C6.86613 7.54337 7.21739 7.28318 7.29544 7.13356C7.69875 6.67822 7.39303 6.392 7.34099 6.20335C7.24992 6.0082 7.09381 5.65694 6.95721 5.37072C6.84012 5.18207 6.81407 4.90236 6.60591 4.79828C5.72124 4.34294 5.21388 5.25363 5.00572 5.72849C3.75026 8.7533 11.296 14.5102 12.8312 10.5422C12.9092 10.1974 12.8767 10.0673 12.7596 9.91118C12.5254 9.74856 12.2522 9.677 12.0115 9.55341Z" fill="#FEDE2B"/>
</svg>
