<svg width="24" height="24" viewBox="0 0 24 24" fill="none" xmlns="http://www.w3.org/2000/svg">
<path d="M5.94458 18.2987C6.5245 18.1104 7.19588 17.7495 7.86903 17.1965C7.87772 17.1893 7.88631 17.1812 7.89499 17.1739C8.4827 17.3298 9.06647 17.4176 9.65065 17.4551C11.1795 17.5415 12.6465 17.1569 13.8051 16.5346C14.9772 15.9197 15.8855 15.1226 16.6068 14.3412C17.3333 13.5588 17.8706 12.7734 18.2996 12.0685C18.3842 11.9281 18.4604 11.7926 18.5355 11.6579C18.5513 12.4566 18.5928 13.1838 18.6593 13.8011C18.8041 15.1459 19.0614 15.9871 19.3967 16.0059C19.732 16.0248 20.082 15.2178 20.3767 13.8977C20.5241 13.2377 20.6576 12.4494 20.7686 11.572C20.7943 11.3524 20.8206 11.1275 20.8475 10.8978C20.8594 10.7828 20.8714 10.6667 20.8835 10.5494C20.8999 10.3379 20.9164 10.1245 20.9331 9.90921C21.0028 8.95754 21.0678 7.95369 21.125 6.93696C20.1578 7.25037 19.203 7.57069 18.3009 7.88083C18.0968 7.952 17.8945 8.02256 17.6941 8.09245C17.5838 8.13413 17.4745 8.17541 17.3664 8.21628C17.1512 8.3009 16.9405 8.38379 16.7347 8.46471C15.9147 8.79611 15.1867 9.12655 14.5862 9.43757C13.3852 10.0596 12.6943 10.6041 12.7982 10.9235C12.9021 11.2429 13.7811 11.2768 15.1182 11.0734C15.7868 10.9717 16.5699 10.8106 17.428 10.5963C17.5598 10.5621 17.6971 10.5264 17.8328 10.4911C17.2254 11.268 16.4403 12.2018 15.4041 13.1114C14.7019 13.7227 13.876 14.3107 12.9297 14.7173C12.4591 14.9263 11.9565 15.0788 11.434 15.1647C10.9119 15.2482 10.3696 15.2874 9.8145 15.2196C9.74346 15.2116 9.67122 15.1995 9.5995 15.1893C9.65052 15.1092 9.70171 15.0294 9.75132 14.9465C10.3011 14.0061 10.759 12.8876 10.9937 11.5976C11.1058 10.9515 11.1591 10.2607 11.099 9.52425C11.0348 8.79264 10.8664 7.99323 10.3839 7.21686C10.1586 6.82692 9.81309 6.46696 9.41997 6.16553C9.20993 6.03161 9.00055 5.88446 8.7659 5.79684C8.65055 5.74976 8.53439 5.69391 8.41655 5.65916L8.05938 5.56696C7.93846 5.53312 7.82025 5.51712 7.70189 5.50548L7.34408 5.46875C7.09647 5.47749 6.84906 5.46146 6.59673 5.51444C6.09142 5.57856 5.59325 5.77832 5.15757 6.04582C4.27385 6.5936 3.69281 7.43213 3.3375 8.29056C2.98807 9.1589 2.83918 10.0807 2.88027 11.0024C2.9374 12.8411 3.79984 14.6294 5.15509 15.7659C5.57725 16.1241 6.03587 16.418 6.50858 16.654C6.17267 16.9821 5.84121 17.2472 5.53418 17.4453C4.66873 18.0143 4.05819 18.186 4.08678 18.3739C4.09793 18.457 4.26117 18.5102 4.58014 18.5307C4.89621 18.5428 5.36556 18.4906 5.94458 18.2987ZM5.71916 12.6136C5.47601 12.093 5.33003 11.5058 5.31097 10.9046C5.28107 10.3042 5.38273 9.70895 5.58107 9.19793C5.78296 8.69056 6.08975 8.27791 6.43138 8.06007C6.60334 7.9521 6.77629 7.86645 6.97227 7.8404C7.06449 7.8078 7.17275 7.82625 7.27251 7.80804L7.43451 7.82212C7.48962 7.82355 7.54339 7.82677 7.58898 7.84214C7.63703 7.85335 7.68535 7.86278 7.73441 7.87059C7.78215 7.88061 7.81973 7.90465 7.86397 7.91789C7.95648 7.93843 8.02202 7.99852 8.10407 8.03364C8.24369 8.14238 8.39092 8.25252 8.50173 8.43407C8.74476 8.76787 8.90174 9.2536 8.9729 9.75934C9.04655 10.267 9.04694 10.7987 8.99642 11.3146C8.88797 12.3504 8.59715 13.3182 8.22778 14.1479C8.13452 14.3515 8.03661 14.5469 7.93521 14.7345C7.48955 14.5361 7.07464 14.2833 6.71584 13.9648C6.29552 13.598 5.96185 13.1348 5.71916 12.6136Z" fill="#FBFBFB"/>
</svg>
