<svg width="253" height="87" viewBox="0 0 253 87" fill="none" xmlns="http://www.w3.org/2000/svg">
<mask id="path-1-outside-1_2004_35268" maskUnits="userSpaceOnUse" x="-1" y="-1" width="255" height="89" fill="black">
<rect fill="white" x="-1" y="-1" width="255" height="89"/>
<path d="M27.1086 73.8C32.51 73.8 36.4419 72.8865 38.9043 71.0596C41.3667 69.2326 42.5979 66.6511 42.5979 63.3149C42.5979 61.3291 42.1611 59.6213 41.2873 58.1915C40.493 56.7617 39.3015 55.4908 37.7128 54.3787C36.2036 53.1873 34.337 52.1149 32.1128 51.1617C29.8887 50.1291 27.3469 49.1362 24.4873 48.183C21.6278 47.1504 18.8476 46.0383 16.1469 44.8468C13.5256 43.5759 11.1824 42.027 9.11712 40.2C7.13131 38.3731 5.50294 36.1887 4.23202 33.6468C3.04053 31.105 2.44479 28.0469 2.44479 24.4724C2.44479 17.0057 5.02635 11.1674 10.1895 6.95751C15.3526 2.66815 22.3824 0.52347 31.2788 0.52347C36.4419 0.52347 41.0093 1.11922 44.9809 2.31071C49.032 3.42276 52.2093 4.65397 54.5128 6.00432L49.866 18.1575C47.1653 16.6483 44.1866 15.4965 40.9299 14.7022C37.7526 13.9079 34.4561 13.5107 31.0405 13.5107C26.9894 13.5107 23.8121 14.3447 21.5086 16.0128C19.2845 17.6809 18.1724 20.0242 18.1724 23.0426C18.1724 24.8696 18.5299 26.4582 19.2448 27.8086C20.0391 29.0795 21.1114 30.2312 22.4618 31.2639C23.8916 32.2965 25.5199 33.2497 27.3469 34.1234C29.2533 34.9972 31.3185 35.8312 33.5426 36.6256C37.4348 38.0554 40.8901 39.5249 43.9086 41.0341C47.0065 42.4639 49.588 44.2114 51.6533 46.2766C53.7979 48.2624 55.4263 50.6454 56.5384 53.4256C57.6504 56.1263 58.2064 59.4227 58.2064 63.3149C58.2064 70.7816 55.5455 76.5801 50.2235 80.7106C44.9809 84.7617 37.276 86.7872 27.1086 86.7872C23.693 86.7872 20.5554 86.5489 17.6958 86.0723C14.9157 85.6752 12.4136 85.1589 10.1895 84.5234C8.04478 83.8879 6.17812 83.2525 4.58947 82.617C3.00082 81.9021 1.7299 81.2667 0.776705 80.7106L5.18521 68.4383C7.32989 69.6298 10.2292 70.8213 13.8831 72.0128C17.537 73.2043 21.9455 73.8 27.1086 73.8ZM119.692 85C118.58 81.7433 117.428 78.5262 116.237 75.3489C115.045 72.1716 113.893 68.9149 112.781 65.5787H77.9898C76.8777 68.9149 75.726 72.2114 74.5345 75.4681C73.4224 78.6454 72.3104 81.8227 71.1983 85H55.5898C58.6877 76.183 61.6267 68.0411 64.4068 60.5745C67.187 53.1078 69.8877 46.0383 72.509 39.366C75.2097 32.6937 77.8707 26.3391 80.4919 20.3022C83.1132 14.2653 85.8139 8.30786 88.5941 2.42986H102.773C105.553 8.30786 108.254 14.2653 110.875 20.3022C113.496 26.3391 116.117 32.6937 118.739 39.366C121.439 46.0383 124.18 53.1078 126.96 60.5745C129.82 68.0411 132.798 76.183 135.896 85H119.692ZM95.3855 18.3958C93.5586 22.6057 91.4536 27.7291 89.0706 33.766C86.7671 39.8029 84.3444 46.3561 81.8026 53.4256H108.969C106.427 46.3561 103.964 39.7632 101.581 33.6468C99.1983 27.5305 97.1331 22.4469 95.3855 18.3958ZM191.967 72.0128V85H139.78V2.42986H154.792V72.0128H191.967ZM196.873 85V2.42986H249.895V15.1788H211.886V35.5532H245.724V48.0639H211.886V72.2511H252.754V85H196.873Z"/>
</mask>
<path d="M38.9043 71.0596L39.284 71.5713L38.9043 71.0596ZM41.2873 58.1915L40.7303 58.5009L40.7367 58.5125L40.7436 58.5238L41.2873 58.1915ZM37.7128 54.3787L37.318 54.8788L37.3324 54.8902L37.3475 54.9007L37.7128 54.3787ZM32.1129 51.1617L31.8445 51.7396L31.8531 51.7436L31.8619 51.7474L32.1129 51.1617ZM24.4873 48.183L24.2709 48.7823L24.2783 48.785L24.2858 48.7875L24.4873 48.183ZM16.1469 44.8468L15.8689 45.4202L15.8792 45.4252L15.8897 45.4298L16.1469 44.8468ZM9.11712 40.2L8.68565 40.669L8.69496 40.6773L9.11712 40.2ZM4.23202 33.6469L3.6551 33.9173L3.65852 33.9246L3.66213 33.9318L4.23202 33.6469ZM10.1895 6.95751L10.5921 7.45134L10.5966 7.44761L10.1895 6.95751ZM44.9809 2.31071L44.7978 2.921L44.805 2.92315L44.8123 2.92514L44.9809 2.31071ZM54.5128 6.00432L55.108 6.23187L55.3008 5.72764L54.8351 5.45464L54.5128 6.00432ZM49.866 18.1575L49.5552 18.7137L50.1981 19.073L50.4612 18.3851L49.866 18.1575ZM40.9299 14.7022L40.7753 15.3203L40.7789 15.3212L40.9299 14.7022ZM21.5086 16.0128L21.1349 15.4967L21.1263 15.5031L21.5086 16.0128ZM19.2448 27.8086L18.6817 28.1067L18.6924 28.1269L18.7045 28.1463L19.2448 27.8086ZM22.4618 31.2639L22.0748 31.77L22.0817 31.7753L22.0887 31.7804L22.4618 31.2639ZM27.3469 34.1234L27.072 34.6983L27.0814 34.7027L27.3469 34.1234ZM33.5426 36.6256L33.7623 36.0275L33.7569 36.0255L33.5426 36.6256ZM43.9086 41.0341L43.6236 41.604L43.6325 41.6084L43.6416 41.6126L43.9086 41.0341ZM51.6533 46.2766L51.2027 46.7272L51.2114 46.7358L51.2204 46.7441L51.6533 46.2766ZM56.5384 53.4256L55.9467 53.6622L55.9492 53.6682L56.5384 53.4256ZM50.2235 80.7106L50.6131 81.2148L50.6141 81.214L50.2235 80.7106ZM17.6958 86.0723L17.8006 85.4438L17.7933 85.4426L17.7859 85.4416L17.6958 86.0723ZM10.1895 84.5234L10.0084 85.1343L10.0144 85.136L10.1895 84.5234ZM4.58947 82.617L4.328 83.1981L4.3403 83.2036L4.35283 83.2086L4.58947 82.617ZM0.776705 80.7106L0.177062 80.4952L-0.00209951 80.994L0.455659 81.261L0.776705 80.7106ZM5.18521 68.4383L5.49464 67.8813L4.8391 67.5171L4.58557 68.2229L5.18521 68.4383ZM13.8831 72.0128L13.6855 72.6185L13.8831 72.0128ZM27.1086 74.4372C32.5544 74.4372 36.6555 73.5214 39.284 71.5713L38.5247 70.5479C36.2283 72.2516 32.4657 73.1628 27.1086 73.1628V74.4372ZM39.284 71.5713C41.9243 69.6124 43.2351 66.8322 43.2351 63.3149H41.9608C41.9608 66.47 40.8092 68.8529 38.5247 70.5479L39.284 71.5713ZM43.2351 63.3149C43.2351 61.2338 42.7764 59.4063 41.831 57.8593L40.7436 58.5238C41.5458 59.8363 41.9608 61.4244 41.9608 63.3149H43.2351ZM41.8443 57.8821C40.9951 56.3536 39.7315 55.014 38.0782 53.8568L37.3475 54.9007C38.8715 55.9676 39.9909 57.1699 40.7303 58.5009L41.8443 57.8821ZM38.1077 53.8787C36.5449 52.6449 34.6268 51.5459 32.3638 50.5761L31.8619 51.7474C34.0471 52.6839 35.8624 53.7297 37.318 54.8788L38.1077 53.8787ZM32.3812 50.5838C30.131 49.5391 27.5662 48.5377 24.6888 47.5785L24.2858 48.7875C27.1276 49.7347 29.6464 50.7191 31.8445 51.7396L32.3812 50.5838ZM24.7037 47.5837C21.8575 46.5559 19.091 45.4493 16.4041 44.2639L15.8897 45.4298C18.6042 46.6274 21.398 47.7448 24.2709 48.7823L24.7037 47.5837ZM16.4249 44.2735C13.8529 43.0265 11.5587 41.5092 9.53929 39.7228L8.69496 40.6773C10.8061 42.5448 13.1984 44.1254 15.8689 45.4202L16.4249 44.2735ZM9.54852 39.7311C7.62264 37.9593 6.04009 35.8382 4.80191 33.3619L3.66213 33.9318C4.9658 36.5391 6.63998 38.7868 8.68573 40.6689L9.54852 39.7311ZM4.80894 33.3764C3.66642 30.939 3.08195 27.9781 3.08195 24.4724H1.80763C1.80763 28.1156 2.41464 31.271 3.6551 33.9173L4.80894 33.3764ZM3.08195 24.4724C3.08195 17.1711 5.59654 11.5246 10.5921 7.45132L9.78682 6.4637C4.45615 10.8102 1.80763 16.8404 1.80763 24.4724H3.08195ZM10.5966 7.44761C15.6127 3.28038 22.4823 1.16063 31.2788 1.16063V-0.113689C22.2824 -0.113689 15.0924 2.05592 9.78231 6.46741L10.5966 7.44761ZM31.2788 1.16063C36.3944 1.16063 40.8981 1.75106 44.7978 2.921L45.164 1.70042C41.1205 0.487371 36.4894 -0.113689 31.2788 -0.113689V1.16063ZM44.8123 2.92514C48.8365 4.02983 51.9545 5.24317 54.1906 6.55399L54.8351 5.45464C52.4641 4.06476 49.2275 2.8157 45.1496 1.69628L44.8123 2.92514ZM53.9177 5.77676L49.2709 17.9299L50.4612 18.3851L55.108 6.23187L53.9177 5.77676ZM50.1768 17.6013C47.4219 16.0618 44.3888 14.89 41.0808 14.0832L40.7789 15.3212C43.9844 16.103 46.9087 17.2348 49.5552 18.7137L50.1768 17.6013ZM41.0844 14.084C37.8544 13.2766 34.506 12.8735 31.0405 12.8735V14.1479C34.4062 14.1479 37.6507 14.5392 40.7753 15.3203L41.0844 14.084ZM31.0405 12.8735C26.9102 12.8735 23.5845 13.7229 21.1349 15.4968L21.8823 16.5289C24.0398 14.9666 27.0687 14.1479 31.0405 14.1479V12.8735ZM21.1263 15.5031C18.7265 17.303 17.5353 19.8435 17.5353 23.0426H18.8096C18.8096 20.2048 19.8425 18.0588 21.8909 16.5225L21.1263 15.5031ZM17.5353 23.0426C17.5353 24.9532 17.9095 26.6481 18.6817 28.1067L19.8079 27.5104C19.1503 26.2683 18.8096 24.7859 18.8096 23.0426H17.5353ZM18.7045 28.1463C19.5444 29.4902 20.6717 30.6971 22.0748 31.77L22.8488 30.7577C21.5512 29.7654 20.5338 28.6688 19.7851 27.4709L18.7045 28.1463ZM22.0887 31.7804C23.5536 32.8383 25.2156 33.8104 27.072 34.6982L27.6218 33.5486C25.8243 32.689 24.2296 31.7547 22.8348 30.7473L22.0887 31.7804ZM27.0814 34.7027C29.0065 35.585 31.089 36.4258 33.3283 37.2256L33.7569 36.0255C31.548 35.2366 29.5001 34.4094 27.6124 33.5442L27.0814 34.7027ZM33.3229 37.2237C37.1977 38.647 40.6305 40.1074 43.6236 41.604L44.1935 40.4642C41.1497 38.9423 37.672 37.4637 33.7623 36.0275L33.3229 37.2237ZM43.6416 41.6126C46.6825 43.0161 49.1987 44.7232 51.2027 46.7272L52.1038 45.8261C49.9773 43.6996 47.3305 41.9117 44.1756 40.4556L43.6416 41.6126ZM51.2204 46.7441C53.2939 48.6641 54.8689 50.9676 55.9468 53.6622L57.13 53.1889C55.9837 50.3232 54.3019 47.8608 52.0862 45.8091L51.2204 46.7441ZM55.9492 53.6682C57.0209 56.2709 57.5693 59.4798 57.5693 63.3149H58.8436C58.8436 59.3657 58.2799 55.9816 57.1275 53.183L55.9492 53.6682ZM57.5693 63.3149C57.5693 70.6091 54.981 76.2117 49.8328 80.2073L50.6141 81.214C56.1099 76.9486 58.8436 70.954 58.8436 63.3149H57.5693ZM49.8339 80.2065C44.7485 84.136 37.2062 86.1501 27.1086 86.1501V87.4244C37.3457 87.4244 45.2133 85.3874 50.6131 81.2148L49.8339 80.2065ZM27.1086 86.1501C23.7221 86.1501 20.6201 85.9138 17.8006 85.4438L17.5911 86.7008C20.4907 87.1841 23.6639 87.4244 27.1086 87.4244V86.1501ZM17.7859 85.4416C15.0287 85.0477 12.5556 84.5368 10.3645 83.9108L10.0144 85.136C12.2715 85.7809 14.8027 86.3027 17.6057 86.7031L17.7859 85.4416ZM10.3705 83.9125C8.23927 83.281 6.39198 82.6518 4.8261 82.0254L4.35283 83.2086C5.96426 83.8532 7.8503 84.4949 10.0085 85.1343L10.3705 83.9125ZM4.85094 82.036C3.27247 81.3257 2.02393 80.7005 1.09775 80.1603L0.455659 81.261C1.43587 81.8328 2.72916 82.4786 4.328 83.1981L4.85094 82.036ZM1.37635 80.926L5.78486 68.6537L4.58557 68.2229L0.177062 80.4952L1.37635 80.926ZM4.87578 68.9953C7.07021 70.2144 10.012 71.4206 13.6855 72.6185L14.0806 71.407C10.4464 70.2219 7.58957 69.0452 5.49464 67.8813L4.87578 68.9953ZM13.6855 72.6185C17.4209 73.8366 21.8999 74.4372 27.1086 74.4372V73.1628C21.9911 73.1628 17.6531 72.5719 14.0806 71.407L13.6855 72.6185ZM119.692 85L119.089 85.2059L119.236 85.6372H119.692V85ZM116.237 75.3489L115.64 75.5727V75.5727L116.237 75.3489ZM112.781 65.5787L113.386 65.3773L113.241 64.9416H112.781V65.5787ZM77.9898 65.5787V64.9416H77.5306L77.3853 65.3773L77.9898 65.5787ZM74.5345 75.4681L73.9361 75.2492L73.9331 75.2576L74.5345 75.4681ZM71.1983 85V85.6372H71.6504L71.7997 85.2105L71.1983 85ZM55.5898 85L54.9887 84.7888L54.6906 85.6372H55.5898V85ZM64.4068 60.5745L63.8097 60.3522L64.4068 60.5745ZM72.509 39.366L71.9183 39.1269L71.9159 39.133L72.509 39.366ZM80.4919 20.3022L79.9075 20.0484L80.4919 20.3022ZM88.5941 2.42986V1.7927H88.1906L88.0181 2.15743L88.5941 2.42986ZM102.773 2.42986L103.349 2.15743L103.176 1.7927H102.773V2.42986ZM110.875 20.3022L110.29 20.556L110.875 20.3022ZM118.739 39.366L118.146 39.599L118.148 39.6051L118.739 39.366ZM126.96 60.5745L126.363 60.7968L126.365 60.8024L126.96 60.5745ZM135.896 85V85.6372H136.795L136.497 84.7888L135.896 85ZM95.3855 18.3958L95.9706 18.1434L95.3873 16.7912L94.801 18.1422L95.3855 18.3958ZM89.0706 33.766L88.478 33.532L88.4754 33.5388L89.0706 33.766ZM81.8026 53.4256L81.203 53.21L80.8964 54.0627H81.8026V53.4256ZM108.969 53.4256V54.0627H109.875L109.568 53.21L108.969 53.4256ZM101.581 33.6469L102.175 33.4155L101.581 33.6469ZM120.295 84.7941C119.181 81.5315 118.027 78.3085 116.833 75.1252L115.64 75.5727C116.829 78.744 117.979 81.955 119.089 85.2059L120.295 84.7941ZM116.833 75.1252C115.645 71.9555 114.495 68.7062 113.386 65.3773L112.177 65.7802C113.291 69.1236 114.446 72.3877 115.64 75.5727L116.833 75.1252ZM112.781 64.9416H77.9898V66.2159H112.781V64.9416ZM77.3853 65.3773C76.2752 68.7077 75.1255 71.9983 73.9361 75.2492L75.1329 75.687C76.3265 72.4244 77.4803 69.1222 78.5943 65.7802L77.3853 65.3773ZM73.9331 75.2576C73.9309 75.2638 73.9288 75.27 73.9266 75.2762C73.9244 75.2824 73.9222 75.2886 73.9201 75.2948C73.9184 75.2996 73.9087 75.3273 73.907 75.3321C73.9049 75.3383 73.9027 75.3445 73.9005 75.3507C73.8983 75.3569 73.8962 75.3631 73.894 75.3693C73.8866 75.3906 73.8884 75.3853 73.881 75.4065C73.8788 75.4128 73.8766 75.419 73.8745 75.4252C73.8723 75.4314 73.8701 75.4376 73.8679 75.4438C73.8663 75.4485 73.8566 75.4763 73.8549 75.481C73.8527 75.4872 73.8506 75.4934 73.8484 75.4996C73.8462 75.5058 73.844 75.512 73.8419 75.5182C73.8344 75.5395 73.8363 75.5342 73.8288 75.5555C73.8267 75.5617 73.8245 75.5679 73.8223 75.5741C73.8202 75.5803 73.818 75.5865 73.8158 75.5927C73.8026 75.6305 73.816 75.5921 73.8028 75.6299C73.8006 75.6362 73.7984 75.6424 73.7963 75.6486C73.7941 75.6548 73.7919 75.661 73.7897 75.6672C73.7823 75.6885 73.7842 75.6831 73.7767 75.7044C73.7745 75.7106 73.7724 75.7168 73.7702 75.723C73.768 75.7292 73.7659 75.7354 73.7637 75.7416C73.7504 75.7795 73.7639 75.7411 73.7507 75.7789C73.7485 75.7851 73.7463 75.7913 73.7441 75.7975C73.742 75.8037 73.7398 75.8099 73.7376 75.8161C73.7302 75.8374 73.732 75.8321 73.7246 75.8533C73.7224 75.8596 73.7202 75.8658 73.7181 75.872C73.7159 75.8782 73.7137 75.8844 73.7116 75.8906C73.6983 75.9284 73.7118 75.89 73.6985 75.9278C73.6964 75.934 73.6942 75.9402 73.692 75.9464C73.6898 75.9526 73.6877 75.9588 73.6855 75.965C73.678 75.9863 73.6799 75.981 73.6725 76.0023C73.6703 76.0085 73.6681 76.0147 73.6659 76.0209C73.6638 76.0271 73.6616 76.0333 73.6594 76.0395C73.6578 76.0443 73.6481 76.072 73.6464 76.0768C73.6442 76.083 73.6421 76.0892 73.6399 76.0954C73.6377 76.1016 73.6355 76.1078 73.6334 76.114C73.6259 76.1353 73.6278 76.1299 73.6203 76.1512C73.6182 76.1574 73.616 76.1636 73.6138 76.1698C73.6116 76.176 73.6095 76.1823 73.6073 76.1885C73.5941 76.2263 73.6075 76.1879 73.5943 76.2257C73.5921 76.2319 73.5899 76.2381 73.5878 76.2443C73.5856 76.2505 73.5834 76.2567 73.5812 76.2629C73.5738 76.2842 73.5757 76.2789 73.5682 76.3002C73.566 76.3064 73.5639 76.3126 73.5617 76.3188C73.5595 76.325 73.5574 76.3312 73.5552 76.3374C73.5419 76.3752 73.5554 76.3368 73.5421 76.3746C73.54 76.3808 73.5378 76.387 73.5356 76.3932C73.5335 76.3995 73.5313 76.4057 73.5291 76.4119C73.5217 76.4331 73.5235 76.4278 73.5161 76.4491C73.5139 76.4553 73.5117 76.4615 73.5096 76.4677C73.5074 76.4739 73.5052 76.4801 73.503 76.4863C73.4898 76.5242 73.5033 76.4857 73.49 76.5236C73.4878 76.5298 73.4857 76.536 73.4835 76.5422C73.4813 76.5484 73.4792 76.5546 73.477 76.5608C73.4695 76.5821 73.4714 76.5768 73.464 76.598C73.4618 76.6042 73.4596 76.6104 73.4574 76.6166C73.4553 76.6229 73.4531 76.6291 73.4509 76.6353C73.4493 76.64 73.4395 76.6678 73.4379 76.6725C73.4357 76.6787 73.4335 76.6849 73.4314 76.6911C73.4292 76.6973 73.427 76.7035 73.4249 76.7097C73.4174 76.731 73.4193 76.7257 73.4118 76.747C73.4097 76.7532 73.4075 76.7594 73.4053 76.7656C73.4031 76.7718 73.401 76.778 73.3988 76.7842C73.3966 76.7904 73.3944 76.7966 73.3923 76.8028C73.3901 76.809 73.3879 76.8152 73.3858 76.8214C73.3836 76.8276 73.3814 76.8338 73.3792 76.84C73.3771 76.8463 73.3749 76.8525 73.3727 76.8587C73.3706 76.8649 73.3684 76.8711 73.3662 76.8773C73.364 76.8835 73.3619 76.8897 73.3597 76.8959C73.3575 76.9021 73.3554 76.9083 73.3532 76.9145C73.351 76.9207 73.3488 76.9269 73.3467 76.9331C73.3445 76.9393 73.3423 76.9455 73.3401 76.9518C73.338 76.958 73.3358 76.9642 73.3336 76.9704C73.3315 76.9766 73.3293 76.9828 73.3271 76.989C73.3249 76.9952 73.3228 77.0014 73.3206 77.0076C73.3184 77.0138 73.3163 77.02 73.3141 77.0262C73.3119 77.0324 73.3097 77.0386 73.3076 77.0448C73.3054 77.051 73.3032 77.0573 73.3011 77.0635C73.2989 77.0697 73.2967 77.0759 73.2945 77.0821C73.2924 77.0883 73.2902 77.0945 73.288 77.1007C73.2859 77.1069 73.2837 77.1131 73.2815 77.1193C73.2793 77.1255 73.2772 77.1317 73.275 77.1379C73.2728 77.1441 73.2706 77.1503 73.2685 77.1565C73.2663 77.1628 73.2641 77.169 73.262 77.1752C73.2598 77.1814 73.2576 77.1876 73.2554 77.1938C73.2533 77.2 73.2511 77.2062 73.2489 77.2124C73.2468 77.2186 73.2446 77.2248 73.2424 77.231C73.2402 77.2372 73.2381 77.2434 73.2359 77.2496C73.2337 77.2558 73.2316 77.262 73.2294 77.2682C73.2272 77.2745 73.225 77.2807 73.2229 77.2869C73.2207 77.2931 73.2185 77.2993 73.2163 77.3055C73.2142 77.3117 73.212 77.3179 73.2098 77.3241C73.2077 77.3303 73.2055 77.3365 73.2033 77.3427C73.2011 77.3489 73.199 77.3551 73.1968 77.3613C73.1946 77.3675 73.1925 77.3737 73.1903 77.3799C73.1881 77.3862 73.1859 77.3924 73.1838 77.3986C73.1816 77.4048 73.1794 77.411 73.1773 77.4172C73.1751 77.4234 73.1729 77.4296 73.1707 77.4358C73.1686 77.442 73.1664 77.4482 73.1642 77.4544C73.162 77.4606 73.1599 77.4668 73.1577 77.473C73.1555 77.4792 73.1534 77.4854 73.1512 77.4916C73.149 77.4979 73.1468 77.5041 73.1447 77.5103C73.1425 77.5165 73.1403 77.5227 73.1382 77.5289C73.136 77.5351 73.1338 77.5413 73.1316 77.5475C73.1295 77.5537 73.1273 77.5599 73.1251 77.5661C73.1229 77.5723 73.1208 77.5785 73.1186 77.5847C73.1164 77.5909 73.1143 77.5971 73.1121 77.6033C73.1099 77.6096 73.1077 77.6158 73.1056 77.622C73.1034 77.6282 73.1012 77.6344 73.0991 77.6406C73.0969 77.6468 73.0947 77.653 73.0925 77.6592C73.0904 77.6654 73.0882 77.6716 73.086 77.6778C73.0839 77.684 73.0817 77.6902 73.0795 77.6964C73.0773 77.7026 73.0752 77.7088 73.073 77.715C73.0708 77.7213 73.0686 77.7275 73.0665 77.7337C73.0643 77.7399 73.0621 77.7461 73.06 77.7523C73.0578 77.7585 73.0556 77.7647 73.0534 77.7709C73.0513 77.7771 73.0491 77.7833 73.0469 77.7895C73.0448 77.7957 73.0426 77.8019 73.0404 77.8081C73.0382 77.8143 73.0361 77.8205 73.0339 77.8268C73.0317 77.833 73.0296 77.8392 73.0274 77.8454C73.0252 77.8516 73.023 77.8578 73.0209 77.864C73.0187 77.8702 73.0165 77.8764 73.0144 77.8826C73.0122 77.8888 73.01 77.895 73.0078 77.9012C73.0057 77.9074 73.0035 77.9136 73.0013 77.9198C72.9991 77.926 72.997 77.9323 72.9948 77.9385C72.9926 77.9447 72.9905 77.9509 72.9883 77.9571C72.9861 77.9633 72.9839 77.9695 72.9818 77.9757C72.9796 77.9819 72.9774 77.9881 72.9753 77.9943C72.9731 78.0005 72.9709 78.0067 72.9687 78.0129C72.9666 78.0191 72.9644 78.0253 72.9622 78.0315C72.9601 78.0377 72.9579 78.044 72.9557 78.0502C72.9535 78.0564 72.9514 78.0626 72.9492 78.0688C72.947 78.075 72.9448 78.0812 72.9427 78.0874C72.9405 78.0936 72.9383 78.0998 72.9362 78.106C72.934 78.1122 72.9318 78.1184 72.9296 78.1246C72.9275 78.1308 72.9253 78.137 72.9231 78.1432C72.921 78.1495 72.9188 78.1557 72.9166 78.1619C72.9144 78.1681 72.9123 78.1743 72.9101 78.1805C72.9079 78.1867 72.9058 78.1929 72.9036 78.1991C72.9014 78.2053 72.8992 78.2115 72.8971 78.2177C72.8949 78.2239 72.8927 78.2301 72.8905 78.2363C72.8884 78.2425 72.8862 78.2487 72.884 78.2549C72.8819 78.2612 72.8797 78.2674 72.8775 78.2736C72.8753 78.2798 72.8732 78.286 72.871 78.2922C72.8688 78.2984 72.8667 78.3046 72.8645 78.3108C72.8623 78.317 72.8601 78.3232 72.858 78.3294C72.8558 78.3356 72.8536 78.3418 72.8515 78.348C72.8493 78.3542 72.8471 78.3604 72.8449 78.3666C72.8428 78.3729 72.8406 78.3791 72.8384 78.3853C72.8363 78.3915 72.8341 78.3977 72.8319 78.4039C72.8297 78.4101 72.8276 78.4163 72.8254 78.4225C72.8232 78.4287 72.821 78.4349 72.8189 78.4411C72.8167 78.4473 72.8145 78.4535 72.8124 78.4597C72.8102 78.4659 72.808 78.4721 72.8058 78.4783C72.8037 78.4846 72.8015 78.4908 72.7993 78.497C72.7971 78.5032 72.795 78.5094 72.7928 78.5156C72.7906 78.5218 72.7885 78.528 72.7863 78.5342C72.7841 78.5404 72.782 78.5466 72.7798 78.5528C72.7776 78.559 72.7754 78.5652 72.7733 78.5714C72.7711 78.5776 72.7689 78.5838 72.7667 78.59C72.7646 78.5963 72.7624 78.6025 72.7602 78.6087C72.7581 78.6149 72.7559 78.6211 72.7537 78.6273C72.7515 78.6335 72.7494 78.6397 72.7472 78.6459C72.745 78.6521 72.7429 78.6583 72.7407 78.6645C72.7385 78.6707 72.7363 78.6769 72.7342 78.6831C72.732 78.6893 72.7298 78.6955 72.7276 78.7018C72.7255 78.708 72.7233 78.7142 72.7211 78.7204C72.719 78.7266 72.7168 78.7328 72.7146 78.739C72.7124 78.7452 72.7103 78.7514 72.7081 78.7576C72.7059 78.7638 72.7038 78.77 72.7016 78.7762C72.6994 78.7824 72.6972 78.7886 72.6951 78.7948C72.6929 78.801 72.6907 78.8073 72.6886 78.8135C72.6864 78.8197 72.6842 78.8259 72.682 78.8321C72.6799 78.8383 72.6777 78.8445 72.6755 78.8507C72.6733 78.8569 72.6712 78.8631 72.669 78.8693C72.6668 78.8755 72.6647 78.8817 72.6625 78.8879C72.6603 78.8941 72.6581 78.9003 72.656 78.9065C72.6538 78.9127 72.6516 78.919 72.6495 78.9252C72.6473 78.9314 72.6451 78.9376 72.6429 78.9438C72.6408 78.95 72.6386 78.9562 72.6364 78.9624C72.6343 78.9686 72.6321 78.9748 72.6299 78.981C72.6277 78.9872 72.6256 78.9934 72.6234 78.9996C72.6212 79.0058 72.619 79.012 72.6169 79.0182C72.6147 79.0244 72.6125 79.0307 72.6104 79.0369C72.6082 79.0431 72.606 79.0493 72.6038 79.0555C72.6017 79.0617 72.5995 79.0679 72.5973 79.0741C72.5952 79.0803 72.593 79.0865 72.5908 79.0927C72.5886 79.0989 72.5865 79.1051 72.5843 79.1113C72.5821 79.1175 72.58 79.1237 72.5778 79.1299C72.5756 79.1361 72.5734 79.1424 72.5713 79.1486C72.5691 79.1548 72.5669 79.161 72.5648 79.1672C72.5626 79.1734 72.5604 79.1796 72.5582 79.1858C72.5561 79.192 72.5539 79.1982 72.5517 79.2044C72.5495 79.2106 72.5474 79.2168 72.5452 79.223C72.543 79.2292 72.5409 79.2354 72.5387 79.2416C72.5365 79.2478 72.5343 79.2541 72.5322 79.2603C72.53 79.2665 72.5278 79.2727 72.5257 79.2789C72.5235 79.2851 72.5213 79.2913 72.5191 79.2975C72.517 79.3037 72.5148 79.3099 72.5126 79.3161C72.5105 79.3223 72.5083 79.3285 72.5061 79.3347C72.5039 79.3409 72.5018 79.3471 72.4996 79.3533C72.4974 79.3596 72.4952 79.3658 72.4931 79.372C72.4909 79.3782 72.4887 79.3844 72.4866 79.3906C72.4844 79.3968 72.4822 79.403 72.48 79.4092C72.4779 79.4154 72.4757 79.4216 72.4735 79.4278C72.4714 79.434 72.4692 79.4402 72.467 79.4464C72.4648 79.4526 72.4627 79.4588 72.4605 79.465C72.4583 79.4713 72.4562 79.4775 72.454 79.4837C72.4518 79.4899 72.4496 79.4961 72.4475 79.5023C72.4453 79.5085 72.4431 79.5147 72.4409 79.5209C72.4388 79.5271 72.4366 79.5333 72.4344 79.5395C72.4323 79.5457 72.4301 79.5519 72.4279 79.5581C72.4257 79.5643 72.4236 79.5705 72.4214 79.5768C72.4192 79.583 72.4171 79.5892 72.4149 79.5954C72.4127 79.6016 72.4105 79.6078 72.4084 79.614C72.4062 79.6202 72.404 79.6264 72.4019 79.6326C72.3997 79.6388 72.3975 79.645 72.3953 79.6512C72.3932 79.6574 72.391 79.6636 72.3888 79.6698C72.3867 79.676 72.3845 79.6823 72.3823 79.6885C72.3801 79.6947 72.378 79.7009 72.3758 79.7071C72.3736 79.7133 72.3714 79.7195 72.3693 79.7257C72.3671 79.7319 72.3649 79.7381 72.3628 79.7443C72.3606 79.7505 72.3584 79.7567 72.3562 79.7629C72.3541 79.7691 72.3519 79.7753 72.3497 79.7815C72.3475 79.7877 72.3454 79.794 72.3432 79.8002C72.341 79.8064 72.3389 79.8126 72.3367 79.8188C72.3345 79.825 72.3324 79.8312 72.3302 79.8374C72.328 79.8436 72.3258 79.8498 72.3237 79.856C72.3215 79.8622 72.3193 79.8684 72.3171 79.8746C72.315 79.8808 72.3128 79.887 72.3106 79.8932C72.3085 79.8994 72.3063 79.9057 72.3041 79.9119C72.3019 79.9181 72.2998 79.9243 72.2976 79.9305C72.2954 79.9367 72.2933 79.9429 72.2911 79.9491C72.2889 79.9553 72.2867 79.9615 72.2846 79.9677C72.2824 79.9739 72.2802 79.9801 72.278 79.9863C72.2759 79.9925 72.2737 79.9987 72.2715 80.0049C72.2694 80.0111 72.2672 80.0174 72.265 80.0236C72.2628 80.0298 72.2607 80.036 72.2585 80.0422C72.2563 80.0484 72.2542 80.0546 72.252 80.0608C72.2498 80.067 72.2476 80.0732 72.2455 80.0794C72.2433 80.0856 72.2411 80.0918 72.239 80.098C72.2368 80.1042 72.2346 80.1104 72.2324 80.1166C72.2303 80.1228 72.2281 80.1291 72.2259 80.1353C72.2237 80.1415 72.2216 80.1477 72.2194 80.1539C72.2172 80.1601 72.2151 80.1663 72.2129 80.1725C72.2107 80.1787 72.2085 80.1849 72.2064 80.1911C72.2042 80.1973 72.202 80.2035 72.1999 80.2097C72.1977 80.2159 72.1955 80.2221 72.1933 80.2283C72.1912 80.2346 72.189 80.2408 72.1868 80.247C72.1847 80.2532 72.1825 80.2594 72.1803 80.2656C72.1781 80.2718 72.176 80.278 72.1738 80.2842C72.1716 80.2904 72.1694 80.2966 72.1673 80.3028C72.1651 80.309 72.1629 80.3152 72.1608 80.3214C72.1586 80.3276 72.1564 80.3338 72.1542 80.34C72.1521 80.3463 72.1499 80.3525 72.1477 80.3587C72.1456 80.3649 72.1434 80.3711 72.1412 80.3773C72.139 80.3835 72.1369 80.3897 72.1347 80.3959C72.1325 80.4021 72.1304 80.4083 72.1282 80.4145C72.126 80.4207 72.1238 80.4269 72.1217 80.4331C72.1195 80.4393 72.1173 80.4455 72.1152 80.4518C72.113 80.458 72.1108 80.4642 72.1086 80.4704C72.1065 80.4766 72.1043 80.4828 72.1021 80.489C72.0999 80.4952 72.0978 80.5014 72.0956 80.5076C72.0934 80.5138 72.0913 80.52 72.0891 80.5262C72.0869 80.5324 72.0847 80.5386 72.0826 80.5448C72.0804 80.551 72.0782 80.5573 72.0761 80.5635C72.0739 80.5697 72.0717 80.5759 72.0695 80.5821C72.0674 80.5883 72.0652 80.5945 72.063 80.6007C72.0609 80.6069 72.0587 80.6131 72.0565 80.6193C72.0543 80.6255 72.0522 80.6317 72.05 80.6379C72.0478 80.6441 72.0456 80.6503 72.0435 80.6565C72.0413 80.6627 72.0391 80.669 72.037 80.6752C72.0348 80.6814 72.0326 80.6876 72.0304 80.6938C72.0283 80.7 72.0261 80.7062 72.0239 80.7124C72.0218 80.7186 72.0196 80.7248 72.0174 80.731C72.0152 80.7372 72.0131 80.7434 72.0109 80.7496C72.0087 80.7558 72.0066 80.762 72.0044 80.7682C72.0022 80.7744 72 80.7807 71.9979 80.7869C71.9957 80.7931 71.9935 80.7993 71.9913 80.8055C71.9892 80.8117 71.987 80.8179 71.9848 80.8241C71.9827 80.8303 71.9805 80.8365 71.9783 80.8427C71.9761 80.8489 71.974 80.8551 71.9718 80.8613C71.9696 80.8675 71.9675 80.8737 71.9653 80.8799C71.9631 80.8861 71.9609 80.8924 71.9588 80.8986C71.9566 80.9048 71.9544 80.911 71.9522 80.9172C71.9501 80.9234 71.9479 80.9296 71.9457 80.9358C71.9436 80.942 71.9414 80.9482 71.9392 80.9544C71.937 80.9606 71.9349 80.9668 71.9327 80.973C71.9305 80.9792 71.9284 80.9854 71.9262 80.9916C71.924 80.9978 71.9218 81.0041 71.9197 81.0103C71.9175 81.0165 71.9153 81.0227 71.9132 81.0289C71.911 81.0351 71.9088 81.0413 71.9066 81.0475C71.9045 81.0537 71.9023 81.0599 71.9001 81.0661C71.8979 81.0723 71.8958 81.0785 71.8936 81.0847C71.8914 81.0909 71.8893 81.0971 71.8871 81.1033C71.8849 81.1096 71.8828 81.1158 71.8806 81.122C71.8784 81.1282 71.8762 81.1344 71.8741 81.1406C71.8719 81.1468 71.8697 81.153 71.8675 81.1592C71.8654 81.1654 71.8632 81.1716 71.861 81.1778C71.8589 81.184 71.8567 81.1902 71.8545 81.1964C71.8523 81.2026 71.8502 81.2088 71.848 81.215C71.8458 81.2213 71.8437 81.2275 71.8415 81.2337C71.8393 81.2399 71.8371 81.2461 71.835 81.2523C71.8328 81.2585 71.8306 81.2647 71.8284 81.2709C71.8263 81.2771 71.8241 81.2833 71.8219 81.2895C71.8198 81.2957 71.8176 81.3019 71.8154 81.3081C71.8132 81.3143 71.8111 81.3205 71.8089 81.3268C71.8067 81.333 71.8046 81.3392 71.8024 81.3454C71.8002 81.3516 71.798 81.3578 71.7959 81.364C71.7937 81.3702 71.7915 81.3764 71.7894 81.3826C71.7872 81.3888 71.785 81.395 71.7828 81.4012C71.7807 81.4074 71.7785 81.4136 71.7763 81.4198C71.7741 81.426 71.772 81.4323 71.7698 81.4385C71.7676 81.4447 71.7655 81.4509 71.7633 81.4571C71.7611 81.4633 71.7589 81.4695 71.7568 81.4757C71.7546 81.4819 71.7524 81.4881 71.7503 81.4943C71.7481 81.5005 71.7459 81.5067 71.7437 81.5129C71.7416 81.5191 71.7394 81.5253 71.7372 81.5315C71.7351 81.5377 71.7329 81.544 71.7307 81.5502C71.7285 81.5564 71.7264 81.5626 71.7242 81.5688C71.722 81.575 71.7198 81.5812 71.7177 81.5874C71.7155 81.5936 71.7133 81.5998 71.7112 81.606C71.709 81.6122 71.7068 81.6184 71.7046 81.6246C71.7025 81.6308 71.7003 81.637 71.6981 81.6432C71.696 81.6494 71.6938 81.6557 71.6916 81.6619C71.6894 81.6681 71.6873 81.6743 71.6851 81.6805C71.6829 81.6867 71.6808 81.6929 71.6786 81.6991C71.6764 81.7053 71.6742 81.7115 71.6721 81.7177C71.6699 81.7239 71.6677 81.7301 71.6656 81.7363C71.6634 81.7425 71.6612 81.7487 71.659 81.7549C71.6569 81.7611 71.6547 81.7674 71.6525 81.7736C71.6503 81.7798 71.6482 81.786 71.646 81.7922C71.6438 81.7984 71.6417 81.8046 71.6395 81.8108C71.6373 81.817 71.6351 81.8232 71.633 81.8294C71.6308 81.8356 71.6286 81.8418 71.6265 81.848C71.6243 81.8542 71.6221 81.8604 71.6199 81.8666C71.6178 81.8728 71.6156 81.8791 71.6134 81.8853C71.6113 81.8915 71.6091 81.8977 71.6069 81.9039C71.6047 81.9101 71.6026 81.9163 71.6004 81.9225C71.5982 81.9287 71.596 81.9349 71.5939 81.9411C71.5917 81.9473 71.5895 81.9535 71.5874 81.9597C71.5852 81.9659 71.583 81.9721 71.5808 81.9783C71.5787 81.9846 71.5765 81.9908 71.5743 81.997C71.5722 82.0032 71.57 82.0094 71.5678 82.0156C71.5656 82.0218 71.5635 82.028 71.5613 82.0342C71.5591 82.0404 71.557 82.0466 71.5548 82.0528C71.5526 82.059 71.5504 82.0652 71.5483 82.0714C71.5461 82.0776 71.5439 82.0838 71.5417 82.09C71.5396 82.0963 71.5374 82.1025 71.5352 82.1087C71.5331 82.1149 71.5309 82.1211 71.5287 82.1273C71.5265 82.1335 71.5244 82.1397 71.5222 82.1459C71.52 82.1521 71.5179 82.1583 71.5157 82.1645C71.5135 82.1707 71.5113 82.1769 71.5092 82.1831C71.507 82.1893 71.5048 82.1955 71.5026 82.2018C71.5005 82.208 71.4983 82.2142 71.4961 82.2204C71.494 82.2266 71.4918 82.2328 71.4896 82.239C71.4874 82.2452 71.4853 82.2514 71.4831 82.2576C71.4809 82.2638 71.4788 82.27 71.4766 82.2762C71.4744 82.2824 71.4722 82.2886 71.4701 82.2948C71.4679 82.301 71.4657 82.3072 71.4636 82.3135C71.4614 82.3197 71.4592 82.3259 71.457 82.3321C71.4549 82.3383 71.4527 82.3445 71.4505 82.3507C71.4483 82.3569 71.4462 82.3631 71.444 82.3693C71.4418 82.3755 71.4397 82.3817 71.4375 82.3879C71.4353 82.3941 71.4331 82.4003 71.431 82.4065C71.4288 82.4127 71.4266 82.4189 71.4245 82.4252C71.4223 82.4314 71.4201 82.4376 71.4179 82.4438C71.4158 82.45 71.4136 82.4562 71.4114 82.4624C71.4093 82.4686 71.4071 82.4748 71.4049 82.481C71.4027 82.4872 71.4006 82.4934 71.3984 82.4996C71.3962 82.5058 71.3941 82.512 71.3919 82.5182C71.3897 82.5244 71.3875 82.5306 71.3854 82.5369C71.3832 82.5431 71.381 82.5493 71.3788 82.5555C71.3767 82.5617 71.3745 82.5679 71.3723 82.5741C71.3702 82.5803 71.368 82.5865 71.3658 82.5927C71.3636 82.5989 71.3615 82.6051 71.3593 82.6113C71.3571 82.6175 71.355 82.6237 71.3528 82.6299C71.3506 82.6361 71.3484 82.6423 71.3463 82.6486C71.3441 82.6548 71.3419 82.661 71.3398 82.6672C71.3376 82.6734 71.3354 82.6796 71.3332 82.6858C71.3311 82.692 71.3289 82.6982 71.3267 82.7044C71.3245 82.7106 71.3224 82.7168 71.3202 82.723C71.318 82.7292 71.3159 82.7354 71.3137 82.7416C71.3115 82.7478 71.3093 82.7541 71.3072 82.7603C71.305 82.7665 71.3028 82.7727 71.3007 82.7789C71.2985 82.7851 71.2963 82.7913 71.2941 82.7975C71.292 82.8037 71.2898 82.8099 71.2876 82.8161C71.2855 82.8223 71.2833 82.8285 71.2811 82.8347C71.2789 82.8409 71.2768 82.8471 71.2746 82.8533C71.2724 82.8596 71.2702 82.8658 71.2681 82.872C71.2659 82.8782 71.2637 82.8844 71.2616 82.8906C71.2594 82.8968 71.2572 82.903 71.255 82.9092C71.2529 82.9154 71.2507 82.9216 71.2485 82.9278C71.2464 82.934 71.2442 82.9402 71.242 82.9464C71.2398 82.9526 71.2377 82.9588 71.2355 82.965C71.2333 82.9713 71.2312 82.9775 71.229 82.9837C71.2268 82.9899 71.2246 82.9961 71.2225 83.0023C71.2203 83.0085 71.2181 83.0147 71.216 83.0209C71.2138 83.0271 71.2116 83.0333 71.2094 83.0395C71.2073 83.0457 71.2051 83.0519 71.2029 83.0581C71.2007 83.0643 71.1986 83.0705 71.1964 83.0768C71.1942 83.083 71.1921 83.0892 71.1899 83.0954C71.1877 83.1016 71.1855 83.1078 71.1834 83.114C71.1812 83.1202 71.179 83.1264 71.1769 83.1326C71.1747 83.1388 71.1725 83.145 71.1703 83.1512C71.1682 83.1574 71.166 83.1636 71.1638 83.1698C71.1617 83.176 71.1595 83.1822 71.1573 83.1885C71.1551 83.1947 71.153 83.2009 71.1508 83.2071C71.1486 83.2133 71.1464 83.2195 71.1443 83.2257C71.1421 83.2319 71.1399 83.2381 71.1378 83.2443C71.1356 83.2505 71.1334 83.2567 71.1312 83.2629C71.1291 83.2691 71.1269 83.2753 71.1247 83.2815C71.1226 83.2877 71.1204 83.2939 71.1182 83.3002C71.116 83.3064 71.1139 83.3126 71.1117 83.3188C71.1095 83.325 71.1074 83.3312 71.1052 83.3374C71.103 83.3436 71.1008 83.3498 71.0987 83.356C71.0965 83.3622 71.0943 83.3684 71.0921 83.3746C71.09 83.3808 71.0878 83.387 71.0856 83.3932C71.0835 83.3994 71.0813 83.4056 71.0791 83.4119C71.0769 83.4181 71.0748 83.4243 71.0726 83.4305C71.0704 83.4367 71.0683 83.4429 71.0661 83.4491C71.0639 83.4553 71.0617 83.4615 71.0596 83.4677C71.0574 83.4739 71.0552 83.4801 71.053 83.4863C71.0509 83.4925 71.0487 83.4987 71.0465 83.5049C71.0444 83.5111 71.0422 83.5173 71.04 83.5236C71.0378 83.5298 71.0357 83.536 71.0335 83.5422C71.0313 83.5484 71.0292 83.5546 71.027 83.5608C71.0248 83.567 71.0226 83.5732 71.0205 83.5794C71.0183 83.5856 71.0161 83.5918 71.014 83.598C71.0118 83.6042 71.0096 83.6104 71.0074 83.6166C71.0053 83.6228 71.0031 83.6291 71.0009 83.6353C70.9987 83.6415 70.9966 83.6477 70.9944 83.6539C70.9922 83.6601 70.9901 83.6663 70.9879 83.6725C70.9857 83.6787 70.9835 83.6849 70.9814 83.6911C70.9792 83.6973 70.977 83.7035 70.9749 83.7097C70.9727 83.7159 70.9705 83.7221 70.9683 83.7283C70.9662 83.7346 70.964 83.7408 70.9618 83.747C70.9597 83.7532 70.9575 83.7594 70.9553 83.7656C70.9531 83.7718 70.951 83.778 70.9488 83.7842C70.9466 83.7904 70.9445 83.7966 70.9423 83.8028C70.9401 83.809 70.9379 83.8152 70.9358 83.8214C70.9336 83.8276 70.9314 83.8338 70.9292 83.84C70.9271 83.8463 70.9249 83.8525 70.9227 83.8587C70.9206 83.8649 70.9184 83.8711 70.9162 83.8773C70.914 83.8835 70.9119 83.8897 70.9097 83.8959C70.9075 83.9021 70.9054 83.9083 70.9032 83.9145C70.901 83.9207 70.8988 83.9269 70.8967 83.9331C70.8945 83.9393 70.8923 83.9455 70.8902 83.9518C70.888 83.958 70.8858 83.9642 70.8836 83.9704C70.8815 83.9766 70.8793 83.9828 70.8771 83.989C70.8749 83.9952 70.8728 84.0014 70.8706 84.0076C70.8684 84.0138 70.8663 84.02 70.8641 84.0262C70.8619 84.0324 70.8597 84.0386 70.8576 84.0448C70.8554 84.051 70.8532 84.0572 70.8511 84.0635C70.8489 84.0697 70.8467 84.0759 70.8445 84.0821C70.8424 84.0883 70.8402 84.0945 70.838 84.1007C70.8359 84.1069 70.8337 84.1131 70.8315 84.1193C70.8293 84.1255 70.8272 84.1317 70.825 84.1379C70.8228 84.1441 70.8206 84.1503 70.8185 84.1565C70.8163 84.1627 70.8141 84.1689 70.812 84.1752C70.8098 84.1814 70.8076 84.1876 70.8054 84.1938C70.7475 84.3594 70.6549 84.6239 70.5969 84.7895L71.7997 85.2105C71.8019 85.2043 71.8041 85.1981 71.8062 85.1919C71.8084 85.1857 71.8106 85.1795 71.8127 85.1732C71.8149 85.167 71.8171 85.1608 71.8193 85.1546C71.8214 85.1484 71.8236 85.1422 71.8258 85.136C71.8279 85.1298 71.8301 85.1236 71.8323 85.1174C71.8345 85.1112 71.8366 85.105 71.8388 85.0988C71.841 85.0926 71.8431 85.0864 71.8453 85.0802C71.8475 85.074 71.8497 85.0678 71.8518 85.0615C71.854 85.0553 71.8562 85.0491 71.8584 85.0429C71.8605 85.0367 71.8627 85.0305 71.8649 85.0243C71.867 85.0181 71.8692 85.0119 71.8714 85.0057C71.8736 84.9995 71.8757 84.9933 71.8779 84.9871C71.8801 84.9809 71.8822 84.9747 71.8844 84.9685C71.8866 84.9623 71.8888 84.9561 71.8909 84.9498C71.8931 84.9436 71.8953 84.9374 71.8975 84.9312C71.8996 84.925 71.9018 84.9188 71.904 84.9126C71.9061 84.9064 71.9083 84.9002 71.9105 84.894C71.9127 84.8878 71.9148 84.8816 71.917 84.8754C71.9192 84.8692 71.9213 84.863 71.9235 84.8568C71.9257 84.8506 71.9279 84.8444 71.93 84.8381C71.9322 84.8319 71.9344 84.8257 71.9365 84.8195C71.9387 84.8133 71.9409 84.8071 71.9431 84.8009C71.9452 84.7947 71.9474 84.7885 71.9496 84.7823C71.9518 84.7761 71.9539 84.7699 71.9561 84.7637C71.9583 84.7575 71.9604 84.7513 71.9626 84.7451C71.9648 84.7389 71.9669 84.7327 71.9691 84.7264C71.9713 84.7202 71.9735 84.714 71.9756 84.7078C71.9778 84.7016 71.98 84.6954 71.9822 84.6892C71.9843 84.683 71.9865 84.6768 71.9887 84.6706C71.9908 84.6644 71.993 84.6582 71.9952 84.652C71.9974 84.6458 71.9995 84.6396 72.0017 84.6334C72.0039 84.6272 72.0061 84.6209 72.0082 84.6147C72.0104 84.6085 72.0126 84.6023 72.0147 84.5961C72.0169 84.5899 72.0191 84.5837 72.0213 84.5775C72.0234 84.5713 72.0256 84.5651 72.0278 84.5589C72.0299 84.5527 72.0321 84.5465 72.0343 84.5403C72.0365 84.5341 72.0386 84.5279 72.0408 84.5217C72.043 84.5154 72.0451 84.5092 72.0473 84.503C72.0495 84.4968 72.0517 84.4906 72.0538 84.4844C72.056 84.4782 72.0582 84.472 72.0603 84.4658C72.0625 84.4596 72.0647 84.4534 72.0669 84.4472C72.069 84.441 72.0712 84.4348 72.0734 84.4286C72.0756 84.4224 72.0777 84.4162 72.0799 84.41C72.0821 84.4037 72.0842 84.3975 72.0864 84.3913C72.0886 84.3851 72.0908 84.3789 72.0929 84.3727C72.0951 84.3665 72.0973 84.3603 72.0994 84.3541C72.1016 84.3479 72.1038 84.3417 72.106 84.3355C72.1081 84.3293 72.1103 84.3231 72.1125 84.3169C72.1146 84.3107 72.1168 84.3045 72.119 84.2983C72.1212 84.292 72.1233 84.2858 72.1255 84.2796C72.1277 84.2734 72.1299 84.2672 72.132 84.261C72.1342 84.2548 72.1364 84.2486 72.1385 84.2424C72.1407 84.2362 72.1429 84.23 72.1451 84.2238C72.1472 84.2176 72.1494 84.2114 72.1516 84.2052C72.1537 84.199 72.1559 84.1928 72.1581 84.1866C72.1603 84.1803 72.1624 84.1741 72.1646 84.1679C72.1668 84.1617 72.1689 84.1555 72.1711 84.1493C72.1733 84.1431 72.1755 84.1369 72.1776 84.1307C72.1798 84.1245 72.182 84.1183 72.1842 84.1121C72.1863 84.1059 72.1885 84.0997 72.1907 84.0935C72.1928 84.0873 72.195 84.0811 72.1972 84.0749C72.1994 84.0686 72.2015 84.0624 72.2037 84.0562C72.2059 84.05 72.208 84.0438 72.2102 84.0376C72.2124 84.0314 72.2146 84.0252 72.2167 84.019C72.2189 84.0128 72.2211 84.0066 72.2232 84.0004C72.2254 83.9942 72.2276 83.988 72.2298 83.9818C72.2319 83.9756 72.2341 83.9694 72.2363 83.9632C72.2384 83.9569 72.2406 83.9507 72.2428 83.9445C72.245 83.9383 72.2471 83.9321 72.2493 83.9259C72.2515 83.9197 72.2537 83.9135 72.2558 83.9073C72.258 83.9011 72.2602 83.8949 72.2623 83.8887C72.2645 83.8825 72.2667 83.8763 72.2689 83.8701C72.271 83.8639 72.2732 83.8577 72.2754 83.8514C72.2775 83.8452 72.2797 83.839 72.2819 83.8328C72.2841 83.8266 72.2862 83.8204 72.2884 83.8142C72.2906 83.808 72.2927 83.8018 72.2949 83.7956C72.2971 83.7894 72.2993 83.7832 72.3014 83.777C72.3036 83.7708 72.3058 83.7646 72.308 83.7584C72.3101 83.7522 72.3123 83.7459 72.3145 83.7397C72.3166 83.7335 72.3188 83.7273 72.321 83.7211C72.3232 83.7149 72.3253 83.7087 72.3275 83.7025C72.3297 83.6963 72.3318 83.6901 72.334 83.6839C72.3362 83.6777 72.3384 83.6715 72.3405 83.6653C72.3427 83.6591 72.3449 83.6529 72.3471 83.6467C72.3492 83.6404 72.3514 83.6342 72.3536 83.628C72.3557 83.6218 72.3579 83.6156 72.3601 83.6094C72.3623 83.6032 72.3644 83.597 72.3666 83.5908C72.3688 83.5846 72.3709 83.5784 72.3731 83.5722C72.3753 83.566 72.3775 83.5598 72.3796 83.5536C72.3818 83.5474 72.384 83.5412 72.3861 83.535C72.3883 83.5287 72.3905 83.5225 72.3927 83.5163C72.3948 83.5101 72.397 83.5039 72.3992 83.4977C72.4014 83.4915 72.4035 83.4853 72.4057 83.4791C72.4079 83.4729 72.41 83.4667 72.4122 83.4605C72.4144 83.4543 72.4166 83.4481 72.4187 83.4419C72.4209 83.4357 72.4231 83.4295 72.4252 83.4233C72.4274 83.417 72.4296 83.4108 72.4318 83.4046C72.4339 83.3984 72.4361 83.3922 72.4383 83.386C72.4404 83.3798 72.4426 83.3736 72.4448 83.3674C72.447 83.3612 72.4491 83.355 72.4513 83.3488C72.4535 83.3426 72.4557 83.3364 72.4578 83.3302C72.46 83.324 72.4622 83.3178 72.4643 83.3116C72.4665 83.3053 72.4687 83.2991 72.4709 83.2929C72.473 83.2867 72.4752 83.2805 72.4774 83.2743C72.4795 83.2681 72.4817 83.2619 72.4839 83.2557C72.4861 83.2495 72.4882 83.2433 72.4904 83.2371C72.4926 83.2309 72.4947 83.2247 72.4969 83.2185C72.4991 83.2123 72.5013 83.2061 72.5034 83.1999C72.5056 83.1936 72.5078 83.1874 72.5099 83.1812C72.5121 83.175 72.5143 83.1688 72.5165 83.1626C72.5186 83.1564 72.5208 83.1502 72.523 83.144C72.5252 83.1378 72.5273 83.1316 72.5295 83.1254C72.5317 83.1192 72.5338 83.113 72.536 83.1068C72.5382 83.1006 72.5404 83.0944 72.5425 83.0882C72.5447 83.0819 72.5469 83.0757 72.549 83.0695C72.5512 83.0633 72.5534 83.0571 72.5556 83.0509C72.5577 83.0447 72.5599 83.0385 72.5621 83.0323C72.5642 83.0261 72.5664 83.0199 72.5686 83.0137C72.5708 83.0075 72.5729 83.0013 72.5751 82.9951C72.5773 82.9889 72.5795 82.9827 72.5816 82.9764C72.5838 82.9702 72.586 82.964 72.5881 82.9578C72.5903 82.9516 72.5925 82.9454 72.5947 82.9392C72.5968 82.933 72.599 82.9268 72.6012 82.9206C72.6033 82.9144 72.6055 82.9082 72.6077 82.902C72.6099 82.8958 72.612 82.8896 72.6142 82.8834C72.6164 82.8772 72.6185 82.8709 72.6207 82.8647C72.6229 82.8585 72.6251 82.8523 72.6272 82.8461C72.6294 82.8399 72.6316 82.8337 72.6338 82.8275C72.6359 82.8213 72.6381 82.8151 72.6403 82.8089C72.6424 82.8027 72.6446 82.7965 72.6468 82.7903C72.649 82.7841 72.6511 82.7779 72.6533 82.7717C72.6555 82.7654 72.6576 82.7592 72.6598 82.753C72.662 82.7468 72.6642 82.7406 72.6663 82.7344C72.6685 82.7282 72.6707 82.722 72.6728 82.7158C72.675 82.7096 72.6772 82.7034 72.6794 82.6972C72.6815 82.691 72.6837 82.6848 72.6859 82.6786C72.688 82.6724 72.6902 82.6662 72.6924 82.66C72.6946 82.6537 72.6967 82.6475 72.6989 82.6413C72.7011 82.6351 72.7033 82.6289 72.7054 82.6227C72.7076 82.6165 72.7098 82.6103 72.7119 82.6041C72.7141 82.5979 72.7163 82.5917 72.7185 82.5855C72.7206 82.5793 72.7228 82.5731 72.725 82.5669C72.7271 82.5607 72.7293 82.5545 72.7315 82.5483C72.7337 82.542 72.7358 82.5358 72.738 82.5296C72.7402 82.5234 72.7423 82.5172 72.7445 82.511C72.7467 82.5048 72.7489 82.4986 72.751 82.4924C72.7532 82.4862 72.7554 82.48 72.7576 82.4738C72.7597 82.4676 72.7619 82.4614 72.7641 82.4552C72.7662 82.449 72.7684 82.4428 72.7706 82.4366C72.7728 82.4303 72.7749 82.4241 72.7771 82.4179C72.7793 82.4117 72.7814 82.4055 72.7836 82.3993C72.7858 82.3931 72.788 82.3869 72.7901 82.3807C72.7923 82.3745 72.7945 82.3683 72.7967 82.3621C72.7988 82.3559 72.801 82.3497 72.8032 82.3435C72.8053 82.3373 72.8075 82.3311 72.8097 82.3249C72.8119 82.3186 72.814 82.3124 72.8162 82.3062C72.8184 82.3 72.8205 82.2938 72.8227 82.2876C72.8249 82.2814 72.8271 82.2752 72.8292 82.269C72.8314 82.2628 72.8336 82.2566 72.8357 82.2504C72.8379 82.2442 72.8401 82.238 72.8423 82.2318C72.8444 82.2256 72.8466 82.2194 72.8488 82.2132C72.851 82.2069 72.8531 82.2007 72.8553 82.1945C72.8575 82.1883 72.8596 82.1821 72.8618 82.1759C72.864 82.1697 72.8662 82.1635 72.8683 82.1573C72.8705 82.1511 72.8727 82.1449 72.8748 82.1387C72.877 82.1325 72.8792 82.1263 72.8814 82.1201C72.8835 82.1139 72.8857 82.1077 72.8879 82.1014C72.89 82.0952 72.8922 82.089 72.8944 82.0828C72.8966 82.0766 72.8987 82.0704 72.9009 82.0642C72.9031 82.058 72.9053 82.0518 72.9074 82.0456C72.9096 82.0394 72.9118 82.0332 72.9139 82.027C72.9161 82.0208 72.9183 82.0146 72.9205 82.0084C72.9226 82.0022 72.9248 81.9959 72.927 81.9897C72.9291 81.9835 72.9313 81.9773 72.9335 81.9711C72.9357 81.9649 72.9378 81.9587 72.94 81.9525C72.9422 81.9463 72.9443 81.9401 72.9465 81.9339C72.9487 81.9277 72.9509 81.9215 72.953 81.9153C72.9552 81.9091 72.9574 81.9029 72.9595 81.8967C72.9617 81.8904 72.9639 81.8842 72.9661 81.878C72.9682 81.8718 72.9704 81.8656 72.9726 81.8594C72.9748 81.8532 72.9769 81.847 72.9791 81.8408C72.9813 81.8346 72.9834 81.8284 72.9856 81.8222C72.9878 81.816 72.99 81.8098 72.9921 81.8036C72.9943 81.7974 72.9965 81.7912 72.9986 81.785C73.0008 81.7787 73.003 81.7725 73.0052 81.7663C73.0073 81.7601 73.0095 81.7539 73.0117 81.7477C73.0138 81.7415 73.016 81.7353 73.0182 81.7291C73.0204 81.7229 73.0225 81.7167 73.0247 81.7105C73.0269 81.7043 73.0291 81.6981 73.0312 81.6919C73.0334 81.6857 73.0356 81.6795 73.0377 81.6733C73.0399 81.667 73.0421 81.6608 73.0443 81.6546C73.0464 81.6484 73.0486 81.6422 73.0508 81.636C73.0529 81.6298 73.0551 81.6236 73.0573 81.6174C73.0595 81.6112 73.0616 81.605 73.0638 81.5988C73.066 81.5926 73.0681 81.5864 73.0703 81.5802C73.0725 81.574 73.0747 81.5678 73.0768 81.5616C73.079 81.5553 73.0812 81.5491 73.0834 81.5429C73.0855 81.5367 73.0877 81.5305 73.0899 81.5243C73.092 81.5181 73.0942 81.5119 73.0964 81.5057C73.0986 81.4995 73.1007 81.4933 73.1029 81.4871C73.1051 81.4809 73.1072 81.4747 73.1094 81.4685C73.1116 81.4623 73.1138 81.4561 73.1159 81.4499C73.1181 81.4436 73.1203 81.4374 73.1225 81.4312C73.1246 81.425 73.1268 81.4188 73.129 81.4126C73.1311 81.4064 73.1333 81.4002 73.1355 81.394C73.1376 81.3878 73.1398 81.3816 73.142 81.3754C73.1442 81.3692 73.1463 81.363 73.1485 81.3568C73.1507 81.3506 73.1529 81.3444 73.155 81.3382C73.1572 81.3319 73.1594 81.3257 73.1615 81.3195C73.1637 81.3133 73.1659 81.3071 73.1681 81.3009C73.1702 81.2947 73.1724 81.2885 73.1746 81.2823C73.1768 81.2761 73.1789 81.2699 73.1811 81.2637C73.1833 81.2575 73.1854 81.2513 73.1876 81.2451C73.1898 81.2389 73.192 81.2327 73.1941 81.2264C73.1963 81.2202 73.1985 81.214 73.2006 81.2078C73.2028 81.2016 73.205 81.1954 73.2072 81.1892C73.2093 81.183 73.2115 81.1768 73.2137 81.1706C73.2158 81.1644 73.218 81.1582 73.2202 81.152C73.2224 81.1458 73.2245 81.1396 73.2267 81.1334C73.2289 81.1272 73.231 81.1209 73.2332 81.1147C73.2354 81.1085 73.2376 81.1023 73.2397 81.0961C73.2419 81.0899 73.2441 81.0837 73.2463 81.0775C73.2484 81.0713 73.2506 81.0651 73.2528 81.0589C73.2549 81.0527 73.2571 81.0465 73.2593 81.0403C73.2615 81.0341 73.2636 81.0279 73.2658 81.0217C73.268 81.0155 73.2701 81.0092 73.2723 81.003C73.2745 80.9968 73.2767 80.9906 73.2788 80.9844C73.281 80.9782 73.2832 80.972 73.2853 80.9658C73.2875 80.9596 73.2897 80.9534 73.2919 80.9472C73.294 80.941 73.2962 80.9348 73.2984 80.9286C73.3006 80.9224 73.3027 80.9162 73.3049 80.91C73.3071 80.9038 73.3092 80.8975 73.3114 80.8913C73.3136 80.8851 73.3158 80.8789 73.3179 80.8727C73.3201 80.8665 73.3223 80.8603 73.3244 80.8541C73.3266 80.8479 73.3288 80.8417 73.331 80.8355C73.3331 80.8293 73.3353 80.8231 73.3375 80.8169C73.3396 80.8107 73.3418 80.8045 73.344 80.7983C73.3462 80.7921 73.3483 80.7858 73.3505 80.7796C73.3527 80.7734 73.3549 80.7672 73.357 80.761C73.3592 80.7548 73.3614 80.7486 73.3635 80.7424C73.3657 80.7362 73.3679 80.73 73.3701 80.7238C73.3722 80.7176 73.3744 80.7114 73.3766 80.7052C73.3787 80.699 73.3809 80.6928 73.3831 80.6866C73.3853 80.6804 73.3874 80.6741 73.3896 80.6679C73.3918 80.6617 73.3939 80.6555 73.3961 80.6493C73.3983 80.6431 73.4005 80.6369 73.4026 80.6307C73.4048 80.6245 73.407 80.6183 73.4091 80.6121C73.4113 80.6059 73.4135 80.5997 73.4157 80.5935C73.4178 80.5873 73.42 80.5811 73.4222 80.5749C73.4244 80.5686 73.4265 80.5624 73.4287 80.5562C73.4309 80.55 73.433 80.5438 73.4352 80.5376C73.4374 80.5314 73.4396 80.5252 73.4417 80.519C73.4439 80.5128 73.4461 80.5066 73.4482 80.5004C73.4504 80.4942 73.4526 80.488 73.4548 80.4818C73.4569 80.4756 73.4591 80.4694 73.4613 80.4632C73.4634 80.4569 73.4656 80.4507 73.4678 80.4445C73.47 80.4383 73.4721 80.4321 73.4743 80.4259C73.4765 80.4197 73.4787 80.4135 73.4808 80.4073C73.483 80.4011 73.4852 80.3949 73.4873 80.3887C73.4895 80.3825 73.4917 80.3763 73.4939 80.3701C73.496 80.3639 73.4982 80.3577 73.5004 80.3514C73.5025 80.3452 73.5047 80.339 73.5069 80.3328C73.5091 80.3266 73.5112 80.3204 73.5134 80.3142C73.5156 80.308 73.5177 80.3018 73.5199 80.2956C73.5221 80.2894 73.5243 80.2832 73.5264 80.277C73.5286 80.2708 73.5308 80.2646 73.533 80.2584C73.5351 80.2522 73.5373 80.2459 73.5395 80.2397C73.5416 80.2335 73.5438 80.2273 73.546 80.2211C73.5482 80.2149 73.5503 80.2087 73.5525 80.2025C73.5547 80.1963 73.5568 80.1901 73.559 80.1839C73.5612 80.1777 73.5634 80.1715 73.5655 80.1653C73.5677 80.1591 73.5699 80.1529 73.5721 80.1467C73.5742 80.1405 73.5764 80.1342 73.5786 80.128C73.5807 80.1218 73.5829 80.1156 73.5851 80.1094C73.5872 80.1032 73.5894 80.097 73.5916 80.0908C73.5938 80.0846 73.5959 80.0784 73.5981 80.0722C73.6003 80.066 73.6025 80.0598 73.6046 80.0536C73.6068 80.0474 73.609 80.0412 73.6111 80.035C73.6133 80.0288 73.6155 80.0225 73.6177 80.0163C73.6198 80.0101 73.622 80.0039 73.6242 79.9977C73.6264 79.9915 73.6285 79.9853 73.6307 79.9791C73.6329 79.9729 73.635 79.9667 73.6372 79.9605C73.6394 79.9543 73.6416 79.9481 73.6437 79.9419C73.6459 79.9357 73.6481 79.9295 73.6502 79.9233C73.6524 79.9171 73.6546 79.9108 73.6568 79.9046C73.6589 79.8984 73.6611 79.8922 73.6633 79.886C73.6654 79.8798 73.6676 79.8736 73.6698 79.8674C73.672 79.8612 73.6741 79.855 73.6763 79.8488C73.6785 79.8426 73.6806 79.8364 73.6828 79.8302C73.685 79.824 73.6872 79.8178 73.6893 79.8116C73.6915 79.8054 73.6937 79.7991 73.6959 79.7929C73.698 79.7867 73.7002 79.7805 73.7024 79.7743C73.7045 79.7681 73.7067 79.7619 73.7089 79.7557C73.7111 79.7495 73.7132 79.7433 73.7154 79.7371C73.7176 79.7309 73.7197 79.7247 73.7219 79.7185C73.7241 79.7123 73.7263 79.7061 73.7284 79.6999C73.7306 79.6936 73.7328 79.6874 73.7349 79.6812C73.7371 79.675 73.7393 79.6688 73.7415 79.6626C73.7436 79.6564 73.7458 79.6502 73.748 79.644C73.7502 79.6378 73.7523 79.6316 73.7545 79.6254C73.7567 79.6192 73.7588 79.613 73.761 79.6068C73.7632 79.6006 73.7654 79.5944 73.7675 79.5882C73.7697 79.5819 73.7719 79.5757 73.774 79.5695C73.7762 79.5633 73.7784 79.5571 73.7806 79.5509C73.7827 79.5447 73.7849 79.5385 73.7871 79.5323C73.7892 79.5261 73.7914 79.5199 73.7936 79.5137C73.7958 79.5075 73.7979 79.5013 73.8001 79.4951C73.8023 79.4889 73.8045 79.4827 73.8066 79.4764C73.8088 79.4702 73.811 79.464 73.8131 79.4578C73.8153 79.4516 73.8175 79.4454 73.8197 79.4392C73.8218 79.433 73.824 79.4268 73.8262 79.4206C73.8283 79.4144 73.8305 79.4082 73.8327 79.402C73.8349 79.3958 73.837 79.3896 73.8392 79.3834C73.8414 79.3772 73.8435 79.3709 73.8457 79.3647C73.8479 79.3585 73.8501 79.3523 73.8522 79.3461C73.8544 79.3399 73.8566 79.3337 73.8587 79.3275C73.8609 79.3213 73.8631 79.3151 73.8653 79.3089C73.8674 79.3027 73.8696 79.2965 73.8718 79.2903C73.874 79.2841 73.8761 79.2779 73.8783 79.2717C73.8805 79.2655 73.8826 79.2592 73.8848 79.253C73.887 79.2468 73.8892 79.2406 73.8913 79.2344C73.8935 79.2282 73.8957 79.222 73.8979 79.2158C73.9 79.2096 73.9022 79.2034 73.9044 79.1972C73.9065 79.191 73.9087 79.1848 73.9109 79.1786C73.913 79.1724 73.9152 79.1662 73.9174 79.16C73.9196 79.1538 73.9217 79.1475 73.9239 79.1413C73.9261 79.1351 73.9283 79.1289 73.9304 79.1227C73.9326 79.1165 73.9348 79.1103 73.9369 79.1041C73.9391 79.0979 73.9413 79.0917 73.9435 79.0855C73.9456 79.0793 73.9478 79.0731 73.95 79.0669C73.9521 79.0607 73.9543 79.0545 73.9565 79.0483C73.9587 79.0421 73.9608 79.0358 73.963 79.0296C73.9652 79.0234 73.9674 79.0172 73.9695 79.011C73.9717 79.0048 73.9739 78.9986 73.976 78.9924C73.9782 78.9862 73.9804 78.98 73.9826 78.9738C73.9847 78.9676 73.9869 78.9614 73.9891 78.9552C73.9912 78.949 73.9934 78.9428 73.9956 78.9366C73.9978 78.9304 73.9999 78.9241 74.0021 78.9179C74.0043 78.9117 74.0064 78.9055 74.0086 78.8993C74.0108 78.8931 74.013 78.8869 74.0151 78.8807C74.0173 78.8745 74.0195 78.8683 74.0217 78.8621C74.0238 78.8559 74.026 78.8497 74.0282 78.8435C74.0303 78.8373 74.0325 78.8311 74.0347 78.8249C74.0368 78.8186 74.039 78.8124 74.0412 78.8062C74.0434 78.8 74.0455 78.7938 74.0477 78.7876C74.0499 78.7814 74.0521 78.7752 74.0542 78.769C74.0564 78.7628 74.0586 78.7566 74.0607 78.7504C74.0629 78.7442 74.0651 78.738 74.0673 78.7318C74.0694 78.7256 74.0716 78.7194 74.0738 78.7132C74.076 78.7069 74.0781 78.7007 74.0803 78.6945C74.0825 78.6883 74.0846 78.6821 74.0868 78.6759C74.089 78.6697 74.0912 78.6635 74.0933 78.6573C74.0955 78.6511 74.0977 78.6449 74.0998 78.6387C74.102 78.6325 74.1042 78.6263 74.1064 78.6201C74.1085 78.6139 74.1107 78.6077 74.1129 78.6014C74.115 78.5952 74.1172 78.589 74.1194 78.5828C74.1216 78.5766 74.1237 78.5704 74.1259 78.5642C74.1281 78.558 74.1302 78.5518 74.1324 78.5456C74.1346 78.5394 74.1368 78.5332 74.1389 78.527C74.1411 78.5208 74.1433 78.5146 74.1455 78.5084C74.1476 78.5022 74.1498 78.4959 74.152 78.4897C74.1541 78.4835 74.1563 78.4773 74.1585 78.4711C74.1607 78.4649 74.1628 78.4587 74.165 78.4525C74.1672 78.4463 74.1693 78.4401 74.1715 78.4339C74.1737 78.4277 74.1759 78.4215 74.178 78.4153C74.1802 78.4091 74.1824 78.4029 74.1845 78.3967C74.1867 78.3905 74.1889 78.3842 74.1911 78.378C74.1932 78.3718 74.1954 78.3656 74.1976 78.3594C74.1998 78.3532 74.2019 78.347 74.2041 78.3408C74.2063 78.3346 74.2084 78.3284 74.2106 78.3222C74.2128 78.316 74.215 78.3098 74.2171 78.3036C74.2193 78.2974 74.2215 78.2912 74.2236 78.285C74.2258 78.2788 74.228 78.2725 74.2302 78.2663C74.2323 78.2601 74.2345 78.2539 74.2367 78.2477C74.2388 78.2415 74.241 78.2353 74.2432 78.2291C74.2454 78.2229 74.2475 78.2167 74.2497 78.2105C74.2519 78.2043 74.2541 78.1981 74.2562 78.1919C74.2584 78.1857 74.2606 78.1795 74.2627 78.1733C74.2649 78.1671 74.2671 78.1608 74.2693 78.1546C74.2714 78.1484 74.2736 78.1422 74.2758 78.136C74.2779 78.1298 74.2801 78.1236 74.2823 78.1174C74.2845 78.1112 74.2866 78.105 74.2888 78.0988C74.291 78.0926 74.2931 78.0864 74.2953 78.0802C74.2975 78.074 74.2997 78.0678 74.3018 78.0616C74.304 78.0554 74.3062 78.0491 74.3083 78.0429C74.3105 78.0367 74.3127 78.0305 74.3149 78.0243C74.317 78.0181 74.3192 78.0119 74.3214 78.0057C74.3236 77.9995 74.3257 77.9933 74.3279 77.9871C74.3301 77.9809 74.3322 77.9747 74.3344 77.9685C74.3366 77.9623 74.3388 77.9561 74.3409 77.9499C74.3431 77.9436 74.3453 77.9374 74.3475 77.9312C74.3496 77.925 74.3518 77.9188 74.354 77.9126C74.3561 77.9064 74.3583 77.9002 74.3605 77.894C74.3626 77.8878 74.3648 77.8816 74.367 77.8754C74.3692 77.8692 74.3713 77.863 74.3735 77.8568C74.3757 77.8506 74.3779 77.8444 74.38 77.8382C74.3822 77.8319 74.3844 77.8257 74.3865 77.8195C74.3887 77.8133 74.3909 77.8071 74.3931 77.8009C74.3952 77.7947 74.3974 77.7885 74.3996 77.7823C74.4017 77.7761 74.4039 77.7699 74.4061 77.7637C74.4083 77.7575 74.4104 77.7513 74.4126 77.7451C74.4148 77.7389 74.417 77.7327 74.4191 77.7264C74.4213 77.7202 74.4235 77.714 74.4256 77.7078C74.4278 77.7016 74.43 77.6954 74.4322 77.6892C74.4343 77.683 74.4365 77.6768 74.4387 77.6706C74.4408 77.6644 74.443 77.6582 74.4452 77.652C74.4474 77.6458 74.4495 77.6396 74.4517 77.6334C74.4539 77.6272 74.456 77.621 74.4582 77.6147C74.4604 77.6085 74.4626 77.6023 74.4647 77.5961C74.4669 77.5899 74.4691 77.5837 74.4713 77.5775C74.4734 77.5713 74.4756 77.5651 74.4778 77.5589C74.4799 77.5527 74.4821 77.5465 74.4843 77.5403C74.4865 77.5341 74.4886 77.5279 74.4908 77.5217C74.493 77.5155 74.4951 77.5093 74.4973 77.503C74.4995 77.4968 74.5017 77.4906 74.5038 77.4844C74.506 77.4782 74.5082 77.472 74.5103 77.4658C74.5125 77.4596 74.5147 77.4534 74.5169 77.4472C74.519 77.441 74.5212 77.4348 74.5234 77.4286C74.5256 77.4224 74.5277 77.4162 74.5299 77.41C74.5321 77.4038 74.5342 77.3976 74.5364 77.3913C74.5386 77.3851 74.5408 77.3789 74.5429 77.3727C74.5451 77.3665 74.5473 77.3603 74.5494 77.3541C74.5516 77.3479 74.5538 77.3417 74.556 77.3355C74.5581 77.3293 74.5603 77.3231 74.5625 77.3169C74.5646 77.3107 74.5668 77.3045 74.569 77.2983C74.5712 77.2921 74.5733 77.2859 74.5755 77.2796C74.5777 77.2734 74.5798 77.2672 74.582 77.261C74.5842 77.2548 74.5864 77.2486 74.5885 77.2424C74.5907 77.2362 74.5929 77.23 74.5951 77.2238C74.5972 77.2176 74.5994 77.2114 74.6016 77.2052C74.6148 77.1673 74.6014 77.2058 74.6146 77.1679C74.6168 77.1617 74.6189 77.1555 74.6211 77.1493C74.6233 77.1431 74.6255 77.1369 74.6276 77.1307C74.6467 77.0763 74.6216 77.1479 74.6407 77.0935C74.6428 77.0873 74.645 77.0811 74.6472 77.0749C74.6494 77.0686 74.6515 77.0624 74.6537 77.0562C74.6669 77.0184 74.6535 77.0568 74.6667 77.019C74.6689 77.0128 74.6711 77.0066 74.6732 77.0004C74.6754 76.9942 74.6776 76.988 74.6798 76.9818C74.693 76.9439 74.6796 76.9824 74.6928 76.9445C74.695 76.9383 74.6971 76.9321 74.6993 76.9259C74.7015 76.9197 74.7037 76.9135 74.7058 76.9073C74.7133 76.886 74.7114 76.8913 74.7189 76.8701C74.721 76.8639 74.7232 76.8577 74.7254 76.8514C74.7275 76.8452 74.7297 76.839 74.7319 76.8328C74.7451 76.795 74.7317 76.8334 74.7449 76.7956C74.7471 76.7894 74.7493 76.7832 74.7514 76.777C74.7536 76.7708 74.7558 76.7646 74.7579 76.7584C74.7654 76.7371 74.7635 76.7424 74.771 76.7211C74.7732 76.7149 74.7753 76.7087 74.7775 76.7025C74.7797 76.6963 74.7818 76.6901 74.784 76.6839C74.7857 76.6792 74.7954 76.6514 74.7971 76.6467C74.7992 76.6405 74.8014 76.6343 74.8036 76.628C74.8057 76.6218 74.8079 76.6156 74.8101 76.6094C74.8175 76.5882 74.8157 76.5935 74.8231 76.5722C74.8253 76.566 74.8275 76.5598 74.8296 76.5536C74.8318 76.5474 74.834 76.5412 74.8361 76.535C74.8494 76.4971 74.8359 76.5356 74.8492 76.4977C74.8513 76.4915 74.8535 76.4853 74.8557 76.4791C74.8579 76.4729 74.86 76.4667 74.8622 76.4605C74.8697 76.4392 74.8678 76.4445 74.8752 76.4233C74.8774 76.4171 74.8796 76.4109 74.8818 76.4046C74.8839 76.3984 74.8861 76.3922 74.8883 76.386C74.9015 76.3482 74.8881 76.3866 74.9013 76.3488C74.9035 76.3426 74.9056 76.3364 74.9078 76.3302C74.91 76.324 74.9122 76.3178 74.9143 76.3116C74.9218 76.2903 74.9199 76.2956 74.9274 76.2743C74.9295 76.2681 74.9317 76.2619 74.9339 76.2557C74.9361 76.2495 74.9382 76.2433 74.9404 76.2371C74.9536 76.1993 74.9402 76.2377 74.9534 76.1999C74.9556 76.1936 74.9578 76.1874 74.9599 76.1812C74.9621 76.175 74.9643 76.1688 74.9665 76.1626C74.9739 76.1413 74.972 76.1467 74.9795 76.1254C74.9817 76.1192 74.9838 76.113 74.986 76.1068C74.9882 76.1006 74.9904 76.0944 74.9925 76.0882C74.9942 76.0834 75.0039 76.0556 75.0056 76.0509C75.0077 76.0447 75.0099 76.0385 75.0121 76.0323C75.0142 76.0261 75.0164 76.0199 75.0186 76.0137C75.026 75.9924 75.0242 75.9977 75.0316 75.9764C75.0338 75.9702 75.036 75.964 75.0381 75.9578C75.0403 75.9516 75.0425 75.9454 75.0447 75.9392C75.0579 75.9014 75.0444 75.9398 75.0577 75.902C75.0599 75.8958 75.062 75.8896 75.0642 75.8834C75.0664 75.8772 75.0685 75.871 75.0707 75.8647C75.0782 75.8435 75.0763 75.8488 75.0837 75.8275C75.0879 75.8157 75.0926 75.8021 75.0968 75.7903C75.11 75.7525 75.0966 75.7909 75.1098 75.753C75.112 75.7468 75.1142 75.7406 75.1163 75.7344C75.1185 75.7282 75.1207 75.722 75.1228 75.7158C75.1303 75.6945 75.1284 75.6999 75.1359 75.6786L73.9331 75.2576ZM71.1983 84.3628H55.5898V85.6372H71.1983V84.3628ZM56.191 85.2112C59.2877 76.3973 62.2254 68.2592 65.004 60.7968L63.8097 60.3522C61.028 67.8231 58.0877 75.9687 54.9887 84.7888L56.191 85.2112ZM65.004 60.7968C67.7829 53.3333 70.4823 46.2674 73.102 39.599L71.9159 39.133C69.2931 45.8092 66.591 52.8823 63.8097 60.3522L65.004 60.7968ZM73.0996 39.6051C75.7985 32.9372 78.4574 26.5875 81.0764 20.556L79.9075 20.0484C77.2839 26.0906 74.6209 32.4501 71.9183 39.1269L73.0996 39.6051ZM81.0764 20.556C83.695 14.5253 86.3929 8.57404 89.17 2.70228L88.0181 2.15743C85.235 8.04169 82.5314 14.0053 79.9075 20.0484L81.0764 20.556ZM88.5941 3.06701H102.773V1.7927H88.5941V3.06701ZM102.197 2.70228C104.974 8.57404 107.672 14.5253 110.29 20.556L111.459 20.0484C108.835 14.0053 106.132 8.04169 103.349 2.15743L102.197 2.70228ZM110.29 20.556C112.908 26.5854 115.527 32.933 118.146 39.599L119.332 39.133C116.708 32.4543 114.084 26.0927 111.459 20.0484L110.29 20.556ZM118.148 39.6051C120.846 46.2713 123.585 53.3352 126.363 60.7968L127.557 60.3522C124.775 52.8805 122.032 45.8054 119.329 39.1269L118.148 39.6051ZM126.365 60.8024C129.222 68.2627 132.199 76.3989 135.295 85.2112L136.497 84.7888C133.398 75.9671 130.417 67.8196 127.555 60.3466L126.365 60.8024ZM135.896 84.3628H119.692V85.6372H135.896V84.3628ZM94.801 18.1422C92.9704 22.3606 90.8626 27.491 88.478 33.5321L89.6633 33.9999C92.0446 27.9672 94.1468 22.8508 95.97 18.6494L94.801 18.1422ZM88.4754 33.5388C86.1701 39.5801 83.746 46.1372 81.203 53.21L82.4022 53.6411C84.9428 46.5749 87.3641 40.0256 89.6659 33.9932L88.4754 33.5388ZM81.8026 54.0627H108.969V52.7884H81.8026V54.0627ZM109.568 53.21C107.025 46.1359 104.56 39.5377 102.175 33.4155L100.988 33.8782C103.368 39.9886 105.829 46.5762 108.369 53.6411L109.568 53.21ZM102.175 33.4155C99.7904 27.2952 97.7222 22.2039 95.9706 18.1434L94.8005 18.6482C96.5439 22.6898 98.6062 27.7659 100.988 33.8782L102.175 33.4155ZM191.967 72.0128H192.604V71.3756H191.967V72.0128ZM191.967 85V85.6372H192.604V85H191.967ZM139.78 85H139.142V85.6372H139.78V85ZM139.78 2.42986V1.7927H139.142V2.42986H139.78ZM154.792 2.42986H155.43V1.7927H154.792V2.42986ZM154.792 72.0128H154.155V72.6499H154.792V72.0128ZM191.33 72.0128V85H192.604V72.0128H191.33ZM191.967 84.3628H139.78V85.6372H191.967V84.3628ZM140.417 85V2.42986H139.142V85H140.417ZM139.78 3.06701H154.792V1.7927H139.78V3.06701ZM154.155 2.42986V72.0128H155.43V2.42986H154.155ZM154.792 72.6499H191.967V71.3756H154.792V72.6499ZM196.873 85H196.236V85.6372H196.873V85ZM196.873 2.42986V1.7927H196.236V2.42986H196.873ZM249.895 2.42986H250.532V1.7927H249.895V2.42986ZM249.895 15.1788V15.8159H250.532V15.1788H249.895ZM211.886 15.1788V14.5416H211.249V15.1788H211.886ZM211.886 35.5532H211.249V36.1904H211.886V35.5532ZM245.724 35.5532H246.362V34.9161H245.724V35.5532ZM245.724 48.0639V48.701H246.362V48.0639H245.724ZM211.886 48.0639V47.4267H211.249V48.0639H211.886ZM211.886 72.2511H211.249V72.8882H211.886V72.2511ZM252.754 72.2511H253.391V71.6139H252.754V72.2511ZM252.754 85V85.6372H253.391V85H252.754ZM197.511 85V2.42986H196.236V85H197.511ZM196.873 3.06701H249.895V1.7927H196.873V3.06701ZM249.257 2.42986V15.1788H250.532V2.42986H249.257ZM249.895 14.5416H211.886V15.8159H249.895V14.5416ZM211.249 15.1788V35.5532H212.523V15.1788H211.249ZM211.886 36.1904H245.724V34.9161H211.886V36.1904ZM245.087 35.5532V48.0639H246.362V35.5532H245.087ZM245.724 47.4267H211.886V48.701H245.724V47.4267ZM211.249 48.0639V72.2511H212.523V48.0639H211.249ZM211.886 72.8882H252.754V71.6139H211.886V72.8882ZM252.117 72.2511V85H253.391V72.2511H252.117ZM252.754 84.3628H196.873V85.6372H252.754V84.3628Z" fill="#484848" mask="url(#path-1-outside-1_2004_35268)"/>
</svg>
