<svg width="72" height="72" viewBox="0 0 72 72" fill="none" xmlns="http://www.w3.org/2000/svg">
<g filter="url(#filter0_biii_1426_29182)">
<rect x="0.925781" y="0.835938" width="70.3295" height="70.3295" rx="35.1647" fill="url(#paint0_linear_1426_29182)"/>
<path d="M32.1638 57.059C30.9916 57.059 29.8781 56.473 29.1162 55.4376L26.7719 52.3118C26.7719 52.3314 26.6742 52.2727 26.6351 52.2727H25.9123C19.231 52.2727 15.0894 50.4559 15.0894 41.4498V33.6354C15.0894 25.4108 20.1101 23.2618 24.3299 22.8907C24.7987 22.8321 25.3458 22.8125 25.9123 22.8125H38.4153C45.4873 22.8125 49.2382 26.5634 49.2382 33.6354V41.4498C49.2382 42.0164 49.2187 42.5634 49.1405 43.0908C48.7889 47.252 46.6399 52.2727 38.4153 52.2727H37.6339L35.2114 55.4376C34.4495 56.473 33.3359 57.059 32.1638 57.059ZM25.9123 25.7429C25.463 25.7429 25.0332 25.7624 24.6229 25.8015C20.0906 26.1922 18.0197 28.6733 18.0197 33.6354V41.4498C18.0197 48.1507 20.0906 49.3423 25.9123 49.3423H26.6937C27.5728 49.3423 28.5692 49.8307 29.1162 50.534L31.4605 53.6793C31.8903 54.2654 32.4373 54.2654 32.8671 53.6793L35.2114 50.5536C35.7779 49.7917 36.6766 49.3423 37.6339 49.3423H38.4153C43.3774 49.3423 45.8585 47.252 46.2297 42.7978C46.2883 42.3289 46.3078 41.8992 46.3078 41.4498V33.6354C46.3078 28.1849 43.8658 25.7429 38.4153 25.7429H25.9123Z" fill="#FBFBFB"/>
<path d="M32.1643 40.2783C31.0703 40.2783 30.2107 39.3992 30.2107 38.3247C30.2107 37.2502 31.0898 36.3711 32.1643 36.3711C33.2388 36.3711 34.1179 37.2502 34.1179 38.3247C34.1179 39.3992 33.2583 40.2783 32.1643 40.2783Z" fill="#FBFBFB"/>
<path d="M38.4153 40.2783C37.3213 40.2783 36.4617 39.3992 36.4617 38.3247C36.4617 37.2502 37.3408 36.3711 38.4153 36.3711C39.4897 36.3711 40.3689 37.2502 40.3689 38.3247C40.3689 39.3992 39.4897 40.2783 38.4153 40.2783Z" fill="#FBFBFB"/>
<path d="M25.9316 40.2783C24.8376 40.2783 23.978 39.3992 23.978 38.3247C23.978 37.2502 24.8571 36.3711 25.9316 36.3711C27.0061 36.3711 27.8852 37.2502 27.8852 38.3247C27.8852 39.3992 27.0061 40.2783 25.9316 40.2783Z" fill="#FBFBFB"/>
<path d="M47.6952 44.3782C47.3045 44.3782 46.9138 44.2219 46.6403 43.9288C46.3277 43.6163 46.191 43.167 46.2496 42.7372C46.3082 42.3269 46.3277 41.8971 46.3277 41.4478V33.6334C46.3277 28.1829 43.8857 25.7409 38.4352 25.7409H25.9321C25.4828 25.7409 25.0531 25.7604 24.6428 25.7995C24.213 25.8581 23.7636 25.7018 23.4511 25.4087C23.1385 25.0962 22.9627 24.6664 23.0017 24.2366C23.3534 20.0169 25.5219 14.9961 33.7465 14.9961H46.2496C53.3216 14.9961 57.0724 18.747 57.0724 25.819V33.6334C57.0724 41.8581 52.0517 44.007 47.832 44.3782C47.7734 44.3782 47.7343 44.3782 47.6952 44.3782ZM26.1666 22.8105H38.4156C45.4876 22.8105 49.2386 26.5614 49.2386 33.6334V41.1938C52.5597 40.3733 54.1226 37.9313 54.1226 33.6334V25.819C54.1226 20.3685 51.6805 17.9265 46.23 17.9265H33.727C29.4291 17.9265 27.0066 19.4894 26.1666 22.8105Z" fill="#FBFBFB"/>
</g>
<defs>
<filter id="filter0_biii_1426_29182" x="-133.872" y="-133.962" width="339.926" height="339.924" filterUnits="userSpaceOnUse" color-interpolation-filters="sRGB">
<feFlood flood-opacity="0" result="BackgroundImageFix"/>
<feGaussianBlur in="BackgroundImageFix" stdDeviation="67.3991"/>
<feComposite in2="SourceAlpha" operator="in" result="effect1_backgroundBlur_1426_29182"/>
<feBlend mode="normal" in="SourceGraphic" in2="effect1_backgroundBlur_1426_29182" result="shape"/>
<feColorMatrix in="SourceAlpha" type="matrix" values="0 0 0 0 0 0 0 0 0 0 0 0 0 0 0 0 0 0 127 0" result="hardAlpha"/>
<feOffset dy="5.86079"/>
<feGaussianBlur stdDeviation="2.93039"/>
<feComposite in2="hardAlpha" operator="arithmetic" k2="-1" k3="1"/>
<feColorMatrix type="matrix" values="0 0 0 0 1 0 0 0 0 1 0 0 0 0 1 0 0 0 0.08 0"/>
<feBlend mode="normal" in2="shape" result="effect2_innerShadow_1426_29182"/>
<feColorMatrix in="SourceAlpha" type="matrix" values="0 0 0 0 0 0 0 0 0 0 0 0 0 0 0 0 0 0 127 0" result="hardAlpha"/>
<feOffset dy="-7.81438"/>
<feGaussianBlur stdDeviation="3.90719"/>
<feComposite in2="hardAlpha" operator="arithmetic" k2="-1" k3="1"/>
<feColorMatrix type="matrix" values="0 0 0 0 1 0 0 0 0 1 0 0 0 0 1 0 0 0 0.1 0"/>
<feBlend mode="normal" in2="effect2_innerShadow_1426_29182" result="effect3_innerShadow_1426_29182"/>
<feColorMatrix in="SourceAlpha" type="matrix" values="0 0 0 0 0 0 0 0 0 0 0 0 0 0 0 0 0 0 127 0" result="hardAlpha"/>
<feOffset dy="1.9536"/>
<feGaussianBlur stdDeviation="0.976798"/>
<feComposite in2="hardAlpha" operator="arithmetic" k2="-1" k3="1"/>
<feColorMatrix type="matrix" values="0 0 0 0 1 0 0 0 0 1 0 0 0 0 1 0 0 0 0.15 0"/>
<feBlend mode="normal" in2="effect3_innerShadow_1426_29182" result="effect4_innerShadow_1426_29182"/>
</filter>
<linearGradient id="paint0_linear_1426_29182" x1="36.0905" y1="0.835937" x2="36.0905" y2="71.1654" gradientUnits="userSpaceOnUse">
<stop stop-color="#067A4D"/>
<stop offset="1" stop-color="#30CBA4"/>
</linearGradient>
</defs>
</svg>
