<svg width="71" height="72" viewBox="0 0 71 72" fill="none" xmlns="http://www.w3.org/2000/svg">
<g filter="url(#filter0_biii_1426_29147)">
<rect x="0.213867" y="0.835938" width="70.3295" height="70.3295" rx="35.1647" fill="url(#paint0_linear_1426_29147)"/>
<path d="M20.6685 36.3325C20.2973 36.3325 19.9261 36.1958 19.6331 35.9028L17.2692 33.5389L14.9054 35.9028C14.3388 36.4693 13.4011 36.4693 12.8346 35.9028C12.268 35.3362 12.268 34.3985 12.8346 33.832L16.2338 30.4327C16.8004 29.8662 17.7381 29.8662 18.3047 30.4327L21.7039 33.832C22.2704 34.3985 22.2704 35.3362 21.7039 35.9028C21.4304 36.1958 21.0397 36.3325 20.6685 36.3325Z" fill="#FBFBFB"/>
<path d="M53.469 41.9928C53.0978 41.9928 52.7266 41.856 52.4336 41.5629L49.0343 38.1637C48.4677 37.5971 48.4677 36.6594 49.0343 36.0929C49.6008 35.5263 50.5386 35.5263 51.1051 36.0929L53.469 38.4568L55.8328 36.0929C56.3993 35.5263 57.3371 35.5263 57.9036 36.0929C58.4702 36.6594 58.4702 37.5971 57.9036 38.1637L54.5044 41.5629C54.2309 41.8364 53.8401 41.9928 53.469 41.9928Z" fill="#FBFBFB"/>
<path d="M53.4691 41.9945C52.6681 41.9945 52.0039 41.3302 52.0039 40.5293V35.9969C52.0039 26.8345 44.5412 19.3718 35.3788 19.3718C30.319 19.3718 25.5913 21.638 22.4069 25.6038C21.899 26.2289 20.9808 26.3266 20.3556 25.8382C19.7305 25.3302 19.6133 24.4121 20.1212 23.7869C23.8526 19.1178 29.4203 16.4609 35.3788 16.4609C46.1626 16.4609 54.9343 25.2326 54.9343 36.0165V40.5488C54.9343 41.3303 54.2896 41.9945 53.4691 41.9945Z" fill="#FBFBFB"/>
<path d="M35.3791 55.5531C24.5953 55.5531 15.8236 46.7814 15.8236 35.9976V31.4652C15.8236 30.6642 16.4878 30 17.2888 30C18.0898 30 18.754 30.6642 18.754 31.4652V35.9976C18.754 45.1599 26.2167 52.6227 35.3791 52.6227C40.4389 52.6227 45.1666 50.3565 48.351 46.3907C48.8589 45.7656 49.7771 45.6483 50.4023 46.1563C51.0274 46.6642 51.1446 47.5824 50.6367 48.2075C46.9053 52.8766 41.3376 55.5531 35.3791 55.5531Z" fill="#FBFBFB"/>
<path d="M38.0747 37.4633H29.5179C28.717 37.4633 28.0527 36.7991 28.0527 35.9981V29.1605C28.0527 28.3595 28.717 27.6953 29.5179 27.6953H38.0747C40.673 27.6953 42.9587 29.981 42.9587 32.5793C42.9587 35.2753 40.7511 37.4633 38.0747 37.4633ZM30.9831 34.5329H38.0552C39.1296 34.5329 40.0087 33.6538 40.0087 32.5793C40.0087 31.7002 39.1296 30.6257 38.0552 30.6257H30.9831V34.5329Z" fill="#FBFBFB"/>
<path d="M39.2859 44.2992H29.5179C28.717 44.2992 28.0527 43.635 28.0527 42.834V35.9964C28.0527 35.1955 28.717 34.5312 29.5179 34.5312H39.2859C42.2554 34.5312 44.6583 36.7193 44.6583 39.4152C44.6583 42.1112 42.2554 44.2992 39.2859 44.2992ZM30.9831 41.3688H39.2859C40.6339 41.3688 41.7279 40.4897 41.7279 39.4152C41.7279 38.3408 40.6339 37.4616 39.2859 37.4616H30.9831V41.3688Z" fill="#FBFBFB"/>
<path d="M34.9877 47.7203C34.1867 47.7203 33.5225 47.0561 33.5225 46.2551V42.8363C33.5225 42.0353 34.1867 41.3711 34.9877 41.3711C35.7886 41.3711 36.4529 42.0353 36.4529 42.8363V46.2551C36.4529 47.0561 35.7886 47.7203 34.9877 47.7203Z" fill="#FBFBFB"/>
<path d="M34.9877 30.6265C34.1867 30.6265 33.5225 29.9623 33.5225 29.1613V25.7425C33.5225 24.9416 34.1867 24.2773 34.9877 24.2773C35.7886 24.2773 36.4529 24.9416 36.4529 25.7425V29.1613C36.4529 29.9623 35.7886 30.6265 34.9877 30.6265Z" fill="#FBFBFB"/>
</g>
<defs>
<filter id="filter0_biii_1426_29147" x="-134.584" y="-133.962" width="339.926" height="339.924" filterUnits="userSpaceOnUse" color-interpolation-filters="sRGB">
<feFlood flood-opacity="0" result="BackgroundImageFix"/>
<feGaussianBlur in="BackgroundImageFix" stdDeviation="67.3991"/>
<feComposite in2="SourceAlpha" operator="in" result="effect1_backgroundBlur_1426_29147"/>
<feBlend mode="normal" in="SourceGraphic" in2="effect1_backgroundBlur_1426_29147" result="shape"/>
<feColorMatrix in="SourceAlpha" type="matrix" values="0 0 0 0 0 0 0 0 0 0 0 0 0 0 0 0 0 0 127 0" result="hardAlpha"/>
<feOffset dy="5.86079"/>
<feGaussianBlur stdDeviation="2.93039"/>
<feComposite in2="hardAlpha" operator="arithmetic" k2="-1" k3="1"/>
<feColorMatrix type="matrix" values="0 0 0 0 1 0 0 0 0 1 0 0 0 0 1 0 0 0 0.08 0"/>
<feBlend mode="normal" in2="shape" result="effect2_innerShadow_1426_29147"/>
<feColorMatrix in="SourceAlpha" type="matrix" values="0 0 0 0 0 0 0 0 0 0 0 0 0 0 0 0 0 0 127 0" result="hardAlpha"/>
<feOffset dy="-7.81438"/>
<feGaussianBlur stdDeviation="3.90719"/>
<feComposite in2="hardAlpha" operator="arithmetic" k2="-1" k3="1"/>
<feColorMatrix type="matrix" values="0 0 0 0 1 0 0 0 0 1 0 0 0 0 1 0 0 0 0.1 0"/>
<feBlend mode="normal" in2="effect2_innerShadow_1426_29147" result="effect3_innerShadow_1426_29147"/>
<feColorMatrix in="SourceAlpha" type="matrix" values="0 0 0 0 0 0 0 0 0 0 0 0 0 0 0 0 0 0 127 0" result="hardAlpha"/>
<feOffset dy="1.9536"/>
<feGaussianBlur stdDeviation="0.976798"/>
<feComposite in2="hardAlpha" operator="arithmetic" k2="-1" k3="1"/>
<feColorMatrix type="matrix" values="0 0 0 0 1 0 0 0 0 1 0 0 0 0 1 0 0 0 0.15 0"/>
<feBlend mode="normal" in2="effect3_innerShadow_1426_29147" result="effect4_innerShadow_1426_29147"/>
</filter>
<linearGradient id="paint0_linear_1426_29147" x1="35.3786" y1="0.835937" x2="35.3786" y2="71.1654" gradientUnits="userSpaceOnUse">
<stop stop-color="#76BAF8"/>
<stop offset="1" stop-color="#187BD4"/>
</linearGradient>
</defs>
</svg>
