<svg width="71" height="72" viewBox="0 0 71 72" fill="none" xmlns="http://www.w3.org/2000/svg">
<g filter="url(#filter0_biii_2601_53518)">
<rect y="0.835938" width="70.3295" height="70.3295" rx="35.1647" fill="url(#paint0_radial_2601_53518)"/>
<path fill-rule="evenodd" clip-rule="evenodd" d="M34.9991 23.0697C41.9709 23.0697 47.6228 28.5537 47.6228 35.3184C47.6228 42.0831 41.9709 47.5672 34.9991 47.5672C28.0272 47.5672 22.3753 42.0831 22.3753 35.3184C22.3753 28.5537 28.0272 23.0697 34.9991 23.0697ZM12.7825 35.3184C12.7825 34.1493 13.7593 33.201 14.9647 33.201C16.17 33.201 17.1468 34.1488 17.1468 35.3184C17.1468 36.488 16.17 37.4358 14.9647 37.4358C13.7593 37.4358 12.7825 36.488 12.7825 35.3184ZM19.2896 20.0756C18.4377 20.9022 18.4377 22.243 19.2896 23.0697C20.1415 23.8963 21.5234 23.8963 22.3753 23.0697C23.2273 22.243 23.2273 20.9022 22.3753 20.0756C21.5234 19.2489 20.1415 19.2489 19.2896 20.0756ZM34.9991 13.7617C36.204 13.7617 37.1812 14.7095 37.1812 15.8791C37.1812 17.0487 36.2045 17.9965 34.9991 17.9965C33.7937 17.9965 32.8169 17.0487 32.8169 15.8791C32.8169 14.7095 33.7937 13.7617 34.9991 13.7617ZM50.7085 20.0756C49.8566 19.2489 48.4747 19.2489 47.6228 20.0756C46.7708 20.9022 46.7708 22.243 47.6228 23.0697C48.4747 23.8963 49.8566 23.8963 50.7085 23.0697C51.5605 22.243 51.5605 20.9022 50.7085 20.0756ZM57.2157 35.3184C57.2157 36.4875 56.2389 37.4358 55.0335 37.4358C53.8281 37.4358 52.8513 36.488 52.8513 35.3184C52.8513 34.1488 53.8281 33.201 55.0335 33.201C56.2389 33.201 57.2157 34.1488 57.2157 35.3184ZM50.7085 50.5613C51.5605 49.7346 51.5605 48.3938 50.7085 47.5672C49.8566 46.7405 48.4747 46.7405 47.6228 47.5672C46.7708 48.3938 46.7708 49.7346 47.6228 50.5613C48.4747 51.3879 49.8566 51.3879 50.7085 50.5613ZM34.9991 56.8751C33.7941 56.8751 32.8169 55.9273 32.8169 54.7577C32.8169 53.5882 33.7937 52.6404 34.9991 52.6404C36.2045 52.6404 37.1812 53.5882 37.1812 54.7577C37.1812 55.9273 36.2045 56.8751 34.9991 56.8751ZM19.2896 50.5613C20.1415 51.3879 21.5234 51.3879 22.3753 50.5613C23.2273 49.7346 23.2273 48.3938 22.3753 47.5672C21.5234 46.7405 20.1415 46.7405 19.2896 47.5672C18.4377 48.3938 18.4377 49.7346 19.2896 50.5613ZM20.5283 34.7928C20.8278 34.7928 21.07 35.0283 21.07 35.3184C21.07 35.6085 20.8273 35.844 20.5283 35.844H18.1851C18.2452 35.4956 18.2452 35.1408 18.1851 34.7924L20.5283 34.7928ZM25.1499 25.0185L23.493 23.4108C23.2813 23.6982 23.0231 23.9491 22.7269 24.1541L24.3839 25.7618C24.5956 25.9672 24.9387 25.9672 25.1499 25.7618C25.3616 25.5564 25.3616 25.2235 25.1499 25.0185ZM35.5412 21.2779C35.5412 21.5685 35.2985 21.8035 34.9995 21.8035C34.7005 21.8035 34.4579 21.5681 34.4579 21.2779V19.0044C34.8169 19.0626 35.1826 19.0626 35.5417 19.0044L35.5412 21.2779ZM45.6147 25.7623L47.2717 24.1545C46.9755 23.9491 46.7169 23.6986 46.5056 23.4112L44.8487 25.019C44.637 25.2244 44.637 25.5573 44.8487 25.7623C45.0604 25.9672 45.4035 25.9677 45.6147 25.7623ZM49.4698 35.8449C49.1704 35.8449 48.9281 35.6094 48.9281 35.3193C48.9281 35.0292 49.1708 34.7937 49.4698 34.7937H51.813C51.7529 35.1422 51.7529 35.4969 51.813 35.8454H49.4698V35.8449ZM44.8482 45.6192L46.5052 47.2269C46.7169 46.9396 46.975 46.6886 47.2712 46.4837L45.6143 44.8759C45.4026 44.6705 45.0595 44.6705 44.8482 44.8759C44.6365 45.0813 44.6365 45.4143 44.8482 45.6192ZM34.4569 49.3598C34.4569 49.0692 34.6996 48.8342 34.9986 48.8342C35.2976 48.8342 35.5403 49.0697 35.5403 49.3598V51.6334C35.1812 51.5751 34.8155 51.5751 34.4565 51.6334L34.4569 49.3598ZM24.3834 44.8755L22.7264 46.4832C23.0226 46.6886 23.2813 46.9391 23.4925 47.2265L25.1494 45.6188C25.3611 45.4134 25.3611 45.0804 25.1494 44.8755C24.9377 44.6705 24.5946 44.6701 24.3834 44.8755ZM31.4693 39.6702V37.3456C31.4693 36.4675 32.2095 35.7493 33.1145 35.7493H36.8832C37.7882 35.7493 38.5284 36.4675 38.5284 37.3456V39.6702H41.6578V35.1039C40.6627 35.4796 39.5418 35.3002 38.726 34.6535C37.6422 35.5129 36.0824 35.5129 34.9991 34.6535C33.9152 35.5129 32.3555 35.5129 31.2721 34.6535C30.4563 35.3002 29.3359 35.4796 28.3403 35.1039V39.6702H31.4693ZM27.5442 42.78H42.4529V40.7218H27.5442V42.78ZM37.4441 39.6702V37.3456C37.4441 37.0459 37.1916 36.8009 36.8827 36.8009H33.114C32.8051 36.8009 32.5526 37.0459 32.5526 37.3456V39.6702H37.4441ZM42.4525 32.4377L40.6984 27.8573H29.2979L27.5438 32.4377C27.5438 33.4365 28.3784 34.2458 29.4072 34.2458C30.4361 34.2458 31.2707 33.4361 31.2707 32.4377C31.2707 33.4365 32.1053 34.2458 33.1342 34.2458C34.1631 34.2458 34.9977 33.4361 34.9977 32.4377C34.9977 33.4365 35.8322 34.2458 36.8611 34.2458C37.89 34.2458 38.7246 33.4361 38.7246 32.4377C38.7246 33.4365 39.5587 34.2458 40.5881 34.2458C41.6174 34.2458 42.4515 33.4361 42.4515 32.4377H42.4525Z" fill="#FBFBFB"/>
</g>
<defs>
<filter id="filter0_biii_2601_53518" x="-134.798" y="-133.962" width="339.926" height="339.924" filterUnits="userSpaceOnUse" color-interpolation-filters="sRGB">
<feFlood flood-opacity="0" result="BackgroundImageFix"/>
<feGaussianBlur in="BackgroundImageFix" stdDeviation="67.3991"/>
<feComposite in2="SourceAlpha" operator="in" result="effect1_backgroundBlur_2601_53518"/>
<feBlend mode="normal" in="SourceGraphic" in2="effect1_backgroundBlur_2601_53518" result="shape"/>
<feColorMatrix in="SourceAlpha" type="matrix" values="0 0 0 0 0 0 0 0 0 0 0 0 0 0 0 0 0 0 127 0" result="hardAlpha"/>
<feOffset dy="5.86079"/>
<feGaussianBlur stdDeviation="2.93039"/>
<feComposite in2="hardAlpha" operator="arithmetic" k2="-1" k3="1"/>
<feColorMatrix type="matrix" values="0 0 0 0 1 0 0 0 0 1 0 0 0 0 1 0 0 0 0.08 0"/>
<feBlend mode="normal" in2="shape" result="effect2_innerShadow_2601_53518"/>
<feColorMatrix in="SourceAlpha" type="matrix" values="0 0 0 0 0 0 0 0 0 0 0 0 0 0 0 0 0 0 127 0" result="hardAlpha"/>
<feOffset dy="-7.81438"/>
<feGaussianBlur stdDeviation="3.90719"/>
<feComposite in2="hardAlpha" operator="arithmetic" k2="-1" k3="1"/>
<feColorMatrix type="matrix" values="0 0 0 0 1 0 0 0 0 1 0 0 0 0 1 0 0 0 0.1 0"/>
<feBlend mode="normal" in2="effect2_innerShadow_2601_53518" result="effect3_innerShadow_2601_53518"/>
<feColorMatrix in="SourceAlpha" type="matrix" values="0 0 0 0 0 0 0 0 0 0 0 0 0 0 0 0 0 0 127 0" result="hardAlpha"/>
<feOffset dy="1.9536"/>
<feGaussianBlur stdDeviation="0.976798"/>
<feComposite in2="hardAlpha" operator="arithmetic" k2="-1" k3="1"/>
<feColorMatrix type="matrix" values="0 0 0 0 1 0 0 0 0 1 0 0 0 0 1 0 0 0 0.15 0"/>
<feBlend mode="normal" in2="effect3_innerShadow_2601_53518" result="effect4_innerShadow_2601_53518"/>
</filter>
<radialGradient id="paint0_radial_2601_53518" cx="0" cy="0" r="1" gradientUnits="userSpaceOnUse" gradientTransform="translate(14.652 0.835937) rotate(73.7398) scale(73.2599)">
<stop stop-color="#C759D9"/>
<stop offset="0.994792" stop-color="#F18BD2"/>
</radialGradient>
</defs>
</svg>
