<svg width="71" height="72" viewBox="0 0 71 72" fill="none" xmlns="http://www.w3.org/2000/svg">
<g filter="url(#filter0_biii_1426_29152)">
<rect x="0.669922" y="0.835938" width="70.3295" height="70.3295" rx="35.1647" fill="url(#paint0_linear_1426_29152)"/>
<path d="M41.1094 57.0058H30.56C20.9092 57.0058 16.8066 52.8837 16.8066 43.2525V34.4808C16.8066 33.6798 17.4709 33.0156 18.2718 33.0156C19.0728 33.0156 19.737 33.6798 19.737 34.4808V43.2525C19.737 51.2427 22.5697 54.0754 30.56 54.0754H41.0898C49.0801 54.0754 51.9128 51.2427 51.9128 43.2525V34.4808C51.9128 33.6798 52.577 33.0156 53.378 33.0156C54.1789 33.0156 54.8432 33.6798 54.8432 34.4808V43.2525C54.8627 52.8837 50.7406 57.0058 41.1094 57.0058Z" fill="#FBFBFB"/>
<path d="M35.8353 37.4664C33.6863 37.4664 31.7327 36.6263 30.3456 35.083C28.9586 33.5396 28.3139 31.5274 28.5288 29.3785L29.8377 16.3284C29.9159 15.5861 30.541 15 31.3029 15H40.4262C41.1881 15 41.8133 15.5665 41.8914 16.3284L43.2003 29.3785C43.4152 31.5274 42.7705 33.5396 41.3835 35.083C39.9378 36.6263 37.9842 37.4664 35.8353 37.4664ZM32.6118 17.9304L31.4397 29.6715C31.3029 30.9804 31.6936 32.2112 32.5141 33.1098C34.1747 34.9462 37.4958 34.9462 39.1564 33.1098C39.9769 32.1916 40.3676 30.9609 40.2308 29.6715L39.0587 17.9304H32.6118Z" fill="#FBFBFB"/>
<path d="M48.1621 37.4664C44.1963 37.4664 40.6603 34.2625 40.2501 30.3162L38.8825 16.6215C38.8435 16.2112 38.9802 15.801 39.2537 15.4884C39.5272 15.1758 39.9179 15 40.3477 15H46.3062C52.0498 15 54.7262 17.4029 55.5272 23.3028L56.0742 28.7338C56.3086 31.039 55.6053 33.2271 54.1011 34.8876C52.5968 36.5482 50.4869 37.4664 48.1621 37.4664ZM41.9692 17.9304L43.1805 30.0232C43.4344 32.4652 45.7006 34.536 48.1621 34.536C49.6469 34.536 50.9753 33.9694 51.9326 32.934C52.8703 31.8986 53.3001 30.5116 53.1633 29.0268L52.6163 23.6544C52.0107 19.2393 50.5846 17.9304 46.3062 17.9304H41.9692Z" fill="#FBFBFB"/>
<path d="M23.4104 37.4664C21.0856 37.4664 18.9757 36.5482 17.4715 34.8876C15.9672 33.2271 15.2639 31.039 15.4983 28.7338L16.0258 23.3614C16.8463 17.4029 19.5227 15 25.2663 15H31.2248C31.635 15 32.0258 15.1758 32.3188 15.4884C32.6118 15.801 32.729 16.2112 32.69 16.6215L31.3225 30.3162C30.9122 34.2625 27.3762 37.4664 23.4104 37.4664ZM25.2663 17.9304C20.9879 17.9304 19.5618 19.2198 18.9367 23.6935L18.4092 29.0268C18.2529 30.5116 18.7022 31.8986 19.64 32.934C20.5777 33.9694 21.9061 34.536 23.4104 34.536C25.8719 34.536 28.1576 32.4652 28.3921 30.0232L29.6033 17.9304H25.2663Z" fill="#FBFBFB"/>
<path d="M40.7185 57.0109H30.9505C30.1496 57.0109 29.4854 56.3467 29.4854 55.5457V50.6617C29.4854 46.5591 31.732 44.3125 35.8345 44.3125C39.9371 44.3125 42.1837 46.5591 42.1837 50.6617V55.5457C42.1837 56.3467 41.5195 57.0109 40.7185 57.0109ZM32.4157 54.0805H39.2533V50.6617C39.2533 48.2002 38.2961 47.2429 35.8345 47.2429C33.373 47.2429 32.4157 48.2002 32.4157 50.6617V54.0805Z" fill="#FBFBFB"/>
</g>
<defs>
<filter id="filter0_biii_1426_29152" x="-134.128" y="-133.962" width="339.926" height="339.924" filterUnits="userSpaceOnUse" color-interpolation-filters="sRGB">
<feFlood flood-opacity="0" result="BackgroundImageFix"/>
<feGaussianBlur in="BackgroundImageFix" stdDeviation="67.3991"/>
<feComposite in2="SourceAlpha" operator="in" result="effect1_backgroundBlur_1426_29152"/>
<feBlend mode="normal" in="SourceGraphic" in2="effect1_backgroundBlur_1426_29152" result="shape"/>
<feColorMatrix in="SourceAlpha" type="matrix" values="0 0 0 0 0 0 0 0 0 0 0 0 0 0 0 0 0 0 127 0" result="hardAlpha"/>
<feOffset dy="5.86079"/>
<feGaussianBlur stdDeviation="2.93039"/>
<feComposite in2="hardAlpha" operator="arithmetic" k2="-1" k3="1"/>
<feColorMatrix type="matrix" values="0 0 0 0 1 0 0 0 0 1 0 0 0 0 1 0 0 0 0.08 0"/>
<feBlend mode="normal" in2="shape" result="effect2_innerShadow_1426_29152"/>
<feColorMatrix in="SourceAlpha" type="matrix" values="0 0 0 0 0 0 0 0 0 0 0 0 0 0 0 0 0 0 127 0" result="hardAlpha"/>
<feOffset dy="-7.81438"/>
<feGaussianBlur stdDeviation="3.90719"/>
<feComposite in2="hardAlpha" operator="arithmetic" k2="-1" k3="1"/>
<feColorMatrix type="matrix" values="0 0 0 0 1 0 0 0 0 1 0 0 0 0 1 0 0 0 0.1 0"/>
<feBlend mode="normal" in2="effect2_innerShadow_1426_29152" result="effect3_innerShadow_1426_29152"/>
<feColorMatrix in="SourceAlpha" type="matrix" values="0 0 0 0 0 0 0 0 0 0 0 0 0 0 0 0 0 0 127 0" result="hardAlpha"/>
<feOffset dy="1.9536"/>
<feGaussianBlur stdDeviation="0.976798"/>
<feComposite in2="hardAlpha" operator="arithmetic" k2="-1" k3="1"/>
<feColorMatrix type="matrix" values="0 0 0 0 1 0 0 0 0 1 0 0 0 0 1 0 0 0 0.15 0"/>
<feBlend mode="normal" in2="effect3_innerShadow_1426_29152" result="effect4_innerShadow_1426_29152"/>
</filter>
<linearGradient id="paint0_linear_1426_29152" x1="32.255" y1="71.1654" x2="33.5869" y2="0.849202" gradientUnits="userSpaceOnUse">
<stop stop-color="#F19F00"/>
<stop offset="1" stop-color="#FFD56A"/>
</linearGradient>
</defs>
</svg>
