<svg width="38" height="48" viewBox="0 0 38 48" fill="none" xmlns="http://www.w3.org/2000/svg">
<path d="M25.1217 1.7627H13.2947V16.0678" stroke="#FEDE2B" stroke-width="2.72676"/>
<path d="M19.9822 19.9204V8.64862H30.7639V23.8411L19.9822 27.2716L7.24011 23.8411V8.64862" stroke="#FEDE2B" stroke-width="2.72676"/>
<path d="M4.37905 42.6295C3.10032 42.6295 2.13524 42.2837 1.48381 41.592C0.840423 40.9004 0.51873 39.9635 0.51873 38.7812C0.51873 37.9288 0.659471 37.1929 0.940952 36.5736C1.22243 35.9463 1.64868 35.4638 2.21968 35.126C2.79873 34.7882 3.53058 34.6193 4.41524 34.6193C4.87365 34.6193 5.28783 34.6515 5.65778 34.7158C6.03577 34.7721 6.38963 34.8566 6.71937 34.9692V36.1032C6.05989 35.8619 5.32804 35.7412 4.52381 35.7412C3.5346 35.7412 2.83894 36.0026 2.43683 36.5254C2.04275 37.0481 1.84571 37.8001 1.84571 38.7812C1.84571 39.6739 2.05482 40.3535 2.47302 40.82C2.89122 41.2864 3.53862 41.5197 4.41524 41.5197C5.10688 41.5197 5.66582 41.4392 6.09206 41.2784V39.107H4.14984V38.2505H7.21397V41.9901C6.96466 42.151 6.60677 42.2998 6.14032 42.4365C5.68191 42.5652 5.09482 42.6295 4.37905 42.6295ZM8.794 35.5965V34.5108H10.2296V35.5965H8.794ZM8.90257 42.5089V37.792H8.034L8.15464 36.7908H10.2175V42.5089H8.90257ZM13.5304 42.5089L11.2746 36.7908H12.6377L14.2422 41.2301L15.8466 36.7908H17.1977L14.9539 42.5089H13.5304ZM21.6265 42.6295C21.2083 42.6295 20.8464 42.5732 20.5408 42.4606C20.2352 42.348 19.9537 42.1751 19.6964 41.9419L19.624 42.5089H18.49V34.3781H19.805V37.1647C20.3036 36.835 20.9027 36.6701 21.6024 36.6701C22.4147 36.6701 23.0541 36.9034 23.5205 37.3698C23.995 37.8282 24.2323 38.5721 24.2323 39.6016C24.2323 40.639 23.999 41.403 23.5326 41.8936C23.0661 42.3842 22.4308 42.6295 21.6265 42.6295ZM21.2767 41.6403C21.8718 41.6403 22.29 41.4714 22.5313 41.1336C22.7806 40.7958 22.9053 40.2852 22.9053 39.6016C22.9053 38.8938 22.7726 38.3952 22.5072 38.1057C22.2418 37.8162 21.8236 37.6714 21.2526 37.6714C20.6574 37.6714 20.1749 37.8363 19.805 38.166V41.0371C20.1829 41.4392 20.6735 41.6403 21.2767 41.6403ZM28.2498 42.6295C27.2204 42.6295 26.4644 42.3721 25.9818 41.8574C25.5073 41.3427 25.2701 40.6069 25.2701 39.6498C25.2701 38.6928 25.5114 37.9569 25.9939 37.4422C26.4764 36.9275 27.2284 36.6701 28.2498 36.6701C29.2792 36.6701 30.0352 36.9275 30.5177 37.4422C31.0003 37.9569 31.2415 38.6928 31.2415 39.6498C31.2415 40.6069 31.0003 41.3427 30.5177 41.8574C30.0432 42.3721 29.2872 42.6295 28.2498 42.6295ZM28.2498 41.5197C28.853 41.5197 29.2792 41.3749 29.5285 41.0854C29.7859 40.7878 29.9145 40.3093 29.9145 39.6498C29.9145 38.9903 29.7859 38.5158 29.5285 38.2263C29.2792 37.9368 28.853 37.792 28.2498 37.792C27.6546 37.792 27.2284 37.9368 26.971 38.2263C26.7217 38.5158 26.5971 38.9903 26.5971 39.6498C26.5971 40.3093 26.7217 40.7878 26.971 41.0854C27.2284 41.3749 27.6546 41.5197 28.2498 41.5197ZM31.5809 42.5089L33.7644 39.6016L31.6653 36.7908H33.0768L34.4761 38.6968L35.8755 36.7908H37.2869L35.2 39.6016L37.3714 42.5089H35.9479L34.4761 40.5184L33.0044 42.5089H31.5809Z" fill="#FEDE2B"/>
</svg>
