<svg width="15" height="15" viewBox="0 0 15 15" fill="none" xmlns="http://www.w3.org/2000/svg">
<path d="M10.656 12.675C10.0435 13.2688 9.37474 13.175 8.73099 12.8937C8.04974 12.6062 7.42474 12.5937 6.70599 12.8937C5.80599 13.2812 5.33099 13.1688 4.79349 12.675C1.74349 9.53125 2.19349 4.74375 5.65599 4.56875C6.49974 4.6125 7.08724 5.03125 7.58099 5.06875C8.31849 4.91875 9.02474 4.4875 9.81224 4.54375C10.756 4.61875 11.4685 4.99375 11.9372 5.66875C9.98724 6.8375 10.4497 9.40625 12.2372 10.125C11.881 11.0625 11.4185 11.9938 10.6497 12.6813L10.656 12.675ZM7.51849 4.53125C7.42474 3.1375 8.55599 1.9875 9.85599 1.875C10.0372 3.4875 8.39349 4.6875 7.51849 4.53125Z" fill="#A7A9B7"/>
</svg>
