<svg width="69" height="49" viewBox="0 0 69 49" fill="none" xmlns="http://www.w3.org/2000/svg">
<path d="M39.7249 2H29.9854V13.7802" stroke="black" stroke-width="2.25927"/>
<path d="M35.493 16.9529V7.67065H44.3717V20.1816L35.493 23.0066L25 20.1816V7.67065" stroke="#020105" stroke-width="2.25927"/>
<path d="M12.3554 35.2206L10.7604 36.7994C9.751 35.7307 8.57429 35.1963 7.23026 35.1963C6.05895 35.1963 5.07656 35.5849 4.2831 36.3622C3.49503 37.1395 3.10099 38.0841 3.10099 39.196C3.10099 40.3457 3.51122 41.32 4.33168 42.1189C5.15213 42.9178 6.16421 43.3172 7.3679 43.3172C8.15057 43.3172 8.80909 43.1526 9.34347 42.8233C9.88324 42.494 10.3178 41.9786 10.647 41.2768H7.19787V39.1474H13.1893L13.2055 39.6494C13.2055 40.6912 12.9357 41.679 12.3959 42.6128C11.8561 43.5466 11.1571 44.2591 10.2989 44.7503C9.44063 45.2415 8.43395 45.4871 7.27884 45.4871C6.04276 45.4871 4.93892 45.2199 3.96733 44.6855C3.00114 44.1457 2.23466 43.3793 1.6679 42.3861C1.10653 41.3929 0.825852 40.3214 0.825852 39.1717C0.825852 37.5956 1.34673 36.2246 2.38849 35.0587C3.62457 33.6714 5.2331 32.9778 7.21406 32.9778C8.25043 32.9778 9.21932 33.1695 10.1207 33.5527C10.8818 33.8766 11.6267 34.4325 12.3554 35.2206ZM15.2864 45.1875V33.2774H17.1567C18.2416 33.2774 19.0351 33.3476 19.5371 33.4879C20.2496 33.6768 20.8163 34.0277 21.2374 34.5405C21.6584 35.0533 21.8689 35.6578 21.8689 36.3541C21.8689 36.8075 21.7717 37.2205 21.5774 37.5929C21.3885 37.9599 21.0781 38.3054 20.6463 38.6293C21.3696 38.9693 21.8986 39.3957 22.2332 39.9085C22.5679 40.4159 22.7352 41.0178 22.7352 41.7141C22.7352 42.3834 22.5625 42.9933 22.217 43.5439C21.8716 44.0945 21.4263 44.5074 20.8811 44.7827C20.3359 45.0526 19.583 45.1875 18.6222 45.1875H15.2864ZM17.5534 35.4392V37.9491H18.0473C18.5979 37.9491 19.0054 37.8331 19.2699 37.601C19.5398 37.3689 19.6747 37.0531 19.6747 36.6537C19.6747 36.2812 19.5479 35.9871 19.2942 35.7712C19.0405 35.5499 18.6545 35.4392 18.1364 35.4392H17.5534ZM17.5534 39.9733V43.0257H18.1202C19.0594 43.0257 19.6909 42.907 20.0148 42.6695C20.344 42.432 20.5087 42.0865 20.5087 41.6331C20.5087 41.1203 20.317 40.7155 19.9338 40.4186C19.5506 40.1217 18.9136 39.9733 18.023 39.9733H17.5534ZM35.795 34.8967L34.119 36.3784C33.5307 35.558 32.9315 35.1477 32.3216 35.1477C32.0247 35.1477 31.7818 35.2287 31.5929 35.3906C31.404 35.5472 31.3095 35.7253 31.3095 35.925C31.3095 36.1247 31.377 36.3136 31.5119 36.4918C31.6955 36.7293 32.2487 37.2393 33.1717 38.022C34.0354 38.7453 34.559 39.2014 34.7425 39.3903C35.2013 39.8545 35.5251 40.2999 35.7141 40.7263C35.9084 41.1473 36.0055 41.6088 36.0055 42.1108C36.0055 43.0878 35.6682 43.8947 34.9935 44.5317C34.3188 45.1686 33.4389 45.4871 32.354 45.4871C31.5065 45.4871 30.7671 45.2793 30.1355 44.8636C29.5094 44.448 28.9723 43.7949 28.5243 42.9043L30.427 41.7545C30.9992 42.8071 31.6577 43.3334 32.4026 43.3334C32.7912 43.3334 33.1178 43.22 33.3823 42.9933C33.6467 42.7666 33.779 42.5048 33.779 42.208C33.779 41.9381 33.6791 41.6682 33.4794 41.3983C33.2797 41.1284 32.8398 40.7155 32.1597 40.1595C30.8642 39.1016 30.0276 38.2865 29.6497 37.7143C29.2719 37.1368 29.083 36.5619 29.083 35.9898C29.083 35.1639 29.396 34.4568 30.0222 33.8685C30.6537 33.2747 31.431 32.9778 32.354 32.9778C32.9477 32.9778 33.5118 33.1155 34.0462 33.3908C34.5859 33.666 35.1689 34.168 35.795 34.8967ZM37.9487 32.9778H40.1429V37.269C40.5747 36.8966 41.0092 36.6186 41.4465 36.4351C41.8837 36.2462 42.3263 36.1517 42.7743 36.1517C43.6487 36.1517 44.3855 36.454 44.9847 37.0585C45.4975 37.5821 45.7538 38.3513 45.7538 39.366V45.1875H43.5759V41.3254C43.5759 40.3053 43.5273 39.6143 43.4301 39.2527C43.333 38.891 43.1656 38.6212 42.9281 38.443C42.696 38.2649 42.4073 38.1759 42.0618 38.1759C41.6138 38.1759 41.2278 38.3243 40.904 38.6212C40.5855 38.918 40.3642 39.3229 40.2401 39.8357C40.1753 40.1001 40.1429 40.7047 40.1429 41.6493V45.1875H37.9487V32.9778ZM52.0368 36.1517C52.8681 36.1517 53.648 36.3595 54.3767 36.7751C55.1108 37.1908 55.683 37.7548 56.0932 38.4673C56.5034 39.1798 56.7085 39.949 56.7085 40.7749C56.7085 41.6061 56.5007 42.3834 56.0851 43.1067C55.6749 43.83 55.1135 44.3967 54.401 44.807C53.6885 45.2118 52.9031 45.4142 52.0449 45.4142C50.7818 45.4142 49.7023 44.9662 48.8063 44.0702C47.9156 43.1687 47.4703 42.0757 47.4703 40.7911C47.4703 39.4146 47.975 38.2676 48.9844 37.35C49.8696 36.5511 50.8871 36.1517 52.0368 36.1517ZM52.0692 38.2325C51.3837 38.2325 50.8115 38.4727 50.3527 38.9531C49.8993 39.4281 49.6726 40.0381 49.6726 40.783C49.6726 41.5494 49.8966 42.1702 50.3446 42.6452C50.798 43.1202 51.3702 43.3577 52.0611 43.3577C52.752 43.3577 53.3269 43.1175 53.7857 42.6371C54.2445 42.1567 54.4739 41.5386 54.4739 40.783C54.4739 40.0273 54.2472 39.4146 53.7938 38.945C53.3457 38.47 52.7709 38.2325 52.0692 38.2325ZM60.7163 36.3784V37.35C61.1158 36.9506 61.5476 36.651 62.0118 36.4513C62.476 36.2516 62.9726 36.1517 63.5016 36.1517C64.6513 36.1517 65.6283 36.5862 66.4325 37.4553C67.2368 38.3243 67.6389 39.4389 67.6389 40.7991C67.6389 42.1108 67.2233 43.2092 66.3921 44.0945C65.5608 44.9743 64.5757 45.4142 63.4368 45.4142C62.9294 45.4142 62.4571 45.3251 62.0199 45.147C61.5827 44.9635 61.1482 44.6666 60.7163 44.2564V48.4099H58.5222V36.3784H60.7163ZM63.0401 38.192C62.3438 38.192 61.7662 38.4295 61.3074 38.9045C60.8486 39.3795 60.6192 40.0003 60.6192 40.7668C60.6192 41.5494 60.8486 42.1837 61.3074 42.6695C61.7662 43.1499 62.3438 43.3901 63.0401 43.3901C63.7148 43.3901 64.2815 43.1445 64.7404 42.6533C65.2046 42.1621 65.4367 41.5359 65.4367 40.7749C65.4367 40.0192 65.21 39.4011 64.7565 38.9207C64.3031 38.4349 63.731 38.192 63.0401 38.192Z" fill="#020105"/>
</svg>
