<svg width="30" height="30" viewBox="0 0 30 30" fill="none" xmlns="http://www.w3.org/2000/svg">
<g clip-path="url(#clip0_2004_35682)">
<path d="M29.068 20.2172C29.671 18.5922 30.001 16.8346 30.001 14.9998C30.001 13.165 29.671 11.4074 29.068 9.78244L15.001 8.47809L0.933965 9.78244C0.330977 11.4074 0.000976562 13.165 0.000976562 14.9998C0.000976562 16.8346 0.330977 18.5922 0.933965 20.2172L15.001 21.5215L29.068 20.2172Z" fill="#6DA544"/>
<path d="M29.0686 9.78139C26.9492 4.06937 21.4511 -0.00125122 15.0016 -0.00125122C8.55211 -0.00125122 3.05396 4.06937 0.93457 9.78139H29.0686Z" fill="#FFDA44"/>
<path d="M15.0016 29.9997C21.4511 29.9997 26.9492 25.9291 29.0686 20.2171H0.93457C3.05396 25.9291 8.55211 29.9997 15.0016 29.9997Z" fill="#D80027"/>
</g>
<defs>
<clipPath id="clip0_2004_35682">
<rect width="30" height="30" fill="white"/>
</clipPath>
</defs>
</svg>
