<svg width="18" height="18" viewBox="0 0 18 18" fill="none" xmlns="http://www.w3.org/2000/svg">
<path d="M13.5528 6.87001C14.7043 6.87001 15.6378 5.93653 15.6378 4.78501C15.6378 3.6335 14.7043 2.70001 13.5528 2.70001C12.4013 2.70001 11.4678 3.6335 11.4678 4.78501C11.4678 5.93653 12.4013 6.87001 13.5528 6.87001Z" stroke="black" stroke-width="1.125" stroke-miterlimit="10" stroke-linecap="round" stroke-linejoin="round"/>
<path d="M4.085 11.0326C5.23651 11.0326 6.17 10.0991 6.17 8.94761C6.17 7.7961 5.23651 6.86261 4.085 6.86261C2.93349 6.86261 2 7.7961 2 8.94761C2 10.0991 2.93349 11.0326 4.085 11.0326Z" stroke="black" stroke-width="1.125" stroke-miterlimit="10" stroke-linecap="round" stroke-linejoin="round"/>
<path d="M13.5528 15.2025C14.7043 15.2025 15.6378 14.269 15.6378 13.1175C15.6378 11.966 14.7043 11.0325 13.5528 11.0325C12.4013 11.0325 11.4678 11.966 11.4678 13.1175C11.4678 14.269 12.4013 15.2025 13.5528 15.2025Z" stroke="black" stroke-width="1.125" stroke-miterlimit="10" stroke-linecap="round" stroke-linejoin="round"/>
<path d="M11.7002 5.73755L6.6377 8.00255" stroke="black" stroke-width="1.125" stroke-miterlimit="10" stroke-linecap="round" stroke-linejoin="round"/>
<path d="M11.6998 12.165L6.69727 9.93753" stroke="black" stroke-width="1.125" stroke-miterlimit="10" stroke-linecap="round" stroke-linejoin="round"/>
</svg>
