<svg width="18" height="18" viewBox="0 0 18 18" fill="none" xmlns="http://www.w3.org/2000/svg">
<path d="M4.3575 13.3125H12.345C13.0875 13.3125 13.8 12.9975 14.3025 12.45C14.805 11.9025 15.06 11.1675 15 10.425L14.3775 2.955C14.355 2.7225 14.4375 2.4975 14.595 2.325C14.7525 2.1525 14.97 2.0625 15.2025 2.0625H16.5C16.8075 2.0625 17.0625 1.8075 17.0625 1.5C17.0625 1.1925 16.8075 0.9375 16.5 0.9375H15.195C14.6475 0.9375 14.13 1.17 13.7625 1.5675C13.56 1.7925 13.41 2.055 13.3275 2.3475H3.96C3.2025 2.3475 2.505 2.6475 1.995 3.1875C1.4925 3.735 1.2375 4.4475 1.2975 5.205L1.7025 10.83C1.785 12.2025 2.985 13.3125 4.3575 13.3125ZM13.29 3.465L13.875 10.515C13.9125 10.95 13.77 11.3625 13.4775 11.685C13.185 12.0075 12.78 12.18 12.345 12.18H4.3575C3.5775 12.18 2.8725 11.52 2.8125 10.74L2.40751 5.11501C2.37751 4.67251 2.52 4.25251 2.8125 3.94501C3.105 3.63001 3.51 3.45749 3.9525 3.45749H13.29V3.465Z" fill="#292D32"/>
<path d="M5.8125 17.0625C6.6375 17.0625 7.3125 16.3875 7.3125 15.5625C7.3125 14.7375 6.6375 14.0625 5.8125 14.0625C4.9875 14.0625 4.3125 14.7375 4.3125 15.5625C4.3125 16.3875 4.9875 17.0625 5.8125 17.0625ZM5.8125 15.1875C6.0225 15.1875 6.1875 15.3525 6.1875 15.5625C6.1875 15.7725 6.0225 15.9375 5.8125 15.9375C5.6025 15.9375 5.4375 15.7725 5.4375 15.5625C5.4375 15.3525 5.6025 15.1875 5.8125 15.1875Z" fill="#292D32"/>
<path d="M11.8125 17.0625C12.6375 17.0625 13.3125 16.3875 13.3125 15.5625C13.3125 14.7375 12.6375 14.0625 11.8125 14.0625C10.9875 14.0625 10.3125 14.7375 10.3125 15.5625C10.3125 16.3875 10.9875 17.0625 11.8125 17.0625ZM11.8125 15.1875C12.0225 15.1875 12.1875 15.3525 12.1875 15.5625C12.1875 15.7725 12.0225 15.9375 11.8125 15.9375C11.6025 15.9375 11.4375 15.7725 11.4375 15.5625C11.4375 15.3525 11.6025 15.1875 11.8125 15.1875Z" fill="#292D32"/>
<path d="M2.25 6.5625H11.25C11.5575 6.5625 11.8125 6.3075 11.8125 6C11.8125 5.6925 11.5575 5.4375 11.25 5.4375H2.25C1.9425 5.4375 1.6875 5.6925 1.6875 6C1.6875 6.3075 1.9425 6.5625 2.25 6.5625Z" fill="#292D32"/>
</svg>
