<svg width="81" height="81" viewBox="0 0 81 81" fill="none" xmlns="http://www.w3.org/2000/svg">
<path d="M63.6662 35.3971L59.8592 31.1851C58.9682 30.2131 57.6722 29.7271 56.3762 29.8081L50.5442 30.2131V26.4061C50.5442 26.0011 50.2202 25.7581 49.8962 25.7581H25.5962C25.1912 25.7581 24.9482 26.0821 24.9482 26.4061V29.4031H30.4562C31.9142 29.4031 33.1292 30.6181 33.1292 32.0761C33.1292 32.8861 32.7242 33.6151 32.1572 34.1011C33.4532 34.2631 34.5062 35.3971 34.5062 36.6931C34.5062 37.5031 34.1822 38.2321 33.6152 38.7181H33.8582C35.3162 38.7181 36.5312 39.9331 36.5312 41.3911C36.5312 42.8491 35.3162 44.0641 33.8582 44.0641H24.9482V49.4911C24.9482 50.4631 25.7582 51.2731 26.7302 51.2731H28.9172C28.9172 51.2731 28.9172 51.2731 28.9982 51.2731C29.3222 53.5411 31.2662 55.2421 33.6152 55.2421C35.9642 55.2421 37.9082 53.5411 38.2322 51.2731C38.2322 51.2731 38.2322 51.2731 38.3132 51.2731H49.9772C49.9772 51.2731 49.9772 51.2731 50.0582 51.2731C50.3822 53.5411 52.3262 55.2421 54.6752 55.2421C57.0242 55.2421 58.9682 53.5411 59.2922 51.2731C59.2922 51.2731 59.2922 51.2731 59.3732 51.2731H62.3702C63.7472 51.2731 64.9622 50.1391 64.9622 48.6811V38.2321C64.8002 37.1791 64.3952 36.2071 63.6662 35.3971ZM33.5342 52.5691C32.4002 52.5691 31.5092 51.6781 31.5092 50.5441C31.5092 49.4101 32.4002 48.5191 33.5342 48.5191C34.6682 48.5191 35.5592 49.4101 35.5592 50.5441C35.5592 51.6781 34.6682 52.5691 33.5342 52.5691ZM54.5942 52.5691C53.4602 52.5691 52.5692 51.6781 52.5692 50.5441C52.5692 49.4101 53.4602 48.5191 54.5942 48.5191C55.7282 48.5191 56.6192 49.4101 56.6192 50.5441C56.6192 51.6781 55.7282 52.5691 54.5942 52.5691ZM61.4792 40.9861H52.5692V33.3721L56.6192 33.0481H56.7002C56.9432 33.0481 57.1862 33.1291 57.3482 33.3721L61.1552 37.5841C61.3172 37.7461 61.3982 37.9891 61.3982 38.2321V40.9861H61.4792ZM17.4962 33.3721C16.7672 33.3721 16.2002 32.8051 16.2002 32.0761C16.2002 31.3471 16.7672 30.7801 17.4962 30.7801H30.4562C31.1852 30.7801 31.7522 31.3471 31.7522 32.0761C31.7522 32.8051 31.1852 33.3721 30.4562 33.3721H17.4962ZM18.9542 38.0701C18.2252 38.0701 17.6582 37.5031 17.6582 36.7741C17.6582 36.0451 18.2252 35.4781 18.9542 35.4781H31.9142C32.6432 35.4781 33.2102 36.0451 33.2102 36.7741C33.2102 37.5031 32.6432 38.0701 31.9142 38.0701H18.9542ZM33.8582 42.6871H20.8982C20.1692 42.6871 19.6022 42.1201 19.6022 41.3911C19.6022 40.6621 20.1692 40.0951 20.8982 40.0951H33.8582C34.5872 40.0951 35.1542 40.6621 35.1542 41.3911C35.1542 42.1201 34.5872 42.6871 33.8582 42.6871Z" fill="#020105"/>
</svg>
