<svg width="80" height="80" viewBox="0 0 80 80" fill="none" xmlns="http://www.w3.org/2000/svg">
<path d="M20.7998 42.4L28.0798 49.68C32.8798 54.48 40.7998 54.48 45.5998 49.68L49.4398 45.84C54.2398 41.04 54.2398 33.12 49.4398 28.32L42.1598 21.04L20.7998 42.4Z" fill="#020105"/>
<path d="M26.72 40.3201C25.76 41.2801 24.24 41.2801 23.28 40.3201L18.24 35.2801C17.28 34.3201 17.28 32.8001 18.24 31.8401C19.2 30.8801 20.72 30.8801 21.68 31.8401L26.72 36.8801C27.68 37.7601 27.68 39.3601 26.72 40.3201Z" fill="#020105"/>
<path d="M45.3599 21.2799C46.3199 22.2399 46.3199 23.7599 45.3599 24.7199L24.5599 45.5199C23.5999 46.4799 22.0799 46.4799 21.1199 45.5199C20.1599 44.5599 20.1599 43.0399 21.1199 42.0799L41.9199 21.2799C42.8799 20.3199 44.3999 20.3199 45.3599 21.2799Z" fill="#020105"/>
<path d="M61.7601 61.92C60.8001 62.88 59.2801 62.88 58.3201 61.92L46.3201 49.92C45.3601 48.96 45.3601 47.44 46.3201 46.48C47.2801 45.52 48.8001 45.52 49.7601 46.48L61.7601 58.48C62.7201 59.44 62.7201 60.96 61.7601 61.92Z" fill="#020105"/>
<path d="M40.0799 26.9599C39.1199 27.9199 37.5999 27.9199 36.6399 26.9599L31.5999 21.9199C30.6399 20.9599 30.6399 19.4399 31.5999 18.4799C32.5599 17.5199 34.0799 17.5199 35.0399 18.4799L40.0799 23.5199C41.0399 24.3999 41.0399 25.9999 40.0799 26.9599Z" fill="#020105"/>
</svg>
