<svg width="66" height="76" viewBox="0 0 66 76" fill="none" xmlns="http://www.w3.org/2000/svg">
<path d="M64.9198 36.24C62.0398 31.68 56.2798 22.4 53.3198 20.08C51.3198 18.48 46.6798 16.08 43.3198 14.4C42.7598 14.16 42.1198 14.24 41.7998 14.72C41.7198 14.88 41.5598 15.04 41.3998 15.2L36.5998 12.24C35.7998 11.76 34.8398 11.36 33.8798 11.28V8.87996C35.8798 8.39996 37.3198 6.63996 37.3198 4.55996C37.3198 2.07996 35.3198 0.0799561 32.8398 0.0799561C30.3598 0.0799561 28.3598 2.07996 28.3598 4.55996C28.3598 5.11996 28.8398 5.51996 29.3198 5.51996C29.7998 5.51996 30.2798 5.03996 30.2798 4.55996C30.5198 3.11996 31.6398 1.99996 32.9998 1.99996C34.3598 1.99996 35.4798 3.11996 35.4798 4.47996C35.4798 5.83996 34.3598 6.95996 32.9998 6.95996C32.4398 6.95996 32.0398 7.43996 32.0398 7.91996V11.2C31.0798 11.36 30.1998 11.68 29.3198 12.16L24.5998 15.12C24.5198 14.96 24.3598 14.88 24.2798 14.72C23.9598 14.24 23.2398 14.08 22.7598 14.32C21.5598 14.88 20.5998 15.36 20.3598 15.44C19.7198 15.76 11.1598 19.36 9.31982 22.4C7.39982 25.52 2.75982 34 0.999815 37.2C0.599815 38 0.759815 38.88 1.39982 39.44C3.15982 40.96 6.75982 43.68 9.87982 44.24C10.5998 44.4 11.3198 44.08 11.7198 43.52C13.2398 41.52 14.7598 40.08 14.7598 40.08C14.7598 40.08 16.0398 59.76 15.4798 72.32C15.3998 73.76 16.4398 74.96 17.8798 75.04C25.4798 75.68 37.6398 76.64 49.2398 75.2C50.5998 75.04 51.5598 73.84 51.4798 72.56C51.1598 62 50.7598 44.56 51.5598 40.16L54.1998 43.28C54.7598 44 55.7998 44.16 56.5198 43.68C58.5198 42.48 62.1998 40.32 64.3598 38.64C65.2398 38.08 65.3998 37.04 64.9198 36.24ZM30.3598 13.92C31.1598 13.44 32.0398 13.2 32.9998 13.2C33.8798 13.2 34.8398 13.44 35.6398 13.92L40.0398 16.64C38.1998 18 35.7198 18.8 33.0798 18.8C30.3598 18.8 27.8798 17.92 26.0398 16.56L30.3598 13.92Z" fill="#020105"/>
</svg>
