<svg width="58" height="58" viewBox="0 0 58 58" fill="none" xmlns="http://www.w3.org/2000/svg">
<path d="M31.035 27.376C30.9759 26.8934 30.8628 26.4451 30.6992 26.0582C30.3872 25.2741 29.9313 24.7387 29.5879 24.4168C29.2399 24.0944 28.9998 23.9731 28.9998 23.9731C28.9998 23.9731 29.1761 24.1761 29.407 24.5642C29.5212 24.7579 29.6419 25.0026 29.7631 25.2834C29.8785 25.5681 29.9765 25.897 30.0554 26.2554C30.1343 26.6145 30.1563 27.0118 30.1528 27.4247C30.147 27.521 30.1482 27.6486 30.1407 27.7228C30.1291 27.8377 30.1175 27.9543 30.1059 28.0714C30.0687 28.2912 30.0421 28.4768 29.9794 28.6984C29.8681 29.1247 29.6958 29.5446 29.4673 29.9396C29.3501 30.1356 29.2214 30.3259 29.0775 30.5039C28.9389 30.6762 28.7695 30.8595 28.628 30.9743C28.3676 31.1953 28.1884 31.4047 28.0022 31.639C27.8195 31.8681 27.6716 32.1181 27.5324 32.3686C27.2633 32.875 27.087 33.4179 26.9982 33.9503C26.9089 34.4816 26.8996 35.0117 26.9617 35.4809C26.9704 35.5888 26.9913 35.7106 27.015 35.833C27.0406 35.9519 27.0533 36.0743 27.0904 36.1833C27.1229 36.2923 27.1531 36.3996 27.185 36.5052C27.2233 36.6073 27.261 36.7082 27.2981 36.8068C27.6101 37.591 28.0666 38.1263 28.4094 38.447C28.7591 38.7684 28.9998 38.8896 28.9998 38.8896C28.9998 38.8896 28.8241 38.6854 28.5932 38.298C28.479 38.1031 28.3583 37.8595 28.2377 37.5788C28.1223 37.2946 28.0242 36.9646 27.9465 36.6067C27.9303 36.5162 27.9135 36.4246 27.8966 36.33C27.8874 36.2361 27.8775 36.1398 27.8676 36.0424C27.8543 35.9438 27.8578 35.851 27.8514 35.7535C27.8468 35.6596 27.8421 35.5621 27.8491 35.4444C27.8497 35.0175 27.9117 34.5924 28.0213 34.1643C28.1315 33.7374 28.3055 33.3181 28.5329 32.9225C28.6501 32.7277 28.7782 32.5374 28.9221 32.3594C29.0601 32.1859 29.2301 32.0027 29.3716 31.8872C29.6308 31.6674 29.8106 31.4569 29.9957 31.2231C30.1795 30.994 30.3263 30.7441 30.4655 30.4935C30.734 29.986 30.9115 29.4437 30.9996 28.9113C31.0472 28.6549 31.0692 28.3591 31.0756 28.1097C31.0733 27.9914 31.0704 27.8754 31.0681 27.7594C31.064 27.6039 31.0472 27.5036 31.035 27.376Z" fill="#020105"/>
<path d="M41.1495 27.376C41.0904 26.8934 40.9778 26.4451 40.8131 26.0577C40.5011 25.2741 40.0452 24.7387 39.703 24.4168C39.355 24.0944 39.1143 23.9731 39.1143 23.9731C39.1143 23.9731 39.29 24.1761 39.5215 24.5642C39.6357 24.7579 39.7564 25.0026 39.8776 25.2834C39.9924 25.5681 40.091 25.897 40.1699 26.2554C40.2488 26.6139 40.2708 27.0118 40.2673 27.4247C40.2615 27.521 40.2627 27.6486 40.2552 27.7228C40.243 27.8377 40.232 27.9543 40.2204 28.0714C40.1832 28.2912 40.1571 28.4768 40.0939 28.6984C39.982 29.1247 39.8097 29.5446 39.5812 29.9396C39.464 30.1345 39.3353 30.3259 39.192 30.5039C39.1207 30.5921 39.0464 30.6785 38.9693 30.7597C38.8968 30.8357 38.7999 30.9285 38.7489 30.9679C38.5958 31.0938 38.5099 31.1866 38.4021 31.3009C38.3 31.4099 38.206 31.523 38.1161 31.6384C37.9328 31.8675 37.7855 32.1175 37.6463 32.3681C37.3766 32.8744 37.2009 33.4173 37.1116 33.9497C37.0228 34.481 37.0135 35.01 37.075 35.4803C37.0849 35.5882 37.1058 35.71 37.1295 35.8324C37.1545 35.9513 37.1672 36.0737 37.2044 36.1827C37.2368 36.2918 37.2682 36.3991 37.2989 36.5046C37.3372 36.6067 37.3755 36.7076 37.4126 36.8062C37.724 37.5904 38.1805 38.1257 38.5239 38.4465C38.8719 38.7695 39.1131 38.8907 39.1131 38.8907C39.1131 38.8907 38.9368 38.6866 38.7066 38.2991C38.5923 38.1043 38.4711 37.8607 38.3504 37.5799C38.2356 37.2957 38.1376 36.9657 38.0593 36.6079C38.0436 36.5174 38.0262 36.4257 38.0094 36.3312C37.9995 36.2372 37.9908 36.141 37.981 36.0435C37.9671 35.9438 37.9711 35.8521 37.9647 35.7547C37.9595 35.6607 37.9549 35.5633 37.9618 35.4455C37.9636 35.0187 38.0245 34.5935 38.1353 34.1655C38.2449 33.7386 38.4189 33.3193 38.6457 32.9237C38.7634 32.7288 38.8916 32.5386 39.0354 32.3605C39.1062 32.2712 39.1804 32.1848 39.2587 32.1036C39.3295 32.0276 39.4275 31.9348 39.4774 31.8954C39.6293 31.7683 39.7163 31.6755 39.8242 31.5624C39.9263 31.4528 40.0197 31.3403 40.1096 31.2249C40.2929 30.9958 40.4396 30.7458 40.58 30.4952C40.8473 29.9877 41.0254 29.4454 41.1136 28.913C41.1611 28.6566 41.1832 28.3608 41.1895 28.1114C41.1872 27.9931 41.1843 27.8765 41.182 27.7611C41.1785 27.6039 41.1623 27.5036 41.1495 27.376Z" fill="#020105"/>
<path d="M20.9204 27.376C20.8606 26.8934 20.7481 26.4457 20.584 26.0582C20.2719 25.2741 19.816 24.7387 19.4738 24.4168C19.1247 24.0944 18.8846 23.9731 18.8846 23.9731C18.8846 23.9731 19.0609 24.1761 19.2917 24.5642C19.4066 24.7579 19.5272 25.0026 19.6478 25.2839C19.7633 25.5681 19.8613 25.897 19.9402 26.2554C20.0185 26.6145 20.0411 27.0123 20.0376 27.4247C20.0318 27.521 20.033 27.6486 20.0254 27.7228C20.0138 27.8377 20.0022 27.9543 19.9906 28.0714C19.9535 28.2912 19.9268 28.4768 19.8642 28.6984C19.7528 29.1247 19.5806 29.5446 19.352 29.9396C19.2349 30.1356 19.1061 30.3259 18.9623 30.5039C18.8237 30.6762 18.6543 30.8595 18.5128 30.9743C18.2529 31.1953 18.0731 31.4047 17.8875 31.639C17.7043 31.8681 17.5569 32.1181 17.4177 32.3686C17.148 32.875 16.9717 33.4179 16.883 33.9515C16.7937 34.4816 16.7844 35.0117 16.8464 35.4809C16.8557 35.5888 16.876 35.7106 16.9004 35.833C16.9253 35.9519 16.9381 36.0754 16.9752 36.1833C17.0077 36.2923 17.0384 36.3996 17.0697 36.5052C17.108 36.6073 17.1457 36.7082 17.1828 36.8068C17.4949 37.591 17.9513 38.1263 18.2941 38.447C18.6433 38.7701 18.8834 38.8913 18.8834 38.8913C18.8834 38.8913 18.7077 38.6872 18.4768 38.2997C18.3626 38.1048 18.2419 37.8612 18.1213 37.5805C18.007 37.2963 17.9084 36.9663 17.8301 36.6084C17.8145 36.518 17.7971 36.4263 17.7802 36.3318C17.771 36.2378 17.7611 36.1415 17.7512 36.0441C17.7385 35.9455 17.7414 35.8527 17.7356 35.7553C17.7304 35.6613 17.7257 35.5639 17.7327 35.4461C17.7333 35.0192 17.7953 34.5941 17.9049 34.1661C18.0157 33.7403 18.1891 33.3198 18.4165 32.9243C18.5342 32.7294 18.6618 32.5392 18.8057 32.3611C18.9437 32.1877 19.1137 32.0044 19.2552 31.8896C19.515 31.6686 19.6948 31.4592 19.8798 31.2249C20.0625 30.9958 20.2099 30.7458 20.3491 30.4952C20.6176 29.9877 20.7951 29.4454 20.8832 28.913C20.9308 28.6566 20.9534 28.3614 20.9592 28.1114C20.9569 27.9931 20.9546 27.8771 20.9523 27.7611C20.9488 27.6039 20.9325 27.5036 20.9204 27.376Z" fill="#020105"/>
<path d="M40.5568 13.7204H37.6719V10.2926C36.5629 10.8308 35.7944 11.9653 35.7944 13.2784C35.7944 15.1095 37.2839 16.5984 39.1155 16.5984C40.9448 16.5984 42.4349 15.1095 42.4349 13.2784C42.4349 11.9653 41.6664 10.8308 40.5574 10.2926L40.5568 13.7204Z" fill="#020105"/>
<path d="M19.4439 10.0095C19.4242 10.0061 19.4045 10.0037 19.3842 10.0008C19.3175 9.98982 19.2496 9.97996 19.1829 9.97416C19.0953 9.96604 19.0066 9.9614 18.9173 9.96082C18.8947 9.96082 18.872 9.96082 18.8494 9.96082C18.7613 9.96198 18.6731 9.96662 18.5867 9.97416C18.52 9.97996 18.4533 9.98982 18.3848 10.0008C18.3657 10.0037 18.3454 10.0061 18.3257 10.0095V12.837H19.4433L19.4439 10.0095Z" fill="#020105"/>
<path d="M39.6735 10.0095C39.6538 10.0066 39.6346 10.0037 39.6155 10.0008C39.5471 9.98982 39.4792 9.97996 39.4113 9.97416C39.3249 9.96662 39.2362 9.96198 39.1474 9.96082C39.1248 9.96082 39.1028 9.96082 39.0796 9.96082C38.9914 9.96198 38.9038 9.96662 38.8163 9.97416C38.7496 9.97996 38.6823 9.98982 38.6144 10.0008C38.5947 10.0037 38.575 10.0061 38.5547 10.0095V12.837H39.6729L39.6735 10.0095Z" fill="#020105"/>
<path d="M20.3277 13.7204H17.4428V10.2926C16.3338 10.8314 15.5659 11.9653 15.5659 13.2784C15.5659 15.1095 17.0542 16.5984 18.8853 16.5984C20.7163 16.5984 22.2058 15.1095 22.2058 13.2784C22.2058 11.9653 21.4373 10.8308 20.3283 10.2926L20.3277 13.7204Z" fill="#020105"/>
<path d="M54.6672 12.0855C54.6672 8.94307 52.1198 6.39513 48.9779 6.39513H48.2013C48.0546 5.16611 47.0065 4.20911 45.7392 4.20911H32.4897C31.2212 4.20911 30.1743 5.16611 30.0282 6.39513H27.9727C27.8265 5.16611 26.7784 4.20911 25.5111 4.20911H12.2605C10.992 4.20911 9.9451 5.16611 9.79894 6.39513H9.02232C5.88046 6.39513 3.33252 8.94307 3.33252 12.0855V48.2473H4.47106V53.7904H53.5286V48.2473H54.6672V12.0855ZM32.4897 5.09303H45.7398C46.4677 5.09303 47.0831 5.58197 47.2751 6.24839H30.9544C31.1464 5.58197 31.7618 5.09303 32.4897 5.09303ZM12.2605 5.09303H25.5111C26.2385 5.09303 26.8533 5.58197 27.0458 6.24839H10.7252C10.9172 5.58197 11.5326 5.09303 12.2605 5.09303ZM43.3183 13.2791C43.3183 15.5974 41.4327 17.4824 39.1156 17.4824C36.7974 17.4824 34.9112 15.5974 34.9112 13.2791C34.9112 11.4684 36.0642 9.92675 37.6726 9.33573V9.32007L37.853 9.27019C37.8808 9.26149 37.9098 9.25511 37.9376 9.24699L37.998 9.23017C38.0194 9.22437 38.0403 9.22031 38.0623 9.21451C38.1818 9.18377 38.303 9.15767 38.4266 9.13679C38.4869 9.12693 38.5455 9.11707 38.6064 9.10953C38.6586 9.10315 38.7114 9.09735 38.7636 9.09387C38.8656 9.08459 38.9671 9.07879 39.0692 9.07763C39.0849 9.07763 39.1 9.07531 39.1162 9.07531C39.1313 9.07531 39.1469 9.07763 39.162 9.07763C39.2641 9.07879 39.3662 9.08459 39.4671 9.09387C39.5205 9.09793 39.5732 9.10315 39.6254 9.10953C39.6852 9.11707 39.7432 9.12693 39.8029 9.13679C39.9288 9.15767 40.0529 9.18435 40.1753 9.21625C40.1938 9.22147 40.2141 9.22553 40.2339 9.23017L40.2866 9.24525C40.318 9.25395 40.3493 9.26091 40.3794 9.27019L40.5581 9.31949V9.33515C42.1653 9.92617 43.3183 11.4684 43.3183 13.2791ZM23.0891 13.2791C23.0891 15.5974 21.2029 17.4824 18.8852 17.4824C16.5675 17.4824 14.6825 15.5974 14.6825 13.2791C14.6825 11.4684 15.8344 9.92675 17.4433 9.33573V9.32007L17.6237 9.27019C17.651 9.26149 17.6788 9.25569 17.7055 9.24699L17.7676 9.23017C17.7896 9.22379 17.8116 9.21973 17.8343 9.21393C17.9526 9.18377 18.0726 9.15767 18.1956 9.13737C18.2559 9.12693 18.3157 9.11707 18.376 9.10953C18.4282 9.10315 18.481 9.09735 18.5332 9.09387C18.6352 9.08459 18.7373 9.07879 18.8382 9.07821C18.8545 9.07763 18.8696 9.07531 18.8852 9.07531C18.9009 9.07531 18.916 9.07763 18.931 9.07763C19.0337 9.07879 19.1358 9.08459 19.2373 9.09387C19.2906 9.09793 19.3428 9.10315 19.3956 9.10953C19.4548 9.11707 19.5134 9.12693 19.5737 9.13679C19.6984 9.15767 19.8213 9.18435 19.9426 9.21567C19.9629 9.22089 19.9826 9.22437 20.0029 9.23017L20.0586 9.24583C20.0887 9.25395 20.1189 9.26091 20.1485 9.27019L20.3277 9.31949V9.33515C21.9354 9.92617 23.0891 11.4684 23.0891 13.2791ZM8.41564 19.4822H49.584V43.38H8.41564V19.4822ZM52.6459 52.9071H5.3544V48.2479H52.6453L52.6459 52.9071Z" fill="#020105"/>
</svg>
