<svg width="40" height="48" viewBox="0 0 40 48" fill="none" xmlns="http://www.w3.org/2000/svg">
<path d="M33.7748 43.3126C30.9373 46.175 26.9248 47.625 21.8623 47.625C16.8123 47.625 12.7998 46.175 9.96228 43.3126C4.22483 37.5125 4.31234 27.325 4.36231 22.4375V21.375C4.36231 16.375 16.6248 16.375 21.8623 16.375C27.0998 16.375 39.3623 16.375 39.3623 21.375L39.3748 22.4375C39.4124 27.325 39.5123 37.5125 33.7748 43.3126Z" fill="#020105"/>
<path d="M26.5872 13.875H17.1372L17.8872 10.125H25.8372L26.5872 13.875Z" fill="#020105"/>
<path d="M23.1123 2.625H20.6123V7.625H23.1123V2.625Z" fill="#020105"/>
<path d="M18.1121 3.875V6.375H15.4746C15.5621 5.97499 15.6121 5.55003 15.6121 5.125C15.6121 4.70004 15.5621 4.27501 15.4746 3.875H18.1121Z" fill="#020105"/>
<path d="M13.1123 5.12498C13.1123 7.75003 10.3123 9.87505 6.8623 9.87505C3.4248 9.87505 0.612305 7.75003 0.612305 5.12498C0.612305 2.50002 3.4248 0.375 6.8623 0.375C10.3123 0.375 13.1123 2.50002 13.1123 5.12498Z" fill="#020105"/>
</svg>
