<svg width="73" height="33" viewBox="0 0 73 33" fill="none" xmlns="http://www.w3.org/2000/svg">
<path fill-rule="evenodd" clip-rule="evenodd" d="M69.6819 2.51056C69.6819 2.51056 71.3005 3.20426 71.5317 5.51657C71.5317 6.44149 71.9942 10.8349 72.2254 14.7658C64.5948 11.0661 57.4266 18.2343 61.3576 25.6337L26.9041 27.2523C18.811 27.2523 10.2555 27.2523 4.70591 24.2463C3.78098 24.0151 3.08729 24.0151 2.62483 23.7838C3.54975 27.4835 3.54975 27.7148 13.2615 29.5646C16.0362 30.0271 19.2735 30.4895 22.5107 30.7208C30.835 30.7208 67.6008 31.1832 69.4507 31.1832C70.3756 31.1832 70.1443 27.7148 70.1443 25.1712L62.2825 25.6337C58.1203 19.1592 65.9822 11.5286 72.2254 15.922C72.4567 20.0841 72.4567 23.7838 71.5317 24.2463C71.5317 28.4085 72.2254 32.5706 69.4507 32.5706C69.4507 32.5706 30.835 32.3394 22.5107 32.1082C17.4236 31.8769 5.63083 29.7958 3.08729 28.1772C1.6999 27.2523 -0.612409 20.7778 1.6999 17.0781C8.40561 25.4025 49.3335 11.5286 56.9642 8.75381C60.4326 8.29134 66.2134 6.21026 66.2134 4.82288C66.2134 3.20426 66.4446 1.35441 69.6819 2.51056ZM2.16237 16.3844C2.3936 15.922 2.85606 15.6907 3.54975 15.2283C5.86207 14.0721 7.94315 14.5346 11.4116 13.6097C15.3425 12.6847 22.2795 9.4475 26.4416 7.82888C28.0603 9.67873 29.4477 12.2223 30.6038 11.0661C31.76 10.1412 29.9101 8.75381 28.5227 6.90396L30.835 5.97903C32.2224 7.82888 33.6098 10.1412 34.766 9.21627C35.9221 8.29134 34.0723 6.90396 32.6849 5.05411L34.9972 4.12918C36.6158 6.21026 38.0032 8.52258 39.1594 7.59765C40.3155 6.67273 38.4657 5.05411 36.847 3.20426L39.1594 2.27933C40.778 4.36041 41.9341 6.67273 43.0903 5.7478C44.2464 4.82288 42.6278 3.20426 41.2404 1.58564C47.9461 -1.42037 46.5588 2.51056 54.4206 8.75381H54.6519C43.5528 12.6847 7.94315 24.2463 2.16237 16.6157V16.3844Z" fill="#020105"/>
</svg>
