<svg width="61" height="61" viewBox="0 0 61 61" fill="none" xmlns="http://www.w3.org/2000/svg">
<path d="M53.0461 18.2185L51.6475 20.4785L53.9075 21.8771L55.3061 19.6171L53.0461 18.2185Z" fill="#020105"/>
<path d="M44.2748 25.53L42.876 27.7904L45.1364 29.1893L46.5353 26.9288L44.2748 25.53Z" fill="#020105"/>
<path d="M49.2453 24.3602L47.8467 26.6202L50.1067 28.0188L51.5053 25.7588L49.2453 24.3602Z" fill="#020105"/>
<path d="M48.0749 19.3893L46.6763 21.6493L48.9367 23.0481L50.3353 20.7881L48.0749 19.3893Z" fill="#020105"/>
<path d="M46.175 22.4596L44.7764 24.7196L47.0368 26.1185L48.4354 23.8584L46.175 22.4596Z" fill="#020105"/>
<path d="M51.1462 21.2899L49.7476 23.5499L52.0076 24.9485L53.4062 22.6885L51.1462 21.2899Z" fill="#020105"/>
<path d="M40.7192 17.5501C40.744 17.7007 40.7669 17.8528 40.7869 18.0048L42.7951 19.2472L44.1939 16.9873L41.9335 15.5881L40.7192 17.5501Z" fill="#020105"/>
<path d="M40.445 16.1829L41.1231 15.0868L39.9141 14.3386C40.1193 14.941 40.2963 15.5558 40.445 16.1829Z" fill="#020105"/>
<path d="M49.9753 16.3181L48.5767 18.5781L50.8367 19.9767L52.2353 17.7167L49.9753 16.3181Z" fill="#020105"/>
<path d="M45.0041 17.489L43.6055 19.749L45.8659 21.1479L47.2645 18.8878L45.0041 17.489Z" fill="#020105"/>
<path d="M46.9045 14.4179L45.5059 16.678L47.7663 18.0768L49.1649 15.8168L46.9045 14.4179Z" fill="#020105"/>
<path d="M43.1182 10.9541L43.5247 11.2057L43.8702 10.6467C43.6181 10.7406 43.3669 10.8416 43.1182 10.9541Z" fill="#020105"/>
<path d="M47.3451 27.4304L45.9463 29.6908L48.2063 31.0894L49.6052 28.829L47.3451 27.4304Z" fill="#020105"/>
<path d="M41.564 28.0994L39.9628 27.1086C39.4897 28.537 38.8549 29.9066 38.0708 31.1909C38.4033 31.496 38.7588 31.7751 39.134 32.0258L41.564 28.0994Z" fill="#020105"/>
<path d="M39.936 18.846C39.682 16.3368 38.929 13.9036 37.7214 11.6895L36.2998 16.3031L39.936 18.846Z" fill="#020105"/>
<path d="M43.8337 12.5173L42.4351 14.7773L44.6955 16.1762L46.0941 13.9162L43.8337 12.5173Z" fill="#020105"/>
<path d="M48.792 32.5728L48.5156 32.4017L48.2773 32.783C48.4502 32.7172 48.6217 32.6472 48.792 32.5728Z" fill="#020105"/>
<path d="M40.25 26.1678L42.0652 27.2916L43.4625 25.0288L41.2036 23.6301L40.627 24.5618C40.524 25.1032 40.3968 25.6374 40.25 26.1678Z" fill="#020105"/>
<path d="M43.1037 20.5595L41.7051 22.8196L43.9655 24.2184L45.3641 21.9584L43.1037 20.5595Z" fill="#020105"/>
<path d="M40.9842 20.7829C40.9842 21.1241 40.9756 21.464 40.9584 21.8027C40.9556 21.8504 40.9503 21.9018 40.9475 21.9514C40.9413 22.0581 40.9317 22.1644 40.9241 22.2707L42.2933 20.058L40.916 19.2054C40.957 19.7268 40.9842 20.2515 40.9842 20.7829Z" fill="#020105"/>
<path d="M14.8447 19.0517L17.036 26.5014H24.9011L27.0924 19.0517L20.9686 14.2404L14.8447 19.0517Z" fill="#020105"/>
<path d="M39.9324 22.7266C39.9605 22.4521 39.98 22.1748 39.9958 21.8969C39.9986 21.8493 40.0039 21.8016 40.0062 21.754C40.0228 21.4324 40.031 21.1087 40.031 20.7827C40.031 20.5421 40.0215 20.3038 40.0129 20.065L35.6567 17.015L28.0245 19.2606L25.7847 26.8856L29.7849 32.2202H36.208C38.2877 29.4625 39.5745 26.189 39.9295 22.7533C39.9305 22.7442 39.9319 22.7366 39.9324 22.7266Z" fill="#020105"/>
<path d="M40.2833 36.4818L40.4463 36.3912C38.8153 35.9178 37.3237 35.0555 36.0996 33.8783C35.8772 34.1325 35.6492 34.382 35.4157 34.627C35.4328 34.6786 35.4405 34.7328 35.4386 34.7871C35.3715 36.4264 35.2142 38.0608 34.9673 39.6828C36.6794 38.5193 38.4541 37.4507 40.2833 36.4818Z" fill="#020105"/>
<path d="M25.6632 2.30686C22.5826 1.52483 19.3555 1.52483 16.2749 2.30686L20.9686 5.4374L25.6632 2.30686Z" fill="#020105"/>
<path d="M16.1555 26.8827L13.9133 19.2577L6.28063 17.0178L1.92437 20.0678C1.91579 20.3061 1.90626 20.5444 1.90626 20.7827C1.90195 24.9096 3.24419 28.9253 5.72924 32.2202H12.1524L16.1555 26.8827Z" fill="#020105"/>
<path d="M4.21849 11.6895C3.01084 13.9036 2.2579 16.3368 2.00391 18.846L5.6377 16.3031L4.21849 11.6895Z" fill="#020105"/>
<path d="M6.50049 33.1735C8.40902 35.4029 10.8044 37.1638 13.5017 38.3203L12.0315 33.1735H6.50049Z" fill="#020105"/>
<path d="M21.4453 13.4028L27.7417 18.3524L35.3624 16.1126L37.0618 10.5845C34.6821 6.83905 31.0753 4.03649 26.8581 2.65588L21.4453 6.26441V13.4028Z" fill="#020105"/>
<path d="M39.7803 13.1348L41.625 14.2762L43.0238 12.0139L42.125 11.4578C41.2862 11.9322 40.5003 12.4944 39.7803 13.1348Z" fill="#020105"/>
<path d="M14.1956 18.3524L20.492 13.4028V6.26441L15.0792 2.65588C10.8619 4.03649 7.25519 6.83905 4.87549 10.5845L6.57634 16.1088L14.1956 18.3524Z" fill="#020105"/>
<path d="M53.8199 9.26046L53.7332 9.22185C53.7156 9.21391 53.6984 9.205 53.6817 9.19517C49.224 6.51307 43.215 7.41235 38.6462 11.4083C38.8232 11.7403 38.9903 12.0784 39.1475 12.4224C43.3022 8.74577 48.7574 7.9256 52.9126 10.4247C58.2777 13.7449 59.4977 21.5176 55.6376 27.7554C52.9826 32.0444 48.5415 34.503 44.2725 34.5035C42.4307 34.5153 40.6198 34.0305 39.0303 33.1C39.0118 33.0917 38.9939 33.0823 38.9765 33.0719L38.925 33.039L38.8535 32.9966C38.8369 32.986 38.821 32.9744 38.8058 32.9618C38.3614 32.6761 37.9408 32.3548 37.5482 32.0011C37.2832 32.3914 37.0011 32.7717 36.7066 33.1448C38.1127 34.5047 39.8942 35.4119 41.8211 35.7492C41.9168 35.7678 42.0045 35.8153 42.0724 35.8854C42.1403 35.9554 42.185 36.0446 42.2006 36.1409C42.2162 36.2372 42.2019 36.3359 42.1596 36.4238C42.1173 36.5117 42.049 36.5844 41.964 36.6323C41.569 36.8553 41.1601 37.0831 40.7459 37.3143C38.192 38.7387 35.0153 40.511 34.3943 41.4932L34.3867 41.5056C34.3197 41.6131 34.2128 41.6895 34.0894 41.7181C33.9661 41.7467 33.8365 41.7251 33.729 41.6581C33.6216 41.5911 33.5452 41.4842 33.5166 41.3609C33.488 41.2376 33.5095 41.1079 33.5765 41.0005L33.5842 40.9886C34.0884 40.1732 34.3142 37.4429 34.432 35.5901C33.8791 36.0929 33.2987 36.5646 32.6935 37.0031C32.6115 39.565 31.9257 42.0715 30.6919 44.3183L32.6663 45.5397C35.3727 41.4923 39.4092 39.7257 43.6749 37.8561C47.9406 35.9866 52.3631 34.0531 55.6366 29.6154C55.6785 29.5573 56.3734 28.5598 56.5278 28.3091C60.8121 21.3947 59.594 12.8575 53.8199 9.26046Z" fill="#020105"/>
<path d="M25.0197 27.4547H16.9182L12.915 32.7922L14.6178 38.7492C16.6568 39.4742 18.8049 39.8449 20.9689 39.8453C21.2946 39.8453 21.6183 39.8371 21.9402 39.8206C21.9878 39.8206 22.0355 39.8129 22.0831 39.8101C22.361 39.7943 22.6383 39.7748 22.9128 39.7467C22.9219 39.7467 22.9305 39.7467 22.9395 39.7438C24.4342 39.5887 25.905 39.2561 27.321 38.7531L29.0229 32.7922L25.0197 27.4547Z" fill="#020105"/>
<path d="M32.5372 46.6425L29.7703 44.9355C29.7061 44.8941 29.6533 44.8374 29.6163 44.7706L29.5587 44.7349L22.0366 56.8872L25.3206 58.9193L32.8427 46.7669L32.7474 46.7078C32.6731 46.7032 32.601 46.6808 32.5372 46.6425Z" fill="#020105"/>
<path d="M35.4372 33.1735H29.9062L28.436 38.3203C31.1333 37.1638 33.5287 35.4029 35.4372 33.1735Z" fill="#020105"/>
<path d="M56.8865 18.8766L56.6182 19.3093L56.9279 19.4999C56.9194 19.2907 56.906 19.0825 56.8865 18.8766Z" fill="#020105"/>
<path d="M56.1867 24.408L54.2185 23.1895L52.8198 25.4498L55.0711 26.8433C55.518 26.068 55.8915 25.2528 56.1867 24.408Z" fill="#020105"/>
<path d="M54.5665 27.6534L52.3152 26.2604L50.917 28.5202L52.8785 29.7345C53.5059 29.0959 54.0711 28.399 54.5665 27.6534Z" fill="#020105"/>
<path d="M46.8863 33.2238L47.705 31.9004L45.4452 30.5012L43.5732 33.526C44.6866 33.6001 45.8047 33.4981 46.8863 33.2238Z" fill="#020105"/>
<path d="M45.25 10.2287L44.3354 11.7061L46.5958 13.1048L48.5287 9.9814C47.4296 9.88755 46.3226 9.97106 45.25 10.2287Z" fill="#020105"/>
<path d="M52.1624 30.4118L50.4158 29.3309L49.0171 31.5913L49.8006 32.0774C50.6462 31.61 51.4382 31.0514 52.1624 30.4118Z" fill="#020105"/>
<path d="M56.9243 20.6189L56.1165 20.119L54.7178 22.3789L56.4725 23.4659C56.7256 22.536 56.877 21.5815 56.9243 20.6189Z" fill="#020105"/>
<path d="M52.9132 11.5707L50.4771 15.5076L52.7369 16.9063L54.8619 13.475C54.3123 12.7454 53.6553 12.1033 52.9132 11.5707Z" fill="#020105"/>
<path d="M44.6343 29.9999L42.374 28.6012L39.9492 32.519C40.7618 32.9388 41.6328 33.2342 42.5331 33.3954L44.6343 29.9999Z" fill="#020105"/>
<path d="M47.4062 13.6076L49.6666 15.0064L52.1033 11.0695C51.3054 10.6319 50.446 10.3175 49.5541 10.1368L47.4062 13.6076Z" fill="#020105"/>
<path d="M53.5474 17.4083L55.8077 18.807L56.6588 17.4317C56.4218 16.3433 56.0124 15.2998 55.446 14.3407L53.5474 17.4083Z" fill="#020105"/>
</svg>
