<svg width="24" height="24" viewBox="0 0 24 24" fill="none" xmlns="http://www.w3.org/2000/svg">
<path d="M11.9998 13.3008C11.8698 13.3008 11.7398 13.2709 11.6198 13.2009L2.78985 8.09088C2.42985 7.88088 2.30983 7.42085 2.51983 7.06085C2.72983 6.70085 3.17983 6.58083 3.54983 6.79083L11.9998 11.6808L20.3998 6.82086C20.7598 6.61086 21.2198 6.74088 21.4298 7.09088C21.6398 7.45088 21.5098 7.91085 21.1598 8.12085L12.3899 13.2009C12.2599 13.2609 12.1298 13.3008 11.9998 13.3008Z" fill="#020105"/>
<path d="M12 22.3591C11.59 22.3591 11.25 22.0191 11.25 21.6091V12.5391C11.25 12.1291 11.59 11.7891 12 11.7891C12.41 11.7891 12.75 12.1291 12.75 12.5391V21.6091C12.75 22.0191 12.41 22.3591 12 22.3591Z" fill="#020105"/>
<path d="M11.9999 22.7483C11.0899 22.7483 10.2199 22.5383 9.55988 22.1683L4.21988 19.2083C2.76988 18.4083 1.62988 16.4783 1.62988 14.8183V9.15826C1.62988 7.49826 2.76988 5.5783 4.21988 4.7683L9.55988 1.80828C10.9199 1.04828 13.0599 1.04828 14.4299 1.80828L19.7699 4.7683C21.2199 5.5683 22.3599 7.49826 22.3599 9.15826V12.8183C22.3599 13.2283 22.0199 13.5683 21.6099 13.5683C21.1999 13.5683 20.8599 13.2283 20.8599 12.8183V9.15826C20.8599 8.05826 20.0099 6.61831 19.0499 6.08831L13.7099 3.12829C12.7999 2.61829 11.2099 2.61829 10.2999 3.12829L4.95987 6.08831C3.98987 6.62831 3.14987 8.05826 3.14987 9.15826V14.8183C3.14987 15.9183 3.99987 17.3583 4.95987 17.8883L10.2999 20.8483C11.1799 21.3383 12.8399 21.3383 13.7099 20.8483C14.0699 20.6483 14.5299 20.7783 14.7299 21.1383C14.9299 21.4983 14.7999 21.9583 14.4399 22.1583C13.7799 22.5383 12.9099 22.7483 11.9999 22.7483Z" fill="#020105"/>
<path d="M19.2 22.15C17.02 22.15 15.25 20.38 15.25 18.2C15.25 16.02 17.02 14.25 19.2 14.25C21.38 14.25 23.15 16.02 23.15 18.2C23.15 20.38 21.38 22.15 19.2 22.15ZM19.2 15.75C17.85 15.75 16.75 16.85 16.75 18.2C16.75 19.55 17.85 20.65 19.2 20.65C20.55 20.65 21.65 19.55 21.65 18.2C21.65 16.85 20.55 15.75 19.2 15.75Z" fill="#020105"/>
<path d="M22.9999 22.7514C22.8099 22.7514 22.6199 22.6815 22.4699 22.5315L21.4699 21.5315C21.1799 21.2415 21.1799 20.7614 21.4699 20.4714C21.7599 20.1814 22.2399 20.1814 22.5299 20.4714L23.5299 21.4714C23.8199 21.7614 23.8199 22.2415 23.5299 22.5315C23.3799 22.6815 23.1899 22.7514 22.9999 22.7514Z" fill="#020105"/>
</svg>
